<?xml version="1.0" encoding="UTF-8"?><svg id="a" xmlns="http://www.w3.org/2000/svg" xmlns:xlink="http://www.w3.org/1999/xlink" viewBox="0 0 1920 1080"><defs><style>.f{fill:#fff;}.g{fill:#e52942;}.h{fill:#fbd213;}.i{clip-path:url(#c);}.j{fill:#706f6f;}.k{fill:none;}.l{fill:#f9f4e1;}.m{fill:#d0d0d0;}</style><clipPath id="d"><path class="k" d="M164.67,189.9c-2,0-3.9-.7-5.5-2.1-1.8-1.6-3.6-3.1-5.3-4.6-7.9-6.6-13.7-11.4-8.7-21.3,3.3-6.6,7.9-10.2,13.6-10.6,3.8-.3,7.5,1,10.4,3.6,3,2.7,4.9,6.6,5.1,10.7l-.8,15.1c.2,3.6-1.8,6.8-5.1,8.4-1.3,.6-2.5,.8-3.7,.8h0Zm-5-37.6h-.9c-5.3,.4-9.6,3.8-12.7,10-4.6,9.2,.6,13.5,8.4,20.1,1.7,1.4,3.5,2.9,5.3,4.6,2.2,2,5.3,2.5,8.1,1.1,2.9-1.4,4.6-4.2,4.5-7.4h0l.8-15.1c-.2-3.8-1.9-7.5-4.7-10-2.5-2.1-5.6-3.3-8.8-3.3h0Z"/></clipPath></defs><g id="b"><rect class="m" x="218.8" y="-.4" width="2" height="1080.4"/><polygon class="m" points="1920 907.7 1920 909.7 212 904.5 202.5 904.5 198.4 904.4 174.5 904.4 174.5 904.4 164 904.3 0 904 0 902 168.9 902.3 179.4 902.4 179.4 902.4 197.6 902.4 202 902.5 211.5 902.5 1920 907.7"/><rect class="m" y="721.9" width="1914.7" height="2"/><rect class="m" x="1513.8" y="472.9" width="2" height="609.7"/><path class="m" d="M1513.8,447.8l-.1-440.8h2l.1,442.1h0c-1.1,0-2-.6-2-1.3h0Z"/><rect class="m" x="1698.9" width="2" height="1080"/><rect class="m" x="1883.7" width="2" height="1080"/><rect class="m" x="958.9" y="-428.61" width="2" height="1920.04" transform="translate(422.14 1487.76) rotate(-89.62)"/><rect class="m" x="965.75" y="-602.99" width="2" height="1906.41" transform="translate(613.84 1315.98) rotate(-89.84)"/><rect class="m" x="588.8" y="9.1" width="2" height="516"/><rect class="m" x="773.2" y="-2.6" width="2" height="1089.6"/><polygon class="m" points="962.2 -.1 957.9 904.7 957.9 906.7 957.1 1074.8 957.1 1076.8 957 1087 955 1087 955.1 1076.7 955.1 1074.7 955.9 906.7 955.9 904.7 960.2 -.1 962.2 -.1"/><polygon class="m" points="1146.4 0 1142.2 905.3 1142.1 907.3 1141.3 1075.3 1141.3 1077.3 1141.3 1087 1139.3 1087 1139.3 1077.3 1139.3 1075.3 1140.1 907.3 1140.2 905.3 1144.4 0 1146.4 0"/><polygon class="m" points="1330.7 0 1326.4 905.8 1326.4 907.8 1325.6 1075.9 1325.6 1077.9 1325.6 1087 1323.6 1087 1323.6 1077.8 1323.6 1075.8 1324.4 907.8 1324.4 905.8 1328.7 0 1330.7 0"/><rect class="m" x="403.8" y="-.4" width="2" height="951.3"/><rect class="m" x="32.2" width="2" height="1080"/><rect class="m" x="403.8" y="971.5" width="2" height="115.5"/><rect class="m" x="588.9" y="525.1" width="2" height="561.9"/><polygon class="m" points="1920 166.9 1920 168.9 220.8 163.6 218.8 163.6 0 163.1 0 161.1 218.8 161.6 220.8 161.6 1920 166.9"/></g><g id="c"><g><path class="h" d="M140.02,435.93c.75,18.67-3.4,37.21-11.98,53.71-8.36,16.06-20.85,30.12-37.27,40.42-16.3,10.39-34.44,15.72-52.5,16.46-13.01,.54-25.97-1.38-38.29-5.44l-1.91-10.53c12.6,5.03,26.14,7.34,39.76,6.79,16.45-.65,33.05-5.5,47.89-15.01s26.44-22.29,34.03-36.99c7.83-15.04,11.66-32,11-49.06-.44-11.91-3.1-23.73-8.1-35.02-.32-.65-.53-1.23-.85-1.88-1.7-3.76-3.79-7.44-5.97-11.01l7.74-4.96c2.98,4.64,5.47,9.37,7.58,14.27,.32,.65,.53,1.23,.85,1.88,4.89,11.82,7.52,24.04,8.03,36.35h0Z"/><path class="l" d="M122.64,401.28c-.32-.65-.53-1.23-.85-1.88-1.7-3.76-3.79-7.44-5.97-11.01l-26.52,16.82-4.46,2.84-36.1,22.83c1.72,2.74,2.57,5.73,2.69,8.66,.16,3.12-.6,6.21-2.04,8.91-1.34,2.68-3.46,5-6.2,6.72s-5.73,2.57-8.66,2.69c-3.12,.16-6.21-.6-8.89-1.94-2.68-1.34-5-3.46-6.72-6.2l-31.89,20.23,.77,4.23,28.8-18.25c.81-.55,1.85-.44,2.68,.22h0c.73,.68,.93,1.76,.47,2.56l-25.81,49.21,4.12,22.63c12.6,5.03,26.14,7.34,39.76,6.79,16.45-.65,33.05-5.5,47.89-15.01,14.84-9.51,26.44-22.29,34.03-36.99,7.83-15.04,11.66-32,11-49.06-.42-11.82-3.1-23.73-8.1-35.02h0Zm-89.25,123.46c.17,4.85-4.02,8.66-8.77,8.2-7.46-.78-14.77-2.4-21.82-4.87-4.56-1.61-6.74-6.9-4.47-11.18l28.43-54.37c.45-.89,1.49-1.29,2.33-1.14h0c.96,.23,1.61,1.03,1.69,2.03l2.62,61.32h0Zm38.69,.38c-6.86,3.08-14.06,5.4-21.34,6.73-4.72,.86-9.21-2.59-9.48-7.42l-2.52-61.34c.02-1.02,.58-1.83,1.55-2.11h0c.97-.28,1.94,.05,2.5,.87l32.91,51.85c2.58,4.11,.81,9.51-3.61,11.43Zm37.35-30.48c-4.38,6.08-9.48,11.58-15.2,16.49-3.7,3.11-9.32,2.41-11.9-1.7l-32.91-51.85c-.55-.81-.46-1.95,.24-2.58h0c.68-.73,1.76-.93,2.56-.47l54.38,28.53c4.36,2.16,5.65,7.61,2.82,11.58h0Zm17.01-45.07c-.78,7.46-2.38,14.87-4.86,21.92-1.61,4.56-6.9,6.74-11.18,4.47l-54.38-28.53c-.89-.45-1.37-1.38-1.14-2.33h0c.23-.96,1.03-1.61,2.03-1.69l61.34-2.52c4.83-.27,8.62,3.82,8.18,8.68h0Zm-8.52-16.64l-61.34,2.52c-1,.08-1.83-.58-2.21-1.53h0c-.28-.97,.05-1.94,.87-2.5l39.73-25.22h0l4.46-2.84h0l7.66-4.85c.18-.13,.46-.29,.64-.42s.47-.19,.65-.32c.47-.19,.97-.28,1.46-.37l1.28-.23c.1-.02,.3-.05,.41,.03,.1-.02,.2-.04,.31,.04,.41,.03,.82,.05,1.15,.2,.1-.02,.21,.06,.31,.04,.43,.13,.74,.17,1.07,.31,.21,.06,.43,.13,.56,.3,.12,.08,.33,.14,.45,.22,.12,.08,.23,.16,.33,.14l.35,.24c.47,.32,.95,.74,1.35,1.28,.02,.1,.12,.08,.13,.18,.12,.08,.13,.18,.25,.26,.12,.08,.13,.18,.15,.28,.27,.36,.42,.64,.59,1.01l.02,.1c3.08,6.86,5.3,14.08,6.75,21.44,.89,4.92-2.56,9.41-7.39,9.68h0Z"/><path class="h" d="M19.68,458.83l-25.73,49.1-6.14-33.75,28.8-18.25c.81-.55,1.85-.44,2.68,.22h0c.64,.7,.83,1.78,.38,2.67h0Z"/><path class="h" d="M30.78,463.42l2.52,61.34c.17,4.85-4.02,8.66-8.77,8.2-7.46-.78-14.77-2.4-21.82-4.87-4.56-1.61-6.74-6.9-4.47-11.18l28.43-54.37c.45-.89,1.49-1.29,2.33-1.14h0c1.06,.21,1.81,.99,1.79,2.01h0Z"/><path class="h" d="M42.79,461.84l32.91,51.85c2.58,4.11,.91,9.49-3.5,11.51-6.86,3.08-14.06,5.4-21.34,6.73-4.72,.86-9.21-2.59-9.38-7.44l-2.52-61.34c.02-1.02,.58-1.83,1.55-2.11h0c.73-.44,1.73,0,2.28,.8h0Z"/><path class="h" d="M109.44,494.65c-4.38,6.08-9.48,11.58-15.2,16.49-3.7,3.11-9.32,2.41-11.9-1.7l-32.91-51.85c-.55-.81-.46-1.95,.24-2.58h0c.68-.73,1.76-.93,2.56-.47l54.38,28.53c4.36,2.16,5.55,7.63,2.82,11.58h0Z"/><path class="h" d="M126.45,449.58c-.78,7.46-2.38,14.87-4.86,21.92-1.61,4.56-6.9,6.74-11.18,4.47l-54.37-28.43c-.89-.45-1.37-1.38-1.14-2.33h0c.23-.96,1.03-1.61,2.03-1.69l61.34-2.52c4.81-.37,8.62,3.82,8.17,8.58h0Z"/><path class="h" d="M118.61,402.01c3.08,6.86,5.3,14.08,6.73,21.34,.86,4.72-2.59,9.21-7.42,9.48l-61.34,2.52c-1,.08-1.83-.58-2.21-1.53h0c-.28-.97,.05-1.94,.87-2.5l51.85-32.91c4.22-2.5,9.61-.83,11.53,3.59h0Z"/><path class="h" d="M48.65,430.9c1.72,2.74,2.57,5.73,2.69,8.66,.16,3.12-.6,6.21-2.04,8.91-1.34,2.68-3.46,5-6.2,6.72s-5.73,2.57-8.66,2.69c-3.12,.16-6.21-.6-8.89-1.94-2.68-1.34-5-3.46-6.72-6.2l29.81-18.84h0Z"/></g></g><g><g><path class="f" d="M172.87,180.8l.8-15.1c-.4-8-7-14.4-14.9-13.8-4.6,.3-9.4,2.9-13.2,10.3-5.8,11.6,3.5,15.9,13.9,25.3,5.2,4.7,13.7,.5,13.4-6.7h0Z"/><path d="M164.67,189.9c-2,0-3.9-.7-5.5-2.1-1.8-1.6-3.6-3.1-5.3-4.6-7.9-6.6-13.7-11.4-8.7-21.3,3.3-6.6,7.9-10.2,13.6-10.6,3.8-.3,7.5,1,10.4,3.6,3,2.7,4.9,6.6,5.1,10.7l-.8,15.1c.2,3.6-1.8,6.8-5.1,8.4-1.3,.6-2.5,.8-3.7,.8h0Zm-5-37.6h-.9c-5.3,.4-9.6,3.8-12.7,10-4.6,9.2,.6,13.5,8.4,20.1,1.7,1.4,3.5,2.9,5.3,4.6,2.2,2,5.3,2.5,8.1,1.1,2.9-1.4,4.6-4.2,4.5-7.4h0l.8-15.1c-.2-3.8-1.9-7.5-4.7-10-2.5-2.1-5.6-3.3-8.8-3.3h0Z"/><g class="i"><rect class="j" x="66.38" y="166.69" width="136.6" height="2" transform="translate(-2.13 1.73) rotate(-.73)"/></g></g><g><rect class="f" x="-5.12" y="104.71" width="119.31" height="99.11" transform="translate(-29.07 13.62) rotate(-11.26)"/><path d="M5.27,215L-14.23,116.8l118-23.5,19.5,98.2c-.1,.1-118,23.5-118,23.5ZM-13.13,117.7L5.97,213.9l116-23.1-19.2-96.2L-13.13,117.7h0Z"/></g><g><rect class="f" x="8.08" y="202.23" width="119.31" height="36.8" transform="translate(-41.78 17.47) rotate(-11.26)"/><path d="M12.37,250.9l-7.4-37.1,118-23.5,7.4,37.1L12.37,250.9h0Zm-6.2-36.3l7,35.1,116-23.1-7-35.1L6.17,214.6Z"/></g><g><rect class="f" x="54.61" y="-8.18" width="119.3" height="119.3" transform="translate(19.9 133.94) rotate(-65.4)"/><path d="M143.87,131.1L34.47,81.1,84.57-28.3,193.97,21.8l-50.1,109.3h0ZM35.87,80.6l107.6,49.2L192.67,22.2,85.07-27,35.87,80.6Z"/></g><rect x="75.16" y="23.82" width="41.1" height="1" transform="translate(4.16 61.33) rotate(-36.27)"/><rect x="86.88" y="35.6" width="39" height="1" transform="translate(-.74 69.93) rotate(-36.27)"/><rect x="74.28" y="28.88" width="54.4" height="1" transform="translate(2.28 65.73) rotate(-36.27)"/><rect x="73.84" y="174.93" width="39" height="1" transform="translate(-105.36 172.99) rotate(-61.28)"/></g><g><g><path class="f" d="M1119.69,67.2c0,4.8-.7,9.3-2,13.7-.1,.2-.1,.4-.2,.6-.1,.1-.1,.2-.1,.4,0,.1-.1,.2-.1,.2l-.2,.7c-.1,.3-.2,.6-.3,.9-2.5,6.6-6.4,12.5-11.4,17.4-6.1,6-13.9,10.2-22.5,12.2-4.1,.6-8.2,1-12.5,1.1h-3.1c-25.2,0-48.4-8.9-66.5-23.8-.7-.6-1.3-1.1-2-1.7-16.2-14-28.2-32.8-33.7-54.2-.9-3.6-1.7-7.2-2.2-10.9-.1-1.3-.2-2.5-.2-3.8,0-7.2,1.6-14,4.5-20.1h19.5l.7-1.6,.4-.9v.3c-.1,.4-.2,.8-.4,1.1,0,.4,.1,.7,.1,1h108.8l1.2,2.9,.3,.7,.2,.6,3.9,9.9,.3,.7,.2,.6,5.1,12.8,4,10.1,.2,.4,.2,.5,.2,.5,3.2,8.1c1.4,3.2,2.6,6.6,3.3,10.1,.8,3.1,1.1,6.3,1.1,9.5h0Z"/><path d="M1119.29,57.6c-.7-3.5-1.8-6.9-3.3-10.2l-3.1-7.9-.2-.5-.2-.5-9.4-23.1-.2-.6-.3-.7-3.9-9.8-.2-.6-.3-.7-1.3-3.2h-1.1l1.1,2.7,.3,.7,.2,.6,3.9,9.9,.3,.7,.2,.6,9.4,23.5,.2,.5,.2,.5,3.3,8.3c1.5,3.2,2.6,6.6,3.3,10,.6,3.1,.9,6.2,.9,9.4,0,4.8-.7,9.4-2.1,13.9h0c-.1,.2-.1,.4-.2,.6s-.1,.4-.2,.6c0,.1-.1,.2-.1,.2l-.3,.9c-.1,.3-.2,.6-.3,.9-2.4,6.1-6.1,11.7-11,16.4-6.2,6-13.9,10.2-22.2,12.1-4.1,.6-8.2,1-12.4,1.1h-3.1c-24.9,0-48.2-8.8-66.5-23.9-.7-.6-1.3-1.1-2-1.7-15.9-13.7-27.7-32.2-33.2-53.7-.9-3.6-1.7-7.2-2.2-10.9-.1-1.3-.2-2.6-.2-3.8,0-7.1,1.6-13.9,4.6-20.1h-1.1c-2.9,6.2-4.5,13.1-4.5,20.1,0,1.2,0,2.5,.2,3.9,.5,3.7,1.3,7.4,2.2,11,5.7,22,17.9,40.9,34.2,54.8,.7,.6,1.3,1.1,2,1.7,18.4,14.9,41.6,23.6,66.5,23.6h3.1c4.2-.1,8.4-.5,12.6-1.1,8.6-1.9,16.4-6.2,22.8-12.3,5.4-5.2,9.4-11.5,11.8-18.4,.1-.3,.2-.6,.3-.9,0-.1,.1-.2,.1-.2,.1-.2,.1-.4,.2-.6v-.1c.1-.2,.1-.3,.1-.5,1.3-4.3,1.9-8.8,1.9-13.5,.1-3.3-.2-6.6-.8-9.7h0Z"/></g><g><path class="g" d="M987.79-2.3c-.1,.4-.2,.8-.4,1.1-.1,.4-.2,.7-.3,1-2,6.4-3.5,12.5-4.3,18.3-.8-.1-1.7-.1-2.5-.1h-1.3l.2-.4,.3-.7,.3-.7L986.79-.1l.7-1.6,.4-.9c-.1,.1-.1,.2-.1,.3h0Z"/><path class="g" d="M1103.89,68.9c-2.2,.5-3.9,8.4-8.5,16.6-.1,.2-.2,.3-.3,.5-.1,.2-.2,.4-.3,.5-1.4,2.3-3,4.6-4.9,6.8h0c-.2,.2-.3,.4-.5,.6-.1,.1-.1,.2-.2,.2-.1,.1-.2,.2-.3,.3l-.2,.2c-8.1,8.2-21.3,13.7-44.2,7.2-17.8-5-32.7-12.6-43.6-23.1-.7-.7-1.4-1.3-2-2-12.1-12.8-18.5-29.6-16.9-50.9,0-.4,.1-.8,.1-1.2s.1-.8,.1-1.1c.2-1.8,.4-3.6,.7-5.4,1.3,.1,2.6,.3,3.8,.5l5.3,.3h1.1l5.8,.4,1.9,.1h.1l9.6,.6h0l32.3,2h.1c.9,0,1.8,.1,2.8,.2,7.7,1,14.1,6.4,16.5,13.6h0l14.9,33.7,4.4,10,2.8,6.3,.2,.5,.2,.5,.9,2.1c.4,.8,1.6-.2,3.2-2.1,.1-.2,.3-.3,.4-.5s.3-.3,.4-.5c5.2-6.3,13.7-19.4,14.3-16.9h0Z"/></g><g><path class="f" d="M1133.49,47.1c0,13.3-5.5,25.3-14.3,33.9-.3,.3-.6,.6-.9,.8-.1,.1-.2,.2-.4,.3-.2,.2-.5,.5-.8,.7-.2,.2-.5,.4-.7,.6-5.6,4.7-12.3,8.1-19.7,9.7h0c-.3,.1-.6,.1-.9,.1-.3,.1-.6,.1-.9,.1-.5,.1-.9,.1-1.4,.2s-1,.1-1.4,.2-.8,.1-1.2,.1c-.3,0-.6,.1-.9,.1-.2,0-.4,0-.6,.1-.5,0-1,.1-1.5,.1-.3,0-.7,.1-1,.1-.9,.1-1.8,.1-2.7,.1h-3.1c-32.1,0-60.9-14.5-80.3-37.3-.7-.8-1.3-1.6-2-2.4-7.1-8.9-12.8-19-16.8-29.9-.8-2.2-1.6-4.4-2.2-6.7-.1-.4-.2-.7-.3-1.1-.2-.8-.4-1.5-.6-2.3-.9-3.6-1.7-7.2-2.2-10.9-.1-1.2-.2-2.5-.2-3.8h10.3l.7-1.6,.4-.9v.3c-.1,.4-.2,.8-.4,1.1,0,.4,.1,.7,.1,1h130.6l3.2,8,.2,.5,3.8,9.6,.2,.5,3.6,9c.1,.2,.2,.4,.3,.6,1.3,3,2.4,6.2,3,9.5,0,.2,.1,.3,.1,.5,.6,2.9,.9,6,.9,9.1h0Z"/><path d="M1133.09,37.9v-.2l-.1-.2c-.7-3.5-1.8-6.9-3.3-10.2l-3.5-8.8-4-10.1-3.4-8.5h-1.1l3,7.5,.2,.5,.2,.5,3.6,9.1,.2,.5,.2,.5,3.7,9.2v.1c.1,.2,.2,.4,.2,.5,.8,1.7,1.4,3.5,2,5.3,.1,.3,.2,.7,.3,1,.1,.2,.1,.4,.2,.6,.1,.4,.2,.8,.3,1.2,.1,.2,.1,.5,.2,.8,0,.2,.1,.3,.1,.5h0l.1,.5c.6,2.9,.8,5.9,.8,8.9,0,1.7-.1,3.3-.3,5-.1,.9-.2,1.8-.4,2.7-.1,.7-.2,1.3-.4,2-.1,.5-.2,1-.4,1.6-.1,.5-.3,1.1-.4,1.6s-.3,1-.5,1.5c-.1,.2-.1,.3-.2,.5-.4,1.1-.8,2.2-1.2,3.2-.2,.4-.3,.7-.5,1.1-.3,.6-.5,1.1-.8,1.7-2.3,4.6-5.4,8.8-9.2,12.5l-.1,.1c-.2,.2-.4,.4-.6,.6l-.2,.2c-.2,.2-.4,.4-.6,.5-.1,.1-.2,.2-.4,.3-.1,.1-.2,.2-.4,.3-5.8,5-12.7,8.5-20.2,10.1-1.1,.2-2.1,.3-3.2,.4-1,.1-2,.2-2.9,.3-.2,0-.4,0-.6,.1-.3,0-.7,.1-1,.1-.6,.1-1.2,.1-1.9,.1-.9,.1-1.9,.1-2.8,.1h-3.1c-31.7,0-60.8-14.3-80.3-37.5-.7-.8-1.3-1.6-2-2.5-7.1-9-12.8-19.1-16.7-30.3-.7-1.8-1.2-3.7-1.8-5.6-.2-.6-.4-1.2-.5-1.9-.2-.6-.3-1.1-.4-1.7-.9-3.6-1.7-7.2-2.2-10.8-.1-1.3-.2-2.6-.2-3.8h-1c0,1.2,0,2.5,.2,3.9,.5,3.7,1.3,7.4,2.2,11,.2,1,.5,1.9,.8,2.9,0,.1,.1,.3,.1,.4,.8,2.7,1.7,5.3,2.6,7.9,4.1,10.9,9.8,20.8,16.9,29.5,.7,.8,1.3,1.6,2,2.4,19.7,22.9,48.7,37,80.3,37h3.1c1.6-.1,3.1-.1,4.6-.2,2.7-.2,5.3-.5,7.9-.9,7.1-1.6,13.7-4.8,19.3-9.3,.3-.2,.5-.4,.8-.6s.5-.4,.8-.7c.7-.6,1.3-1.2,1.9-1.8,9.3-9.1,14.5-21.2,14.5-34.2,.4-2.9,.1-6-.5-9h0Z"/></g><g><path class="f" d="M1133.49,47.1c0,13.3-5.5,25.3-14.3,33.9-.3,.1-.7,.2-1,.3h-.1c-.2,.1-.3,.1-.4,.2-.2,.1-.4,.1-.6,.2-7,2.3-14.3,3.8-21.9,4.4-2,.2-4,.3-6,.3h-4.8c-35.6-.8-66.6-20.3-83.5-49.2-.7-1.2-1.4-2.4-2-3.6-2.5-4.7-4.6-9.6-6.3-14.6-2.1-6.1-3.6-12.5-4.4-19.1h130.1l3.2,8,.2,.5,3.8,9.6,.2,.5,3.6,9c.1,.2,.2,.4,.3,.6,1.3,3,2.4,6.2,3,9.5,0,.2,.1,.3,.1,.5,.5,2.8,.8,5.9,.8,9h0Z"/><path d="M987.79-2.6l-.4,.9c0,.2,0,.4,.1,.5,.1-.4,.2-.8,.4-1.1-.1-.1-.1-.2-.1-.3Zm145.3,40.5v-.2l-.1-.2c-.7-3.5-1.8-6.9-3.3-10.2l-3.5-8.8-4-10.1-3.4-8.5h-1.1l3,7.5,.2,.5,.2,.5,3.6,9.1,.2,.5,.2,.5,3.7,9.2v.1c.1,.2,.2,.4,.2,.5,.8,1.7,1.4,3.5,2,5.3,.1,.3,.2,.7,.3,1,.1,.2,.1,.4,.2,.6,.1,.4,.2,.8,.3,1.2,.1,.2,.1,.5,.2,.8,0,.2,.1,.3,.1,.5h0l.1,.5c.6,2.9,.8,5.9,.8,8.9,0,1.7-.1,3.3-.3,5-.1,.9-.2,1.8-.4,2.7-.1,.7-.2,1.3-.4,2-.1,.5-.2,1-.4,1.6-.1,.5-.3,1.1-.4,1.6s-.3,1-.5,1.5c-.1,.2-.1,.3-.2,.5-.4,1.1-.8,2.2-1.2,3.2-.2,.4-.3,.7-.5,1.1-.3,.6-.5,1.1-.8,1.7-2.3,4.6-5.4,8.8-9.2,12.5-.2,.1-.4,.1-.6,.2s-.4,.1-.6,.2-.4,.1-.6,.2h0c-7.1,2.3-14.3,3.8-21.8,4.5-1.9,.2-3.9,.3-5.9,.3-1,0-2,.1-3,.1h-2.4c-35.6-.9-66.6-20.7-83.2-49.8-.7-1.2-1.4-2.4-2-3.7-2.2-4.3-4.2-8.8-5.8-13.5-2.1-6.1-3.6-12.6-4.4-19.2h-1c.8,6.6,2.3,13,4.4,19.1,1.8,5.5,4.1,10.7,6.8,15.7,.6,1.2,1.3,2.4,2,3.5,17.1,28.7,48.1,48.1,83.7,48.8h4.1c2.1,0,4.1-.2,6.1-.3,7.5-.6,14.9-2.1,22-4.3,.1,0,.2-.1,.3-.1s.2-.1,.3-.1c.2-.1,.4-.1,.6-.2,.1,0,.2-.1,.3-.1,.4-.1,.7-.2,1.1-.4l.2-.1c9.3-9.1,14.5-21.2,14.5-34.2,.2-3.1-.1-6.2-.7-9.2h0Z"/></g><g><path class="f" d="M1132.49,37.5c-.2,0-.3,.1-.5,.1-5.3,1-10.8,1.5-16.4,1.5-1,0-2,0-3-.1h-1.1c-29.2-1.3-54.8-16.5-70.4-39.2h77.1l3.2,8,.2,.5,3.8,9.6,.2,.5,3.6,9c.1,.2,.2,.4,.3,.6,1.3,3.1,2.3,6.2,3,9.5h0Z"/><path d="M1133.09,37.7l-.1-.2c-.7-3.5-1.8-6.9-3.3-10.2l-3.5-8.8-4-10.1-3.4-8.5h-1.1l3,7.5,.2,.5,.2,.5,3.6,9.1,.2,.5,.2,.5,3.7,9.2v.1c.1,.2,.2,.4,.2,.5,.8,1.7,1.4,3.5,2,5.3,.1,.3,.2,.7,.3,1,.1,.2,.1,.4,.2,.6,.1,.4,.2,.8,.3,1.2,.1,.3,.1,.5,.2,.8h0c-5.3,1-10.8,1.5-16.3,1.5-1.1,0-2.2,0-3.2-.1h-1.1c-28.9-1.4-54.2-16.3-69.7-38.7h-1.2c15.6,23.1,41.6,38.4,71.3,39.7h3.9c5.5,0,11.1-.5,16.5-1.5,.2,0,.3-.1,.5-.1l.5-.1h0l-.1-.2h0Z"/></g><g><path class="f" d="M1096.59,93.1c-3.3,.8-6.8,1.2-10.4,1.2h-2.1c4.3-.2,8.4-.6,12.5-1.2h0Z"/><path d="M1086.19,94.8h-2.1v-1c4.2-.1,8.4-.5,12.4-1.1l.2,1c-3.4,.7-6.9,1.1-10.5,1.1h0Z"/></g><g><path class="f" d="M1125.39,18h-.5c-7.6,0-15-1.1-22-3.2-.2-.1-.4-.1-.6-.2-.2-.1-.4-.1-.6-.2-10-3.1-19.2-8.1-27.2-14.6h43.7l3.2,8,.2,.5,3.8,9.7h0Z"/><path d="M1122.09,8.3l-3.4-8.5h-1.1l3,7.5,.2,.5,.2,.5,3.6,9.1c-7.6,0-15-1.2-22-3.3-.2-.1-.4-.1-.6-.2-.2-.1-.4-.1-.6-.2-9.5-3-18.3-7.8-25.9-13.9h-1.7c.2,.2,.4,.3,.6,.5,8.2,6.7,17.6,11.6,27.6,14.6,.2,.1,.4,.1,.6,.2,.2,.1,.4,.1,.6,.2,7.1,2,14.5,3.1,21.9,3.1h1.1l-4.1-10.1h0Z"/></g></g><g><line class="k" x1="1129.49" y1="28.1" x2="1129.19" y2="27.5"/><rect x="1128.82" y="27.51" width="1" height=".7" transform="translate(68.84 417.13) rotate(-21.57)"/></g><g><g><rect class="f" x="1733.18" y="452.31" width="119.31" height="99.11" transform="translate(-63.48 359.73) rotate(-11.26)"/><path d="M1743.5,562.8l-19.5-98.2,118-23.5,19.5,98.2-118,23.5Zm-18.4-97.4l19.2,96.2,116-23.1-19.2-96.2-116,23.1Z"/></g><g><rect class="f" x="1746.39" y="549.8" width="119.31" height="36.8" transform="translate(-76.18 363.59) rotate(-11.26)"/><path d="M1750.6,598.6l-7.4-37.1,118-23.5,7.4,37.1-118,23.5Zm-6.2-36.3l7,35.1,116-23.1-7-35.1-116,23.1Z"/></g><g><rect class="f" x="1842.85" y="402.92" width="119.3" height="119.3" transform="translate(689.94 1999.83) rotate(-65.4)"/><path d="M1932.1,542.4l-109.4-50.1,50.1-109.4,109.4,50.1-50.1,109.4Zm-108.1-50.6l107.6,49.2,49.2-107.6-107.6-49.2-49.2,107.6h0Z"/></g><rect x="1817.59" y="523.14" width="28" height="1" transform="translate(641.43 2011.06) rotate(-67.29)"/><rect x="1737.72" y="489.97" width="39" height="1" transform="translate(626.37 1922.09) rotate(-67.29)"/><rect x="1805.16" y="523.72" width="36.2" height="1" transform="translate(635.78 2003.73) rotate(-67.29)"/><rect x="1870.69" y="413.78" width="33.2" height="1" transform="translate(-5.41 803.11) rotate(-23.99)"/><rect x="1907.09" y="507.81" width="31.6" height="1" transform="translate(-40.56 825.71) rotate(-23.99)"/><rect x="1898.17" y="501.59" width="44" height="1" transform="translate(-38.27 824.07) rotate(-23.99)"/></g><g><g><polygon class="f" points="948.1 5.9 911.1 37.8 909.1 39.5 857.8 83.8 779.9 -6.5 789.2 -14.6 930.5 -14.6 948.1 5.9"/><path d="M931.2-14.6h-1.3l17.6,20.4-36.3,31.3-2,1.7-51.3,44.2L780.6-6.4l9.4-8.1h-1.5l-9.3,8,78.6,91.1,51.4-44.3,2-1.7,37.7-32.5-17.7-20.7h0Z"/></g><rect x="861.72" y="17.49" width="1" height="39" transform="translate(148.89 522.74) rotate(-36.71)"/><rect x="856.75" y="16.85" width="1" height="51.7" transform="translate(144.49 520.9) rotate(-36.71)"/></g><g id="e"><polyline class="m" points="1378.7 650.7 1377.2 650.7 1375.7 650.7 1375.7 652.2 1375.7 653.7 1378.7 653.7 1378.7 650.7"/></g><g><path d="M635.4,421.21l-30.3,81.6v68.4h-26.7v-68.4l-30-81.6h26.7l23.4,63.6,23.4-63.6h13.5Z"/><path d="M716.1,419.41c14.7,.3,26.4,12.6,26.1,27.3l-1.8,96.6c-.3,14.7-12.6,26.4-27.3,26.1l-31.2-.6c-14.7-.3-26.4-12.3-26.1-27l1.8-96.6c.3-14.7,12.6-26.7,27.3-26.4l31.2,.6Zm-7.8,136.8c3,0,5.1-2.4,5.1-5.1l2.1-113.4c.3-2.7-1.8-5.1-4.8-5.1l-21-.3c-3,0-5.1,2.1-5.4,4.8l-.9,49.5-.3,13.5-.9,50.4c0,2.7,2.1,5.1,5.1,5.4l21,.3Z"/><path d="M814.49,417.61h26.7v123.3c0,14.7-12,26.7-26.7,26.7h-31.2c-14.7,0-26.7-12-26.7-26.7v-123.3h26.7v131.7c0,2.7,2.1,5.1,5.1,5.1h21c3,0,5.1-2.4,5.1-5.1v-131.7Z"/><path d="M1080.59,415.81l13.5,.3-22.5,149.7-26.7-.3-12.3-101.1-15.3,100.5-26.7-.3-18.3-150.3,26.7,.3,12.3,101.1,15.3-100.5,26.7,.3,12.3,101.1,15-100.8Z"/><path d="M1169.09,419.41c14.7,.3,26.4,12.6,26.1,27.3l-1.8,96.6c-.3,14.7-12.6,26.4-27.3,26.1l-31.2-.6c-14.7-.3-26.4-12.3-26.1-27l1.8-96.6c.3-14.7,12.6-26.7,27.3-26.4l31.2,.6Zm-7.8,136.8c3,0,5.1-2.4,5.1-5.1l2.1-113.4c.3-2.7-1.8-5.1-4.8-5.1l-21-.3c-3,0-5.1,2.1-5.4,4.8l-.9,49.5-.3,13.5-.9,50.4c0,2.7,2.1,5.1,5.1,5.4l21,.3Z"/><path d="M1296.59,417.31h13.5l2.4,150h-13.5l-13.5,.3-48.3-116.1,1.8,116.7-13.2,.3-2.4-150,13.2-.3h13.5l48.3,115.8-1.8-116.7Z"/><path d="M1342.78,568.31l.8-24.4,25,.8-.8,24.4-25-.8Zm4.8-140l25,.8-3.4,96.8-25-.8,3.4-96.8Z"/></g></svg>