<?xml version="1.0" encoding="UTF-8"?><svg id="a" xmlns="http://www.w3.org/2000/svg" viewBox="0 0 1920 1080"><defs><style>.d{fill:#e5e1da;}.e,.f,.g{isolation:isolate;}.e,.g,.h{fill:#706f6f;}.e,.i{opacity:.4;}.f{opacity:.3;}.f,.j,.k{fill:#1d1d1b;}.l{fill:#3f2e00;}.m{fill:#fff;}.n{fill:#a3906d;}.o{fill:#b6ab92;}.p{fill:#f7f1d8;}.g,.q{opacity:.6;}.r{fill:#eaddbd;}.s{fill:#e52942;}.t{fill:#fbd213;}.j{stroke:#000;stroke-miterlimit:10;}.u{fill:#1e4f7c;}.v{fill:#ebdcbb;}.w{fill:#817967;}.x{opacity:.63;}.y{fill:none;}.a`{fill:#2a6eb5;}.aa{fill:#f9f4e1;}.ab{fill:#c1ab80;}.ac{opacity:.59;}.ad{fill:#e8d7b1;}.ae{opacity:.25;}</style></defs><g id="b"><rect class="d" x="1" y="470.2" width="1920" height="611.8"/><rect class="ad" x=".6" y="-1" width="1919.1" height="471.2"/><g class="ac"><path class="h" d="M522.2,427.6v42.6H159.2v-28.6c0-11,2-21.9,6-32.1,27.4-70.2,95.6-119.9,175.5-119.9,86.6,0,159.5,58.4,181.5,138Z"/></g><g class="i"><path class="h" d="M486.2,470.2H194.4v-34c0-6.5,1.1-12.9,3.3-18.9,21-58.9,77.1-101,143.1-101s127,45.6,145.4,108.7v45.2h0Z"/></g><g><path class="n" d="M535.8,80.9h-14.5v-.5c0-15.4-12.6-28-28-28s-28,12.6-28,28v.5h-14.5v-.5c0-23.4,19.1-42.5,42.5-42.5s42.5,19.1,42.5,42.5v.5Zm-13.5-1h12.5c-.3-22.7-18.8-41-41.5-41s-41.2,18.3-41.5,41h12.5c.3-15.8,13.2-28.5,29-28.5s28.7,12.8,29,28.5Z"/><path class="n" d="M522.3,151.9h-58V80.4c0-16,13-29,29-29s29,13,29,29v71.5Zm-57-1h56V80.4c0-15.4-12.6-28-28-28s-28,12.6-28,28v70.5Z"/><rect class="n" x="492.8" y="51.9" width="1" height="99.5"/><rect class="n" x="464.8" y="79.9" width="57" height="1"/><rect class="n" x="464.8" y="139.7" width="57" height="1"/></g><g><g><path class="n" d="M694.4,80.9h-14.5v-.5c0-15.4-12.6-28-28-28s-28,12.6-28,28v.5h-14.5v-.5c0-23.4,19.1-42.5,42.5-42.5s42.5,19.1,42.5,42.5v.5Zm-13.5-1h12.5c-.3-22.7-18.8-41-41.5-41s-41.2,18.3-41.5,41h12.5c.3-15.8,13.2-28.5,29-28.5s28.7,12.8,29,28.5Z"/><path class="n" d="M680.9,151.9h-58V80.4c0-16,13-29,29-29s29,13,29,29v71.5Zm-57-1h56V80.4c0-15.4-12.6-28-28-28s-28,12.6-28,28v70.5Z"/><rect class="n" x="651.4" y="51.9" width="1" height="99.5"/><rect class="n" x="623.4" y="79.9" width="57" height="1"/><rect class="n" x="623.4" y="139.7" width="57" height="1"/></g><g><path class="n" d="M853.1,80.9h-14.5v-.5c0-15.4-12.6-28-28-28s-28,12.6-28,28v.5h-14.5v-.5c0-23.4,19.1-42.5,42.5-42.5s42.5,19.1,42.5,42.5v.5Zm-13.5-1h12.5c-.3-22.7-18.8-41-41.5-41s-41.2,18.3-41.5,41h12.5c.3-15.8,13.2-28.5,29-28.5s28.7,12.8,29,28.5Z"/><path class="n" d="M839.6,151.9h-58V80.4c0-16,13-29,29-29s29,13,29,29v71.5Zm-57-1h56V80.4c0-15.4-12.6-28-28-28s-28,12.6-28,28v70.5Z"/><rect class="n" x="810.1" y="51.9" width="1" height="99.5"/><rect class="n" x="782.1" y="79.9" width="57" height="1"/><rect class="n" x="782.1" y="139.7" width="57" height="1"/></g><g><path class="n" d="M1011.7,80.9h-14.5v-.5c0-15.4-12.6-28-28-28s-28,12.6-28,28v.5h-14.5v-.5c0-23.4,19.1-42.5,42.5-42.5s42.5,19.1,42.5,42.5v.5Zm-13.5-1h12.5c-.3-22.7-18.8-41-41.5-41s-41.2,18.3-41.5,41h12.5c.3-15.8,13.2-28.5,29-28.5s28.7,12.8,29,28.5Z"/><path class="n" d="M998.2,151.9h-58V80.4c0-16,13-29,29-29s29,13,29,29v71.5Zm-57-1h56V80.4c0-15.4-12.6-28-28-28s-28,12.6-28,28v70.5Z"/><rect class="n" x="968.7" y="51.9" width="1" height="99.5"/><rect class="n" x="940.7" y="79.9" width="57" height="1"/><rect class="n" x="940.7" y="139.7" width="57" height="1"/></g><g><path class="n" d="M1170.3,80.9h-14.5v-.5c0-15.4-12.6-28-28-28s-28,12.6-28,28v.5h-14.5v-.5c0-23.4,19.1-42.5,42.5-42.5s42.5,19.1,42.5,42.5v.5Zm-13.5-1h12.5c-.3-22.7-18.8-41-41.5-41s-41.2,18.3-41.5,41h12.5c.3-15.8,13.2-28.5,29-28.5s28.8,12.8,29,28.5Z"/><path class="n" d="M1156.8,151.9h-58V80.4c0-16,13-29,29-29s29,13,29,29v71.5Zm-57-1h56V80.4c0-15.4-12.6-28-28-28s-28,12.6-28,28v70.5Z"/><rect class="n" x="1127.3" y="51.9" width="1" height="99.5"/><rect class="n" x="1099.3" y="79.9" width="57" height="1"/><rect class="n" x="1099.3" y="139.7" width="57" height="1"/></g><g><path class="n" d="M1329,80.9h-14.5v-.5c0-15.4-12.6-28-28-28s-28,12.6-28,28v.5h-14.5v-.5c0-23.4,19.1-42.5,42.5-42.5s42.5,19.1,42.5,42.5v.5Zm-13.5-1h12.5c-.3-22.7-18.8-41-41.5-41s-41.2,18.3-41.5,41h12.5c.3-15.8,13.2-28.5,29-28.5s28.7,12.8,29,28.5Z"/><path class="n" d="M1315.5,151.9h-58V80.4c0-16,13-29,29-29s29,13,29,29v71.5Zm-57-1h56V80.4c0-15.4-12.6-28-28-28s-28,12.6-28,28v70.5Z"/><rect class="n" x="1286" y="51.9" width="1" height="99.5"/><rect class="n" x="1258" y="79.9" width="57" height="1"/><rect class="n" x="1258" y="139.7" width="57" height="1"/></g><g><path class="n" d="M1487.6,80.9h-14.5v-.5c0-15.4-12.6-28-28-28s-28,12.6-28,28v.5h-14.5v-.5c0-23.4,19.1-42.5,42.5-42.5s42.5,19.1,42.5,42.5v.5Zm-13.5-1h12.5c-.3-22.7-18.8-41-41.5-41s-41.2,18.3-41.5,41h12.5c.3-15.8,13.2-28.5,29-28.5s28.7,12.8,29,28.5Z"/><path class="n" d="M1474.1,151.9h-58V80.4c0-16,13-29,29-29s29,13,29,29v71.5Zm-57-1h56V80.4c0-15.4-12.6-28-28-28s-28,12.6-28,28v70.5Z"/><rect class="n" x="1444.6" y="51.9" width="1" height="99.5"/><rect class="n" x="1416.6" y="79.9" width="57" height="1"/><rect class="n" x="1416.6" y="139.7" width="57" height="1"/></g><g><path class="n" d="M1646.3,80.9h-14.5v-.5c0-15.4-12.6-28-28-28s-28,12.6-28,28v.5h-14.5v-.5c0-23.4,19.1-42.5,42.5-42.5s42.5,19.1,42.5,42.5v.5Zm-13.5-1h12.5c-.3-22.7-18.8-41-41.5-41s-41.2,18.3-41.5,41h12.5c.3-15.8,13.2-28.5,29-28.5s28.7,12.8,29,28.5Z"/><path class="n" d="M1632.8,151.9h-58V80.4c0-16,13-29,29-29s29,13,29,29v71.5Zm-57-1h56V80.4c0-15.4-12.6-28-28-28s-28,12.6-28,28v70.5Z"/><rect class="n" x="1603.3" y="51.9" width="1" height="99.5"/><rect class="n" x="1575.3" y="79.9" width="57" height="1"/><rect class="n" x="1575.3" y="139.7" width="57" height="1"/></g><g><path class="n" d="M1806.3,255.8h-14.5v-.5c0-15.4-12.6-28-28-28s-28,12.6-28,28v.5h-14.5v-.5c0-23.4,19.1-42.5,42.5-42.5s42.5,19.1,42.5,42.5v.5Zm-13.5-1h12.5c-.3-22.6-18.8-41-41.5-41s-41.2,18.4-41.5,41h12.5c.3-15.8,13.2-28.5,29-28.5s28.7,12.7,29,28.5Z"/><path class="n" d="M1792.8,326.8h-58v-71.5c0-16,13-29,29-29s29,13,29,29v71.5Zm-57-1h56v-70.5c0-15.4-12.6-28-28-28s-28,12.6-28,28v70.5Z"/><rect class="n" x="1763.3" y="226.8" width="1" height="99.5"/><rect class="n" x="1735.3" y="254.8" width="57" height="1"/><rect class="n" x="1735.3" y="314.6" width="57" height="1"/></g><g><path class="n" d="M125.1,255.8h-14.5v-.5c0-15.4-12.6-28-28-28s-28,12.6-28,28v.5h-14.5v-.5c0-23.4,19.1-42.5,42.5-42.5s42.5,19.1,42.5,42.5v.5Zm-13.5-1h12.5c-.3-22.6-18.8-41-41.5-41s-41.2,18.4-41.5,41h12.5c.3-15.8,13.2-28.5,29-28.5s28.7,12.7,29,28.5Z"/><path class="n" d="M111.6,326.8H53.6v-71.5c0-16,13-29,29-29s29,13,29,29v71.5Zm-57-1h56v-70.5c0-15.4-12.6-28-28-28s-28,12.6-28,28v70.5Z"/><rect class="n" x="82.1" y="226.8" width="1" height="99.5"/><rect class="n" x="54.1" y="254.8" width="57" height="1"/><rect class="n" x="54.1" y="314.6" width="57" height="1"/></g><g><path class="n" d="M1647.6,255.8h-14.5v-.5c0-15.4-12.6-28-28-28s-28,12.6-28,28v.5h-14.5v-.5c0-23.4,19.1-42.5,42.5-42.5s42.5,19.1,42.5,42.5v.5Zm-13.5-1h12.5c-.3-22.6-18.8-41-41.5-41s-41.2,18.4-41.5,41h12.5c.3-15.8,13.2-28.5,29-28.5s28.8,12.7,29,28.5Z"/><path class="n" d="M1634.1,326.8h-58v-71.5c0-16,13-29,29-29s29,13,29,29v71.5Zm-57-1h56v-70.5c0-15.4-12.6-28-28-28s-28,12.6-28,28v70.5Z"/><rect class="n" x="1604.6" y="226.8" width="1" height="99.5"/><rect class="n" x="1576.6" y="254.8" width="57" height="1"/><rect class="n" x="1576.6" y="314.6" width="57" height="1"/></g></g><path class="ab" d="M1921.5,189.3H.5v-8H1921.5v8ZM1.5,188.3H1920.5v-6H1.5v6Z"/><rect class="l" x="19.4" y="32.7" width="25.4" height="1"/><rect class="l" x="81.7" width="2" height="60.1"/><rect class="l" x="19.4" y="43.2" width="25.4" height="1"/><rect class="ab" x="26" y="37.9" width="25.4" height="1"/><g><rect class="ab" x="714.2" y="99.1" width="25.4" height="1"/><rect class="ab" x="714.2" y="109.6" width="25.4" height="1"/><rect class="ab" x="720.9" y="104.3" width="25.4" height="1"/></g><g><rect class="ab" x="1901.2" y="288.3" width="25.4" height="1"/><rect class="ab" x="1901.2" y="298.8" width="25.4" height="1"/><rect class="ab" x="1907.9" y="293.5" width="25.4" height="1"/></g><g><rect class="ab" x="370.8" y="116.2" width="37.6" height="1"/><rect class="ab" x="370.8" y="105.7" width="37.6" height="1"/><rect class="ab" x="360.9" y="110.9" width="37.6" height="1"/></g><g><rect class="ab" x="1679.1" y="131.7" width="37.6" height="1"/><rect class="ab" x="1679.1" y="121.2" width="37.6" height="1"/><rect class="ab" x="1669.2" y="126.5" width="37.6" height="1"/></g><rect class="ab" x="1251.87" y="110.49" width="34.7" height="1" transform="translate(293.26 929.98) rotate(-45)"/><rect class="ab" x="1253.09" y="120.11" width="25.8" height="1" transform="translate(285.52 930.51) rotate(-45)"/><rect class="ab" x="650.99" y="94.7" width="34.7" height="1" transform="translate(128.43 500.48) rotate(-45)"/><rect class="ab" x="658.58" y="97.89" width="25.8" height="1" transform="translate(127.1 503.63) rotate(-45)"/><path class="s" d="M1750.3,64.4c.3,.1,.6,.2,.8,.2h0l-.8-.2Zm-1.1-.3l.8,.2c.1,0,.2,0,.2,.1-.3-.1-.6-.2-1-.3Z"/><path class="v" d="M271.6,47.4c-1.2,14.8-2.8,29.8-4.7,44.7-12.4-8.3-24.8-17-36.7-25.9,14-5.9,27.9-12.2,41.4-18.8Z"/><path class="s" d="M1791.5,75.4c4.6,13,9.6,26.1,14.9,39l.3,.7,.5-.6c9.2-10.4,18.2-21.2,26.7-32,5.4,12.7,11.2,25.5,17.3,38l.3,.7,.5-.6c8.5-11,16.8-22.3,24.7-33.7,6.2,12.4,12.8,24.8,19.7,36.9l.4,.7,.4-.7c8-11.8,15.2-22.9,22.5-35v-1.6c-14-.1-28.1-.7-42.2-1.7l-.9-.1c-13.9-1-28.1-2.4-41.9-4.3l-.9-.1c-.3,0-.5-.1-.8-.1-13.6-1.8-27.3-4.1-40.7-6.8l-.9-.2c-13.6-2.7-27.3-5.9-40.7-9.4-.3-.1-.6-.2-.8-.2-.1,0-.2,0-.2-.1l-.8-.2c-13.1-3.5-26.3-7.4-39.2-11.7l-.8-.3c-.2-.1-.5-.2-.8-.3-13.3-4.4-26.6-9.3-39.5-14.5l-.6-.2q-.1,0-.2-.1c-12.7-5.2-25.4-10.8-37.9-16.7l-.8-.4C1616.2,13.6,1603.3,7,1590.8,0l-.8-.4V.5c.4,14,1.3,28.2,2.5,42.3l.1,.8,.7-.4c11.9-7,23.8-14.4,35.2-22,1.3,13.7,2.9,27.6,5,41.3l.1,.8,.7-.5c11.5-7.8,22.8-15.9,33.8-24.2,2.1,13.6,4.6,27.4,7.5,40.9l.2,.8,.6-.5c10.9-8.5,21.8-17.4,32.2-26.4,2.9,13.4,6.3,27,10,40.4l.2,.8,.6-.5c10.3-9.1,20.5-18.6,30.2-28.2,3.7,13.2,7.9,26.4,12.3,39.5l.3,.8,.6-.6m-86.2-27.1c-2.8-13.3-5.2-26.7-7.3-40,12.7,5.1,25.7,9.9,38.7,14.2-10.2,8.9-20.7,17.5-31.4,25.8Zm130.5,34.7c-5.2-12.6-10.1-25.4-14.5-38.1,13.4,2.7,27.1,4.9,40.6,6.8-8.4,10.6-17.2,21.1-26.1,31.3Zm44.8,6.1c-6-12.2-11.7-24.7-16.9-37.2,13.6,1.8,27.4,3.2,41.1,4.2-7.8,11.2-15.9,22.3-24.2,33Z"/><path class="s" d="M185.6,83.6c11.6,9.8,23.6,19.5,35.8,28.8l.6,.5,.2-.8c2.9-14.9,5.5-30.1,7.6-45,12.1,9,24.6,17.8,37.2,26.2l.7,.4,.1-.8c2-15.2,3.6-30.5,4.8-45.7,12.7,8.3,25.9,16.4,39.1,24l.7,.4v-.8c1.1-15.2,1.8-30.7,2-45.8,13.2,7.5,26.8,14.7,40.5,21.4l.7,.3v-.7c.1-15.5-.1-30.7-.8-46h-2.2c-12.9,8.5-24.8,15.7-38.1,23.4-.2,.1-.5,.3-.7,.4l-.8,.4c-13.1,7.5-26.7,14.7-40.3,21.4-.2,.1-.5,.2-.7,.3l-.8,.4c-13.4,6.7-27.2,13-41.1,18.8-.3,.1-.5,.2-.8,.3-.1,0-.2,.1-.2,.1l-.8,.3c-14.1,5.9-28.6,11.4-43,16.4l-.8,.3c-14.6,5-29.5,9.7-44.3,13.8l-.6,.2-.2,.1c-14.9,4.1-30.1,7.8-45.2,11l-.8,.2c-15.1,3.2-30.5,5.9-45.8,8.2h-.2c-15.6,2.3-31.6,4.1-47.3,5.4l-.9,.1,.5,.7c9,12.7,18.5,25.3,28.3,37.6l.5,.6,.3-.7c6.6-13.9,12.9-28.1,18.8-42.3,9.6,11.9,19.7,23.7,30,35.1l.5,.6,.3-.7c5.7-14.3,11.1-28.8,16-43.3,10.3,11.2,21.1,22.4,32.1,33.1l.6,.6,.2-.8c4.8-14.6,9.2-29.4,13.2-44.2,11,10.6,22.4,21,34,31l.6,.5,.2-.8M28.1,158.5c-9.4-11.8-18.6-24-27.3-36.2,15.2-1.3,30.5-3,45.6-5.2-5.6,13.9-11.8,27.8-18.3,41.4Zm238.8-66.4c-12.4-8.3-24.8-17-36.7-25.9,13.9-5.8,27.8-12.2,41.4-18.8-1.1,14.8-2.7,29.8-4.7,44.7Z"/><path class="m" d="M1685.6,612.7h0l-47.3,.1v-1h.1v.9h47.2Z"/><path class="k" d="M1638.4,611.3v.9h-.1l.1-.9c-.1,.1,0,0,0,0h0Z"/><path class="h" d="M1685.6,613.5l-11.2,.1h12.1v-.1h-.9Z"/><path class="k" d="M1088.2,.4c-12.2,22.6-35.3,36.5-59.9,36.5-1.7,0-3.4-.1-5-.2-23-1.8-43.3-15.4-54.4-36.3l2.7-1.4c10.6,20.1,30.1,33.1,52,34.8,25.3,2,49.7-11.7,62.1-34.8-.1,0,2.5,1.4,2.5,1.4Z"/><path class="k" d="M1185.4,108.6c-2.3,0-4.6-.2-7-.6-32.2-5.1-61.1-46.4-75.3-107.7l2.9-.7c14,60.1,41.9,100.5,72.9,105.4,35.5,5.7,70.2-36.7,86.5-105.4l2.9,.7c-8.2,34.5-20.9,63-36.9,82.3-14.1,17.1-29.9,26-46,26h0Z"/><g class="q"><polygon class="h" points="311.9 53.6 300.4 54.4 307.5 157 104.4 170.9 105.1 181.2 319.6 166.5 311.9 53.6"/></g><rect class="l" x="298.5" width="2" height="60.1"/><polygon class="p" points="307.5 157 104.4 170.9 89.8 171.9 82.1 59.9 299.8 45 300.4 54.4 307.5 157"/><path class="p" d="M141.6,102.5c.2,1.9,0,3.7-.4,5.4-.4,1.7-1.2,3.2-2.3,4.5s-2.5,2.4-4.3,3.2c-1.8,.8-3.8,1.4-6.3,1.6l-4.5,.4-.3,12.9-6.4,.6,.9-36.5,11-1.1c2.1-.2,3.8-.1,5.3,.2,1.5,.4,2.8,.9,3.8,1.7,1,.8,1.8,1.8,2.4,2.9,.6,1.4,1,2.7,1.1,4.2Z"/><g><path d="M131.4,102.7l.7,6.3c.3,3.3-2.1,6.2-5.3,6.6l-7,.8,1.7,15.2-5.9,.6-3.6-33.4,12.9-1.4c3.2-.3,6.1,2.1,6.5,5.3Zm-6.1,10.1c.7-.1,1.1-.6,1-1.3l-1.1-10c-.1-.6-.6-1.1-1.3-1l-5.8,.6,1.3,12.3,5.9-.6Z"/><path d="M137,95.9l6-.3,1.6,33.6-6,.3-1.6-33.6Z"/><path d="M168.9,103.4l-6,.4-.3-4.9c0-.6-.5-1.1-1.2-1.1l-4.7,.3c-.7,.1-1.1,.6-1.1,1.2l.4,5.6c0,.6,.4,1.3,.9,1.5l10.6,6.7c1.3,1,2.2,2.6,2.3,4.4l.3,4.5c.2,3.3-2.3,6.2-5.6,6.4l-7,.4c-3.3,.2-6.1-2.3-6.3-5.6l-.2-3,6-.4,.3,4.9c0,.6,.6,1.2,1.2,1.1l4.7-.3c.7-.1,1.1-.6,1.1-1.2l-.3-5.3c0-.6-.4-1.1-.9-1.5l-10.6-7c-1.4-1-2.2-2.6-2.3-4.3l-.2-4.5c-.2-3.3,2.3-6.2,5.6-6.3l7-.4c3.3-.2,6.1,2.3,6.3,5.6v2.8h0Z"/><path d="M190.3,116.7l5.9-.3,.2,3c.1,3.3-2.4,6.1-5.7,6.3l-7,.3c-3.3,.2-6.1-2.3-6.3-5.6l-1.1-21.7c-.2-3.3,2.3-6.1,5.6-6.3l7.1-.4c3.2-.2,6.1,2.3,6.2,5.6l.2,3-5.9,.3-.3-4.9c0-.6-.6-1.2-1.2-1.1l-4.7,.2c-.7,.1-1.1,.6-1.1,1.2l.6,11.1,.2,3,.6,11.3c0,.6,.6,1.2,1.2,1.1l4.7-.2c.6,0,1.2-.6,1.1-1.2l-.3-4.7Z"/><path d="M215.8,123.6l-1.9-5.7-10.9,1.2-.8,5.9-2.9,.3,4.4-34.2,1-.2,2-.2,4-.4,11.2,32.6-6.1,.7Zm-12.3-9.2l8.8-.9-6.3-18.4-2.5,19.3Z"/><path d="M245.4,119.2l-5.9,.7-5.3-14.9-3.4,.3,1.7,15.2-5.9,.7-3.6-33.4,12.9-1.4c3.3-.3,6.2,2,6.6,5.3l.7,6.3c.3,2.5-1,4.8-3.1,5.9l5.3,15.3Zm-16.2-29l1.3,12.2,5.8-.6c.7-.1,1.1-.6,1-1.2l-1.1-10c-.1-.6-.6-1.1-1.3-1l-5.7,.6Z"/><path d="M248.3,86.9l6-.3,1.6,33.6-6,.3-1.6-33.6Z"/><path d="M277.5,118.6l-1.9-5.7-10.9,1.2-.8,5.9-2.9,.3,4.4-34.2,1-.2,2-.2,4-.4,11.2,32.6-6.1,.7Zm-12.3-9.2l8.8-.9-6.4-18.5-2.4,19.4Z"/></g></g><path class="t" d="M575.6,599.7v47.2h-131.3c-1.9,0-2.9-1.4-3-2.7h-.2c-.1-1.3,.5-2.8,2.4-3.2l42.5-6.7-24-92c-.3-1.3-.1-2.7,.8-3.8s2.1-1.7,3.5-1.7h19.9v-.1h20.6l.1,61.9h68s.2-.6,.4-1.6c.2,1.8,.3,2.7,.3,2.7Z"/><path class="k" d="M429.2,508.8c0,.3-.1,.6-.2,.9,.1-.3,.1-.6,.2-.9Z"/><path d="M618.8,213.8v135.7l-102.2-57.5v-94.3c.1,0,.3-.1,.4-.1,.2,0,.3,0,.5-.1,.7-.2,1.4-.3,2.2-.5l1.2-.3h.2c.9-.2,3.2-.8,3.6-.9h0c.6-.1,1.1-.2,1.7-.3,3.2-.6,6.7-1.1,10.2-1.4,.7-.1,1.4-.1,2.2-.2,.6,0,1.2-.1,1.8-.1h2.3c4-.2,8.2-.1,12.5,.2,.4,0,.9,.1,1.3,.1,.7,.1,1.5,.1,2.2,.2h.3c.5,0,1,.1,1.4,.1,1.5,.2,3,.3,4.5,.6,16.9,2.2,35.3,8.1,53.7,18.8Z"/><path class="m" d="M524.7,195.7l-.3,.3-6.8,7.1v-5.6c.7-.2,1.4-.3,2.2-.5l1.2-.3h.2c.8-.3,3-.9,3.5-1h0Z"/><path class="m" d="M541.5,193.7l-8.4,8.6h0l-15.6,15.8v-13.6l8.1-8.2h0l.7-.9c5-.8,9.7-1.5,15.2-1.7Z"/><path class="m" d="M556.6,193.9l-10,10h0l-29.2,29.4v-13.9l16.6-16.8h0l8.8-9c4-.2,8.2-.1,12.5,.2,.4,.1,.9,.1,1.3,.1Z"/><path class="m" d="M570,195.7l-52.5,52.9v-13.8l31-31.3h0l9.3-9.4c1.4,0,5.8,.3,12.2,1.6Z"/><path class="m" d="M517.4,263.8v-13.8l53.7-54.1c3.9,.6,11.1,2.6,11.1,2.6l-64.8,65.3Z"/><path class="m" d="M593,203.2l-75.5,76.2v-14.1l66-66.6c3.2,.8,6.2,1.9,9.4,3l.1,1.5h0Z"/><polygon class="m" points="601.3 285.3 517.5 285.3 517.5 280.8 593.1 204.5 594.4 217.1 594.4 217.1 594.5 218.4 595.8 231.4 596 232.6 597.2 244.7 597.2 244.9 597.2 245 597.3 246 597.4 246.2 597.4 246.3 598.6 258.8 598.7 258.9 598.8 260 598.8 260.2 600 272.6 600.2 273.9 601.3 285.3"/><path class="g" d="M810.5,646.1c0,3.9-84.2,7-188,7s-188-3.1-188-7c0-.7,2.3-1.3,6.6-1.9h.2c.1,1.3,1.1,2.7,3,2.7h131.3v-7.6c14.9-.1,30.7-.2,46.8-.2,103.9,0,188.1,3.1,188.1,7Z"/><g><path class="y" d="M506.9,599.6h0l68,.1v-.1h-68Zm98.5-144.9c-18.2,4-40.6,9-54,9,13.3,.2,35.8-4.8,54.2-8.9,1.6-.3,3.1-.7,4.6-1-1.7,.3-3.2,.6-4.8,.9Zm-161.1,192.2c-1.9,0-2.9-1.4-3-2.7h-.2v.1c.1,.7,.3,1.3,.8,1.8s1.2,.9,2.2,.9h131.5v-.1h-131.3Zm131.1-37.9l-.4-.1m-26.7-145.3h0c.1,0,0,0,0,0Zm-9.6-.3h0c-.1,0,0,0,0,0h0Z"/><rect class="t" x="520" y="599.6" width="54.9" height=".1"/></g><g><path d="M561.5,381.2c-4.2,.6-8.5,.9-12.7,.9,3.6-.1,7.9-.3,12.7-.9Z"/><path d="M561.6,380.2h0c-4.3,.6-8.6,.9-12.8,.9,3.5-.1,7.8-.3,12.8-.9h0Z"/></g><path class="m" d="M486.5,446.3c-.1-.1-.2-.1-.3-.2v-1.1c.2,0,18.7,9,20.5,9.8-2.9-1-5.8-2-8.7-3.2h-.1c-.3-.1-.6-.3-.9-.4h-.1c-3.2-1.3-6.3-2.8-9.3-4.4h0c-.3-.2-.6-.3-.9-.5h-.2Z"/><path class="m" d="M506.8,536.7h-20.6v-76.9l2,1.1s.1,0,.1,.1c.3,.2,.6,.3,.9,.5h0c3.1,1.6,6.2,3.1,9.3,4.4h.1c.3,.1,.7,.3,.9,.4h.1c2.3,1,4.7,1.9,7.1,2.7l.1,67.7Z"/><path class="a`" d="M517.5,197.5v87.9h-.9l-11.2-.1,1.5-85.3c2.8-1,7.2-1.9,10.1-2.4,.2-.1,.3-.1,.5-.1Z"/><path class="a`" d="M619.7,449.8v.3c-.1,0-.2,0-.4,.1-.1,0-.2,0-.3,.1-.1,0-.3,0-.4,.1-3.8,.8-8.2,1.8-12.9,2.8-.8,.2-1.6,.3-2.4,.5h0c-.4,.1-.9,.2-1.3,.3-.3,.1-.6,.1-.9,.2l-1.2,.3,.4-.4h0l-.4,.4-.6,.1c-2.6,.5-5.2,1.1-7.8,1.7h-.1c-2.9,.6-5.8,1.2-8.7,1.8-.2,0-.3,.1-.5,.1-.5,.1-1,.2-1.4,.2-.8,.2-1.6,.3-2.3,.5-4.8,.9-9.5,1.6-13.8,2.2h-.3c-.5,.1-1.1,.1-1.5,.2h0c-3.2,.3-6.1,.6-8.8,.7h-1.3c-1.1,0-2.1,0-3-.1h-2.8l-12.8-.9h0s-.8-.1-1.3-.2c0,0-11.1-1.9-11.8-2h-.1c-.4-.1-.8-.2-1.1-.3h-.1c-.8-.2-1.5-.4-2.2-.5-.1,0-.2,0-.3-.1-.2-.1-.5-.1-.7-.2-.3-.1-.6-.1-.9-.2h-.1c-.3-.1-.6-.1-.9-.2-.2,0-.4-.1-.5-.1s-.3-.1-.4-.1-.2-.1-.3-.1c-.2-.1-.4-.1-.6-.2-.6-.2-1.2-.3-1.7-.5-.4-.1-.8-.2-1.2-.3h0q-.1,0-.2-.1c-.1,0-.2-.1-.2-.1l-.3-.1h-.3c-.3-.1-.7-.2-1-.3h-.3c-.3-.1-.6-.2-1-.3,1.9-.1,110.1-4.7,113-5.3Z"/><path class="a`" d="M607.5,467.7c4.4-.9,8.5-1.9,12.2-2.6v133.5h-112.8v-61.8h-.1v-67.9c.9,.3,1.8,.6,2.7,.9h.3c.3,.1,.7,.2,1,.3h.1l.3,.1c.1,0,.2,.1,.2,.1,.1,0,.2,.1,.2,.1h0c.4,.1,.8,.2,1.2,.3,.6,.2,1.1,.4,1.7,.5,.2,.1,.4,.1,.6,.2,.1,0,.2,.1,.3,.1s.3,.1,.4,.1c.2,0,.4,.1,.5,.1,.3,.1,.6,.1,.9,.2h.1c.3,.1,.6,.1,.9,.2,.2,.1,.5,.1,.7,.2,.1,0,.2,.1,.3,.1,.7,.2,1.5,.4,2.2,.5h.1c.4,.1,.8,.2,1.1,.3h.1c.7,.1,11.7,2,11.8,2,.4,.1,1.2,.2,1.3,.2h0l12.8,.9h2.7c.9,.1,1.9,.1,3,.1h1.3c2.7-.1,5.6-.3,8.8-.7h0c.5-.1,1.1-.1,1.5-.2h.3c4.4-.6,9-1.3,13.8-2.2,.8-.2,1.6-.3,2.4-.5,.4-.1,.9-.2,1.4-.2,.2,0,.3-.1,.5-.1,2.9-.6,5.8-1.2,8.7-1.8h.1c2.6-.6,5.2-1.1,7.8-1.7l.6-.1h0l1.2-.3c.3,0,.6-.1,.8-.2,.5-.1,.9-.2,1.3-.3h0c1.2-.1,1.9-.2,2.7-.4Z"/><g><path class="y" d="M524.5,196l-7,7.1v-5.6c.7-.2,1.4-.3,2.2-.5l1.2-.3h.2c.8-.2,2.7-.5,3.3-.6,0-.1,.1-.1,.1-.1Z"/><path class="y" d="M533.1,202.3l-15.6,15.8v-13.6l8.1-8.2h0c.1,.1,.2,.3,.3,.4,.1,.1,.2,.3,.4,.4h0c.2,.3,.5,.6,.8,.9,.2,.2,.5,.4,.7,.7,.1,.1,.2,.2,.4,.3,.2,.2,.4,.3,.6,.5,.1,.1,.2,.1,.3,.2h0c.2,.2,.4,.3,.6,.5,.3,.2,.6,.4,.8,.6,.2,.2,.5,.3,.8,.5q.1,.1,.2,.1s.1,0,.1,.1h.1c.2,.1,.4,.2,.7,.4h0c.1,.1,.2,.1,.2,.1,.2,.2,.4,.3,.5,.3h0Z"/><path class="y" d="M546.6,204l-29.2,29.4v-13.9l16.6-16.8c.1,0,.2,.1,.2,.1,.1,.1,.2,.1,.4,.1,.1,.1,.2,.1,.4,.1,.3,.1,.5,.2,.8,.3,.2,.1,.3,.1,.5,.2q.1,0,.2,.1c.2,.1,.4,.1,.6,.2,.1,0,.2,0,.2,.1,.3,.1,.6,.1,.8,.2h.1c.2,.1,.5,.1,.7,.1,.1,0,.2,0,.4,.1h0c.2,0,.3,0,.5,.1h.2c.3,0,.6,.1,.9,.1h2.1c.3,0,.7,0,1-.1h.2c.2,0,.5-.1,.7-.1h.1c.2,0,.4-.1,.6-.1,.5-.1,.8-.1,1-.2h0Z"/><path class="y" d="M569.8,195.9l-52.3,52.7v-13.8l31-31.3h0c.2,0,.3-.1,.5-.1,.2-.1,.4-.1,.6-.2,.2-.1,.4-.1,.6-.2,.1,0,.2-.1,.2-.1,.3-.1,.6-.3,.9-.4,0,0,.1,0,.1-.1,.2-.1,.3-.1,.5-.2h0l.6-.3c.4-.2,.7-.4,1.1-.7h0c.3-.2,.7-.4,1-.7l.1-.1,.1-.1,.3-.3c.1-.1,.3-.2,.4-.3h0c.1-.1,.2-.1,.2-.2,.2-.2,.4-.3,.5-.5,.2-.1,.3-.2,.4-.4l.3-.3,.3-.3,.3-.3c.2-.2,.4-.4,.5-.6,.1-.1,.2-.2,.3-.4,.2-.2,.4-.4,.5-.6,.1-.1,.2-.3,.3-.4,.1-.1,.2-.3,.3-.4s.2-.3,.3-.4l.1-.1c3.6,.3,6.8,.7,10,1.1h0Z"/><path class="y" d="M593,203.2l-75.5,76.2v-14.1l65.9-66.5c3.2,.8,6.3,1.8,9.5,2.9l.1,1.5h0Z"/><polygon class="y" points="601.3 285.3 517.5 285.3 517.5 280.8 593.1 204.5 594.4 217.1 594.4 217.1 594.5 218.4 595.8 231.4 596 232.6 597.2 244.7 597.2 244.9 597.2 245 597.3 246 597.4 246.2 597.4 246.3 598.6 258.8 598.7 258.9 598.8 260 598.8 260.2 600 272.6 600.2 273.9 601.3 285.3"/></g><g class="i"><rect class="h" x="515.2" y="598.6" width="60.4" height="9.3"/></g><polygon points="597.2 245 557.3 285.3 557 285.3 597.2 244.7 597.2 244.9 597.2 245"/><g><polygon points="597.2 245 557.3 285.3 557.2 285.3 597.2 244.9 597.2 245"/><polygon points="597.4 246.2 558.5 285.3 558.4 285.3 597.3 246 597.4 246.2"/></g><polygon points="597.4 246.3 558.7 285.3 558.4 285.3 597.3 246 597.4 246.2 597.4 246.3"/><polygon points="598.7 258.9 572.4 285.3 572.3 285.3 598.6 258.8 598.7 258.9"/><g><polygon points="598.8 260.2 573.8 285.3 573.7 285.3 598.8 260 598.8 260.2"/><polygon points="620.6 238.2 620.2 238.6 620.2 237.8 620.6 238.2"/></g><path class="a`" d="M618.9,370.8c-83.9,32.3-110.9,1.5-111.9,1l-1.3-86.9,106.6,.2,.5,4.9,.1,1.3,1.3,12.7h0l.1,1.3,4.5,44.2s.7,21.1,.1,21.3Z"/><g><path d="M587.3,285.4h1.4l11.4-11.5-.1-1.3h0m-1.4-13.7l-26.2,26.5h1.3l25.1-25.3-.2-1.2Zm-1.3-12.9l-.1-1h0l-40,40.3h1.1m37.5-53.9l-54,54h1.4l52.7-52.7-.1-1.3h0Zm-1.4-14.3l-67.7,68.2h1.4l66.4-66.9-.1-1.3h0Z"/><polygon points="621.4 283.1 620.2 284.3 620.2 282.9 620.7 282.4 621.4 283.1"/></g><path class="e" d="M560.4,194.3c-1.7,2.6-4.2,5.1-6.9,6.7-.6,.4-1.2,.7-1.8,1h-.1c-.1,0-.1,.1-.2,.1-.9,.4-1.9,.8-2.8,1.1h-.1c-.6,.2-1.2,.3-1.9,.5-1.4,.3-2.8,.4-4.2,.4-3,0-5.8-.6-8.4-1.7-.3-.1-.6-.2-.9-.4-2.9-1.4-7.7-6.2-7.8-6.4,14-3.4,35.2-1.5,35.1-1.3Z"/><g><path class="m" d="M604.9,206.5l-.8,.8h0l-.1-1.2h0c.3,.2,.6,.3,.9,.4Z"/><path class="m" d="M605.6,221.7l-1.3-13h0l1.6-1.6c2.4,.9,9.2,4.5,9.7,4.9,0-.2-10,9.7-10,9.7Z"/><path class="m" d="M620.2,214.3v23.5l-.3-.3-11.5,11.6-.2-2-1.1-10.6h0l12.6-12.7-.7-.7-12,12.1-1-10.1-.2-2.3h0l5.8-5.8,4.7-4.7c.8,.5,1.7,1,2.5,1.5v-.6c.4,.4,.9,.7,1.4,1.1h0Z"/><polygon class="m" points="620.2 238.6 620.2 252.2 609.7 262.8 608.5 250.4 620.2 238.6"/><polygon class="m" points="620.2 253.7 620.2 268.5 619.9 268.1 611.2 276.9 609.9 264.1 620.2 253.7"/><polygon class="m" points="620.2 269.2 620.2 282.9 612.6 290.6 612.1 286.3 612 285.3 611.3 278.2 620.2 269.2"/><polygon class="m" points="620.2 284.3 620.2 365.5 619.7 360.6 618.7 350.8 618.7 350.8 612.7 291.9 612.7 291.9 620.2 284.3"/></g><g class="ae"><line class="y" x1="618.7" y1="370.8" x2="605.6" y2="373.5"/></g><g><path class="y" d="M604.9,206.5l-.8,.8h0l-.1-1.2h0c.3,.2,.6,.3,.9,.4Z"/><path class="y" d="M620.2,214.3v23.5l-.3-.3-11.5,11.6-.2-2-1.1-10.6h0l12.6-12.7-.7-.7-12,12.1-1-10.1-.2-2.3h0l5.8-5.8,4.7-4.7c.8,.5,1.7,1,2.5,1.5v-.6c.4,.4,.9,.7,1.4,1.1h0Z"/><polygon class="y" points="620.2 238.6 620.2 252.2 609.7 262.8 608.5 250.4 620.2 238.6"/><polygon class="y" points="620.2 253.7 620.2 268.5 619.9 268.1 611.2 276.9 609.9 264.1 620.2 253.7"/><polygon class="y" points="620.2 269.2 620.2 282.9 612.6 290.6 612.1 286.3 612 285.3 611.3 278.2 620.2 269.2"/><polygon class="y" points="620.2 284.3 620.2 365.5 619.7 360.6 618.7 350.8 618.7 350.8 612.7 291.9 612.7 291.9 620.2 284.3"/></g><polygon points="621.4 252.4 620.2 253.7 620.2 252.2 620.7 251.7 621.4 252.4"/><polygon points="621.4 252.4 620.2 253.7 620.2 252.2 620.7 251.7 621.4 252.4"/><polygon points="620.6 268.9 620.2 269.2 620.2 268.5 620.6 268.9"/><g><polygon class="m" points="1356.4 663.8 1357.9 663.8 1357.9 943.2 1239.7 943.2 1239.7 941.7 621.7 941.7 621.7 207 1356.4 207 1356.4 361.7 1357.9 361.7 1357.9 362.7 1356.4 362.7 1356.4 663.8"/><polygon class="k" points="1359.4 204 1359.4 943.2 1356.4 943.2 1356.4 362.7 1359.1 362.7 1359.1 361.7 1356.4 361.7 1356.4 207 621.7 207 621.7 941.7 1359.4 941.7 1359.4 944.7 618.7 944.7 618.7 204 1359.4 204"/></g><path class="h" d="M1316.3,361.7v-70.4h-1v70.4h-107.5v-107.5h31.9v-1h-31.9v-46.2h-1v46.2h-107.5v-46.2h-1v46.2h-107.5v-46.2h-1v46.2h-107.5v-46.2h-1v46.2h-107.5v-46.2h-1v46.2h-32.1v1h32.1v167.2h1V254.2h107.5v107.5h-117.1v1h117.1v107.5h-107.5v-48.7h-1v48.7h-107.5v-11.5h-1v11.5h-41.8v1h41.8v107.5h-42.6v1h42.6v107.5h-42.6v1h42.6v107.5h-42.6v1h42.6v42.5h1v-42.5h107.5v107.5h-107.5v-10.2h-1v10.2h-42.6v1h42.6v36.5h1v-36.5h107.5v36.5h1v-36.5h107.5v36.5h1v-36.5h107.5v36.5h1v-36.5h107.5v36.5h1v-36.5h107.5v36.5h1v-36.5h150.1v-1h-150.1v-54.4h-1v54.4h-107.5v-107.5h258.6v-1h-258.6v-107.5h107.5v162.3h1v-162.3h150.1v-1h-150.1v-107.5h107.5v362h1v-362h40.1v-1h-40.1v-107.5h40.1v-1h-40.1v-107.5h42.8v-1h-42.8Zm-543.5,434h-107.5v-107.5h107.5v107.5Zm0-108.5h-107.5v-107.5h107.5v107.5Zm0-108.5h-107.5v-107.5h107.5v107.5Zm108.5,325.5h-107.5v-107.5h107.5v107.5Zm0-108.5h-107.5v-107.5h107.5v107.5Zm0-108.5h-107.5v-107.5h107.5v107.5Zm0-108.5h-107.5v-107.5h107.5v107.5Zm108.5,325.5h-107.5v-107.5h107.5v107.5Zm0-108.5h-107.5v-107.5h107.5v107.5Zm0-108.5h-107.5v-107.5h107.5v107.5Zm0-108.5h-107.5v-107.5h107.5v107.5Zm0-108.5h-107.5v-107.5h107.5v107.5Zm0-108.5h-107.5v-107.5h107.5v107.5Zm108.5,542.5h-107.5v-107.5h107.5v107.5Zm0-108.5h-107.5v-107.5h107.5v107.5Zm0-108.5h-107.5v-107.5h107.5v107.5Zm0-108.5h-107.5v-107.5h107.5v107.5Zm0-108.5h-107.5v-107.5h107.5v107.5Zm0-108.5h-107.5v-107.5h107.5v107.5Zm108.5,217h-5.7v1h5.7v107.5h-107.5v-107.5h26.6v-1h-26.6v-107.5h107.5v107.5Zm0-108.5h-107.5v-107.5h107.5v107.5Zm0-108.5h-107.5v-107.5h107.5v107.5Zm108.5,217h-107.5v-107.5h107.5v107.5Zm0-108.5h-107.5v-107.5h107.5v107.5Z"/><g><rect class="h" x="664.3" y="276.8" width="1" height="78.4"/><rect class="h" x="664.3" y="207" width="1" height="40.3"/><rect class="h" x="1239.7" y="253.2" width="116.8" height="1"/><rect class="h" x="621.7" y="253.2" width="34.3" height="1"/><rect class="h" x="1315.3" y="207" width="1" height="90"/></g><g><path class="m" d="M744.8,272.5c0,2.9-.8,5.8-2.3,8.3-4.3,7-13.7,10.5-30.2,11.5-3.8,.2-7.5,1.1-11,2.7-6.7,3-11.9,3.3-15.5,1-6.2-4-7-15.3-7-24.6,0-8.4,4.8-17.9,12.6-24.7,6.3-5.5,13.6-8.6,20.3-8.6,.9,0,1.7,.1,2.6,.1,10.8,13.9,17.4,17.6,21.8,20,3.4,1.9,5.4,3,7.4,7.4,.9,2.2,1.3,4.6,1.3,6.9h0Z"/><path class="h" d="M744.3,265.2c-2.1-4.7-4.4-5.9-7.8-7.8-4.3-2.4-10.9-6-21.6-19.9l-.1-.2h-.2c-7.8-1-16.5,2.1-23.9,8.6-8.1,7.1-12.9,16.6-12.9,25.4,0,9.6,.8,21.1,7.5,25.4,1.7,1.1,3.8,1.7,6.2,1.7,2.9,0,6.4-.9,10.2-2.6,3.4-1.5,7-2.4,10.7-2.6,16.9-1,26.5-4.7,31-12,2.9-4.7,3.2-10.7,.9-16h0Zm-58.6,30.8c-6.2-4-7-15.3-7-24.6,0-8.4,4.8-17.9,12.6-24.7,6.3-5.5,13.6-8.6,20.3-8.6,.9,0,1.7,.1,2.6,.1,10.8,13.9,17.4,17.6,21.8,20,3.4,1.9,5.4,3,7.4,7.4,1,2.2,1.5,4.5,1.5,6.8,0,2.9-.8,5.8-2.3,8.3-4.3,7-13.7,10.5-30.2,11.5-3.8,.2-7.5,1.1-11,2.7-6.9,3-12.1,3.4-15.7,1.1h0Z"/></g><g><path class="m" d="M715.6,303.7c-.2,1.8-1.8,3.1-3.7,3l-6.5-.5c-.8-.1-1.3-.6-1.4-1.1-.2-.5-.1-1.2,.5-1.7,2.8-2.3,6.6-4.7,9.1-3,1.4,.9,2.1,2,2,3.3h0Z"/><path class="h" d="M714.2,299.5c-2.4-1.6-6-.6-10.3,3.1-.8,.7-1.1,1.8-.8,2.8s1.2,1.7,2.3,1.8l6.5,.5h.3c2.3,0,4.2-1.7,4.4-4,.1-1.6-.7-3-2.4-4.2h0Zm1.4,4.2c-.2,1.8-1.8,3.1-3.7,3l-6.5-.5c-.8-.1-1.3-.6-1.4-1.1-.2-.5-.1-1.2,.5-1.7,2.8-2.3,6.6-4.7,9.1-3,1.4,.9,2.1,2,2,3.3h0Z"/></g><path class="t" d="M726.7,229.2c2.5,6.2,3.2,12.8,2.4,19-.9,6.4-3.5,12.5-7.5,17.6-3.8,5-9,9-15.3,11.5s-12.8,3.2-19,2.4c-6.4-.9-12.5-3.5-17.6-7.5-5-3.9-9-9-11.5-15.3l3-1.2c2.3,5.7,6,10.4,10.5,13.9,4.7,3.6,10.2,6,16.1,6.8,5.7,.8,11.6,.2,17.3-2.1,5.7-2.3,10.4-6,13.9-10.5,3.6-4.7,6-10.2,6.8-16.1,.8-5.7,.2-11.6-2.2-17.3l3.1-1.2h0Z"/><path class="aa" d="M698.2,240.7c.4,1,.5,2.1,.4,3.1-.2,1.1-.6,2.1-1.2,2.9-.6,.8-1.5,1.5-2.5,1.9s-2.1,.5-3.2,.4c-1.1-.1-2.1-.6-2.9-1.2-.8-.6-1.5-1.5-1.9-2.5l-25.6,10.4c2.3,5.7,6,10.4,10.5,13.9,4.7,3.6,10.2,6,16.1,6.8,5.7,.8,11.6,.2,17.3-2.1,5.7-2.3,10.4-6,13.9-10.5,3.6-4.7,6-10.2,6.8-16.1,.8-5.7,.2-11.6-2.2-17.3l-25.5,10.3h0Zm-29,24.8c-1.8-1.9-3.4-4-4.7-6.2-.8-1.5-.2-3.3,1.3-4l19.8-8c.3-.1,.7,0,.9,.2h0c.2,.3,.2,.7,0,.9l-13.1,16.8c-1.1,1.5-3,1.5-4.2,.3h0Zm14.4,8.7c-2.5-.7-4.9-1.7-7.2-3-1.5-.8-1.9-2.8-.8-4.1l13.1-16.8c.2-.3,.6-.4,.9-.2h0c.3,.1,.5,.5,.5,.8l-2.9,21.1c-.4,1.6-2,2.6-3.6,2.2h0Zm18.6-3.4c.6,1.6-.3,3.3-1.9,3.7-2.5,.6-5.1,1-7.7,1-1.7,0-3-1.5-2.8-3.1l2.9-21.2c0-.3,.3-.6,.7-.6h0c.3,0,.7,.1,.8,.5l8,19.7h0Zm12.8-4.4c-1.9,1.8-4,3.4-6.2,4.7-1.5,.9-3.3,.2-4-1.3l-8-19.8c-.1-.3,0-.7,.2-.9h0c.3-.2,.7-.2,.9,0l16.8,13.1c1.4,1,1.5,3,.3,4.2h0Zm8.6-14.4c-.7,2.5-1.7,4.9-3,7.2-.8,1.5-2.8,1.9-4.1,.8l-16.8-13.1c-.3-.2-.4-.6-.2-.9h0c.1-.3,.5-.5,.8-.5l21.1,2.9c1.6,.3,2.7,2,2.2,3.6h0Zm1.3-9c0,1.7-1.5,3-3.1,2.8l-21.1-2.9c-.3-.1-.6-.3-.7-.6h0c0-.4,.2-.7,.5-.8l19.8-8c1.6-.6,3.3,.3,3.7,1.9,.5,2.4,.8,5,.9,7.6h0Z"/><path class="t" d="M686.5,248.5l-13.1,16.8c-1,1.3-3,1.4-4.2,.2-1.8-1.9-3.4-4-4.7-6.2-.8-1.5-.2-3.3,1.3-4l19.8-8c.3-.1,.7,0,.9,.2h0c.2,.3,.2,.7,0,1h0Z"/><path class="t" d="M690,250.7l-2.9,21.1c-.2,1.7-1.9,2.7-3.5,2.3-2.5-.7-4.9-1.7-7.2-3-1.5-.8-1.9-2.8-.8-4.1l13.1-16.8c.2-.3,.6-.4,.9-.2h0c.3,.1,.5,.4,.4,.7h0Z"/><path class="t" d="M694.2,250.9l8,19.8c.6,1.6-.3,3.3-1.9,3.7-2.5,.6-5.1,1-7.7,1-1.7,0-3-1.5-2.8-3.1l2.9-21.2c0-.3,.3-.6,.7-.6h0c.3-.1,.7,.1,.8,.4h0Z"/><path class="t" d="M715,266.3c-1.9,1.8-4,3.4-6.2,4.7-1.5,.9-3.3,.2-4-1.3l-8-19.8c-.1-.3,0-.7,.2-.9h0c.3-.2,.7-.2,.9,0l16.8,13.1c1.4,1.1,1.5,3.1,.3,4.2h0Z"/><path class="t" d="M723.6,252c-.7,2.5-1.7,4.9-3,7.2-.8,1.5-2.8,1.9-4.1,.8l-16.8-13.1c-.3-.2-.4-.6-.2-.9h0c.1-.3,.5-.5,.8-.5l21.1,2.9c1.6,.3,2.7,1.9,2.2,3.6h0Z"/><path class="t" d="M723.9,235.2c.6,2.5,1,5.1,1,7.7,0,1.7-1.5,3-3.1,2.8l-21.1-2.9c-.3-.1-.6-.3-.7-.6h0c0-.4,.2-.7,.5-.8l19.8-8c1.4-.7,3.2,.2,3.6,1.8h0Z"/><path class="t" d="M698.2,240.7c.4,1,.5,2.1,.4,3.1-.2,1.1-.6,2.1-1.2,2.9-.6,.8-1.5,1.5-2.5,1.9s-2.1,.5-3.2,.4c-1.1-.1-2.1-.6-2.9-1.2-.8-.6-1.5-1.5-1.9-2.5l11.3-4.6h0Z"/><g><path d="M1200.5,563.8l-29.3-13.4-7.8,17-.3-1.5-31.7,6.3,5.1,25.8h0l2,10.1,31.7-6.3-1.9-9.5-.1-.6-1.6-7.9,20.4,9.3,13.5-29.3Zm-30.9,37.6l-30.7,6.1-1.8-9.1,30.7-6.1,1.8,9.1Zm-1.9-9.6l-30.7,6.1-5.1-25.3,30.7-6.1,.3,1.7-5.3,11.6,8.4,3.8,1.7,8.2h0Zm-1.2-8.7l-.3-.1-.3-.1-7.6-3.5,4.8-10.5,.2-.4,.2-.4,7.9-17.2,28.4,13-13,28.4-20.3-9.2h0Z"/><polygon class="m" points="1167.7 591.8 1137 597.9 1132 572.5 1162.7 566.4 1163 568.1 1157.7 579.7 1166.1 583.5 1167.7 591.8"/></g><polygon class="m" points="1169.6 601.4 1138.9 607.5 1137.1 598.4 1167.8 592.3 1169.6 601.4"/><g><path class="m" d="M1171.4,551l-7.9,17.2-.2,.4-.2,.4-4.8,10.5,7.6,3.5,.3,.1,.3,.1,20.3,9.3,13-28.4-28.4-13.1h0Zm6.9,33.4l10.7-4.8,.2,.5-10.7,4.8-.2-.5Zm2.5,1.4l-.2-.5,7.7-3.4,.2,.5-7.7,3.4Z"/><polygon class="m" points="1188.3 582 1188.5 582.4 1180.8 585.8 1180.6 585.4 1188.3 582"/><polygon class="m" points="1189.3 580.1 1178.6 584.9 1178.3 584.4 1189.1 579.7 1189.3 580.1"/></g><polygon points="1158.9 591.5 1158.5 591.3 1161.4 584.4 1161.8 584.6 1158.9 591.5"/><polygon points="1138.6 584 1138.1 583.8 1142.1 574.2 1142.6 574.4 1138.6 584"/><polygon points="1156.3 592.7 1155.8 592.5 1159.6 583.5 1160 583.7 1156.3 592.7"/><polygon points="1188.5 582.4 1180.8 585.8 1180.6 585.4 1188.3 582 1188.5 582.4"/><polygon points="1189.3 580.1 1178.6 584.9 1178.3 584.4 1189.1 579.7 1189.3 580.1"/><path class="k" d="M681.6,873.5c-1-.8-2.4-.9-4-.3-2.4,.9-2.2,2.7-1.9,5,.1,.5,.1,1,.2,1.5,.1,.8,.6,1.5,1.4,1.7,.2,.1,.4,.1,.7,.1,.6,0,1.2-.3,1.6-.8l2.4-2.4c.6-.7,.9-1.7,.8-2.6,0-.8-.5-1.7-1.2-2.2h0Zm-2.4,6.9c-.5,.6-1.2,.7-1.7,.5-.6-.2-1-.7-1.1-1.3,0-.6-.1-1.1-.2-1.6-.3-2.3-.5-3.7,1.6-4.5,.6-.2,1.2-.3,1.7-.3,.7,0,1.3,.2,1.8,.6,.6,.5,1,1.2,1,1.9,.1,.8-.2,1.6-.7,2.2l-2.4,2.5h0Z"/><g><path class="m" d="M663.9,847.3l.1,.2,.1,.2-8.3,2.8-.1-.2-.1-.2,8.3-2.8Zm-8.7,5l-.1-.2,11-3.7,.1,.2,.1,.2-11,3.7-.1-.2h0Z"/><path d="M646.4,860.9h0l.1-.2-.1,.2Z"/></g><polygon class="m" points="669.2 874.8 665.2 881.3 642.8 867.7 646.8 861.1 669.2 874.8"/><g><path class="k" d="M696.7,832.5l-25.1,10.5,3.7,8.8-17-10.4-11.5,18.9-.2,.3-.1,.2h0l-4.3,7,23.3,14.2,4.3-7,.3-.5,8.8-14.4,3.4,8,25.1-10.5-10.7-25.1h0Zm-31.5,48.8l-22.4-13.7,4-6.6,22.4,13.7-4,6.6h0Zm4.3-7l-22.4-13.7,11.3-18.5,17.2,10.5h0l2.9,6.9-9,14.8Zm9.5-14.7h0l-.1-.3-.1-.3-2.5-6-.2-.4-.2-.4-3.8-8.9,24.2-10.2,10.2,24.2-24.2,10.2-3.3-7.9Z"/><path class="m" d="M675.6,852.7h0l-17.2-10.5-11.3,18.5,22.4,13.7,9-14.7-2.9-7Zm-12.6,16.6l-.1-.2-.1-.2,8.3-2.8,.1,.2,.1,.2-8.3,2.8Z"/><path class="m" d="M696.4,833.2l-24.2,10.2,3.8,8.9,.2,.4,.2,.4,2.5,6,.1,.3,.1,.3h0l3.3,7.9,24.2-10.2-10.2-24.2h0Zm-1.7,13.9v.2l-8.7-1v-.4l8.7,1v.2Zm-10.2-2.7l.1-.5,12.1,1.3-.1,.5-12.1-1.3Z"/></g><g><line class="y" x1="685.8" y1="842.6" x2="695" y2="843.6"/><rect x="690.06" y="838.53" width=".5" height="9.2" transform="translate(-224.17 1435.67) rotate(-83.63)"/></g><polygon class="k" points="694.8 846.9 694.7 847.1 694.7 847.4 686 846.4 686 846.2 686.1 845.9 694.8 846.9"/><g><line class="y" x1="684.5" y1="844.1" x2="696.7" y2="845.5"/><polygon class="k" points="696.7 845.2 696.6 845.7 684.5 844.4 684.6 843.9 696.7 845.2"/></g><polygon class="k" points="664.1 847.8 655.8 850.6 655.7 850.3 655.6 850.1 663.9 847.3 664 847.5 664.1 847.8"/><polygon class="k" points="671.3 866.5 663 869.3 663 869.1 662.9 868.8 671.2 866 671.2 866.3 671.3 866.5"/><polygon class="k" points="666.3 848.8 655.3 852.5 655.2 852.3 655.1 852 666.1 848.3 666.2 848.5 666.3 848.8"/><path class="k" d="M509.4,455.7c.2,.1,.3,.1,.5,.2l-.3-.1c-.2-.1-.4-.1-.6-.2h.1l.3,.1Z"/><path class="y" d="M771,371.8c0,1.7-.8,3.4-2.8,4.3l-11.9,4.5-48.9,18.3c-1.2,.5-1.6,1.7-1.5,2.5s.7,1.8,2,2.1l27.1-1.8,25.4-1.7c1,.1,1.9,.6,2.5,1.3,.7,.6,1.1,1.5,1.3,2.5,.2,2-.8,3.9-2.7,4.6l-8.2,3.1-65.2,24.7-.5,.2-.4,.1-1.3-6h0l-3-13.6h0l-2.5-11.2h0l-.3-1.2-.1-.3-2.3-11.1-.1,.1-.3-1.1,.1-.1-2.4-11.2-.1,.1-.3-1.3h0l-2.5-11.4h0l-.2-1,.1-.1-1.9-8.2c50.1-10.8,87.3-19.1,87.3-19.1,2.6-.4,4.4,1.3,4.9,3.1,.6,1.8,0,4.2-2.3,5.3l-16.7,6.6-38.3,15.8c-1.2,.6-1.5,1.8-1.3,2.7,.2,.9,.9,1.9,2.3,1.9l30.1-3.9,30.4-3.9c1.3,0,2.3,.5,3,1.1,.7,.7,1.2,1.6,1.3,2.5,.2,.2,.2,.5,.2,.8Z"/><rect class="g" x="1438.3" y="245.6" width="401" height="113.8"/><g><rect class="m" x="1423.4" y="229.8" width="401" height="113.8"/><path class="j" d="M1824.9,344.1h-401.9v-114.8h401.9v114.8Zm-401-1h400v-112.8h-400v112.8Z"/></g><g><polygon class="p" points="1509.7 227.7 1400.8 239.1 1395 181.5 1503.9 170 1509.7 227.7"/><path d="M1400.3,239.7l-5.9-58.6,109.9-11.6,5.9,58.6-109.9,11.6Zm-4.8-57.7l5.7,56.6,107.9-11.4-5.7-56.6-107.9,11.4Z"/></g><g><path d="M1431.6,215.3l7.6-1v1.1l-8.9,1.2-.2-18.3,1.2-.2,.3,17.2Z"/><path d="M1443.3,197.5v.4c0,.1-.1,.3-.2,.4-.1,.1-.2,.2-.3,.3-.1,.1-.2,.1-.4,.1h-.4c-.1,0-.3-.1-.4-.2s-.2-.2-.3-.3c-.1-.1-.1-.3-.1-.4v-.4c0-.1,.1-.3,.2-.4,.1-.1,.2-.2,.3-.3,.1-.1,.2-.1,.4-.1h.4c.1,0,.3,.1,.4,.2,.1,.1,.2,.2,.3,.3,0,.1,.1,.2,.1,.4Zm-.3,4.5l.1,12.8-1.2,.2-.1-12.8,1.2-.2Z"/><path d="M1445.5,201.6l.9-.1c.1,0,.2,0,.3,.1q.1,.1,.1,.2l3.8,9.6c.1,.2,.1,.4,.2,.6,0,.2,.1,.4,.1,.6,.1-.4,.2-.8,.3-1.2l3.6-10.6c0-.1,.1-.2,.2-.2,.1-.1,.2-.1,.2-.1l.9-.1-4.7,13.5-1,.1-4.9-12.4Z"/><path d="M1466.2,201.3v1c-.1,.3-.2,.6-.4,1-.2,.3-.5,.6-.8,.9-.4,.3-.8,.6-1.4,.9s-1.3,.6-2.1,.9c-.8,.3-1.8,.6-3,.8v.5c0,.2,0,.3,.1,.5,.2,1.3,.6,2.2,1.2,2.8,.7,.6,1.5,.9,2.7,.7,.4-.1,.8-.2,1.2-.3,.3-.1,.6-.3,.9-.5s.5-.4,.7-.6,.4-.4,.5-.6,.3-.3,.4-.4,.2-.2,.3-.2,.2,0,.3,.1l.3,.3c-.3,.5-.7,.9-1,1.3s-.7,.7-1.1,.9c-.4,.3-.8,.5-1.2,.6-.4,.2-.9,.3-1.3,.3-.7,.1-1.3,.1-1.9-.1s-1.1-.4-1.5-.8-.8-.9-1-1.5c-.3-.6-.5-1.3-.6-2-.1-.6-.1-1.3-.1-1.9,0-.7,.1-1.3,.3-1.9,.2-.6,.4-1.2,.7-1.8,.3-.6,.6-1.1,1.1-1.5,.4-.4,.9-.8,1.4-1.1s1.1-.5,1.8-.6c.6-.1,1.1-.1,1.6,.1,.4,.1,.8,.3,1.1,.5,.3,.2,.5,.5,.7,.8-.1,.4,0,.6,.1,.9Zm-3.6-1.3c-.7,.1-1.2,.3-1.7,.7s-.9,.8-1.3,1.3c-.3,.5-.6,1.1-.8,1.8-.2,.7-.3,1.4-.4,2.1,1-.3,1.9-.5,2.7-.8,.7-.3,1.4-.5,1.9-.8,.5-.2,.9-.5,1.2-.7,.3-.2,.5-.5,.7-.7s.2-.5,.3-.7v-.7c0-.2-.1-.4-.2-.6s-.3-.4-.5-.5-.5-.3-.8-.3c-.3-.1-.7-.1-1.1-.1Z"/><path d="M1475.6,199.1c-.1,.1-.1,.2-.3,.2-.1,0-.2,0-.3-.1-.1-.1-.3-.2-.5-.3s-.5-.2-.8-.3-.7-.1-1.2,0c-.4,.1-.8,.2-1.2,.4-.4,.2-.7,.4-.9,.7-.2,.3-.4,.6-.5,.9s-.2,.7-.1,1c0,.3,.2,.6,.3,.8,.2,.2,.4,.4,.7,.5l.9,.3c.3,.1,.7,.2,1.1,.2,.4,.1,.7,.2,1.1,.3,.3,.1,.7,.3,1,.4,.3,.2,.5,.4,.7,.7s.3,.7,.4,1.1c.1,.5,0,1.1-.1,1.6s-.4,1-.7,1.5c-.3,.4-.8,.8-1.3,1.1s-1.1,.5-1.8,.6c-.8,.1-1.5,.1-2.1-.2-.6-.2-1.1-.5-1.5-.9l.2-.5c0-.1,.1-.1,.1-.2,0,0,.1-.1,.2-.1s.2,0,.3,.2c.1,.1,.3,.2,.6,.4,.2,.1,.5,.2,.9,.3s.8,.1,1.3,0,.9-.2,1.3-.4,.7-.5,.9-.8c.2-.3,.4-.7,.5-1.1s.1-.8,.1-1.2-.2-.7-.4-.9c-.2-.2-.4-.4-.7-.6-.3-.1-.6-.3-.9-.3-.3-.1-.7-.2-1.1-.2-.4-.1-.7-.2-1.1-.3-.3-.1-.7-.2-1-.4s-.5-.4-.7-.7-.3-.6-.4-1.1,0-1,.1-1.5,.4-.9,.7-1.3c.3-.4,.7-.7,1.2-1s1-.5,1.6-.5c.7-.1,1.3-.1,1.9,.1,.5,.2,1,.4,1.5,.8v.8Z"/></g><g><line class="y" x1="1456.4" y1="239.4" x2="1458.2" y2="260.5"/><rect class="k" x="1456.6" y="239.4" width="1.5" height="21.2" transform="translate(-15.8 122.7) rotate(-4.79)"/></g><path class="k" d="M1455.3,240.2c-5.2,0-9.5-4.3-9.5-9.7s4.2-9.7,9.5-9.7,9.5,4.3,9.5,9.7-4.3,9.7-9.5,9.7Zm0-17.9c-4.4,0-8,3.7-8,8.2s3.6,8.2,8,8.2,8-3.7,8-8.2-3.6-8.2-8-8.2Z"/><path class="a`" d="M592.9,201.7l8.4,83.7h10.8l-8.1-79.3c-3.5-1.6-11.1-4.4-11.1-4.4Z"/><line class="y" x1="687.3" y1="436.4" x2="686" y2="430.4"/><line class="y" x1="683" y1="416.8" x2="680.5" y2="405.6"/><line class="y" x1="680.1" y1="404" x2="677.7" y2="393"/><line class="y" x1="677.4" y1="391.9" x2="675" y2="380.8"/><line class="y" x1="674.7" y1="379.5" x2="672.2" y2="368.1"/><line class="y" x1="671.9" y1="367.1" x2="670.1" y2="358.8"/><path class="k" d="M202.3,559h0c-.3-.1-.4-.1-.6-.2h.1l.3,.1c.1,.1,.2,.1,.2,.1Z"/><g><path class="k" d="M436.8,253.8c-.3,.5-.7,1-1,1.6-.8,1.2-1.6,2.5-2.3,3.7-2.5,3.9-4.6,8.1-6.6,12.4-1.8,3.7-3.1,6.8-4.4,10.5l-.4,.4c3.3-9.4,7.6-18.4,12.9-26.8l1.8-1.8Z"/><path class="k" d="M421.8,284.3h0c-.2,.8-.5,1.7-.6,2.2-1.6,5.7-2.9,10.5-4.1,16.3l-.2,.2c1.1-6.3,2.7-12.5,4.7-18.5l.2-.2Z"/><path class="k" d="M416.8,304.6h0c-.4,3-1.4,11-1.8,15.6l-.1,.1c.3-5.2,.8-10.4,1.7-15.5l.2-.2Z"/><path class="k" d="M414.8,331.6c0-.6,0-1.2-.1-1.8v1.5c.1,.1,.1,.2,.1,.3Z"/><path class="k" d="M414.8,321.7h0v1.1c0,.5-.1,1.1-.1,1.6v2.6c0-1.8,0-3.5,.1-5.3h0Z"/><path class="k" d="M415.3,340.4c-.1-1.2-.2-2.4-.3-3.6h0c0,.3,.1,.6,.1,.8,.1,.9,.1,1.9,.2,2.8Z"/><path class="k" d="M434.2,396.9c-.4-.7-.8-1.4-1.2-2,0,0,0,.1,.1,.1,.4,.6,.8,1.3,1.1,1.9Z"/><path class="k" d="M432.5,393.8h0c-1.8-2.8-3.4-5.9-4.8-8.9l.1-.1h0c0,.1,.1,.2,.2,.3,1.3,3,2.8,5.9,4.5,8.7Z"/><path class="k" d="M427.3,383.8h0c-1.5-3.2-2.8-6.4-4.1-9.7v-.1h0c0,.1,.1,.2,.1,.3,1.3,3.4,2.6,6.4,4,9.5Z"/><path class="k" d="M422.8,373.1h0c-1.2-3.2-2.3-6.5-3.2-9.8,1,3.3,2,6.6,3.2,9.8Z"/><polygon class="k" points="524.3 377.4 524.2 377.5 524.2 377.5 524.3 377.4"/><path class="k" d="M476.5,440.1c-2.6-1.7-5.2-3.4-7.7-5.3,2.5,1.8,5.1,3.6,7.7,5.3Z"/><path class="k" d="M550.5,381.6h0c-.6,0-1.2,.1-1.7,.1,.6-.1,1.1-.1,1.7-.1Z"/><path class="k" d="M551.6,380.5h0c-1,.1-1.9,.1-2.8,.1,.9,0,1.8,0,2.8-.1Z"/><path class="k" d="M486.5,445.8h0c-3-1.6-5.9-3.2-8.8-5h0l.1,.1c2.9,1.7,5.8,3.4,8.7,4.9Z"/><path class="k" d="M497,450.8h0c-3.3-1.2-6.4-2.7-9.5-4.3l.1-.1c3,1.6,6.1,3.1,9.4,4.4q-.1,0,0,0Z"/><path class="k" d="M507.8,454.8h-.2c-3.3-1-6.5-2.2-9.7-3.5l.1-.1c3.2,1.4,6.5,2.5,9.8,3.6Z"/><path class="k" d="M513.4,456.5c-1-.2-1.9-.5-2.8-.8-.2-.1-.5-.1-.7-.2,.4,.1,.8,.2,1.2,.3,.6,.2,1.1,.4,1.7,.5,.2,0,.4,.1,.6,.2Z"/><path class="k" d="M547,461.4l-.1,.1c-.1,0,.1-.1,.1-.1Z"/><polygon class="k" points="548.5 461.4 548.3 461.5 548.4 461.4 548.5 461.4"/><path class="k" d="M562.8,460.8l-.2,.2c-3.2,.4-6,.5-8.6,.5,2.7,0,5.6-.3,8.8-.7h0Z"/><polygon class="k" points="674.7 379 674.7 379 673.5 373.5 672.2 367.6 672.2 367.6 673.5 373.5 674.7 379"/><path class="k" d="M600.4,453.6l-.4,.4h0l.4-.4h0Z"/><polygon class="k" points="677.5 391.4 677.5 391.4 675 380.3 675.1 380.2 677.5 391.4"/><polygon class="k" points="680.2 403.6 677.7 392.6 677.8 392.5 680.2 403.6"/><polygon class="k" points="638.4 445.9 638.2 446.1 638.2 446.1 638.4 445.9"/><polygon class="k" points="683 416.3 683 416.3 680.5 405.1 680.5 405.1 683 416.3"/><path class="k" d="M686,430l-3-13.6-2.5-11.2-.3-1.2-.1-.3-2.4-11-.3-1.1-2.5-11.1-.3-1.3-1.3-5.9-1.2-5.5-.2-1-1.8-7.8c-.1,0-84.2,18-84.3,18,0,0-12.2,1.6-15.9,2.1h0c-.6,.1-1.1,.1-1.7,.2-1.2,.1-2.3,.2-3.4,.3-4,.3-7.8,.5-11.4,.6h3.6c-2.6,.1-5,.1-5,.1h-1.6c-3.9,0-7.5-.2-10.8-.5h0c-.4,0-.7-.1-1.1-.1-.3,0-.7-.1-1-.1h0c-3.2-.3-6.2-.7-8.9-1.2h0c-1.1-.2-2.2-.4-3.2-.6-.4-.1-.7-.2-1.1-.2l-.1,.1h0l.1-.1c-.4-.1-.8-.2-1.2-.3h-.2c-.2,0-.4-.1-.6-.1h0c-3.5-.9-6.3-1.8-8.6-2.6-.3-.1-.7-.3-1-.4h0c-1.7-.7-3-1.3-3.9-1.7-1.1-.6-1.7-.9-1.7-.9V200.1h-.1c-.4,.1-1.2,.3-2.2,.7h0c-.7,.3-1.6,.6-2.5,1-7,2.9-18.9,8.5-22.1,10.3-1.3,.8-2.5,1.5-3.7,2.3-.5,.3-1,.7-1.6,1l-3.9,2.7c-11.2,8.1-21.2,17.9-29.7,29.4-.5,.8-1.1,1.5-1.6,2.3-1,1.3-1.9,2.7-2.8,4-.3,.5-.7,1-1,1.6-.8,1.2-1.6,2.5-2.3,3.7-2.5,3.9-4.6,8.1-6.6,12.4-1.8,3.7-3.1,6.8-4.4,10.5-.2,.5-.3,.9-.5,1.4-.1,.2-.2,.6-.3,.9h0c-.2,.8-.5,1.7-.6,2.2-1.6,5.7-2.9,10.5-4.1,16.3h0c0,.2-.1,.4-.1,.6,0,.1-.1,.5-.1,1.1h0c-.4,3-1.4,11-1.8,15.6h0c0,.4-.1,.7-.1,1.1,0,.1,0,.3-.1,.4h0v1.1c0,.5,0,.9-.1,1.4v5.7c0,.5,0,1,.1,1.5v.8c0,1.4,.1,2.8,.2,4.1v.4h0c0,.3,.1,.6,.1,.8,.1,.9,.1,1.9,.2,2.8v.2c.1,.8,.2,1.6,.3,2.4,0,.3,.1,.7,.1,1,.1,.6,.2,1.3,.2,1.9,.2,1.3,.4,2.5,.6,3.8,0,.1,0,.3,.1,.4,0,.3,.1,.5,.1,.8,.7,3.6,1.5,7.4,2.5,11.1,.1,.3,.1,.5,.2,.8,0,.1,.1,.2,.1,.3s0,.2,.1,.2c.9,3.3,2,6.6,3.2,9.8h0c0,.1,.1,.2,.1,.3,.1,.2,.2,.4,.3,.7h0c0,.1,.1,.2,.1,.3,1.3,3.2,2.5,6.3,4,9.4h0c0,.1,.1,.2,.1,.3,.1,.2,.2,.4,.3,.7h0c0,.1,.1,.2,.2,.3,1.3,3,2.9,5.9,4.5,8.7h0c.1,.1,.1,.2,.2,.3,.1,.2,.2,.5,.4,.7,0,0,0,.1,.1,.1,0,0,0,.1,.1,.1,.4,.7,.7,1.3,1.1,1.9l.9,1.5c.1,.2,.3,.4,.4,.7,.1,.2,.3,.4,.4,.6,.3,.5,.7,1.1,1.1,1.6,.4,.7,.9,1.4,1.4,2,.2,.3,.4,.5,.6,.8,1.4,2,2.8,4,4.3,5.9,.5,.6,.9,1.2,1.4,1.8l.1,.1c.2,.2,.3,.4,.5,.6l.1,.1c2.1,2.5,4.2,4.9,6.4,7.2l.1,.1,.7,.7c2.2,2.3,4.5,4.4,6.9,6.6l.1,.1c.2,.2,.5,.4,.7,.6l.1,.1c.9,.8,1.9,1.6,2.8,2.4,.4,.3,.8,.7,1.2,1,1.2,.9,2.3,1.8,3.5,2.8,0,0,.1,0,.1,.1,.3,.2,.5,.3,.7,.5h0c2.5,1.8,5.1,3.6,7.7,5.3,.1,.1,.3,.2,.4,.3h.1c.3,.1,.5,.2,.8,.4,0,0,.1,0,.1,.1,2.8,1.7,5.7,3.3,8.7,4.9,0,0,.1,0,.1,.1,.3,.2,.6,.3,.9,.5h0c3.1,1.6,6.2,3.1,9.3,4.4h.1c.3,.1,.7,.3,.9,.4h.1c3.2,1.4,6.5,2.5,9.8,3.6h.3c.3,.1,.7,.2,1,.3h.1l.3,.1c.1,0,.1,.1,.2,.1s.2,.1,.2,.1h0c.4,.1,.8,.2,1.2,.3,.6,.2,1.2,.4,1.7,.5,.2,.1,.4,.1,.6,.2,.1,0,.2,.1,.3,.1s.3,.1,.4,.1c.2,0,.4,.1,.5,.1,.3,.1,.6,.1,.9,.2h.1c.3,.1,.6,.1,.9,.2,.2,.1,.5,.1,.7,.2,.1,0,.2,.1,.3,.1,.7,.2,1.5,.4,2.2,.5h.1c.4,.1,.8,.2,1.1,.3h.1c.7,.1,11.7,2,11.8,2,.4,.1,1.2,.2,1.3,.2h0l12.8,.9h2.7c.9,.1,1.9,.1,3,.1h1.3c2.6-.1,5.6-.3,8.8-.7h0c.5-.1,1.1-.1,1.5-.2h.3c4.4-.6,9-1.3,13.8-2.2,.8-.2,1.6-.3,2.3-.5,.4-.1,.9-.2,1.4-.2,.2,0,.3-.1,.5-.1,2.9-.6,5.8-1.2,8.7-1.8h.1c2.6-.6,5.2-1.1,7.8-1.7l.6-.1,.4-.4h0l-.2,.7,1.2-.3c.3,0,.6-.1,.9-.2,.5-.1,.9-.2,1.3-.3h0c.8-.2,1.6-.4,2.4-.5,4.7-1,9.1-2,12.9-2.8,.1-.1,.3-.1,.4-.1s.2,0,.3-.1c.4-.1,.7-.2,1.1-.2h.2c.2,0,.4-.1,.7-.1l.8-.2c2.1-.4,3.7-.7,4.9-.9h0c1.1-.2,10.3-2,10.3-2l.9-.2h0l.9-.2,.7-.1,16.3-3.3,1.1-.2,.7-.2,1-.2,10.3-2.1,.5-.1,5.2-1.1,1.2-.3h0l.5-.1,1.4-.3h0l9.2-1.9-1.3-6Zm-124.9-50.2c-.8,.1-1.7,.2-2.7,.2,.9,0,1.8-.1,2.7-.2Z"/><polygon class="k" points="687.3 435.9 686 429.9 686 429.9 687.3 435.9"/></g><path class="f" d="M772.5,387.1c-.3-1.3-1.3-2.8-3.4-2.8l-60.9,7.8c-2,0-3.1-1.3-3.4-2.6-.3-1.3,.2-3,1.9-3.8l55.3-22.8c1.8-.9,2.2-2.7,1.8-4.1s-1.8-2.7-3.8-2.4l-86.5,17.1,1.2,5.5h0l-1.2-5.5h-.1l1.3,5.9,.3,1.3,2.5,11.1,.3,1.1,2.4,11,.1,.3,.3,1.2,2.5,11.2,3,13.6,1.3,6-9.2,1.9h0l-1.4,.3-.5,.1h0l-1.3,.5-5.2,1.1-.5,.1-10.3,2.1-1,.2-.7,.2-1.1,.2-16.3,3.3-.7,.1-.9,.2h0l-.9,.2s-9.3,1.9-10.3,2h0c-1.1,.2-2.8,.5-4.9,.9l-.8,.2c-.2,0-.4,.1-.7,.1h-.2c-.3,0-.5,.1-.8,.2v15c.2,0,.5-.1,.7-.2,.1-.1,.3-.1,.4-.1s.2,0,.3-.1c.4-.1,.7-.2,1.1-.2h.2c.2,0,.4-.1,.7-.1l.8-.2c2.1-.4,3.7-.7,4.9-.9h0c1.1-.2,10.4-2,10.4-2l.8-.2h0l.9-.2,.7-.1,16.3-3.3,1.1-.2,.7-.2,1-.2,10.3-2.1,.5-.1,5.2-1.1,1.2-.3h0l.5-.1,1.4-.3h0l9.2-2.4,74.5-26.8c1.8-.7,2.3-2.4,2.1-3.6s-1-2.7-2.9-3l-52.9,3.5c-1.6-.2-2.7-1.3-2.9-2.9s.6-3,2.1-3.6l61.3-23.1c2-.8,2.5-2.6,2.2-3.9Zm-95,4.3l-2.5-11.1,.1-.1,2.4,11.2h0Zm.2,1.2l.1-.1,2.3,11.1-2.4-11Zm5.3,23.7l-2.5-11.2h0l2.5,11.2h0Zm3,13.6h0l1.3,6-1.3-6Z"/><path class="f" d="M506.8,455v14c-2.4-.8-4.8-1.7-7.1-2.7h-.1c-.3-.1-.6-.3-.9-.4h-.1c-3.2-1.3-6.3-2.8-9.3-4.4h0c-.3-.2-.6-.3-.9-.5,0,0-.1,0-.1-.1l-2-1.1v-13.6c.1,.1,.2,.1,.3,.2,0,0,.1,0,.1,.1,.3,.2,.6,.3,.9,.5h0c3.1,1.6,6.2,3.1,9.3,4.4h.1c.3,.1,.7,.3,.9,.4h.1c2.8,1.2,5.8,2.2,8.7,3.2q0-.1,.1,0c-.1-.1,0-.1,0,0Z"/><path class="u" d="M618.7,465.3c-3.6,.8-6.8,1.5-11.2,2.4-.8,.2-1.6,.3-2.4,.5h0c-.4,.1-.9,.2-1.3,.3-.3,.1-.6,.1-.8,.2l-1.2,.3h0l-.6,.1c-2.6,.5-5.2,1.1-7.8,1.7h-.1c-2.9,.6-5.8,1.2-8.7,1.8-.2,0-.3,.1-.5,.1-.5,.1-1,.2-1.4,.2-.8,.2-1.6,.3-2.4,.5-4.8,.9-9.5,1.6-13.8,2.2h-.3c-.5,.1-1.1,.1-1.5,.2h0c-3.2,.3-6.1,.6-8.8,.7h-1.3c-1.1,0-2.1,0-3-.1h-2.7l-12.8-.9h0s-.9-.1-1.3-.2c0,0-11.1-1.9-11.8-2h-.1c-.4-.1-.8-.2-1.1-.3h-.1c-.8-.2-1.5-.4-2.2-.5-.1,0-.2,0-.3-.1-.2-.1-.5-.1-.7-.2-.3-.1-.6-.1-.9-.2h-.1c-.3-.1-.6-.1-.9-.2-.2,0-.4-.1-.5-.1s-.3-.1-.4-.1-.2-.1-.3-.1c-.2-.1-.4-.1-.6-.2-.6-.2-1.1-.3-1.7-.5-.4-.1-.8-.2-1.2-.3h0c-.1,0-.2,0-.2-.1-.1,0-.2-.1-.2-.1l-.3-.1h-.1c-.3-.1-.7-.2-1-.3h-.3c-.9-.3-1.8-.6-2.7-.9v-14h0c.3,.1,.6,.2,1,.3h.3c.3,.1,.7,.2,1,.3h.1l.3,.1c.1,0,.1,.1,.2,.1s.2,.1,.2,.1h0c.4,.1,.8,.2,1.2,.3,.6,.2,1.2,.4,1.7,.5,.2,.1,.4,.1,.6,.2,.1,0,.2,.1,.3,.1s.3,.1,.4,.1c.2,0,.4,.1,.5,.1,.3,.1,.6,.1,.9,.2h.1c.3,.1,.6,.1,.9,.2,.2,.1,.5,.1,.7,.2,.1,0,.2,.1,.3,.1,.7,.2,1.5,.4,2.2,.5h.1c.4,.1,.8,.2,1.1,.3h.1c.7,.1,11.7,2,11.8,2,.4,.1,1.2,.2,1.3,.2h0l12.8,.9h2.7c.9,.1,1.9,.1,3,.1h1.3c2.6-.1,5.6-.3,8.8-.7h0c.5-.1,1.1-.1,1.5-.2h.3c4.4-.6,9-1.3,13.8-2.2,.8-.2,1.6-.3,2.3-.5,.4-.1,.9-.2,1.4-.2,.2,0,.3-.1,.5-.1,2.9-.6,5.8-1.2,8.7-1.8h.1c2.6-.6,5.2-1.1,7.8-1.7l.6-.1,.4-.4h0l-.4,.4,1.2-.3c.3,0,.6-.1,.9-.2,.5-.1,.9-.2,1.3-.3h0c.8-.2,1.6-.4,2.4-.5,4.7-1,9.1-2,12.9-2.8,.1-.1,0,15,0,15Z"/><g><path class="m" d="M472.3,217.2l-34.3,34.6c9.1-13.4,20.7-25.2,34.3-34.6Z"/><path class="m" d="M503.1,201.3l-80.9,81.5c3.3-9.4,7.6-18.4,12.9-26.8h0l41.2-41.6h0c8.4-5.2,17.4-9.6,26.8-13.1h0Z"/><path class="m" d="M506.9,200v12.7l-90,90.8c1.1-6.3,2.7-12.5,4.7-18.5l83.8-84.5h0c.4-.1,1-.3,1.5-.5Z"/><path class="m" d="M506.9,214.2v13.8l-92,92.8c.3-5.2,.8-10.4,1.7-15.5l90.3-91.1h0Z"/><path class="m" d="M506.9,229.4v13.8l-91.9,92.7c-.2-2.8-.3-5.5-.3-8.4,0-1.8,0-3.5,.1-5.3l92.1-92.8h0Z"/><path class="m" d="M506.9,244.6v13.8l-90.4,91.1c-.7-4.1-1.2-8.2-1.5-12.3l91.9-92.6h0Z"/><path class="m" d="M507,351v13.8l-55,55.6c-3-3-6.5-7.4-6.6-7.4l61.6-62Z"/><path class="m" d="M506.9,335.8v13.8l-62.1,62.6c-2.1-2.5-4-5.1-5.9-7.8l68-68.6h0Z"/><path class="m" d="M506.9,320.6v13.8l-68.6,69.2c-1.9-2.7-3.7-5.5-5.3-8.4l73.9-74.6Z"/><path class="m" d="M506.9,305.4v13.8l-74.5,75.1c-1.7-2.9-3.3-6-4.7-9h0l79.2-79.9h0Z"/><path class="m" d="M506.9,290.2v13.8l-79.6,80.3c-1.5-3.2-2.8-6.4-4.1-9.7l83.7-84.4Z"/><path class="m" d="M506.9,275v13.8l-84.1,84.8c-1.2-3.4-2.4-6.9-3.3-10.4l87.4-88.2h0Z"/><path class="m" d="M506.9,259.8v13.8l-87.7,88.4c-1-3.7-1.8-7.5-2.5-11.3l90.2-90.9h0Z"/><path class="m" d="M524.3,377.8l-.1,.1-56.3,56.7c-1.2-.9-2.4-1.8-3.5-2.8-.4-.3-.8-.6-1.2-1-.9-.8-1.9-1.6-2.8-2.4l-.1-.1,53.3-53.7c2.3,.9,5.2,1.8,8.6,2.6h0c.2,0,.4,.1,.6,.1h.2c.5,.4,.9,.5,1.3,.5Z"/><polygon class="m" points="524.3 377.8 524.2 377.9 524.2 377.9 524.3 377.8"/><path class="m" d="M537.4,379.9l-60.5,60.9c-.1-.1-.3-.2-.4-.3-2.6-1.7-5.2-3.5-7.7-5.3h-.1l56.7-57.2c1,.2,2.1,.4,3.2,.6h0c2.7,.6,5.6,1,8.8,1.3h0Z"/><path class="m" d="M468.8,435.3c2.5,1.8,5.1,3.6,7.7,5.3-2.6-1.7-5.2-3.4-7.7-5.3h0Z"/><path class="m" d="M552,380.6l-65.5,65.8c-3-1.6-5.8-3.2-8.7-4.9l-.1-.1,60.7-61.3c.4,0,.7,.1,1.1,.1h0c3.9,.2,8,.4,12.5,.4h0Z"/><path class="m" d="M477.9,441.4c2.8,1.7,5.7,3.3,8.7,4.9h0c-3-1.6-5.9-3.2-8.8-5h0s0,.1,.1,.1Z"/><path class="m" d="M568.1,379.6l-71.1,71.7h-.1c-3.2-1.3-6.3-2.8-9.3-4.4l65.8-66.3c3.6-.1,7.4-.2,11.4-.6,1-.2,2.2-.3,3.3-.4Z"/><path class="m" d="M496.9,451.3h0c-3.2-1.2-6.3-2.7-9.4-4.3l.1-.1c3,1.6,6.1,3.1,9.3,4.4Z"/><path class="m" d="M586.2,376.8l-78.2,78.5h-.1c-3.3-1.1-6.7-2.3-10-3.6l71.9-72.3h0c3.7-.4,7.5-1,11.5-1.7,.2,0,.4-.1,.5-.1,1.3-.2,2.6-.5,3.9-.7h0c.2-.1,.3-.1,.5-.1Z"/><path class="m" d="M498,451.7c3.2,1.4,6.6,2.5,10,3.6-.1,0-.2-.1-.3-.1-3.4-1-6.6-2.2-9.7-3.5h0Z"/><path class="m" d="M586.2,376.7h0c-.2,.1-.3,.1-.4,.1l.4-.1Z"/><path class="m" d="M605.3,372.7l-85.4,85.8h-.1c-3-.7-5.9-1.4-8.8-2.3-.4-.1-.8-.2-1.2-.3h0c-.2,0-.3-.1-.5-.2l-.3-.1h0l78.8-79.2c.6-.1,1.2-.3,1.9-.4h0c5-1.1,10-2.1,15-3.2h.2l.4-.1Z"/><path class="m" d="M519.8,458.5c-.9-.2-1.7-.4-2.6-.6,.9,.2,1.8,.4,2.6,.6Z"/><path class="m" d="M511,456.2c2.1,.6,4.1,1.2,6.2,1.7-2.3-.5-4.5-1.1-6.7-1.8-.2-.1-.5-.1-.7-.2,.5,.1,.8,.2,1.2,.3Z"/><path class="m" d="M624.7,368.6l-5.9,6-85.8,86.1-.1,.1s-11.1-1.9-11.8-2l85.8-86.5c6-1.2,12-2.4,17.8-3.7Z"/><path class="m" d="M624.7,368.6h0c-5.9,1.3-11.9,2.5-17.8,3.8h0l17.8-3.8Z"/><path class="m" d="M644.2,364.4l-97.2,97.5-12.8-.9h0l92.4-92.8,16.3-3.5c.4-.1,.9-.2,1.3-.3Z"/><path class="m" d="M547,461.9l-.1,.1c-.1,0,.1-.1,.1-.1Z"/><path class="m" d="M644.2,364.4h0c-.5,.1-.9,.2-1.4,.3l1.4-.3Z"/><path class="m" d="M663.6,360.2l-100.8,101.1h0c-3.2,.3-6.1,.6-8.8,.7h-1.3c-1.1,0-2.1,0-3-.1h-1.3l97.5-97.9,15.5-3.3,2.2-.5Z"/><polygon class="m" points="548.4 461.9 548.5 461.9 548.3 462 548.4 461.9"/><path class="m" d="M562.8,461.3l-.2,.2c-3.2,.4-6,.5-8.6,.5,2.7-.1,5.6-.3,8.8-.7h0Z"/><path class="m" d="M672,367h0l-91.1,91.3c-.8,.1-1.6,.3-2.4,.5-4.8,.9-9.5,1.6-13.8,2.2l100.6-101.2s.8-.2,1.8-.4c.1,0,.3-.1,.4-.1,.7-.1,1.4-.3,2-.4,.1,0,.2,0,.3-.1,.1,0,.3-.1,.4-.1l1.8,8.3Z"/><path class="m" d="M674.7,379.4h0l-74.3,74.6-.4,.4-.6,.1c-2.6,.5-5.2,1.1-7.8,1.7h-.1c-2.9,.6-5.8,1.2-8.7,1.8l89.4-90h0l2.5,11.4Z"/><path class="m" d="M600.4,454l-.4,.4h0l.4-.4h0Z"/><path class="m" d="M677.5,391.8h0l-57.8,58-.3,.4c-.1,0-.2,0-.3,.1-.1,0-.3,0-.4,.1-3.8,.8-8.2,1.8-12.9,2.8-.8,.2-1.6,.4-2.4,.5h0c-.4,.1-.9,.2-1.3,.3l72.9-73.2,.1-.1,2.4,11.1Z"/><path class="m" d="M680.2,404.3l-41.8,42-.2,.2h0l-.8,.2-8.7,1.8s-.6,.1-1.7,.2h0c-1.1,.2-2.8,.5-4.9,.8-.3,.1-.5,.1-.8,.2l56.4-56.8,.1-.1,2.3,11.1,.1,.4Z"/><polygon class="m" points="638.4 446.3 638.2 446.6 638.2 446.6 638.4 446.3"/><polygon class="m" points="683 416.7 683 416.8 657.5 442.6 639.8 446.2 680.5 405.6 680.5 405.5 683 416.7"/><polygon class="m" points="685.7 429.2 676.4 438.5 676.4 438.5 676.2 438.7 676.2 438.7 675 439 669.8 440.1 669.3 440.2 659 442.3 683.2 417.9 685.7 429.2"/><polygon class="m" points="687.3 436.4 678.1 438.3 686 430.4 686 430.3 687.3 436.4"/></g><g><path class="m" d="M768.5,376l-61.3,23.1c-1.6,.7-2.5,2.2-2.3,4s1.5,3,3.3,3.2l52.8-3.5c2,.3,2.5,2.1,2.6,2.7,.2,1.1-.3,2.6-1.9,3.2l-74.1,26.7-17-75.8,87.8-17.4c1.8-.3,3,.9,3.4,2.1s0,2.9-1.6,3.7l-55.3,22.8c-1.9,.9-2.4,2.8-2.1,4.2,.3,1.3,1.5,2.9,3.8,2.9h0l60.9-7.8c2.3,0,2.9,1.9,3,2.5,.2,1.2-.3,2.7-2,3.4Z"/><path class="k" d="M771.2,372.4c-.3-1.5-1.5-3.1-3.8-3.1h0l-60.8,7.8c-1.8,0-2.8-1.2-3-2.3-.3-1.1,.2-2.7,1.7-3.4l55.3-22.8c2-1,2.4-3,2-4.5-.5-1.6-2.1-3-4.2-2.7l-88.7,17.6,17.3,77,.1,.4,74.9-27c1.9-.8,2.6-2.6,2.3-4-.1-.7-.7-2.9-3.3-3.3l-52.8,3.5c-1.4-.2-2.4-1.1-2.6-2.6s.5-2.7,1.9-3.2l61.3-23.1h0c2.1-.8,2.7-2.8,2.4-4.3Zm-66.4,30.8c.2,1.8,1.5,3,3.3,3.2l52.8-3.5c2,.3,2.5,2.1,2.6,2.7,.2,1.1-.3,2.6-1.9,3.2l-74.1,26.7-17-75.8,87.8-17.4c1.8-.3,3,.9,3.4,2.1s0,2.9-1.6,3.7l-55.3,22.8c-1.9,.9-2.4,2.8-2.1,4.2,.3,1.3,1.5,2.9,3.8,2.9h0l60.9-7.8c2.3,0,2.9,1.9,3,2.5,.3,1.2-.2,2.8-2,3.5l-61.3,23.1c-1.6,.5-2.5,2.1-2.3,3.9Z"/></g><path class="m" d="M512.6,374.3l-53,53.4h0c-2.4-2.2-4.7-4.3-6.9-6.6l-.1-.1,54.4-54.9v5.5c0,.1,1.8,1.3,5.6,2.7Z"/><path class="m" d="M1685.6,612.7h0l-47.3,.1v-1h.1v.9h47.2Z"/><path class="k" d="M1638.4,611.3v.9h-.1l.1-.9c-.1,.1,0,0,0,0h0Z"/><g id="c"><g><path class="m" d="M135.4,746.4c-8.7,0-22.9,5.4-27.7,8.7-2.1,1.5-4.4,3.5-4.4,6.2,0,4.4,5.8,6,10.2,6.1,34.2,.5,99.2-10.5,102-2.3,3.2,9.3-22.1,4.4-26.3,13.2-3.5,7.4,17.2,3.2,25.6,.5s16-7.1,24.3-9.9c28.5-9.5,59.4,1.1,89.4,.1,3.6-.1,10.5-2.3,8.3-5.1-5.5-6.8-27.1-3.1-25.7-6.1,2.6-5.4,33.1-.3,49.3-3.4,6-1.1,13.5-4.9,12.2-10.8-.5-2.1-2-3.7-3.6-5.1-6.2-5.2-32.2-4.1-40.3-3.3"/><path class="k" d="M194.9,782.9c-2.8,0-5-.4-6-1.6-.7-.8-.8-2-.1-3.3,2.1-4.5,9.2-5.6,15.4-6.6,4.9-.8,9.5-1.5,10.8-3.6,.4-.7,.5-1.6,.1-2.6-1.6-4.6-27.7-2.4-52.9-.2-17.3,1.5-35.3,3.1-48.6,2.9-5.3-.1-10.7-2.1-10.7-6.6,0-3,2.6-5.2,4.6-6.6,4.9-3.5,19.1-8.8,28-8.8v1c-8.4,0-22.6,5.2-27.4,8.6-1.8,1.3-4.2,3.2-4.2,5.7,0,4.3,6.1,5.5,9.7,5.6,13.3,.2,31.2-1.4,48.5-2.9,28-2.4,52.1-4.5,54,.9,.5,1.3,.4,2.5-.2,3.5-1.5,2.5-6.1,3.2-11.5,4.1-6,1-12.8,2-14.7,6-.7,1.4-.2,2,0,2.2,2.6,2.9,17.6,0,25-2.4,4.2-1.4,8.3-3.2,12.2-5,3.9-1.7,7.9-3.5,12.1-4.9,18.1-6,37.6-3.9,56.4-1.9,10.9,1.2,22.2,2.4,33.1,2,2.7-.1,7.4-1.4,8.1-3.1,.1-.3,.2-.7-.2-1.2-3.2-3.9-12-4.2-18.4-4.4-4.6-.2-6.8-.3-7.4-1.2-.2-.3-.2-.6,0-1,1.6-3.3,11.2-3.1,23.4-2.8,8.9,.2,19.1,.4,26.2-.9,3.9-.8,8.9-2.7,11-5.9,.9-1.3,1.2-2.8,.8-4.3-.5-2.1-2.2-3.8-3.5-4.9-6.2-5.3-33.1-3.8-39.9-3.2l-.1-1c8.5-.8,34.3-2,40.7,3.4,1.4,1.2,3.3,3,3.8,5.4,.4,1.8,.1,3.5-1,5.1-2.3,3.5-7.5,5.5-11.6,6.3-7.2,1.4-17.4,1.1-26.4,.9-10.9-.2-21.2-.5-22.5,2.2,.3,.5,3.7,.7,6.5,.7,6.6,.2,15.7,.5,19.1,4.8,.7,.9,.6,1.7,.4,2.3-1.1,2.3-6.3,3.6-9,3.7-11,.4-22.3-.9-33.3-2-18.7-2-38.1-4.1-56,1.9-4.1,1.4-8.1,3.2-12,4.9-4,1.8-8.1,3.6-12.3,5-4,1.4-13.5,3.8-20,3.8Z"/></g><g><path class="m" d="M244.8,785.9c2.5-.6,6.1-.2,8.4-1.4,8.5-4.5,3.5-14.4-5.8-11.6-4.9,1.5-9.9,3.9-12.2,5l-.6,.3c-2.8,1.5-6.3,4-5.6,7.6,.5,2.3,5.3,3.2,9.5,1.8,2.1-.7,4.1-1.2,6.3-1.7Z"/><path class="k" d="M234.4,788.8c-1.7,0-3.2-.3-4.4-1-.8-.5-1.4-1.1-1.5-1.9-.9-4.5,4.2-7.3,5.9-8.2,.2-.1,.4-.2,.7-.3l1.1-.5c2.6-1.2,6.9-3.2,11.1-4.5,5.4-1.6,9.1,.8,10.3,3.7,1.1,2.7,.3,6.5-4.2,8.8-1.5,.8-3.5,.9-5.4,1-1.2,.1-2.2,.2-3.2,.4h0c-2.1,.5-4.2,1-6.2,1.7-1.3,.5-2.8,.8-4.2,.8Zm16.2-15.9c-.9,0-1.9,.1-3,.5-4.2,1.3-8.5,3.3-11,4.4l-1.1,.5-.6,.3c-4.1,2.2-5.9,4.6-5.3,7.1,.1,.6,.6,1,1,1.2,1.8,1,5.1,1.1,7.8,.2,2.1-.7,4.2-1.3,6.3-1.7,1-.2,2.1-.3,3.3-.4,1.8-.1,3.7-.2,5-.9,4.1-2.2,4.6-5.4,3.7-7.5-.9-2-3-3.7-6.1-3.7Z"/></g><g class="x"><polygon class="h" points="275.8 749.3 446.9 747.4 446.9 725.3 275.1 733.5 275.8 749.3"/></g><g><path class="m" d="M1642.1,612c-8.7,0-22.9,5.4-27.7,8.7-2.1,1.5-4.4,3.5-4.4,6.2,0,4.4,5.8,6,10.2,6.1,34.2,.5,99.2-10.5,102-2.3,3.2,9.3-22.1,4.4-26.3,13.2-3.5,7.4,17.2,3.2,25.6,.5,8.3-2.7,16-7.1,24.3-9.9,28.5-9.5,59.4,1.1,89.4,.1,3.6-.1,10.5-2.3,8.3-5.1-5.5-6.8-27.1-3.1-25.7-6.1,2.6-5.4,33.1-.3,49.3-3.4,6-1.1,13.5-4.9,12.2-10.8-.5-2.1-2-3.7-3.6-5.1-6.2-5.2-32.2-4.1-40.3-3.3"/><path class="k" d="M1701.6,648.5c-2.8,0-5-.4-6-1.6-.7-.8-.8-2-.1-3.3,2.1-4.5,9.2-5.6,15.4-6.6,4.9-.8,9.5-1.5,10.8-3.6,.4-.7,.5-1.6,.1-2.6-1.6-4.6-27.7-2.4-53-.2-17.3,1.5-35.3,3.1-48.6,2.9-5.3-.1-10.7-2.1-10.7-6.6,0-3,2.6-5.2,4.6-6.6,4.9-3.5,19.1-8.8,28-8.8v1c-8.4,0-22.6,5.2-27.4,8.6-1.8,1.3-4.2,3.2-4.2,5.7,0,4.3,6.1,5.5,9.7,5.6,13.3,.2,31.2-1.4,48.5-2.9,28-2.4,52.1-4.5,54,.9,.5,1.3,.4,2.5-.2,3.5-1.5,2.5-6.1,3.2-11.5,4.1-6,1-12.8,2-14.7,6-.7,1.4-.2,2,0,2.2,2.6,2.9,17.6,0,25-2.4,4.2-1.4,8.3-3.2,12.2-5,3.9-1.7,7.9-3.5,12.1-4.9,18.1-6,37.6-3.9,56.4-1.9,10.9,1.2,22.2,2.4,33.1,2,2.7-.1,7.4-1.4,8.1-3.1,.1-.3,.2-.7-.2-1.2-3.2-3.9-12-4.2-18.4-4.4-4.6-.2-6.8-.3-7.4-1.2-.2-.3-.2-.6,0-1,1.6-3.3,11.2-3.1,23.4-2.8,8.9,.2,19.1,.4,26.2-.9,3.9-.8,8.9-2.7,11-5.9,.9-1.3,1.2-2.8,.8-4.3-.5-2.1-2.2-3.8-3.5-4.9-6.2-5.3-33.1-3.8-39.9-3.2l-.1-1c8.5-.8,34.3-2,40.7,3.4,1.4,1.2,3.3,3,3.8,5.4,.4,1.8,.1,3.5-1,5.1-2.3,3.5-7.5,5.5-11.6,6.3-7.2,1.4-17.4,1.2-26.4,.9-10.9-.3-21.2-.5-22.5,2.2,.3,.5,3.7,.7,6.5,.7,6.6,.2,15.7,.5,19.1,4.8,.7,.9,.6,1.7,.4,2.3-1.1,2.3-6.3,3.6-9,3.7-11,.4-22.3-.9-33.3-2-18.7-2-38.1-4.1-56,1.9-4.1,1.4-8.1,3.2-12,4.9-4,1.8-8.1,3.6-12.3,5-3.9,1.4-13.4,3.8-19.9,3.8Z"/></g><g><path class="m" d="M1751.5,651.4c2.5-.6,6.1-.2,8.4-1.4,8.5-4.5,3.5-14.4-5.8-11.6-4.9,1.5-9.9,3.9-12.2,5l-.6,.3c-2.8,1.5-6.3,4-5.6,7.6,.5,2.3,5.3,3.2,9.5,1.8,2.1-.6,4.2-1.2,6.3-1.7Z"/><path class="k" d="M1741.1,654.3c-1.7,0-3.2-.3-4.4-1-.8-.5-1.4-1.1-1.5-1.9-.9-4.5,4.2-7.3,5.9-8.2,.2-.1,.4-.2,.7-.3l1.1-.5c2.6-1.2,6.9-3.2,11.1-4.5,5.4-1.6,9.1,.8,10.3,3.7,1.1,2.7,.3,6.5-4.2,8.8-1.5,.8-3.5,.9-5.4,1-1.2,.1-2.2,.1-3.2,.4-2.1,.5-4.2,1.1-6.2,1.7-1.3,.6-2.8,.8-4.2,.8Zm16.2-15.8c-.9,0-1.9,.1-3,.5-4.2,1.3-8.5,3.3-11,4.4l-1.1,.5-.6,.3c-4.1,2.2-5.9,4.6-5.4,7.1,.1,.6,.6,1,1,1.2,1.8,1,5.1,1.1,7.8,.2,2-.7,4.2-1.3,6.3-1.7h0c1-.2,2.1-.3,3.3-.4,1.8-.1,3.7-.2,5-.9,4.1-2.2,4.6-5.4,3.7-7.5-.7-2.1-2.9-3.7-6-3.7Z"/></g><g class="x"><polygon class="h" points="1773.1 613.7 1920 613 1920 592.4 1773.1 599.5 1773.1 613.7"/></g><polygon class="o" points="275.8 651.2 275.8 749.3 172.8 749.3 172.8 650.4 275.8 651.2"/><rect class="m" x="173.9" y="749.3" width="101.2" height=".1"/><path class="m" d="M173.9,749.3l101.2,.1v-.1h-101.2Zm-56.9,0l27.9,.1h27.9v-.1h-55.8Z"/><rect class="r" x="173.9" y="749.3" width="101.2" height=".1"/><polygon class="o" points="1773.1 530.3 1773.1 613.7 1685.6 613.7 1685.6 529.6 1773.1 530.3"/><polygon class="o" points="172.8 628.2 331.9 627.9 275.8 651.2 116 650.2 172.8 628.2"/><polygon class="o" points="1685.6 510.8 1820.7 510.6 1773.1 530.3 1637.4 529.5 1685.6 510.8"/><polygon class="w" points="172.8 628.2 172.8 749.3 116 749.3 116 650.4 172.8 628.2"/><polygon class="w" points="1685.6 510.8 1685.6 613.7 1637.4 613.7 1637.4 529.6 1685.6 510.8"/></g></svg>