<?xml version="1.0" encoding="UTF-8"?><svg xmlns="http://www.w3.org/2000/svg" viewBox="0 0 155.29 418.75"><defs><style>.c,.d{fill:#fff;}.e{fill:#e52942;}.f{fill:#fbd213;}.d{stroke:#1d1d1b;stroke-miterlimit:10;stroke-width:.4px;}.g{fill:#1d1d1b;}</style></defs><g id="a"/><g id="b"><g><path class="d" d="M155.29,374.53c0,18.83-34.76,34.1-77.64,34.1S0,393.36,0,374.53c0-2.53,.63-4.99,1.82-7.36,.01-.04,.03-.07,.05-.1,1.65-3.26,4.36-6.34,7.97-9.17,13.28-10.43,38.67-17.48,67.81-17.48,31.42,0,58.49,8.2,70.7,20,1.28,1.22,2.39,2.49,3.32,3.8,.08,.09,.14,.18,.21,.28,2.22,3.17,3.41,6.54,3.41,10.03Z"/><rect class="g" x="73.36" y="336.99" width="9.08" height="12.51"/><circle class="c" cx="77.82" cy="382.75" r="35.65"/><g><path class="f" d="M69.08,391.84c-2.74-2.06-4.63-5.48-4.97-8.91-.51-4.46,2.06-8.91,3.94-10.63,.69-.51,1.2-.86,1.37-.86h.17c.51,.17,1.71,1.89,2.23,6.17,.34,5.31-.34,11.14-2.74,14.23Z"/><path class="f" d="M85.36,382.58c-.34,2.23-1.2,5.14-2.91,7.54-.17,.34-.51,.69-.86,.86-2.4-2.06-4.11-4.97-4.63-7.54-1.03-4.29,.51-9.26,2.4-11.48,.69-.86,1.37-1.37,1.89-1.37s1.03,.34,1.54,1.03c0,.17,.17,.17,.34,.34,.51,.69,1.03,1.71,1.54,2.91,.17,.34,.17,.69,.34,1.03,0,.17,.17,.34,.17,.51s.17,.34,.17,.69c.17,1.71,.34,3.6,0,5.48Z"/><path class="f" d="M101.13,381.21c0,.69,0,1.37-.17,2.06-.51,2.91-2.06,5.83-4.46,7.71-2.06-2.06-3.77-5.48-4.46-9.08,0-.51-.17-1.03-.17-1.54v-2.06c.17-4.11,1.54-7.71,2.91-7.88h.17c.51,0,1.2,.34,1.89,.86,.51,.51,1.03,1.2,1.54,1.89,.17,.34,.51,.69,.69,1.2,.51,.86,.86,1.71,1.2,2.57,.51,1.37,.86,2.74,.86,4.29Z"/><path class="f" d="M106.44,378.47v1.03c-.34,5.83-2.4,13.2-5.66,13.71-1.03,.17-2.23-.34-3.43-1.37h.17c.51-.51,1.03-1.03,1.54-1.54,2.06-2.57,3.26-6,3.43-9.08v-.69c-.17-4.29-2.57-8.23-4.8-10.11-1.2-1.03-2.23-1.37-3.26-1.2-2.4,.34-3.94,4.63-4.11,8.91v1.54c0,.86,.17,1.71,.34,2.57,.69,3.43,2.4,7.2,4.63,9.6h0c-1.54,1.03-3.26,1.71-5.14,1.89-2.91,.34-5.48-.51-7.37-2.06h0c2.4-2.57,3.77-6.34,4.11-9.08,0-.34,.17-.69,.17-1.2v-1.71c-.17-3.77-1.54-7.37-3.09-9.26-.86-.86-1.71-1.37-2.57-1.37-1.03,0-1.89,.69-2.91,1.71-1.54,1.89-2.91,5.31-2.91,8.74v1.37c0,.86,.17,1.71,.34,2.57,.69,3.09,2.57,6,4.97,8.23v.17c-1.37,1.2-2.91,1.71-4.8,1.89-2.06,.17-3.94-.34-5.48-1.37h0c1.89-2.4,2.74-6,2.91-9.6v-3.26c0-.69,0-1.37-.17-2.06-.17-1.54-.86-6.68-3.09-7.2-.86-.17-1.71,.17-2.74,1.03-2.23,1.89-4.11,5.66-4.29,9.6v2.06c.34,3.6,2.4,7.37,5.48,9.6l-.17,.17c-.34,.34-.69,.51-1.03,.51-2.57,1.2-6.17,.34-8.4-1.37-3.6-2.57-6.68-10.63-7.03-19.71v-3.43c.17-4.11,.86-8.4,2.4-12.17,3.94-3.6,8.91-6.34,14.4-7.88,3.09-.86,6.34-1.37,9.43-1.37s6.34,.51,9.43,1.37c4.97,1.37,9.6,3.77,13.37,7.03,1.03,1.54,2.06,3.77,2.91,6.34,.34,1.03,.69,2.23,1.03,3.43,.17,.34,.17,.69,.34,1.2,.17,.51,.17,1.03,.34,1.54,.17,.51,.17,1.03,.34,1.54,.17,1.03,.34,2.23,.51,3.26,.17,1.03,.17,2.23,.34,3.43-.51,.51-.51,1.37-.51,2.06Z"/></g><polyline class="g" points="80.39 282.31 80.56 -.51 75.42 -.51 75.25 282.48 75.07 282.65 77.82 279.91 80.56 282.65"/><path class="f" d="M113.47,383.27c0,2.91-.34,5.66-1.03,8.4-.17,.86-.34,1.71-.69,2.4-.17,.34-.17,.69-.34,1.03-.34,1.2-.86,2.23-1.37,3.26-.17,.34-.34,.69-.51,.86l-.51,1.03c-6,10.97-17.65,18.51-31.2,18.51-2.57,0-4.97-.34-7.37-.69-7.03-1.54-13.54-5.14-18.34-10.11-2.23-2.23-3.94-4.8-5.48-7.54l-.51-1.03c-.17-.34-.34-.69-.51-.86-2.23-4.63-3.43-9.77-3.43-15.25,0-9.26,3.6-17.83,9.6-24.34-3.94,13.03-.51,29.65,5.83,34.28,1.71,1.2,4.11,2.23,6.51,2.23,1.03,0,2.23-.17,3.26-.69,.69-.34,1.2-.69,1.71-1.2,1.89,1.2,4.29,1.89,6.68,1.71s4.29-1.2,5.83-2.57c2.4,1.71,5.31,2.74,8.57,2.4,2.23-.17,4.29-1.03,6-2.23,1.54,1.37,3.09,2.06,4.63,1.71,4.63-.69,6.68-10.11,6.86-15.94,.17-7.54-1.71-14.91-3.94-19.71,6.17,6.51,9.77,15.08,9.77,24.34Z"/><path class="e" d="M148.35,360.42c-12.21-11.8-39.28-20-70.7-20-29.14,0-54.53,7.05-67.81,17.48l67.81-77.99,2.74,2.74,67.96,77.77Z"/></g></g></svg>