<?xml version="1.0" encoding="utf-8"?>
<!-- Generator: Adobe Illustrator 26.2.1, SVG Export Plug-In . SVG Version: 6.00 Build 0)  -->
<svg version="1.1" id="Livello_1" xmlns="http://www.w3.org/2000/svg" xmlns:xlink="http://www.w3.org/1999/xlink" x="0px" y="0px"
	 viewBox="0 0 500 500" style="enable-background:new 0 0 500 500;" xml:space="preserve">
<style type="text/css">
	.st0{fill:#1D1E1B;}
	.st1{fill:#E52942;}
	.st2{fill:#1D1D1B;}
	.st3{fill:#BC243E;}
	.st4{fill:#FFFFFF;}
</style>
<g id="a">
	<g id="b">
	</g>
	<g id="c">
	</g>
	<g id="d">
	</g>
	<g id="e">
	</g>
	<g id="f">
	</g>
	<g id="g">
	</g>
</g>
<g id="h">
</g>
<g id="i">
</g>
<g id="j">
</g>
<g id="k">
</g>
<g id="l">
</g>
<g id="m">
</g>
<g id="n">
</g>
<g id="p">
</g>
<ellipse transform="matrix(0.7071 -0.7071 0.7071 0.7071 -141.8121 290.0953)" class="st0" cx="279.3" cy="316.2" rx="15.7" ry="15.7"/>
<circle class="st0" cx="333.2" cy="297.8" r="15.7"/>
<g>
	<path class="st1" d="M357.4,181.8L102.8,293.1h0c-11.4-48.2-0.7-89.7,29.6-120.1c11.7-11.8,26.4-21.8,43.9-30v0c0,0,0.1,0,0.1,0
		c0.5-0.2,1-0.5,1.5-0.7l0,0c1.1-0.5,2.2-1,3.3-1.5c0,0,0,0,0,0c0.5-0.2,1.1-0.4,1.6-0.7c0,0,0,0,0.1,0c0,0,0,0,0,0l0,0
		c1.9-0.8,3.9-1.6,5.8-2.3l0,0c1.4-0.6,2.9-1.1,4.3-1.6c5.5-2,10.9-3.8,16.3-5.3c0.3-0.1,0.7-0.2,1-0.3c1.1-0.3,2.2-0.6,3.3-0.9
		c0.8-0.2,1.7-0.4,2.5-0.6c13-3.1,25.6-4.7,37.6-4.7c33.9,0,63.4,12.4,86.9,36.7c0.5,0.5,0.9,1,1.4,1.5c2.3,2.4,4.5,5,6.7,7.6
		c0,0,0,0,0,0C351.8,173.7,354.7,177.7,357.4,181.8z"/>
	<path class="st2" d="M359.6,185.2l-127.9,56L359.6,185.2L359.6,185.2L359.6,185.2L359.6,185.2z M180.9,136.5
		c-1.9,0.8-3.8,1.7-5.7,2.5c0,0,0,0,0,0c0,0-0.1,0-0.1,0.1c1-0.4,2-0.8,3-1.2h0c0.5-0.2,1-0.5,1.5-0.7
		C180.1,137,180.5,136.8,180.9,136.5C180.9,136.5,180.9,136.5,180.9,136.5z"/>
</g>
<path class="st3" d="M381.4,224l-4.6,2l-250,109.2l-1.6,0.7l-6.5,2.8h0c-3.5-5.9-6.6-12.1-9.2-18.4c-1.9-4.5-3.6-9-5.1-13.4
	c-1.5-4.4-2.8-8.8-3.9-13.2h0l130.3-56.9l130.3-57v0c4.2,6.6,8.1,13.8,11.6,21.4c0.6,1.3,1.2,2.5,1.7,3.8c0.6,1.3,1.1,2.6,1.7,3.9
	C378.2,214,380,219,381.4,224z"/>
<path class="st4" d="M184,138.5C184,138.5,184,138.5,184,138.5L184,138.5C184,138.5,184,138.5,184,138.5z"/>
<path class="st2" d="M202.2,378.7c-0.5,0.5-0.9,0.9-1.4,1.3c-1.1,0.9-2.4,1.8-3.7,2.6c-0.4,0.2-0.9,0.5-1.3,0.7
	c-5.2,2.6-10.9,3.1-16.2,2c-0.7-0.1-1.4-0.3-2-0.5c-0.3-0.1-0.7-0.2-1-0.3h0c-0.3-0.1-0.6-0.2-0.9-0.3c-0.6-0.2-1.1-0.5-1.7-0.7
	c-0.3-0.1-0.5-0.3-0.8-0.4c-0.4-0.2-0.7-0.4-1.1-0.6c-0.7-0.4-1.4-0.9-2-1.4c-1-0.7-1.9-1.5-2.8-2.4c-1.8-1.8-3.4-4-4.6-6.4v0
	c-0.1-0.2-0.2-0.4-0.3-0.6v0h0l-21.3-43v0l45.3-19.8v0l20.2,40.8c0.1,0.2,0.2,0.4,0.3,0.6v0C211.8,360,209.6,371.4,202.2,378.7z"/>
<rect x="165.4" y="374.5" class="st4" width="0" height="0"/>
<path class="st4" d="M200.1,385.6c-0.4,0.2-0.9,0.5-1.3,0.7c-5.2,2.6-10.9,3.1-16.2,2c5.3,1.2,11,0.6,16.2-2
	C199.2,386.1,199.7,385.8,200.1,385.6z"/>
<path class="st4" d="M371.9,227.8L371.9,227.8l-3.6,1.5l-181.8,79.4v0l20.2,40.8c0.1,0.2,0.2,0.4,0.3,0.6v0
	c4.8,9.8,2.6,21.2-4.7,28.5c-0.5,0.5-0.9,0.9-1.4,1.3c-1.1,0.9-2.4,1.8-3.7,2.6c-0.4,0.2-0.9,0.5-1.3,0.7c-5.2,2.6-10.9,3.1-16.2,2
	c-0.7-0.1-1.4-0.3-2-0.5c-0.3-0.1-0.7-0.2-1-0.3h0c-0.3-0.1-0.6-0.2-0.9-0.3c-0.6-0.2-1.1-0.5-1.7-0.7c-0.3-0.1-0.5-0.3-0.8-0.4
	c-0.4-0.2-0.7-0.4-1.1-0.6c-0.7-0.4-1.4-0.9-2-1.4c-1-0.7-1.9-1.5-2.8-2.4c-1.8-1.8-3.4-4-4.6-6.4v0c-0.1-0.2-0.2-0.4-0.3-0.6h0v0
	l-21.3-43l-9.6,4.2v0l-3.6,1.6c16.1,57.9,69.1,98.2,129.4,98.2c54.3,0,101.2-32.4,122.4-78.8l-2.5,1l-2.8,1.1v0l-116.2,45.1
	c0.1-0.5,0.2-0.9,0.3-1.4s0.2-0.9,0.3-1.3c0.1-0.4,0.2-0.9,0.2-1.3c0.1-0.7,0.2-1.3,0.3-2c0.3-1.5,0.5-3,0.8-4.4
	c0.1-0.8,0.3-1.7,0.4-2.5c0.6-3.2,1.2-6.3,1.9-9.3c0.1-0.5,0.3-1.1,0.4-1.6c0.3-1.1,0.6-2.1,0.9-3.1c0.2-0.6,0.4-1.3,0.6-1.9
	c0.2-0.6,0.5-1.2,0.7-1.9c0.1-0.2,0.2-0.5,0.3-0.7c0.1-0.2,0.2-0.5,0.3-0.7c0.4-0.9,0.8-1.8,1.3-2.7c0.1-0.2,0.2-0.4,0.4-0.7
	c0.1-0.2,0.2-0.4,0.4-0.6c1-1.7,2.2-3.4,3.6-5.1c0,0,0,0,0,0c0.4-0.5,0.8-0.9,1.2-1.4c0.4-0.5,0.9-1,1.3-1.4
	c0.1-0.2,0.3-0.3,0.5-0.5c0.5-0.5,1-0.9,1.5-1.4c0,0,0,0,0,0c0.3-0.3,0.6-0.6,1-0.9c0.3-0.3,0.7-0.6,1-0.9c0-0.1,0.1-0.1,0.1-0.1
	c0.3-0.2,0.6-0.5,0.9-0.7c0.4-0.3,0.7-0.6,1.1-0.9c0.6-0.5,1.2-0.9,1.9-1.4c0.5-0.4,1.1-0.8,1.7-1.2c0.1,0,0.1-0.1,0.2-0.1
	c0.6-0.4,1.3-0.8,2-1.2c0.1-0.1,0.2-0.1,0.4-0.2c0.5-0.3,0.9-0.6,1.4-0.9c1.9-1.1,4-2.3,6.2-3.4c0,0,0.1,0,0.1-0.1
	c0.5-0.3,1.1-0.5,1.6-0.8c0.1,0,0.2-0.1,0.2-0.1c1.1-0.5,2.2-1,3.4-1.6c0.5-0.2,1-0.5,1.5-0.7c2-0.9,4.2-1.8,6.5-2.7
	c0.1-0.1,0.3-0.1,0.4-0.2c0.4-0.2,0.9-0.3,1.3-0.5c0.2-0.1,0.4-0.2,0.6-0.2c1.2-0.5,2.4-0.9,3.6-1.4c0,0,0,0,0,0
	c0.4-0.2,0.8-0.3,1.2-0.5c37.8-13.8,53.5-10.6,68.8-1v0c0.6,0.4,1.2,0.7,1.8,1.1c0.6,0.4,1.1,0.7,1.7,1.1c0,0,0,0,0,0
	c3.5-11.9,5.4-24.5,5.4-37.6C391.8,273.2,384.9,249,371.9,227.8z M279.3,331.9c-8.7,0-15.7-7-15.7-15.7c0-8.6,7-15.7,15.7-15.7
	c8.6,0,15.7,7,15.7,15.7C294.9,324.9,287.9,331.9,279.3,331.9z M333.2,313.5c-8.6,0-15.7-7-15.7-15.7c0-8.6,7-15.7,15.7-15.7
	c8.7,0,15.7,7,15.7,15.7C348.9,306.5,341.9,313.5,333.2,313.5z"/>
<path class="st4" d="M184,138.5C184,138.5,184,138.5,184,138.5C184,138.5,184,138.5,184,138.5L184,138.5z"/>
<path class="st4" d="M182.3,139.2L182.3,139.2c-0.6,0.2-1.1,0.5-1.6,0.7C181.2,139.7,181.8,139.4,182.3,139.2z"/>
<path class="st4" d="M179.1,140.6c-0.5,0.2-1,0.5-1.6,0.7C178,141.1,178.5,140.9,179.1,140.6L179.1,140.6z"/>
<path class="st2" d="M400.1,345.8l-20.3,7.9l-2.5,1l-2.8,1.1l-116.2,45.1c0.1-0.5,0.2-0.9,0.3-1.4s0.2-0.9,0.3-1.3
	c0.1-0.4,0.2-0.9,0.2-1.3c0.1-0.7,0.2-1.3,0.3-2c0.3-1.5,0.5-3,0.8-4.4c0.1-0.8,0.3-1.6,0.4-2.5c0.6-3.2,1.2-6.3,1.9-9.3
	c0.1-0.5,0.3-1.1,0.4-1.6c0.3-1.1,0.6-2.1,0.9-3.1c0.2-0.6,0.4-1.3,0.6-1.9c0.2-0.6,0.5-1.2,0.7-1.9c0.1-0.2,0.2-0.5,0.3-0.7
	c0.1-0.2,0.2-0.5,0.3-0.7c0.4-0.9,0.8-1.8,1.3-2.7c0.1-0.2,0.2-0.4,0.4-0.7c0.1-0.2,0.2-0.4,0.4-0.6c1-1.7,2.2-3.4,3.6-5.1
	c0,0,0,0,0,0c0.4-0.5,0.8-0.9,1.2-1.4c0.4-0.5,0.9-1,1.3-1.4c0.2-0.2,0.3-0.3,0.5-0.5c0.5-0.5,1-0.9,1.5-1.4c0,0,0,0,0,0
	c0.3-0.3,0.6-0.6,1-0.9c0.3-0.3,0.7-0.6,1-0.9c0-0.1,0.1-0.1,0.1-0.1c0.3-0.2,0.6-0.5,0.9-0.7c0.4-0.3,0.7-0.6,1.1-0.9
	c0.6-0.5,1.2-0.9,1.9-1.4c0.5-0.4,1.1-0.8,1.7-1.2c0.1,0,0.1-0.1,0.2-0.1c0.6-0.4,1.3-0.8,2-1.2c0.1-0.1,0.2-0.1,0.4-0.2
	c0.5-0.3,0.9-0.6,1.4-0.9c1.9-1.1,4-2.3,6.2-3.4c0,0,0.1,0,0.1-0.1c0.5-0.3,1.1-0.5,1.6-0.8c0.1,0,0.2-0.1,0.2-0.1
	c1.1-0.5,2.2-1,3.4-1.6c0.5-0.2,1-0.5,1.5-0.7c2-0.9,4.2-1.8,6.5-2.7c0.1-0.1,0.3-0.1,0.4-0.2c0.4-0.2,0.9-0.3,1.3-0.5
	c0.2-0.1,0.4-0.2,0.6-0.2c1.2-0.5,2.4-0.9,3.6-1.4c0,0,0,0,0,0c0.4-0.2,0.8-0.3,1.2-0.5c37.8-13.8,53.5-10.6,68.8-1
	c0.6,0.3,1.2,0.7,1.8,1.1c0.6,0.4,1.1,0.7,1.7,1.1C390.7,338.7,395.1,342.2,400.1,345.8z"/>
<g>
	<path class="st1" d="M199.7,104.8c0,8.9-3.2,17.1-8.6,23.4c-0.5,0.6-1,1.2-1.6,1.8c-2.5,2.5-5.3,4.7-8.4,6.5c0,0-0.1,0-0.1,0.1
		c0,0,0,0-0.1,0c-0.4,0.2-0.9,0.5-1.3,0.7c-0.5,0.2-1,0.5-1.5,0.7h0c-0.9,0.4-1.9,0.8-2.9,1.1c0,0,0,0,0,0c0,0-0.1,0-0.1,0
		c-3.6,1.2-7.5,1.9-11.6,1.9c-10,0-19-4.1-25.6-10.6c-0.6-0.6-1.2-1.3-1.8-1.9c-0.2-0.2-0.4-0.4-0.6-0.7c-0.5-0.7-1.1-1.4-1.6-2.1
		c-0.3-0.5-0.7-1-1-1.4c-0.3-0.5-0.6-1-0.9-1.5c-0.3-0.5-0.6-1-0.8-1.5c-0.3-0.5-0.5-1-0.8-1.6c-2.1-4.5-3.2-9.6-3.2-14.9
		c0-4,0.7-7.9,1.9-11.6c0.3-0.8,0.6-1.7,0.9-2.5c0,0,0,0,0,0c3.1-7.3,8.5-13.4,15.3-17.3c0.5-0.3,1-0.6,1.5-0.8
		c0.5-0.3,1-0.5,1.6-0.8c4.5-2.1,9.6-3.2,14.9-3.2C183.4,68.6,199.7,84.9,199.7,104.8L199.7,104.8z"/>
	<path class="st2" d="M183,140C182.9,140,182.9,140,183,140c-2.1,1.2-4.3,2.2-6.5,2.9c0,0,0,0-0.1,0c0.5-0.3,1-0.5,1.6-0.8h0
		c0.5-0.3,1.1-0.5,1.6-0.8c0.5-0.2,1.1-0.5,1.7-0.7c0,0,0,0,0,0C181.9,140.4,182.4,140.2,183,140z"/>
</g>
<g id="r">
</g>
<g id="s">
</g>
<g id="t">
</g>
<g id="u">
</g>
</svg>
