<?xml version="1.0" encoding="UTF-8"?><svg id="a" xmlns="http://www.w3.org/2000/svg" viewBox="0 0 1920 1080"><defs><style>.b{font-family:Lato-LightItalic, Lato Light;font-size:26.08px;}.c{fill:#f7f1d8;}.d{fill:none;}.e{fill:#1d1d1b;}</style></defs><g><polygon class="c" points="575.99 118.61 462.32 108.55 467.92 48.51 581.5 58.55 575.99 118.61"/><path d="M461.71,109.04l5.7-61.04,114.7,10.06-5.7,61.04-114.7-10.06Zm6.61-59.94l-5.51,59.04,112.6,9.85,5.51-59.04-112.6-9.85Z"/></g><g><line class="d" x1="517.81" y1="121.57" x2="514.54" y2="143.4"/><rect class="e" x="505.08" y="131.88" width="22.1" height="1.5" transform="translate(307.11 622.82) rotate(-81.32)"/></g><path class="e" d="M516.56,122.24c-5.13-1.68-8.01-7.35-6.27-12.68s7.32-8.23,12.55-6.52,8.01,7.35,6.27,12.68-7.42,8.2-12.55,6.52Zm5.81-17.77c-4.37-1.43-9.07,1.03-10.56,5.6s.85,9.32,5.22,10.75,9.07-1.03,10.56-5.6-.94-9.36-5.22-10.75Z"/><text class="b" transform="translate(494.61 88.97) rotate(6.21)"><tspan x="0" y="0">Time</tspan></text></svg>