<?xml version="1.0" encoding="utf-8"?>
<!-- Generator: Adobe Illustrator 26.2.1, SVG Export Plug-In . SVG Version: 6.00 Build 0)  -->
<svg version="1.1" id="Livello_1" xmlns="http://www.w3.org/2000/svg" xmlns:xlink="http://www.w3.org/1999/xlink" x="0px" y="0px"
	 viewBox="0 0 500 500" style="enable-background:new 0 0 500 500;" xml:space="preserve">
<style type="text/css">
	.st0{fill:#C6C5C5;}
	.st1{fill:#FFFFFF;}
	.st2{enable-background:new    ;}
	.st3{fill:#00A29B;}
	.st4{fill:#2A6EB5;}
	.st5{fill:#FBD213;}
</style>
<g id="a">
	<g id="b">
	</g>
	<g id="c">
	</g>
	<g id="d">
	</g>
	<g id="e">
	</g>
	<g id="f">
	</g>
	<g id="g">
	</g>
</g>
<g id="h">
</g>
<g id="i">
</g>
<path class="st0" d="M250,381.9c-101,0-182.9,6.1-182.9,13.6S149,409.2,250,409.2s182.9-6.1,182.9-13.6S351,381.9,250,381.9"/>
<g>
	<polygon class="st1" points="417.1,395.5 82.9,395.5 114.3,332.4 385.7,332.4 	"/>
	<path d="M417.1,397H82.9c-0.5,0-1-0.3-1.3-0.7s-0.3-1-0.1-1.5l31.4-63.2c0.2-0.5,0.8-0.8,1.3-0.8h271.4c0.6,0,1.1,0.3,1.3,0.8
		l31.4,63.2c0.2,0.5,0.2,1-0.1,1.5S417.6,397,417.1,397L417.1,397z M85.3,394h329.4l-29.9-60.2H115.2L85.3,394L85.3,394z"/>
</g>
<g class="st2">
	<path d="M209.3,370.8h6.7v1.3c0,0.2-0.1,0.3-0.2,0.5c-0.1,0.1-0.3,0.2-0.5,0.2h-6v10.5h-2.2v-10.5h-17.3c-0.3,0-0.5-0.1-0.6-0.2
		c-0.1-0.1-0.2-0.3-0.3-0.5l-0.2-1.2l18.4-24.4h2.2V370.8z M207.1,351.5c0-0.3,0-0.6,0-0.9c0-0.3,0.1-0.7,0.1-1l-15.8,21.2h15.7
		V351.5z"/>
	<path d="M229.5,384.4c-0.1,0.3-0.3,0.6-0.6,0.8c-0.3,0.2-0.6,0.2-0.9,0.2h-1l16.1-39c0.3-0.6,0.7-1,1.4-1h1.1L229.5,384.4z"/>
	<path d="M263.7,381.4h8.4v-29.8c0-0.6,0-1.2,0.1-1.9l-8.1,7.2c-0.2,0.2-0.4,0.2-0.6,0.2c-0.3,0-0.5-0.1-0.7-0.3l-0.8-1l10.6-9.4
		h1.9v35h8v1.9h-18.9V381.4z"/>
	<path d="M310.8,347.6c0,0.3-0.1,0.6-0.4,0.9s-0.6,0.3-1.1,0.3h-13.3l-2.2,12.2c1.2-0.3,2.3-0.5,3.3-0.6c1-0.1,2-0.2,3-0.2
		c1.9,0,3.6,0.3,5,0.8c1.5,0.5,2.7,1.3,3.6,2.3c1,1,1.7,2.1,2.2,3.5c0.5,1.3,0.8,2.8,0.8,4.4c0,1.9-0.3,3.7-1,5.2
		c-0.7,1.5-1.6,2.8-2.7,3.9c-1.2,1.1-2.5,1.9-4,2.5c-1.5,0.6-3.2,0.9-4.9,0.9c-1,0-2-0.1-2.9-0.3c-0.9-0.2-1.8-0.4-2.6-0.7
		c-0.8-0.3-1.6-0.7-2.2-1c-0.7-0.4-1.3-0.8-1.8-1.2l0.7-1c0.2-0.3,0.4-0.4,0.8-0.4c0.2,0,0.5,0.1,1,0.4c0.4,0.3,1,0.5,1.6,0.9
		c0.7,0.3,1.5,0.6,2.4,0.9c0.9,0.3,2,0.4,3.2,0.4c1.4,0,2.7-0.2,4-0.7s2.3-1.1,3.2-2c0.9-0.9,1.6-1.9,2.1-3.2
		c0.5-1.3,0.8-2.7,0.8-4.3c0-1.3-0.2-2.5-0.6-3.6c-0.4-1.1-1-2.1-1.8-2.8c-0.8-0.8-1.8-1.4-3-1.8c-1.2-0.4-2.6-0.7-4.2-0.7
		c-1,0-2,0.1-3.1,0.2c-1.1,0.2-2.3,0.4-3.5,0.8l-1.6-0.5l2.9-16.3h16.5V347.6z"/>
</g>
<g>
	<path class="st3" d="M381.8,210.7L381.8,210.7L381.8,210.7c0.2,0,0.3,0.1,0.5,0.1c4.3,1.1,7.7,4.1,9.3,7.9c0.6,1.3,1,2.8,1.1,4.2
		c0.2,1.6,0,3.3-0.4,4.9c-0.2,0-0.4-0.1-0.5-0.1c-7.4-1.9-11.9-9.4-10.1-16.8C381.7,210.9,381.8,210.8,381.8,210.7L381.8,210.7z"/>
	<path class="st4" d="M381.8,210.6L381.8,210.6c0-0.1,0.1-0.2,0.1-0.4c2.1-7.3,9.6-11.6,17-9.7c0.2,0,0.3,0.1,0.5,0.1
		c-0.4,1.6-1.1,3.1-2,4.4c-0.8,1.2-1.9,2.3-3.1,3.2c-3.3,2.5-7.7,3.5-12,2.4C382.1,210.7,382,210.7,381.8,210.6z"/>
	<path class="st4" d="M328.3,210.7c14.3,3.7,28.6,4.3,42.4,2.2c3.8-0.6,7.4-1.3,11.1-2.3l0,0c0,0,0,0,0,0l0,0
		c-2.7-2.6-5.6-5.1-8.7-7.5c-11-8.5-23.8-14.9-38.1-18.6c-18.2-4.7-36.5-4.4-53.5,0.1C294.2,196.8,310,206,328.3,210.7L328.3,210.7z
		"/>
	<path class="st1" d="M292.2,187.5c0.8-3,3.9-4.9,6.9-4.1s4.9,3.9,4.1,6.9c-0.8,3-3.9,4.9-6.9,4.1S291.4,190.5,292.2,187.5
		L292.2,187.5z"/>
	<path d="M293.5,187.8c0.6-2.3,3-3.7,5.3-3.1s3.7,3,3.1,5.3s-3,3.7-5.3,3.1S292.9,190.1,293.5,187.8L293.5,187.8z"/>
</g>
<g>
	<path class="st3" d="M326.5,228.9L326.5,228.9L326.5,228.9c0.2,0.1,0.3,0.1,0.5,0.2c4.1,1.9,6.8,5.4,7.8,9.5
		c0.4,1.4,0.5,2.9,0.4,4.4c-0.1,1.6-0.5,3.2-1.2,4.8c-0.2-0.1-0.3-0.1-0.5-0.2c-6.9-3.2-10-11.3-7.1-18.3
		C326.4,229.1,326.5,229,326.5,228.9L326.5,228.9z"/>
	<path class="st3" d="M326.5,228.9L326.5,228.9c0.1-0.1,0.1-0.2,0.2-0.3c3.3-6.8,11.5-9.7,18.4-6.6c0.2,0.1,0.3,0.1,0.5,0.2
		c-0.7,1.5-1.6,2.9-2.8,4c-1,1.1-2.3,1.9-3.6,2.6c-3.7,1.9-8.2,2.1-12.3,0.3C326.8,229,326.7,229,326.5,228.9L326.5,228.9z"/>
	<path class="st4" d="M273.8,219.6c13.4,6.1,27.5,9.2,41.3,9.6c3.8,0.1,7.6,0,11.3-0.3l0,0c0,0,0,0,0,0l0,0c-2.2-3.1-4.6-6-7.2-8.9
		c-9.3-10.3-20.8-18.9-34.2-25c-17.1-7.8-35.2-10.7-52.7-9.3C242.7,199.9,256.7,211.8,273.8,219.6L273.8,219.6z"/>
	<path class="st1" d="M242.4,190.4c1.3-2.9,4.7-4.1,7.6-2.8c2.9,1.3,4.1,4.7,2.8,7.5c-1.3,2.9-4.7,4.1-7.5,2.8
		S241.1,193.2,242.4,190.4L242.4,190.4z"/>
	<path d="M243.6,190.9c1-2.2,3.6-3.2,5.8-2.2c2.2,1,3.2,3.6,2.1,5.8c-1,2.2-3.6,3.2-5.8,2.1C243.5,195.7,242.6,193.1,243.6,190.9z"
		/>
</g>
<g>
	<path class="st3" d="M188.6,223.5L188.6,223.5L188.6,223.5c0.2,0.1,0.3,0.1,0.5,0.2c4.1,1.9,6.8,5.4,7.8,9.5
		c0.4,1.4,0.5,2.9,0.4,4.4c-0.1,1.6-0.5,3.2-1.2,4.8c-0.2-0.1-0.3-0.1-0.5-0.2c-6.9-3.2-10.1-11.3-7.1-18.3
		C188.6,223.7,188.6,223.6,188.6,223.5L188.6,223.5z"/>
	<path class="st3" d="M188.7,223.5L188.7,223.5c0.1-0.1,0.1-0.2,0.2-0.3c3.3-6.8,11.5-9.7,18.4-6.6c0.2,0.1,0.3,0.1,0.5,0.2
		c-0.7,1.5-1.6,2.9-2.8,4c-1.1,1.1-2.3,1.9-3.6,2.6c-3.7,1.9-8.2,2.1-12.3,0.3C189,223.7,188.8,223.6,188.7,223.5L188.7,223.5z"/>
	<path class="st4" d="M135.9,214.2c13.4,6.1,27.4,9.2,41.3,9.6c3.8,0.1,7.6,0,11.3-0.3l0,0c0,0,0,0,0.1,0l0,0
		c-2.2-3.1-4.6-6-7.2-8.9c-9.3-10.3-20.8-18.9-34.2-25c-17.1-7.8-35.2-10.7-52.7-9.3C104.8,194.6,118.8,206.4,135.9,214.2
		L135.9,214.2z"/>
	<path class="st1" d="M104.5,185c1.3-2.9,4.7-4.1,7.6-2.8c2.9,1.3,4.1,4.7,2.8,7.5c-1.3,2.9-4.7,4.1-7.5,2.8S103.2,187.9,104.5,185
		L104.5,185z"/>
	<path d="M105.7,185.6c1-2.2,3.6-3.2,5.8-2.2c2.2,1,3.2,3.6,2.2,5.8s-3.6,3.2-5.8,2.1C105.7,190.3,104.7,187.7,105.7,185.6z"/>
</g>
<g>
	<path class="st4" d="M155.1,167L155.1,167L155.1,167c-0.1-0.1-0.3-0.2-0.5-0.3c-4-2.1-8.5-2.1-12.2-0.4c-1.3,0.6-2.6,1.4-3.7,2.4
		c-1.2,1.1-2.2,2.4-3,3.9c0.1,0.1,0.3,0.2,0.5,0.3c6.8,3.6,15.1,1.1,18.8-5.6C155,167.2,155,167.1,155.1,167L155.1,167z"/>
	<path class="st4" d="M155.1,166.9L155.1,166.9c0.1-0.1,0.1-0.2,0.2-0.3c3.4-6.8,0.7-15.1-6-18.6c-0.1-0.1-0.3-0.2-0.5-0.2
		c-0.8,1.5-1.3,3.1-1.5,4.6c-0.2,1.5-0.2,3,0.1,4.4c0.8,4.1,3.3,7.8,7.3,9.9C154.8,166.8,154.9,166.9,155.1,166.9L155.1,166.9z"/>
	<path class="st4" d="M194.6,203.1c-13.1-6.9-24.1-16.1-32.8-26.9c-2.4-2.9-4.6-6-6.6-9.2l0,0c0,0,0,0,0-0.1l0,0
		c3.8-0.1,7.6,0,11.4,0.3c13.8,1.1,27.6,5,40.7,11.9c16.6,8.8,30,21.4,39.5,36.1C229.2,215.7,211.3,211.8,194.6,203.1L194.6,203.1z"
		/>
	<path class="st1" d="M236.9,210.1c1.5-2.8,0.4-6.2-2.4-7.7c-2.8-1.5-6.2-0.4-7.7,2.4s-0.4,6.2,2.4,7.7
		C232,214,235.5,212.9,236.9,210.1L236.9,210.1z"/>
	<path d="M235.8,209.5c1.1-2.1,0.3-4.8-1.8-5.9s-4.8-0.3-5.9,1.8s-0.3,4.8,1.8,5.9C232,212.5,234.6,211.7,235.8,209.5L235.8,209.5z"
		/>
</g>
<g>
	<path class="st5" d="M437,211.2c-46.2,29.9-111,48.5-182.9,48.5s-136.6-18.6-182.9-48.5L437,211.2L437,211.2z"/>
	<path class="st5" d="M254.1,260.1c-69.7,0-134.7-17.3-183.1-48.6l-1.4-0.9h369.1l-1.4,0.9C388.9,242.9,323.8,260.1,254.1,260.1
		L254.1,260.1z M73,211.7c48.1,30.6,112.3,47.5,181.2,47.5s133.1-16.9,181.1-47.5C435.3,211.7,73,211.7,73,211.7z"/>
</g>
<g id="k">
</g>
</svg>
