<?xml version="1.0" encoding="UTF-8"?><svg xmlns="http://www.w3.org/2000/svg" viewBox="0 0 500 500"><defs><style>.l{fill:#fff;}.m{fill:#e52942;}.n{fill:#1d1d1b;}</style></defs><g id="a"><g id="b"/><g id="c"/><g id="d"/><g id="e"/><g id="f"/><g id="g"/></g><g id="h"/><g id="i"/><g id="j"/><g id="k"><path class="m" d="M251.51,330.06v35.22c-19.45,0-35.22-15.76-35.22-35.22h35.22Z"/><g><path class="m" d="M376.21,146.42v-20H211.87c-61.66-.01-111.83,50.16-111.83,111.82h4c0-59.46,48.38-107.83,107.83-107.83h160.34v16.01H216.29c-50.72-.01-91.83,41.1-91.83,91.82s41.11,91.82,91.83,91.82v-91.82h33.22v35.21h4v-35.21h26.61v35.21h4v-35.21h24c.87,0,1.74,0,2.61-.04v35.25h4v-35.45c47.63-3.39,85.22-43.09,85.22-91.58h-23.74Zm-35.47,47.32c-7.35,0-13.31-5.96-13.31-13.31s5.96-13.3,13.31-13.3,13.3,5.96,13.3,13.3-5.96,13.31-13.3,13.31Z"/><path class="m" d="M354.04,180.43c0,7.35-5.96,13.31-13.3,13.31s-13.31-5.96-13.31-13.31,5.96-13.3,13.31-13.3,13.3,5.96,13.3,13.3Z"/></g><path d="M354.04,180.43c0,7.35-5.96,13.31-13.3,13.31s-13.31-5.96-13.31-13.31,5.96-13.3,13.31-13.3,13.3,5.96,13.3,13.3Z"/><g><path class="n" d="M151.63,163.18h-1c0,34.4-8.24,46.61-31.46,46.65v1h.11c9.89,0,16.74,2.24,21.55,7.04,6.77,6.77,9.8,18.95,9.8,39.51h1c0-20.56,3.02-32.74,9.79-39.51,4.81-4.8,11.66-7.04,21.55-7.04h.11v-1c-23.22-.04-31.45-12.25-31.45-46.65Zm9.08,53.99c-5.37,5.36-8.46,13.96-9.58,27.16-1.13-13.2-4.22-21.8-9.59-27.16-3.71-3.7-8.54-5.94-14.92-6.86,15.32-2.3,22.63-12.44,24.51-34.2,1.87,21.76,9.18,31.9,24.5,34.2-6.38,.92-11.21,3.16-14.92,6.86Z"/><path class="l" d="M175.63,210.31c-6.38,.92-11.21,3.16-14.92,6.86-5.37,5.36-8.46,13.96-9.58,27.16-1.13-13.2-4.22-21.8-9.59-27.16-3.71-3.7-8.54-5.94-14.92-6.86,15.32-2.3,22.63-12.44,24.51-34.2,1.87,21.76,9.18,31.9,24.5,34.2Z"/></g><g><path class="n" d="M197.5,148.87h-.63c0,21.83-5.23,29.58-19.97,29.61v.63h.07c6.28,0,10.62,1.42,13.68,4.47,4.3,4.3,6.22,12.03,6.22,25.08h.63c0-13.05,1.92-20.78,6.21-25.08,3.05-3.05,7.4-4.47,13.68-4.47h.07v-.63c-14.74-.03-19.96-7.77-19.96-29.61Zm5.76,34.27c-3.41,3.4-5.37,8.86-6.08,17.24-.72-8.38-2.68-13.84-6.09-17.24-2.35-2.35-5.42-3.77-9.47-4.35,9.72-1.46,14.36-7.9,15.56-21.71,1.19,13.81,5.83,20.25,15.55,21.71-4.05,.58-7.11,2.01-9.47,4.35Z"/><path class="l" d="M212.74,178.79c-4.05,.58-7.11,2.01-9.47,4.35-3.41,3.4-5.37,8.86-6.08,17.24-.72-8.38-2.68-13.84-6.09-17.24-2.35-2.35-5.42-3.77-9.47-4.35,9.72-1.46,14.36-7.9,15.56-21.71,1.19,13.81,5.83,20.25,15.55,21.71Z"/></g><g><path class="n" d="M267.05,186.8h-.63c0,21.83-5.23,29.58-19.97,29.61v.63h.07c6.28,0,10.62,1.42,13.68,4.47,4.3,4.3,6.22,12.03,6.22,25.08h.63c0-13.05,1.92-20.78,6.21-25.08,3.05-3.05,7.4-4.47,13.68-4.47h.07v-.63c-14.74-.03-19.96-7.77-19.96-29.61Zm5.76,34.27c-3.41,3.4-5.37,8.86-6.08,17.24-.72-8.38-2.68-13.84-6.09-17.24-2.35-2.35-5.42-3.77-9.47-4.35,9.72-1.46,14.36-7.9,15.56-21.71,1.19,13.81,5.83,20.25,15.55,21.71-4.05,.58-7.11,2.01-9.47,4.35Z"/><path class="l" d="M282.28,216.71c-4.05,.58-7.11,2.01-9.47,4.35-3.41,3.4-5.37,8.86-6.08,17.24-.72-8.38-2.68-13.84-6.09-17.24-2.35-2.35-5.42-3.77-9.47-4.35,9.72-1.46,14.36-7.9,15.56-21.71,1.19,13.81,5.83,20.25,15.55,21.71Z"/></g></g></svg>