<?xml version="1.0" encoding="UTF-8"?><svg xmlns="http://www.w3.org/2000/svg" xmlns:xlink="http://www.w3.org/1999/xlink" viewBox="0 0 1920 1080"><defs><style>.f{fill:#fff;}.g{fill:#fbd213;}.h{clip-path:url(#d);}.h,.i,.j{fill:none;}.k{fill:#1d1e1b;}.i{clip-path:url(#e);}.l{fill:#ceaa13;}.m{clip-path:url(#c);}.n{fill:#1d1d1b;}</style><clipPath id="e"><path class="j" d="M-81.08,620.11c30.24-20.36,43.91-5.85,60.93,9.19"/></clipPath><clipPath id="d"><path class="i" d="M-20.15,764.91c-39.43,15.2-73.39,2.51-49.54-22.03,71.64-73.62-148.15-42.85-140.17-88.28,7.98-45.43,128.78-34.49,128.78-34.49"/></clipPath><clipPath id="c"><path class="h" d="M-20.08,765.29c-12.08,4.63-23.1,6.61-32.29,6.61-11.85,0-20.51-3.27-23.93-8.43-3.65-5.55-1.44-12.99,6.31-20.89,11.78-12.08,16.18-21.8,13.52-29.63-5.7-16.71-43.31-22.18-79.7-27.43-32.44-4.71-63.14-9.12-71.87-21.2-2.13-2.89-2.81-6.15-2.2-9.72,1.82-10.48,9.8-18.84,23.7-24.84,11.02-4.79,25.83-8.05,43.99-9.8,29.78-2.81,59.11-.38,61.31-.23,16.64-11.17,33.2-14.74,45.59-9.8,7.9,3.19,13.37,9.57,15.57,18.16m-.08,135.08v-132.42c-1.98-8.89-7.75-16.87-15.65-20.13-12.16-4.86-28.57-1.29-44.98,9.8l-.15,.08h-.15c-.3,0-30.47-2.66-61.31,.23-28.34,2.66-62.98,10.71-67.09,33.96-.61,3.42,.08,6.38,2.05,9.12,8.59,11.78,39.13,16.26,71.42,20.89,36.62,5.24,74.46,10.79,80.31,27.96,2.74,8.21-1.75,18.16-13.75,30.47-7.45,7.67-9.65,14.74-6.23,19.91,5.77,8.74,28.87,10.41,55.54,.15h0Z"/></clipPath></defs><g id="a"/><g id="b"><g class="m"><g><rect x="-227.03" y="660.98" width="232.79" height="1.52"/><g><line class="j" x1="-142.47" y1="798.72" x2="90.32" y2="798.88"/><rect x="-142.47" y="798.04" width="232.79" height="1.52"/></g></g></g><circle class="k" cx="434.55" cy="240.48" r="8.6"/><circle class="k" cx="464.11" cy="230.4" r="8.6"/><g><path class="g" d="M477.37,166.83l-139.53,61h0c-6.25-26.42-.38-49.16,16.22-65.82,6.41-6.47,14.47-11.95,24.06-16.44h.05c.27-.11,.55-.27,.82-.38h0l1.81-.82h0c.27-.11,.6-.22,.88-.38h.05c1.04-.44,2.14-.88,3.18-1.26h0c.77-.33,1.59-.6,2.36-.88,3.01-1.1,5.97-2.08,8.93-2.9,.16-.05,.38-.11,.55-.16l1.81-.49c.44-.11,.93-.22,1.37-.33,7.12-1.7,14.03-2.58,20.61-2.58,18.58,0,34.75,6.8,47.62,20.11,.27,.27,.49,.55,.77,.82,1.26,1.32,2.47,2.74,3.67,4.17h0c1.7,1.92,3.29,4.11,4.77,6.36Z"/><path class="n" d="M478.58,168.69l-70.09,30.69,70.09-30.69h0Zm-97.94-26.69c-1.04,.44-2.08,.93-3.12,1.37h0s-.05,0-.05,.05l1.64-.66h0c.27-.11,.55-.27,.82-.38,.27-.11,.49-.22,.71-.38h0Z"/></g><path class="l" d="M490.52,189.96l-2.52,1.1-137.01,59.85-.88,.38-3.56,1.53h0c-1.92-3.23-3.62-6.63-5.04-10.08-1.04-2.47-1.97-4.93-2.8-7.34s-1.53-4.82-2.14-7.23h0l71.41-31.18,71.41-31.24h0c2.3,3.62,4.44,7.56,6.36,11.73,.33,.71,.66,1.37,.93,2.08,.33,.71,.6,1.42,.93,2.14,1.15,2.8,2.14,5.54,2.9,8.28Z"/><path class="n" d="M392.31,274.74c-.27,.27-.49,.49-.77,.71-.6,.49-1.32,.99-2.03,1.42-.22,.11-.49,.27-.71,.38-2.85,1.42-5.97,1.7-8.88,1.1-.38-.05-.77-.16-1.1-.27-.16-.05-.38-.11-.55-.16h0l-.49-.16c-.33-.11-.6-.27-.93-.38-.16-.05-.27-.16-.44-.22-.22-.11-.38-.22-.6-.33-.38-.22-.77-.49-1.1-.77-.55-.38-1.04-.82-1.53-1.32-.99-.99-1.86-2.19-2.52-3.51h0l-.16-.33h0l-11.67-23.57h0l24.83-10.85h0l11.07,22.36,.16,.33h0c2.69,5.32,1.48,11.56-2.58,15.56Z"/><path class="f" d="M485.32,192.04h0l-1.97,.82-99.63,43.51h0l11.07,22.36,.16,.33h0c2.63,5.37,1.42,11.62-2.58,15.62-.27,.27-.49,.49-.77,.71-.6,.49-1.32,.99-2.03,1.42-.22,.11-.49,.27-.71,.38-2.85,1.42-5.97,1.7-8.88,1.1-.38-.05-.77-.16-1.1-.27-.16-.05-.38-.11-.55-.16h0l-.49-.16c-.33-.11-.6-.27-.93-.38-.16-.05-.27-.16-.44-.22-.22-.11-.38-.22-.6-.33-.38-.22-.77-.49-1.1-.77-.55-.38-1.04-.82-1.53-1.32-.99-.99-1.86-2.19-2.52-3.51h0l-.16-.33h0l-11.67-23.57-5.26,2.3h0l-1.97,.88c8.82,31.73,37.87,53.82,70.92,53.82,29.76,0,55.46-17.76,67.08-43.19l-1.37,.55-1.53,.6h0l-63.68,24.72c.05-.27,.11-.49,.16-.77s.11-.49,.16-.71c.05-.22,.11-.49,.11-.71,.05-.38,.11-.71,.16-1.1,.16-.82,.27-1.64,.44-2.41,.05-.44,.16-.93,.22-1.37,.33-1.75,.66-3.45,1.04-5.1,.05-.27,.16-.6,.22-.88,.16-.6,.33-1.15,.49-1.7,.11-.33,.22-.71,.33-1.04s.27-.66,.38-1.04c.05-.11,.11-.27,.16-.38,.05-.11,.11-.27,.16-.38,.22-.49,.44-.99,.71-1.48,.05-.11,.11-.22,.22-.38,.05-.11,.11-.22,.22-.33,.55-.93,1.21-1.86,1.97-2.8h0c.22-.27,.44-.49,.66-.77,.22-.27,.49-.55,.71-.77,.05-.11,.16-.16,.27-.27,.27-.27,.55-.49,.82-.77h0c.16-.16,.33-.33,.55-.49,.16-.16,.38-.33,.55-.49,0-.05,.05-.05,.05-.05,.16-.11,.33-.27,.49-.38,.22-.16,.38-.33,.6-.49,.33-.27,.66-.49,1.04-.77,.27-.22,.6-.44,.93-.66,.05,0,.05-.05,.11-.05,.33-.22,.71-.44,1.1-.66,.05-.05,.11-.05,.22-.11,.27-.16,.49-.33,.77-.49,1.04-.6,2.19-1.26,3.4-1.86,0,0,.05,0,.05-.05,.27-.16,.6-.27,.88-.44,.05,0,.11-.05,.11-.05,.6-.27,1.21-.55,1.86-.88,.27-.11,.55-.27,.82-.38,1.1-.49,2.3-.99,3.56-1.48,.05-.05,.16-.05,.22-.11,.22-.11,.49-.16,.71-.27,.11-.05,.22-.11,.33-.11,.66-.27,1.32-.49,1.97-.77h0c.22-.11,.44-.16,.66-.27,20.72-7.56,29.32-5.81,37.71-.55h0c.33,.22,.66,.38,.99,.6,.33,.22,.6,.38,.93,.6h0c1.92-6.52,2.96-13.43,2.96-20.61-.05-13.59-3.84-26.85-10.96-38.47Zm-50.75,57.05c-4.77,0-8.6-3.84-8.6-8.6s3.84-8.6,8.6-8.6,8.6,3.84,8.6,8.6c-.05,4.77-3.89,8.6-8.6,8.6Zm29.54-10.08c-4.71,0-8.6-3.84-8.6-8.6s3.84-8.6,8.6-8.6,8.6,3.84,8.6,8.6c0,4.77-3.84,8.6-8.6,8.6Z"/><path class="n" d="M500.77,256.71l-11.13,4.33-1.37,.55-1.53,.6-63.68,24.72c.05-.27,.11-.49,.16-.77s.11-.49,.16-.71c.05-.22,.11-.49,.11-.71,.05-.38,.11-.71,.16-1.1,.16-.82,.27-1.64,.44-2.41,.05-.44,.16-.88,.22-1.37,.33-1.75,.66-3.45,1.04-5.1,.05-.27,.16-.6,.22-.88,.16-.6,.33-1.15,.49-1.7,.11-.33,.22-.71,.33-1.04s.27-.66,.38-1.04c.05-.11,.11-.27,.16-.38,.05-.11,.11-.27,.16-.38,.22-.49,.44-.99,.71-1.48,.05-.11,.11-.22,.22-.38,.05-.11,.11-.22,.22-.33,.55-.93,1.21-1.86,1.97-2.8h0c.22-.27,.44-.49,.66-.77,.22-.27,.49-.55,.71-.77l.27-.27c.27-.27,.55-.49,.82-.77h0c.16-.16,.33-.33,.55-.49,.16-.16,.38-.33,.55-.49,0-.05,.05-.05,.05-.05,.16-.11,.33-.27,.49-.38,.22-.16,.38-.33,.6-.49,.33-.27,.66-.49,1.04-.77,.27-.22,.6-.44,.93-.66,.05,0,.05-.05,.11-.05,.33-.22,.71-.44,1.1-.66,.05-.05,.11-.05,.22-.11,.27-.16,.49-.33,.77-.49,1.04-.6,2.19-1.26,3.4-1.86,0,0,.05,0,.05-.05,.27-.16,.6-.27,.88-.44,.05,0,.11-.05,.11-.05,.6-.27,1.21-.55,1.86-.88,.27-.11,.55-.27,.82-.38,1.1-.49,2.3-.99,3.56-1.48,.05-.05,.16-.05,.22-.11,.22-.11,.49-.16,.71-.27,.11-.05,.22-.11,.33-.11,.66-.27,1.32-.49,1.97-.77h0c.22-.11,.44-.16,.66-.27,20.72-7.56,29.32-5.81,37.71-.55,.33,.16,.66,.38,.99,.6,.33,.22,.6,.38,.93,.6,2.3,1.75,4.71,3.67,7.45,5.64Z"/><g><path class="g" d="M390.94,124.63c0,4.88-1.75,9.37-4.71,12.82-.27,.33-.55,.66-.88,.99-1.37,1.37-2.9,2.58-4.6,3.56,0,0-.05,0-.05,.05h-.05c-.22,.11-.49,.27-.71,.38-.27,.11-.55,.27-.82,.38h0c-.49,.22-1.04,.44-1.59,.6h-.05c-1.97,.66-4.11,1.04-6.36,1.04-5.48,0-10.41-2.25-14.03-5.81-.33-.33-.66-.71-.99-1.04-.11-.11-.22-.22-.33-.38-.27-.38-.6-.77-.88-1.15-.16-.27-.38-.55-.55-.77l-.49-.82c-.16-.27-.33-.55-.44-.82-.16-.27-.27-.55-.44-.88-1.15-2.47-1.75-5.26-1.75-8.17,0-2.19,.38-4.33,1.04-6.36,.16-.44,.33-.93,.49-1.37h0c1.7-4,4.66-7.34,8.39-9.48,.27-.16,.55-.33,.82-.44,.27-.16,.55-.27,.88-.44,2.47-1.15,5.26-1.75,8.17-1.75,11.02,0,19.95,8.93,19.95,19.84h0Z"/><path class="n" d="M381.79,143.92q-.05,0,0,0c-1.15,.66-2.36,1.21-3.56,1.59h-.05c.27-.16,.55-.27,.88-.44h0c.27-.16,.6-.27,.88-.44,.27-.11,.6-.27,.93-.38h0c.33-.11,.6-.22,.93-.33Z"/></g></g></svg>