<?xml version="1.0" encoding="utf-8"?>
<!-- Generator: Adobe Illustrator 26.2.1, SVG Export Plug-In . SVG Version: 6.00 Build 0)  -->
<svg version="1.1" id="Livello_1" xmlns="http://www.w3.org/2000/svg" xmlns:xlink="http://www.w3.org/1999/xlink" x="0px" y="0px"
	 viewBox="0 0 500 500" style="enable-background:new 0 0 500 500;" xml:space="preserve">
<style type="text/css">
	.st0{fill:#C6C5C5;}
	.st1{fill:#FFFFFF;}
	.st2{enable-background:new    ;}
	.st3{fill:#2A6EB5;}
	.st4{fill:#00A29B;}
	.st5{fill:#FBD213;}
</style>
<g id="a">
	<g id="b">
	</g>
	<g id="c">
	</g>
	<g id="d">
	</g>
	<g id="e">
	</g>
	<g id="f">
	</g>
	<g id="g">
	</g>
</g>
<g id="h">
</g>
<g id="i">
</g>
<g id="j">
	<path class="st0" d="M250,381.9c-101,0-182.9,6.1-182.9,13.6S149,409.2,250,409.2s182.9-6.1,182.9-13.6S351,381.9,250,381.9"/>
	<g>
		<polygon class="st1" points="417.1,395.5 82.9,395.5 114.3,332.4 385.7,332.4 		"/>
		<path d="M417.1,397H82.9c-0.5,0-1-0.3-1.3-0.7s-0.3-1-0.1-1.5l31.4-63.2c0.2-0.5,0.8-0.8,1.3-0.8h271.4c0.6,0,1.1,0.3,1.3,0.8
			l31.4,63.2c0.2,0.5,0.2,1-0.1,1.5S417.6,397,417.1,397L417.1,397z M85.3,394h329.4l-29.9-60.2H115.2L85.3,394L85.3,394z"/>
	</g>
	<g class="st2">
		<path d="M202.7,346.1c1.4,0,2.7,0.2,4,0.6s2.4,1,3.4,1.8c1,0.8,1.7,1.9,2.3,3.1s0.9,2.7,0.9,4.3c0,1.4-0.2,2.7-0.6,3.9
			c-0.4,1.2-1,2.3-1.7,3.4c-0.7,1.1-1.6,2.1-2.5,3.2s-2,2.1-3,3.2l-11.5,11.7c0.6-0.1,1.1-0.2,1.7-0.3s1.2-0.1,1.8-0.1h15.8
			c0.3,0,0.5,0.1,0.7,0.2c0.2,0.2,0.2,0.4,0.2,0.6v1.5h-23.7v-0.9c0-0.2,0-0.4,0.1-0.6c0.1-0.2,0.2-0.4,0.4-0.5l12.5-12.7
			c1-1.1,2-2.1,2.9-3.1c0.9-1,1.6-2,2.3-3c0.6-1,1.2-2,1.5-3.1c0.4-1.1,0.6-2.2,0.6-3.4c0-1.3-0.2-2.5-0.7-3.5
			c-0.5-1-1.1-1.8-1.8-2.5c-0.8-0.6-1.6-1.1-2.6-1.4c-1-0.3-2-0.5-3.1-0.5c-1.2,0-2.2,0.2-3.2,0.5c-1,0.4-1.8,0.8-2.6,1.5
			c-0.8,0.6-1.4,1.4-1.9,2.3c-0.5,0.9-0.8,1.8-1,2.9c-0.2,0.6-0.5,0.9-1,0.9c0,0-0.1,0-0.1,0s-0.1,0-0.1,0l-1.2-0.2
			c0.2-1.6,0.6-3,1.3-4.2s1.5-2.3,2.5-3.1c1-0.8,2.1-1.5,3.4-1.9C199.8,346.4,201.2,346.1,202.7,346.1z"/>
		<path d="M229.5,384.4c-0.1,0.3-0.3,0.6-0.6,0.8c-0.3,0.2-0.6,0.2-0.9,0.2h-1l16.1-39c0.3-0.6,0.7-1,1.4-1h1.1L229.5,384.4z"/>
		<path d="M263.7,381.4h8.4v-29.8c0-0.6,0-1.2,0.1-1.9l-8.1,7.2c-0.2,0.2-0.4,0.2-0.6,0.2c-0.3,0-0.5-0.1-0.7-0.3l-0.8-1l10.6-9.4
			h1.9v35h8v1.9h-18.9V381.4z"/>
		<path d="M310.8,347.6c0,0.3-0.1,0.6-0.4,0.9s-0.6,0.3-1.1,0.3h-13.3l-2.2,12.2c1.2-0.3,2.3-0.5,3.3-0.6c1-0.1,2-0.2,3-0.2
			c1.9,0,3.6,0.3,5,0.8c1.5,0.5,2.7,1.3,3.6,2.3c1,1,1.7,2.1,2.2,3.5c0.5,1.3,0.8,2.8,0.8,4.4c0,1.9-0.3,3.7-1,5.2
			c-0.7,1.5-1.6,2.8-2.7,3.9c-1.2,1.1-2.5,1.9-4,2.5c-1.5,0.6-3.2,0.9-4.9,0.9c-1,0-2-0.1-2.9-0.3c-0.9-0.2-1.8-0.4-2.6-0.7
			c-0.8-0.3-1.6-0.7-2.2-1c-0.7-0.4-1.3-0.8-1.8-1.2l0.7-1c0.2-0.3,0.4-0.4,0.8-0.4c0.2,0,0.5,0.1,1,0.4c0.4,0.3,1,0.5,1.6,0.9
			c0.7,0.3,1.5,0.6,2.4,0.9c0.9,0.3,2,0.4,3.2,0.4c1.4,0,2.7-0.2,4-0.7s2.3-1.1,3.2-2c0.9-0.9,1.6-1.9,2.1-3.2
			c0.5-1.3,0.8-2.7,0.8-4.3c0-1.3-0.2-2.5-0.6-3.6c-0.4-1.1-1-2.1-1.8-2.8c-0.8-0.8-1.8-1.4-3-1.8c-1.2-0.4-2.6-0.7-4.2-0.7
			c-1,0-2,0.1-3.1,0.2c-1.1,0.2-2.3,0.4-3.5,0.8l-1.6-0.5l2.9-16.3h16.5V347.6z"/>
	</g>
	<g>
		<path class="st3" d="M381.8,195L381.8,195L381.8,195c0.2,0,0.3,0.1,0.5,0.1c4.3,1.1,7.7,4.1,9.3,7.9c0.6,1.3,1,2.8,1.1,4.2
			c0.2,1.6,0,3.3-0.4,4.9c-0.2,0-0.4-0.1-0.5-0.1c-7.4-1.9-11.9-9.4-10.1-16.8C381.7,195.2,381.8,195.1,381.8,195L381.8,195z"/>
		<path class="st3" d="M381.8,195L381.8,195c0-0.1,0.1-0.2,0.1-0.4c2.1-7.3,9.6-11.6,17-9.7c0.2,0,0.3,0.1,0.5,0.1
			c-0.4,1.6-1.1,3.1-2,4.4c-0.8,1.2-1.9,2.3-3.1,3.2c-3.3,2.5-7.7,3.5-12,2.4C382.1,195.1,382,195,381.8,195z"/>
		<path class="st3" d="M328.3,195.1c14.3,3.7,28.6,4.3,42.4,2.2c3.8-0.6,7.4-1.3,11.1-2.3l0,0l0,0l0,0c-2.7-2.6-5.6-5.1-8.7-7.5
			c-11-8.5-23.8-14.9-38.1-18.6c-18.2-4.7-36.5-4.4-53.5,0.1C294.2,181.2,310,190.4,328.3,195.1L328.3,195.1z"/>
		<path class="st1" d="M292.2,171.8c0.8-3,3.9-4.9,6.9-4.1s4.9,3.9,4.1,6.9s-3.9,4.9-6.9,4.1S291.4,174.9,292.2,171.8L292.2,171.8z"
			/>
		<path d="M293.5,172.2c0.6-2.3,3-3.7,5.3-3.1c2.3,0.6,3.7,3,3.1,5.3s-3,3.7-5.3,3.1S292.9,174.5,293.5,172.2L293.5,172.2z"/>
	</g>
	<g>
		<path class="st4" d="M326.5,213.3L326.5,213.3L326.5,213.3c0.2,0.1,0.3,0.1,0.5,0.2c4.1,1.9,6.8,5.4,7.8,9.5
			c0.4,1.4,0.5,2.9,0.4,4.4c-0.1,1.6-0.5,3.2-1.2,4.8c-0.2-0.1-0.3-0.1-0.5-0.2c-6.9-3.2-10-11.3-7.1-18.3
			C326.4,213.5,326.5,213.4,326.5,213.3L326.5,213.3z"/>
		<path class="st4" d="M326.5,213.2L326.5,213.2c0.1-0.1,0.1-0.2,0.2-0.3c3.3-6.8,11.5-9.7,18.4-6.6c0.2,0.1,0.3,0.1,0.5,0.2
			c-0.7,1.5-1.6,2.9-2.8,4c-1,1.1-2.3,1.9-3.6,2.6c-3.7,1.9-8.2,2.1-12.3,0.3C326.8,213.4,326.7,213.3,326.5,213.2L326.5,213.2z"/>
		<path class="st3" d="M273.8,204c13.4,6.1,27.5,9.2,41.3,9.6c3.8,0.1,7.6,0,11.3-0.3l0,0l0,0l0,0c-2.2-3.1-4.6-6-7.2-8.9
			c-9.3-10.3-20.8-18.9-34.2-25c-17.1-7.8-35.2-10.7-52.7-9.3C242.7,184.3,256.7,196.1,273.8,204L273.8,204z"/>
		<path class="st1" d="M242.4,174.8c1.3-2.9,4.7-4.1,7.6-2.8c2.9,1.3,4.1,4.7,2.8,7.5c-1.3,2.9-4.7,4.1-7.5,2.8
			S241.1,177.6,242.4,174.8L242.4,174.8z"/>
		<path d="M243.6,175.3c1-2.2,3.6-3.2,5.8-2.2s3.2,3.6,2.1,5.8c-1,2.2-3.6,3.2-5.8,2.1S242.6,177.5,243.6,175.3z"/>
	</g>
	<g>
		<path class="st5" d="M437,198.5C390.8,228.4,326,247,254.1,247s-136.6-18.6-182.9-48.5H437z"/>
		<path class="st5" d="M254.1,247.5c-69.7,0-134.7-17.2-183.1-48.6l-1.4-0.9h369.1l-1.4,0.9C388.9,230.2,323.8,247.5,254.1,247.5
			L254.1,247.5z M73,199c48.1,30.6,112.3,47.5,181.2,47.5s133.1-16.9,181.1-47.5H73z"/>
	</g>
</g>
<g id="k">
</g>
</svg>
