<?xml version="1.0" encoding="utf-8"?>
<!-- Generator: Adobe Illustrator 26.1.0, SVG Export Plug-In . SVG Version: 6.00 Build 0)  -->
<svg version="1.1" id="Livello_1" xmlns="http://www.w3.org/2000/svg" xmlns:xlink="http://www.w3.org/1999/xlink" x="0px" y="0px"
	 viewBox="0 0 362.4 181.5" style="enable-background:new 0 0 362.4 181.5;" xml:space="preserve">
<style type="text/css">
	.st0{fill:#F7F1D8;}
	.st1{fill:#D8CC9C;}
	.st2{opacity:0.2;}
</style>
<g id="a">
	<g id="b">
	</g>
	<g id="c">
	</g>
	<g id="d">
	</g>
	<g id="e">
	</g>
	<g id="f">
	</g>
	<g id="g">
	</g>
</g>
<g>
	<polygon class="st0" points="359.3,165.5 42.1,178.4 40.6,140.7 35.5,16 352.7,3.1 	"/>
	<path d="M355.6,0L35.4,13l-2.6,0.1l-0.3,1.3L0,142.7l3.4-0.2l34.2-1.7l1.5,37.6l0.1,3.1l323.2-13.2L355.6,0L355.6,0z M3.9,139.5
		L32.9,25l4.6,112.9C37.5,137.8,3.9,139.5,3.9,139.5z M40.6,140.7L35.5,16L352.7,3.1l6.6,162.4L42.1,178.4L40.6,140.7L40.6,140.7z"
		/>
</g>
<polygon class="st1" points="37.5,137.8 3.9,139.5 32.9,25 "/>
<g class="st2">
	<polygon points="39.1,178.4 3.4,142.6 37.6,140.8 	"/>
</g>
<g id="i">
</g>
<g>
	<path d="M170.3,74.8l0.2,7.8c0.1,4.1-3.1,7.5-7.2,7.6l-8.6,0.3l0.6,18.9l-7.4,0.2l-1.3-41.5l16-0.5
		C166.7,67.5,170.1,70.7,170.3,74.8z M163.2,85.2l-0.4-12.4c0-0.7-0.6-1.4-1.5-1.4l-7.2,0.2l0.5,15.3l7.2-0.2
		C162.7,86.6,163.2,86,163.2,85.2z"/>
	<path d="M199.4,108l-20.3,0.6l-1.3-41.5l7.4-0.2l1.2,37.8l12.9-0.4L199.4,108z"/>
	<path d="M220.9,100.1l-13.5,0.4l-1.5,7.3l-3.7,0.1l8.3-41.8l8.7-0.3l10.9,41.2l-7.4,0.2L220.9,100.1z M219.4,94.6l-6.2-23.3
		L208.4,95L219.4,94.6z"/>
	<path d="M248.8,87.6l0.6,18.9l-7.4,0.2l-0.6-18.9l-9-22.3l7.4-0.2l7,17.4l5.9-17.8l3.7-0.1L248.8,87.6z"/>
</g>
</svg>
