<?xml version="1.0" encoding="UTF-8"?><svg xmlns="http://www.w3.org/2000/svg" viewBox="0 0 500 500"><defs><style>.m{fill:#fff;}.n{fill:#2a6eb5;}.o{fill:#1d1d1b;}</style></defs><g id="a"><g id="b"/><g id="c"/><g id="d"/><g id="e"/><g id="f"/><g id="g"/></g><g id="h"/><g id="i"/><g id="j"/><g id="k"/><g id="l"><g><path class="m" d="M391.96,250.16c0,78.28-63.68,141.97-141.96,141.97s-141.97-63.69-141.97-141.97S171.72,108.19,250,108.19s141.96,63.69,141.96,141.97Z"/><path class="o" d="M250,105.19c-79.94,0-144.97,65.03-144.97,144.97s65.03,144.97,144.97,144.97,144.96-65.03,144.96-144.97S329.93,105.19,250,105.19Zm0,286.94c-78.28,0-141.97-63.69-141.97-141.97S171.72,108.19,250,108.19s141.96,63.69,141.96,141.97-63.68,141.97-141.96,141.97Z"/></g><path class="n" d="M251.64,165.81c-45.21,0-82.03,35.63-84.14,80.32h-24.3l36.44,47.53,35.85-47.53h-23.9c2.09-31.34,28.18-56.23,60.04-56.23s60.24,27.02,60.24,60.24-27.02,60.24-60.24,60.24c-19.13,0-36.16-8.99-47.2-22.92l-14.84,19.67c15.41,16.77,37.46,27.35,62.03,27.35,46.57,0,84.34-37.77,84.34-84.34s-37.77-84.34-84.34-84.34Z"/></g></svg>