<?xml version="1.0" encoding="utf-8"?>
<!-- Generator: Adobe Illustrator 26.2.1, SVG Export Plug-In . SVG Version: 6.00 Build 0)  -->
<svg version="1.1" id="Livello_1" xmlns="http://www.w3.org/2000/svg" xmlns:xlink="http://www.w3.org/1999/xlink" x="0px" y="0px"
	 viewBox="0 0 500 500" style="enable-background:new 0 0 500 500;" xml:space="preserve">
<style type="text/css">
	.st0{fill:#C6C5C5;}
	.st1{fill:#FFFFFF;}
	.st2{enable-background:new    ;}
	.st3{fill:#2A6EB5;}
	.st4{fill:#FBD213;}
</style>
<g id="a">
	<g id="b">
	</g>
	<g id="c">
	</g>
	<g id="d">
	</g>
	<g id="e">
	</g>
	<g id="f">
	</g>
	<g id="g">
	</g>
</g>
<g id="h">
</g>
<g id="i">
</g>
<path class="st0" d="M250,381.9c-101,0-182.9,6.1-182.9,13.6S149,409.2,250,409.2s182.9-6.1,182.9-13.6S351,381.9,250,381.9"/>
<g>
	<polygon class="st1" points="417.1,395.5 82.9,395.5 114.3,332.4 385.7,332.4 	"/>
	<path d="M417.1,397H82.9c-0.5,0-1-0.3-1.3-0.7s-0.3-1-0.1-1.5l31.4-63.2c0.2-0.5,0.8-0.8,1.3-0.8h271.4c0.6,0,1.1,0.3,1.3,0.8
		l31.4,63.2c0.2,0.5,0.2,1-0.1,1.5S417.6,397,417.1,397L417.1,397z M85.3,394h329.4l-29.9-60.2H115.2L85.3,394L85.3,394z"/>
</g>
<g class="st2">
	<path d="M201.9,367.6c-1.5,0-2.9-0.2-4.2-0.7s-2.4-1.2-3.3-2.1c-0.9-0.9-1.6-2-2.2-3.3c-0.5-1.3-0.8-2.7-0.8-4.3
		c0-1.6,0.3-3,0.9-4.4c0.6-1.3,1.4-2.5,2.4-3.5s2.3-1.8,3.7-2.3c1.4-0.6,3-0.8,4.7-0.8c1.6,0,3.1,0.3,4.5,0.8
		c1.4,0.6,2.5,1.3,3.5,2.3s1.7,2.2,2.3,3.6c0.5,1.4,0.8,3,0.8,4.7c0,1-0.1,1.9-0.3,2.7c-0.2,0.9-0.5,1.7-0.9,2.6s-0.9,1.8-1.4,2.7
		c-0.6,0.9-1.2,1.9-1.9,2.9l-9.6,14.1c-0.3,0.4-0.7,0.6-1.3,0.6h-2.2l10.8-15.1c0.5-0.7,1-1.4,1.4-2.1s0.8-1.3,1.2-1.9
		c-1,1.1-2.2,2-3.6,2.6S203.5,367.6,201.9,367.6z M211.9,357.2c0-1.3-0.2-2.6-0.6-3.7c-0.4-1.1-1-2.1-1.8-2.8s-1.7-1.4-2.8-1.8
		s-2.2-0.7-3.5-0.7s-2.6,0.2-3.7,0.6c-1.1,0.4-2.1,1-2.9,1.8s-1.4,1.7-1.9,2.8c-0.5,1.1-0.7,2.3-0.7,3.6c0,1.3,0.2,2.6,0.6,3.6
		s1,2,1.8,2.7c0.8,0.8,1.7,1.3,2.7,1.7c1.1,0.4,2.2,0.6,3.5,0.6c1.5,0,2.8-0.3,3.9-0.8c1.1-0.5,2.1-1.2,2.9-2
		c0.8-0.8,1.4-1.7,1.8-2.7S211.9,358.2,211.9,357.2z"/>
	<path d="M229.5,384.4c-0.1,0.3-0.3,0.6-0.6,0.8c-0.3,0.2-0.6,0.2-0.9,0.2h-1l16.1-39c0.3-0.6,0.7-1,1.4-1h1.1L229.5,384.4z"/>
	<path d="M263.7,381.4h8.4v-29.8c0-0.6,0-1.2,0.1-1.9l-8.1,7.2c-0.2,0.2-0.4,0.2-0.6,0.2c-0.3,0-0.5-0.1-0.7-0.3l-0.8-1l10.6-9.4
		h1.9v35h8v1.9h-18.9v-1.9H263.7z"/>
	<path d="M310.8,347.6c0,0.3-0.1,0.6-0.4,0.9s-0.6,0.3-1.1,0.3H296l-2.2,12.2c1.2-0.3,2.3-0.5,3.3-0.6s2-0.2,3-0.2
		c1.9,0,3.6,0.3,5,0.8c1.5,0.5,2.7,1.3,3.6,2.3c1,1,1.7,2.1,2.2,3.5c0.5,1.3,0.8,2.8,0.8,4.4c0,1.9-0.3,3.7-1,5.2s-1.6,2.8-2.7,3.9
		c-1.2,1.1-2.5,1.9-4,2.5s-3.2,0.9-4.9,0.9c-1,0-2-0.1-2.9-0.3c-0.9-0.2-1.8-0.4-2.6-0.7c-0.8-0.3-1.6-0.7-2.2-1
		c-0.7-0.4-1.3-0.8-1.8-1.2l0.7-1c0.2-0.3,0.4-0.4,0.8-0.4c0.2,0,0.5,0.1,1,0.4c0.4,0.3,1,0.5,1.6,0.9c0.7,0.3,1.5,0.6,2.4,0.9
		s2,0.4,3.2,0.4c1.4,0,2.7-0.2,4-0.7s2.3-1.1,3.2-2c0.9-0.9,1.6-1.9,2.1-3.2c0.5-1.3,0.8-2.7,0.8-4.3c0-1.3-0.2-2.5-0.6-3.6
		s-1-2.1-1.8-2.8c-0.8-0.8-1.8-1.4-3-1.8s-2.6-0.7-4.2-0.7c-1,0-2,0.1-3.1,0.2c-1.1,0.2-2.3,0.4-3.5,0.8l-1.6-0.5l2.9-16.3H311v0.8
		H310.8z"/>
</g>
<g>
	<path class="st3" d="M381.8,239L381.8,239L381.8,239c0.2,0,0.3,0.1,0.5,0.1c4.3,1.1,7.7,4.1,9.3,7.9c0.6,1.3,1,2.8,1.1,4.2
		c0.2,1.6,0,3.3-0.4,4.9c-0.2,0-0.4-0.1-0.5-0.1c-7.4-1.9-11.9-9.4-10.1-16.8C381.7,239.3,381.8,239.1,381.8,239L381.8,239z"/>
	<path class="st3" d="M381.8,239L381.8,239c0-0.1,0.1-0.2,0.1-0.4c2.1-7.3,9.6-11.6,17-9.7c0.2,0,0.3,0.1,0.5,0.1
		c-0.4,1.6-1.1,3.1-2,4.4c-0.8,1.2-1.9,2.3-3.1,3.2c-3.3,2.5-7.7,3.5-12,2.4C382.1,239.1,382,239.1,381.8,239z"/>
	<path class="st3" d="M328.3,239.1c14.3,3.7,28.6,4.3,42.4,2.2c3.8-0.6,7.4-1.3,11.1-2.3l0,0l0,0l0,0c-2.7-2.6-5.6-5.1-8.7-7.5
		c-11-8.5-23.8-14.9-38.1-18.6c-18.2-4.7-36.5-4.4-53.5,0.1C294.2,225.2,310,234.4,328.3,239.1L328.3,239.1z"/>
	<path class="st1" d="M292.2,215.9c0.8-3,3.9-4.9,6.9-4.1s4.9,3.9,4.1,6.9s-3.9,4.9-6.9,4.1S291.4,218.9,292.2,215.9L292.2,215.9z"
		/>
	<path d="M293.5,216.2c0.6-2.3,3-3.7,5.3-3.1c2.3,0.6,3.7,3,3.1,5.3s-3,3.7-5.3,3.1S292.9,218.5,293.5,216.2L293.5,216.2z"/>
</g>
<g>
	<path class="st3" d="M326.5,257.3L326.5,257.3L326.5,257.3c0.2,0.1,0.3,0.1,0.5,0.2c4.1,1.9,6.8,5.4,7.8,9.5
		c0.4,1.4,0.5,2.9,0.4,4.4c-0.1,1.6-0.5,3.2-1.2,4.8c-0.2-0.1-0.3-0.1-0.5-0.2c-6.9-3.2-10-11.3-7.1-18.3
		C326.4,257.5,326.5,257.4,326.5,257.3L326.5,257.3z"/>
	<path class="st3" d="M326.5,257.3L326.5,257.3c0.1-0.1,0.1-0.2,0.2-0.3c3.3-6.8,11.5-9.7,18.4-6.6c0.2,0.1,0.3,0.1,0.5,0.2
		c-0.7,1.5-1.6,2.9-2.8,4c-1,1.1-2.3,1.9-3.6,2.6c-3.7,1.9-8.2,2.1-12.3,0.3C326.8,257.4,326.7,257.3,326.5,257.3L326.5,257.3z"/>
	<path class="st3" d="M273.8,248c13.4,6.1,27.5,9.2,41.3,9.6c3.8,0.1,7.6,0,11.3-0.3l0,0l0,0l0,0c-2.2-3.1-4.6-6-7.2-8.9
		c-9.3-10.3-20.8-18.9-34.2-25c-17.1-7.8-35.2-10.7-52.7-9.3C242.7,228.3,256.7,240.1,273.8,248L273.8,248z"/>
	<path class="st1" d="M242.4,218.8c1.3-2.9,4.7-4.1,7.6-2.8c2.9,1.3,4.1,4.7,2.8,7.5c-1.3,2.9-4.7,4.1-7.5,2.8
		S241.1,221.6,242.4,218.8L242.4,218.8z"/>
	<path d="M243.6,219.3c1-2.2,3.6-3.2,5.8-2.2s3.2,3.6,2.1,5.8c-1,2.2-3.6,3.2-5.8,2.1S242.6,221.5,243.6,219.3z"/>
</g>
<g>
	<path class="st3" d="M188.6,254.9L188.6,254.9L188.6,254.9c0.2,0.1,0.3,0.1,0.5,0.2c4.1,1.9,6.8,5.4,7.8,9.5
		c0.4,1.4,0.5,2.9,0.4,4.4c-0.1,1.6-0.5,3.2-1.2,4.8c-0.2-0.1-0.3-0.1-0.5-0.2c-6.9-3.2-10.1-11.3-7.1-18.3
		C188.6,255.1,188.6,255,188.6,254.9L188.6,254.9z"/>
	<path class="st3" d="M188.7,254.9L188.7,254.9c0.1-0.1,0.1-0.2,0.2-0.3c3.3-6.8,11.5-9.7,18.4-6.6c0.2,0.1,0.3,0.1,0.5,0.2
		c-0.7,1.5-1.6,2.9-2.8,4c-1.1,1.1-2.3,1.9-3.6,2.6c-3.7,1.9-8.2,2.1-12.3,0.3C189,255,188.8,255,188.7,254.9L188.7,254.9z"/>
	<path class="st3" d="M135.9,245.6c13.4,6.1,27.4,9.2,41.3,9.6c3.8,0.1,7.6,0,11.3-0.3l0,0c0,0,0,0,0.1,0l0,0
		c-2.2-3.1-4.6-6-7.2-8.9c-9.3-10.3-20.8-18.9-34.2-25c-17.1-7.8-35.2-10.7-52.7-9.3C104.8,225.9,118.8,237.8,135.9,245.6
		L135.9,245.6z"/>
	<path class="st1" d="M104.5,216.4c1.3-2.9,4.7-4.1,7.6-2.8s4.1,4.7,2.8,7.5s-4.7,4.1-7.5,2.8S103.2,219.2,104.5,216.4L104.5,216.4z
		"/>
	<path d="M105.7,216.9c1-2.2,3.6-3.2,5.8-2.2c2.2,1,3.2,3.6,2.2,5.8s-3.6,3.2-5.8,2.1S104.7,219.1,105.7,216.9z"/>
</g>
<g>
	<path class="st3" d="M190,176.4L190,176.4L190,176.4c-0.2,0-0.3-0.1-0.5-0.1c-4.3-1.1-7.7-4.1-9.3-7.9c-0.6-1.3-1-2.8-1.1-4.2
		c-0.2-1.6-0.1-3.3,0.4-4.9c0.2,0,0.4,0.1,0.5,0.1c7.4,1.9,11.9,9.4,10.1,16.8C190.1,176.2,190.1,176.3,190,176.4L190,176.4z"/>
	<path class="st3" d="M190,176.4L190,176.4c0,0.1-0.1,0.2-0.1,0.4c-2.1,7.3-9.6,11.6-17,9.7c-0.2,0-0.3-0.1-0.5-0.1
		c0.4-1.6,1.1-3.1,2-4.4c0.8-1.2,1.9-2.3,3.1-3.2c3.3-2.5,7.7-3.5,12-2.4C189.7,176.3,189.9,176.4,190,176.4z"/>
	<path class="st3" d="M243.6,176.3c-14.3-3.7-28.6-4.3-42.4-2.2c-3.8,0.6-7.4,1.3-11.1,2.3l0,0c0,0,0,0-0.1,0l0,0
		c2.7,2.6,5.6,5.1,8.7,7.5c11,8.5,23.8,14.9,38.1,18.6c18.2,4.7,36.5,4.4,53.5-0.1C277.7,190.2,261.8,181,243.6,176.3L243.6,176.3z"
		/>
	<path class="st1" d="M279.6,199.6c-0.8,3-3.9,4.9-6.9,4.1s-4.9-3.9-4.1-6.9s3.9-4.9,6.9-4.1S280.4,196.5,279.6,199.6L279.6,199.6z"
		/>
	<path d="M278.4,199.2c-0.6,2.3-3,3.7-5.3,3.1c-2.3-0.6-3.7-3-3.1-5.3s3-3.7,5.3-3.1S279,196.9,278.4,199.2L278.4,199.2z"/>
</g>
<g>
	<path class="st3" d="M185.3,131.7L185.3,131.7L185.3,131.7c-0.2,0-0.4-0.1-0.5-0.1c-4.4-0.9-7.9-3.7-9.8-7.4
		c-0.7-1.3-1.1-2.7-1.3-4.2c-0.2-1.6-0.2-3.3,0.1-4.9c0.2,0,0.4,0.1,0.5,0.1c7.5,1.5,12.4,8.7,11,16.2
		C185.3,131.5,185.3,131.6,185.3,131.7L185.3,131.7z"/>
	<path class="st3" d="M185.3,131.7L185.3,131.7c0,0.1-0.1,0.2-0.1,0.4c-1.7,7.4-9,12.1-16.4,10.6c-0.2,0-0.4-0.1-0.5-0.1
		c0.3-1.7,0.9-3.2,1.8-4.6c0.8-1.3,1.8-2.4,2.9-3.4c3.2-2.7,7.5-3.9,11.9-3.1C184.9,131.6,185.1,131.7,185.3,131.7z"/>
	<path class="st3" d="M238.7,128.7c-14.5-2.9-28.8-2.7-42.4,0.1c-3.7,0.8-7.4,1.7-10.9,2.9l0,0c0,0,0,0-0.1,0l0,0
		c2.9,2.5,5.9,4.8,9.1,7c11.4,7.9,24.6,13.6,39,16.5c18.4,3.7,36.7,2.4,53.4-3C273.5,140.7,257.2,132.4,238.7,128.7L238.7,128.7z"/>
	<path class="st1" d="M276,150c-0.6,3.1-3.6,5.1-6.7,4.4s-5.1-3.6-4.5-6.7s3.6-5.1,6.7-4.4C274.6,143.9,276.6,146.9,276,150L276,150
		z"/>
	<path d="M274.7,149.7c-0.5,2.4-2.8,3.9-5.1,3.4c-2.4-0.5-3.9-2.8-3.4-5.1c0.5-2.4,2.8-3.9,5.1-3.4S275.2,147.3,274.7,149.7z"/>
</g>
<g>
	<path class="st3" d="M155.1,198.3L155.1,198.3L155.1,198.3c-0.1-0.1-0.3-0.2-0.5-0.3c-4-2.1-8.5-2.1-12.2-0.4
		c-1.3,0.6-2.6,1.4-3.7,2.4c-1.2,1.1-2.2,2.4-3,3.9c0.1,0.1,0.3,0.2,0.5,0.3c6.8,3.6,15.1,1.1,18.8-5.6
		C155,198.5,155,198.4,155.1,198.3L155.1,198.3z"/>
	<path class="st3" d="M155.1,198.3L155.1,198.3c0.1-0.1,0.1-0.2,0.2-0.3c3.4-6.8,0.7-15.1-6-18.6c-0.1-0.1-0.3-0.2-0.5-0.2
		c-0.8,1.5-1.3,3.1-1.5,4.6s-0.2,3,0.1,4.4c0.8,4.1,3.3,7.8,7.3,9.9C154.8,198.2,154.9,198.2,155.1,198.3L155.1,198.3z"/>
	<path class="st3" d="M194.6,234.4c-13.1-6.9-24.1-16.1-32.8-26.9c-2.4-2.9-4.6-6-6.6-9.2l0,0c0,0,0,0,0-0.1l0,0
		c3.8-0.1,7.6,0,11.4,0.3c13.8,1.1,27.6,5,40.7,11.9c16.6,8.8,30,21.4,39.5,36.1C229.2,247.1,211.3,243.2,194.6,234.4L194.6,234.4z"
		/>
	<path class="st1" d="M236.9,241.5c1.5-2.8,0.4-6.2-2.4-7.7c-2.8-1.5-6.2-0.4-7.7,2.4s-0.4,6.2,2.4,7.7
		C232,245.4,235.5,244.3,236.9,241.5L236.9,241.5z"/>
	<path d="M235.8,240.9c1.1-2.1,0.3-4.8-1.8-5.9s-4.8-0.3-5.9,1.8s-0.3,4.8,1.8,5.9S234.6,243,235.8,240.9L235.8,240.9z"/>
</g>
<g>
	<path class="st3" d="M74.9,184.1L74.9,184.1L74.9,184.1c-0.2,0-0.3,0.1-0.5,0.1c-4.3,1.3-7.5,4.5-8.9,8.4c-0.5,1.4-0.8,2.8-0.9,4.3
		c-0.1,1.6,0.1,3.3,0.6,4.9c0.2-0.1,0.3-0.1,0.5-0.1c7.3-2.3,11.4-9.9,9.3-17.2C75,184.3,75,184.2,74.9,184.1L74.9,184.1z"/>
	<path class="st3" d="M74.9,184.1L74.9,184.1c0-0.1-0.1-0.2-0.1-0.4c-2.4-7.2-10.2-11.1-17.4-8.9c-0.2,0.1-0.3,0.1-0.5,0.2
		c0.5,1.6,1.3,3.1,2.2,4.3s2,2.2,3.2,3.1c3.4,2.4,7.8,3.2,12.1,1.9C74.6,184.2,74.8,184.1,74.9,184.1L74.9,184.1z"/>
	<path class="st3" d="M128.4,181.6c-14.1,4.4-28.4,5.6-42.2,4.2c-3.8-0.4-7.5-1-11.2-1.8l0,0c0,0,0,0-0.1,0l0,0
		c2.6-2.8,5.4-5.4,8.3-7.9c10.6-9,23.1-16,37.2-20.4c18-5.6,36.3-6.1,53.5-2.4C161.8,166.2,146.4,176.1,128.4,181.6L128.4,181.6z"/>
	<path class="st1" d="M163.3,156.7c-0.9-3-4.1-4.7-7.1-3.8s-4.7,4.1-3.8,7.1s4.1,4.7,7.1,3.8S164.3,159.7,163.3,156.7L163.3,156.7z"
		/>
	<path d="M162.1,157.1c-0.7-2.3-3.2-3.6-5.5-2.9s-3.6,3.2-2.9,5.5c0.7,2.3,3.2,3.6,5.5,2.9C161.5,161.9,162.8,159.4,162.1,157.1
		L162.1,157.1z"/>
</g>
<g>
	<path class="st3" d="M151,125.2L151,125.2L151,125.2c0.2-0.1,0.3-0.1,0.5-0.1c4.3-1.1,8.7-0.1,12,2.4c1.2,0.9,2.2,1.9,3,3.1
		c0.9,1.3,1.6,2.8,2.1,4.5c-0.2,0.1-0.3,0.1-0.5,0.1c-7.4,1.9-14.9-2.4-17-9.7C151.1,125.4,151,125.3,151,125.2z"/>
	<path class="st3" d="M151,125.2L151,125.2c0-0.1-0.1-0.2-0.1-0.4c-1.7-7.4,2.8-14.8,10.1-16.7c0.2,0,0.3-0.1,0.5-0.1
		c0.4,1.6,0.5,3.3,0.4,4.9c-0.1,1.5-0.5,2.9-1.1,4.3c-1.7,3.8-5,6.8-9.3,8C151.3,125.1,151.2,125.1,151,125.2z"/>
	<path class="st3" d="M104.2,151.3c14.3-3.7,27.1-10.2,38.1-18.7c3-2.3,5.9-4.8,8.6-7.4l0,0l0,0l0,0c-3.7-1-7.4-1.8-11.2-2.3
		c-13.7-2.1-28.1-1.4-42.3,2.3c-18.2,4.7-34.1,13.9-46.7,26.1C67.7,155.7,86,156,104.2,151.3L104.2,151.3z"/>
	<path class="st1" d="M61.4,148.5c-0.8-3,1-6.1,4.1-6.9s6.2,1,6.9,4.1c0.8,3-1,6.1-4.1,6.9C65.3,153.4,62.2,151.6,61.4,148.5
		L61.4,148.5z"/>
	<path d="M62.7,148.2c-0.6-2.3,0.8-4.7,3.1-5.3s4.7,0.8,5.3,3.1c0.6,2.3-0.8,4.7-3.1,5.3S63.3,150.5,62.7,148.2z"/>
</g>
<g>
	<path class="st3" d="M368.7,200.1L368.7,200.1L368.7,200.1c0.2,0,0.3,0.1,0.5,0.1c4.3,1.1,7.7,4.2,9.3,8c0.6,1.3,1,2.8,1.1,4.2
		c0.2,1.6,0,3.3-0.4,4.9c-0.2,0-0.4-0.1-0.5-0.1c-7.4-1.9-11.9-9.4-10.1-16.8C368.6,200.4,368.6,200.3,368.7,200.1L368.7,200.1z"/>
	<path class="st3" d="M368.7,200.1L368.7,200.1c0-0.1,0.1-0.2,0.1-0.4c2.1-7.3,9.6-11.6,17-9.7c0.2,0,0.3,0.1,0.5,0.1
		c-0.4,1.6-1.1,3.1-2,4.4c-0.9,1.2-1.9,2.3-3.1,3.2c-3.3,2.5-7.7,3.5-12,2.4C369,200.2,368.9,200.2,368.7,200.1L368.7,200.1z"/>
	<path class="st3" d="M315.1,200.1c14.3,3.7,28.6,4.4,42.4,2.3c3.8-0.6,7.5-1.3,11.1-2.3l0,0l0,0l0,0c-2.7-2.6-5.6-5.1-8.6-7.5
		c-11-8.5-23.8-14.9-38-18.7c-18.2-4.8-36.5-4.5-53.5,0C281.1,186.2,296.9,195.4,315.1,200.1L315.1,200.1z"/>
	<path class="st1" d="M279.1,176.8c0.8-3,3.9-4.9,7-4.1s4.9,3.9,4.1,6.9s-3.9,4.9-6.9,4.1S278.3,179.8,279.1,176.8L279.1,176.8z"/>
	<path d="M280.4,177.1c0.6-2.3,3-3.7,5.3-3.1s3.7,3,3.1,5.3s-3,3.7-5.3,3.1C281.2,181.9,279.8,179.5,280.4,177.1L280.4,177.1z"/>
</g>
<g>
	<path class="st4" d="M437,242.5C390.8,272.4,326,291,254.1,291s-136.6-18.6-182.9-48.5H437z"/>
	<path class="st4" d="M254.1,291.5c-69.7,0-134.7-17.2-183.1-48.6l-1.4-0.9h369.1l-1.4,0.9C388.9,274.3,323.8,291.5,254.1,291.5
		L254.1,291.5z M73,243c48.1,30.6,112.3,47.5,181.2,47.5s133.1-16.9,181.1-47.5H73z"/>
</g>
<g id="k">
</g>
</svg>
