<?xml version="1.0" encoding="UTF-8"?><svg xmlns="http://www.w3.org/2000/svg" viewBox="0 0 500 500"><defs><style>.l{fill:#fff;}.m{fill:#415958;}</style></defs><g id="a"><g id="b"/><g id="c"/><g id="d"/><g id="e"/><g id="f"/><g id="g"/></g><g id="h"/><g id="i"/><g id="j"/><g id="k"><g><path class="m" d="M371.44,188.66l-.02-.04-.02-.04c.53-.29,1.08-.59,1.61-.9,13.45-7.91,29.13-8.66,42.62-3.41,4.73,1.82,9.19,4.41,13.17,7.67,4.37,3.56,8.18,7.93,11.2,13.07-.51,.33-1.04,.66-1.56,.97-22.94,13.5-52.36,6.16-66.34-16.3-.24-.32-.45-.68-.65-1.02Z"/><path class="m" d="M371.39,188.58l-.03-.05c-.21-.36-.42-.72-.6-1.1-12.78-23.12-4.89-52.34,18.01-65.82,.52-.31,1.07-.61,1.61-.9,2.99,5.08,4.95,10.47,5.95,15.96,.95,5.11,1.04,10.34,.34,15.41-1.96,14.34-10.23,27.69-23.67,35.6-.52,.31-1.07,.61-1.61,.9Z"/><path class="m" d="M239.58,320.8c44.34-26.09,81.24-60.02,109.96-99,7.84-10.65,15.06-21.66,21.66-33.01h.02c.04-.06,.06-.12,.1-.17v-.03c-13.25,.24-26.54,1.22-39.78,2.95-47.95,6.16-95.49,21.94-139.78,48-56.55,33.28-100.96,79.28-131.75,132.24,61.24-1.21,123.01-17.7,179.57-50.98Z"/></g><polygon class="l" points="128.87 343.49 126.8 349.13 114.31 344.55 109.73 357.04 104.1 354.97 108.68 342.48 96.19 337.9 98.26 332.27 110.75 336.85 115.33 324.36 120.96 326.43 116.38 338.91 128.87 343.49"/></g></svg>