<?xml version="1.0" encoding="utf-8"?>
<!-- Generator: Adobe Illustrator 26.1.0, SVG Export Plug-In . SVG Version: 6.00 Build 0)  -->
<svg version="1.1" id="Livello_1" xmlns="http://www.w3.org/2000/svg" xmlns:xlink="http://www.w3.org/1999/xlink" x="0px" y="0px"
	 viewBox="0 0 364.6 223.4" style="enable-background:new 0 0 364.6 223.4;" xml:space="preserve">
<style type="text/css">
	.st0{fill:#F7F1D8;}
	.st1{fill:#D8CC9C;}
	.st2{opacity:0.2;}
</style>
<g id="a">
	<g id="b">
	</g>
	<g id="c">
	</g>
	<g id="d">
	</g>
	<g id="e">
	</g>
	<g id="f">
	</g>
	<g id="g">
	</g>
</g>
<g id="h">
</g>
<g>
	<path d="M348.1,58.8l-0.2-1.3l-2.6-0.5L30,0L0,165.8l318.3,57.5l0.6-3.1l7.4-41.1l35,8.5l3.3,0.8L348.1,58.8L348.1,58.8z
		 M323.4,178.4l-7.5,41.4L3.5,163.4L32.4,3.5L344.8,60L323.4,178.4z M326.9,176.2l19.5-107.6l14.8,115.9L326.9,176.2L326.9,176.2z"
		/>
	<polygon class="st0" points="344.8,59.9 323.4,178.4 315.9,219.9 3.5,163.4 32.4,3.5 	"/>
</g>
<polygon class="st1" points="361.1,184.5 326.9,176.2 346.3,68.6 "/>
<g class="st2">
	<polygon points="361.3,187.6 318.9,220.3 326.3,179.1 	"/>
</g>
<path d="M110.1,117.9l-0.7-17.7l-3.8-0.7l-3.3,16.9l-6.6-1.3L103,78l14.3,2.8c3.6,0.7,6,4.3,5.3,7.9l-1.4,7
	c-0.5,2.7-2.7,4.8-5.3,5.3l0.7,18.2L110.1,117.9z M106.2,96.2l6.5,1.3c0.7,0.1,1.4-0.3,1.5-1l2.2-11.1c0.1-0.7-0.3-1.4-1-1.5
	l-6.5-1.3L106.2,96.2z"/>
<path d="M152.6,82.6l-6,30.5c-0.7,3.6-4.3,6-7.9,5.3l-7.7-1.5c-3.6-0.7-6-4.3-5.3-7.9l6-30.5l6.6,1.3l-6.4,32.6
	c-0.1,0.7,0.3,1.4,1,1.5l5.2,1c0.7,0.1,1.4-0.3,1.5-1l6.4-32.6L152.6,82.6z"/>
<path d="M170,124.9l-17.8-5.1l10.3-36.3l6.5,1.8l-9.4,33.1l11.3,3.2L170,124.9z"/>
<path d="M193,95.9l-2.1,10.6l7.7,1.5l-0.6,3.3l-7.7-1.5l-3.3,16.7l11.6,2.3l-0.6,3.3l-18.2-3.6l7.3-37.1l18.2,3.6l-0.6,3.3L193,95.9
	z"/>
<path d="M221.2,117.1l1.1-5.4c0.1-0.7-0.3-1.4-1-1.5l-5.2-1c-0.7-0.1-1.4,0.3-1.5,1l-1.2,6.2c-0.1,0.7,0.1,1.4,0.6,1.9l9.6,10.3
	c1.2,1.5,1.6,3.5,1.2,5.4l-1,5c-0.7,3.6-4.3,6-7.9,5.3l-7.7-1.5c-3.6-0.7-6-4.3-5.3-7.9l0.7-3.3l6.6,1.3l-1.1,5.4
	c-0.1,0.7,0.3,1.4,1,1.5l5.2,1c0.7,0.1,1.4-0.3,1.5-1l1.2-5.9c0.1-0.7,0-1.3-0.6-1.9l-9.5-10.7c-1.2-1.5-1.6-3.5-1.2-5.4l1-5
	c0.7-3.6,4.3-6,7.9-5.3l7.7,1.5c3.6,0.7,6,4.3,5.3,7.9l-0.7,3.3L221.2,117.1z"/>
</svg>
