<?xml version="1.0" encoding="UTF-8"?><svg id="a" xmlns="http://www.w3.org/2000/svg" viewBox="0 0 190.96 181.17"><defs><style>.b{fill:#fff;}.c{fill:#e52942;}.d{fill:#1d1d1b;}</style></defs><g><path class="b" d="M163.01,127.95l-1.08,2.51c0-.14-.03-.24-.03-.35h0c.35-1.05,.68-2.08,1-3.11,.03,.32,.08,.65,.11,.95Z"/><path class="b" d="M169.38,107.67c-.62-.03-1.27-.08-1.89-.14,.22-1.38,.41-2.73,.57-4.08,.49,1.38,.92,2.78,1.32,4.21Z"/><path class="b" d="M168.6,97.04C150.59,51.32,105.79,20.94,55.76,22.29h-.08c-1.32-.05-2.67-.05-4,0,8.99-8.59,23.44-14.01,47.9-7.16,43.18,12.1,71.37,38.23,69.02,81.9Z"/><path d="M18.09,39.28l-.16,.16c.19-.05,.35-.11,.54-.16,0-.16,.05-.3,.11-.43-.19,.14-.32,.27-.49,.43Zm-.22,.19c-.43,.41-.84,.84-1.22,1.27,.41-.43,.84-.86,1.27-1.3,.29-.29,.27-.28-.05,.03Z"/></g><g><path class="c" d="M168.6,97.04C150.59,51.32,105.79,20.94,55.76,22.29h-.08c-1.32-.05-2.67-.05-4,0,8.99-8.59,23.44-14.01,47.9-7.16,43.18,12.1,71.37,38.23,69.02,81.9Z"/><path class="c" d="M163.01,127.95l-1.08,2.51c0-.14-.03-.24-.03-.35h0c.35-1.05,.68-2.08,1-3.11,.03,.32,.08,.65,.11,.95Z"/></g><g><path d="M119.05,178.34h0s-.11,.03-.16,0h.16Z"/><polygon points="122.37 178.47 121.75 178.47 121.75 178.39 122.37 178.47"/><path d="M122.37,181.17c-.65,0-1.27-.03-1.89-.03h-.08c-2.86-.11-5.78-.46-8.64-1.03l9.64,.95,.97,.11Z"/><polygon points="122.37 179.82 121.81 179.82 121.81 179.77 122.37 179.82"/></g><g><path d="M49.44,171.18c-.59-.03-1.19-.08-1.84-.19h-.08l1,.11h.32l.51,.08h.08Z"/><polygon points="50.17 171.24 50.17 171.26 50.14 171.24 50.17 171.24"/></g><g><path d="M119.05,178.34h0s-.11,.03-.16,0h.16Z"/><polygon points="122.37 178.47 121.75 178.47 121.75 178.39 122.37 178.47"/><path d="M122.37,181.17c-.65,0-1.27-.03-1.89-.03h-.08c-2.86-.11-5.78-.46-8.64-1.03l9.64,.95,.97,.11Z"/><polygon points="122.37 179.82 121.81 179.82 121.81 179.77 122.37 179.82"/></g><g><path d="M49.44,171.18c-.59-.03-1.19-.08-1.84-.19h-.08l1,.11h.32l.51,.08h.08Z"/><polygon points="50.17 171.24 50.17 171.26 50.14 171.24 50.17 171.24"/></g><g><path class="b" d="M31.32,157.09h-.05c-.08-.24-.19-.51-.27-.78l.32,.78Z"/><path class="b" d="M49.44,171.18c-.59-.03-1.19-.08-1.84-.19h-.08l1,.11h.32l.51,.08h.08Z"/><polygon class="b" points="50.17 171.24 50.17 171.26 50.14 171.24 50.17 171.24"/><polygon class="b" points="69.61 173.18 50.55 171.29 50.3 171.26 50.44 171.26 69.61 173.18"/><path class="b" d="M119.05,178.34h0s-.11,.03-.16,0h.16Z"/><path class="b" d="M17.36,38.12s-.05,.08,0,.14c-.05,0-.14,.03-.19,.05,.08-.08,.14-.14,.22-.19h-.03Z"/><path class="b" d="M4.13,87.67s-.05-.27-.11-.43h.03c.03,.16,.05,.3,.08,.43Z"/><path class="b" d="M7.26,96.71c-.08-.22-.19-.41-.27-.62h.03l.24,.62Z"/><path class="b" d="M112.17,177.45l-14.45-1.43-.03-.03,14.47,1.46Z"/><path class="b" d="M5.75,58.23c-.57,1.59-1.05,3.19-1.49,4.81,.41-1.62,.92-3.24,1.49-4.81Z"/><path class="b" d="M17.93,39.44c-.43,.43-.86,.86-1.27,1.3,.38-.43,.78-.86,1.22-1.27,.29-.27,.31-.28,.05-.03Z"/><path class="b" d="M18.58,38.85c-.05,.14-.11,.27-.11,.43-.19,.05-.35,.11-.54,.16l.16-.16c.16-.16,.3-.3,.49-.43Z"/><polygon class="b" points="122.37 178.47 121.75 178.47 121.75 178.39 122.37 178.47"/><path class="b" d="M132.44,177.5c-1.59,.32-3.21,.57-4.86,.7,1.65-.16,3.27-.41,4.86-.7Z"/><path class="b" d="M163.01,127.95l-1.08,2.51c0-.14-.03-.24-.03-.35h0c.35-1.05,.68-2.08,1-3.11,.03,.32,.08,.65,.11,.95Z"/><path class="b" d="M169.38,107.67c-.62-.03-1.27-.08-1.89-.14,.22-1.38,.41-2.73,.57-4.08,.49,1.38,.92,2.78,1.32,4.21Z"/><path d="M4.05,87.23h-.03c.05,.16,.08,.3,.11,.43-.03-.14-.05-.27-.08-.43Zm.22-24.19c.43-1.62,.92-3.21,1.49-4.81-.57,1.57-1.08,3.19-1.49,4.81Zm93.43,112.95s.03,0,.03,.03l14.45,1.43-14.47-1.46Zm21.2,2.35s.11,.03,.16,.03h-.16v-.03Zm2.86,.03v.08h.62l-.62-.08Zm.05,1.38v.05h.57l-.57-.05ZM17.88,39.47c-.43,.41-.84,.84-1.22,1.27,.41-.43,.84-.86,1.27-1.3,.29-.29,.27-.28-.05,.03Zm-.73-1.16s.14-.05,.19-.05c-.03-.05,0-.08,0-.14-.08,.05-.14,.11-.22,.19h.03ZM50.44,171.26m-1.08-.11l-.51-.05h-.32l-.92-.11c.65,.11,1.24,.16,1.84,.19h-.08v-.03ZM7.02,96.09h-.03c.08,.22,.19,.41,.27,.62l-.24-.62Zm43.42,75.17"/></g><g><path class="b" d="M31.32,157.09h-.05c-.08-.24-.19-.51-.27-.78l.32,.78Z"/><path class="b" d="M49.44,171.18c-.59-.03-1.19-.08-1.84-.19h-.08l1,.11h.32l.51,.08h.08Z"/><polygon class="b" points="50.17 171.24 50.17 171.26 50.14 171.24 50.17 171.24"/><polygon class="b" points="69.61 173.18 50.55 171.29 50.3 171.26 50.44 171.26 69.61 173.18"/><polygon class="b" points="122.37 179.82 121.81 179.82 121.81 179.77 122.37 179.82"/><path class="b" d="M119.05,178.34h0s-.11,.03-.16,0h.16Z"/><path class="b" d="M4.13,87.67s-.05-.27-.11-.43h.03c.03,.16,.05,.3,.08,.43Z"/><path class="b" d="M7.26,96.71c-.08-.22-.19-.41-.27-.62h.03l.24,.62Z"/><path class="b" d="M112.17,177.45l-14.45-1.43-.03-.03,14.47,1.46Z"/><path class="b" d="M5.75,58.23c-.57,1.59-1.05,3.19-1.49,4.81,.41-1.62,.92-3.24,1.49-4.81Z"/><path class="b" d="M17.93,39.44c-.43,.43-.86,.86-1.27,1.3,.38-.43,.78-.86,1.22-1.27,.29-.27,.31-.28,.05-.03Z"/><path class="b" d="M18.58,38.85c-.05,.14-.11,.27-.11,.43-.19,.05-.35,.11-.54,.16l.16-.16c.16-.16,.3-.3,.49-.43Z"/><polygon class="b" points="122.37 178.47 121.75 178.47 121.75 178.39 122.37 178.47"/><path class="b" d="M132.44,177.5c-1.59,.32-3.21,.57-4.86,.7,1.65-.16,3.27-.41,4.86-.7Z"/><path d="M7.02,96.09h-.03c.08,.22,.19,.41,.27,.62l-.24-.62Zm43.12,75.15,.3,.03h.11l19.06,1.92-19.17-1.92ZM17.15,38.31s.14-.05,.19-.05c-.03-.05,0-.08,0-.14-.08,.05-.14,.11-.22,.19h.03Zm.95,.97l-.16,.16c.19-.05,.35-.11,.54-.16,0-.16,.05-.3,.11-.43-.19,.14-.32,.27-.49,.43ZM162.9,127.01c-.32,1.03-.65,2.05-1,3.08h0s.03,.24,.03,.38l1.08-2.51c0-.3-.08-.62-.11-.95Zm-41.1,52.76v.05h.57l-.57-.05Zm-.41,1.3l-9.64-.95c2.86,.57,5.78,.92,8.64,1.03h.08c.62,0,1.24,.03,1.89,.03l-.97-.11Zm6.18-2.86c1.65-.14,3.27-.38,4.86-.7-1.59,.3-3.21,.54-4.86,.7Zm-8.69,.14s.11,.03,.16,.03h-.16v-.03ZM4.05,87.23h-.03c.05,.16,.08,.3,.11,.43-.03-.14-.05-.27-.08-.43Z"/><path class="d" d="M190.77,101.09c-.59-4.08-1.43-8.18-2.46-12.18C174.59,35.44,125.91-1.47,70.83,.04c-4.7,.16-9.37,.57-13.99,1.27-9.59,2.13-18.39,6.91-25.49,13.77-5.99,5.83-10.45,12.8-13.15,20.41-.68,.59-1.35,1.22-2,1.84C5.75,47.49,0,61.1,0,75.68c0,3.19,.27,6.35,.84,9.42,.03,.22,.05,.41,.11,.62,.03,.24,.08,.46,.14,.7,.73,3.65,1.89,7.26,3.43,10.67l.27,.68,3.43,8.61,4.46,11.15,15.74,39.5s.03,.08,.05,.11c.22,.81,.51,1.57,.84,2.32,.16,.38,.32,.76,.51,1.13,.24,.49,.49,.95,.76,1.43l.24,.41c.24,.43,.51,.84,.78,1.24,.3,.43,.62,.84,.95,1.24,.38,.46,.76,.92,1.16,1.35,.19,.22,.38,.43,.57,.59,.86,.86,1.78,1.67,2.75,2.4,.46,.35,.95,.68,1.43,1l.41,.24c.43,.27,.89,.51,1.35,.78,.05,0,.08,0,.14,.05,.27,.16,.57,.27,.84,.41,.35,.19,.73,.35,1.11,.49,.27,.11,.51,.22,.78,.3,.11,.05,.22,.11,.32,.14,.11,.05,.22,.08,.35,.11,.41,.14,.78,.24,1.19,.35,.27,.08,.54,.16,.84,.22,.46,.14,.92,.22,1.38,.3,.16,.03,.32,.05,.49,.05l2.32,.24s.24,.03,.38,.03h.03l37.32,3.73,10.67,1.08,13.42,1.35,9.64,.95,.97,.11c14.91,0,28.73-5.99,38.94-16.85l.27-.27h0c4.97-5.37,8.69-11.58,11.1-18.31,1.32-1.13,2.57-2.35,3.78-3.65,9.34-9.96,14.5-22.95,14.5-36.59,0-1.49-.08-2.92-.19-4.43ZM17.36,38.12s-.05,.08,0,.14c-.05,0-.14,.03-.19,.05,.08-.08,.14-.14,.22-.19h-.03Zm52.25,135.06l-19.06-1.89h-.38v-.05c-.19,0-.32,0-.49-.03-.05,0-.14,0-.19-.03h-.05c-.59-.03-1.19-.08-1.84-.19h-.08c-.92-.16-1.84-.38-2.73-.68-1.57-.49-3.05-1.16-4.43-2.03-.54-.3-1.05-.65-1.54-1.03-.08-.05-.16-.11-.24-.19-.49-.35-.95-.7-1.38-1.11-.03-.03-.08-.05-.11-.11-.27-.22-.51-.46-.73-.7-.27-.24-.49-.49-.7-.73t-.05-.05c-.46-.49-.89-1-1.27-1.54-.19-.22-.32-.43-.46-.65-.41-.57-.78-1.13-1.11-1.76-.3-.49-.54-.97-.78-1.49-.27-.59-.51-1.19-.73-1.81-.08-.27-.19-.54-.27-.81,0-.05-.03-.11-.05-.16h0l-14.28-35.86c7.99,.24,15.72,1.84,22.95,4.59,.59,.19,1.16,.43,1.73,.68,.59,.22,1.16,.46,1.73,.73,11.66,5.1,21.84,13.23,29.35,23.44,.38,.49,.73,.97,1.05,1.46,.32,.49,.68,.97,1,1.46,4.4,6.62,7.72,14.04,9.72,22.01l-14.58-1.46v-.03Zm17.69,1.78h-.27c-1.84-7.94-4.97-15.34-9.15-22.01-.27-.49-.59-.97-.92-1.43-.3-.49-.62-.97-.97-1.46-8.42-12.26-20.44-21.82-34.32-27.3-.57-.24-1.13-.46-1.7-.65-.57-.24-1.13-.43-1.7-.62-7.18-2.46-14.82-3.83-22.68-3.94l-3.38-8.45c7.75,.16,15.31,1.38,22.52,3.51,.54,.16,1.11,.32,1.65,.51,.57,.16,1.13,.35,1.67,.54,19.36,6.56,35.94,19.85,46.55,37.26,.32,.49,.62,.95,.89,1.43s.54,.95,.81,1.43c3.81,6.78,6.72,14.12,8.59,21.93l-7.59-.76Zm10.42,1.05l-.03-.03c-1.76-7.75-4.51-15.07-8.15-21.87-.24-.49-.49-.95-.76-1.4h0c-.27-.51-.54-1-.84-1.46-11.29-19.5-29.7-34.18-51.22-40.85-.54-.19-1.08-.35-1.62-.49-.57-.19-1.11-.32-1.65-.49-7.18-1.92-14.66-3-22.33-3.02l-3.83-9.64v-.05c-.11-.22-.22-.41-.3-.62-.3-.68-.59-1.35-.84-2.03-.32-.81-.62-1.62-.89-2.43-.08-.27-.19-.54-.24-.84-.22-.59-.41-1.22-.54-1.84-.11-.27-.16-.54-.22-.84-.05-.14-.08-.3-.14-.46-.03-.14-.05-.27-.11-.43h.03c5.56-.97,11.26-1.46,16.96-1.46,1,0,2.03,.03,3.02,.05,.51,0,1,.03,1.49,.05,.51,.03,1,.05,1.49,.08,41.12,2.46,75.44,30,87.54,67.96,.16,.46,.3,.95,.46,1.4,.14,.46,.27,.92,.38,1.38,1.97,6.86,3.21,14.01,3.65,21.41l-6.86-.68-14.45-1.43Zm21.33,2.35s-.11,0-.16-.03h.16v.03Zm2.75,1.49v-.05l.57,.05h-.57Zm38.96-29.22c-.05,.51-.08,1.05-.14,1.57-.05,.54-.11,1.08-.16,1.59-.35,3.02-.81,6.02-1.4,8.99-1.76,1.84-3.59,3.51-5.54,5.02-.41,.32-.81,.62-1.22,.92-1.67,1.24-3.43,2.38-5.21,3.38-.73,.43-1.49,.81-2.24,1.19-.76,.38-1.54,.76-2.32,1.08l-.16,.08c-1.51,.65-3.05,1.22-4.62,1.7-.84,.27-1.65,.49-2.46,.7-.7,.19-1.43,.35-2.13,.51l-.73,.16c-1.59,.32-3.21,.57-4.86,.7-1.67,.19-3.38,.27-5.08,.27h-.76v-.08c-.41-7.37-1.59-14.53-3.46-21.39l-.41-1.38c-.14-.49-.27-.97-.41-1.43-12.23-39.94-48.39-68.96-91.59-70.99-.49-.05-.97-.05-1.46-.08h0c-.49-.03-.97-.03-1.46-.03-.65-.03-1.3-.03-1.94-.03-5.89,0-11.75,.51-17.5,1.51-.54-2.92-.81-5.91-.81-8.91,0-4.32,.54-8.56,1.57-12.64,.41-1.62,.92-3.24,1.49-4.81,2.35-6.45,6.02-12.39,10.91-17.5,.38-.43,.78-.86,1.22-1.27,.29-.27,.31-.28,.05-.03l.16-.16c.16-.16,.3-.3,.49-.43-.05,.14-.11,.27-.11,.43,.49-.19,1-.35,1.51-.49,7.43-2.4,15.04-4,22.84-4.7h0c2.08-.22,4.19-.35,6.29-.43,1.32-.05,2.67-.08,4-.08h3.05c45.98,1.3,84.84,31.43,99.1,72.91h0c3.81,11.02,5.86,22.82,5.86,35.08,0,3-.14,6.02-.38,9.02v.03Zm9.64-6.48c-.3,.84-.59,1.65-.95,2.48h0c-.35,.89-.7,1.73-1.11,2.57-1.57,3.38-3.51,6.59-5.83,9.56,.35-2.13,.62-4.27,.81-6.4,.05-.57,.11-1.11,.16-1.67,.03-.54,.08-1.08,.11-1.62,.16-2.48,.24-4.97,.24-7.45,0-4.62-.3-9.15-.84-13.64l-1.08,2.51c0-.14-.03-.24-.03-.35h0c.35-1.05,.68-2.08,1-3.11h0c-.95-7.02-2.51-13.77-4.7-20.31C143.76,63.28,103.04,31.72,54.98,30.94h-3.46c-2.35,.03-4.67,.14-6.99,.32h0c-7.32,.54-14.5,1.84-21.49,3.86,5.7-4.32,12.26-7.34,19.17-8.88,2.16-.32,4.35-.59,6.53-.78,2.35-.22,4.7-.35,7.05-.43,1.11,0,2.24-.05,3.38-.05,49.55,0,93.16,31.86,108.93,78.49h0c.49,1.4,.92,2.81,1.32,4.24,.35,1.08,.65,2.19,.92,3.29h0c.11,.3,.16,.57,.24,.84,1,3.92,1.81,7.94,2.38,11.83,.11,1.38,.19,2.73,.19,4.1,0,5.64-.92,11.15-2.7,16.39h-.03Zm4.08-3.89l-.22,.22c1.03-4.1,1.54-8.37,1.54-12.72,0-1.46-.08-2.89-.19-4.4-.59-4.08-1.43-8.21-2.46-12.2-1.24-4.83-2.78-9.53-4.56-14.1C150.59,51.32,105.79,20.94,55.76,22.29h-.08c-1.32-.05-2.67-.05-4,0-3.38,.08-6.72,.51-9.99,1.24-6.91,1.57-13.42,4.46-19.17,8.56,2.59-5.56,6.18-10.67,10.72-15.07,6.72-6.53,15.09-11.04,24.09-13.07,4.43-.68,8.99-1.08,13.58-1.22,1.13-.03,2.24-.05,3.38-.05,52.49,0,98.29,35.72,111.41,86.87,1.03,3.94,1.81,7.94,2.4,11.83,.11,1.38,.16,2.73,.16,4.13,0,12.93-4.89,25.27-13.77,34.72v.03Z"/><path class="b" d="M188.26,105.51c0,12.93-4.89,25.27-13.77,34.72l-.22,.22c1.03-4.1,1.54-8.37,1.54-12.72,0-1.46-.08-2.89-.19-4.4-.59-4.08-1.43-8.21-2.46-12.2-1.24-4.83-2.78-9.53-4.56-14.1,2.35-43.66-25.84-69.8-69.02-81.9-24.46-6.86-38.91-1.43-47.9,7.16-3.38,.08-6.72,.51-9.99,1.24-6.91,1.57-13.42,4.46-19.17,8.56,2.59-5.56,6.18-10.67,10.72-15.07,6.72-6.53,15.09-11.04,24.09-13.07,4.43-.68,8.99-1.08,13.58-1.22,1.13-.03,2.24-.05,3.38-.05,52.49,0,98.29,35.72,111.41,86.87,1.03,3.94,1.81,7.94,2.4,11.83,.11,1.38,.16,2.73,.16,4.13Z"/><path class="b" d="M173.11,127.74c0,5.64-.92,11.15-2.7,16.39-.3,.84-.59,1.65-.95,2.48h0c-.35,.89-.7,1.73-1.11,2.57-1.57,3.38-3.51,6.59-5.83,9.56,.35-2.13,.62-4.27,.81-6.4,.05-.57,.11-1.11,.16-1.67,.03-.54,.08-1.08,.11-1.62,.16-2.48,.24-4.97,.24-7.45,0-4.62-.3-9.15-.84-13.64,0-.3-.08-.62-.11-.95h0c-.95-7.02-2.51-13.77-4.7-20.31C143.76,63.26,103.04,31.69,54.98,30.91h-3.46c-2.35,.03-4.67,.14-6.99,.32h0c-7.32,.54-14.5,1.84-21.49,3.86,5.7-4.32,12.26-7.34,19.17-8.88,2.16-.32,4.35-.59,6.53-.78,2.35-.22,4.7-.35,7.05-.43,1.11,0,2.24-.05,3.38-.05,49.55,0,93.16,31.86,108.93,78.49h0c-.16,1.38-.35,2.73-.57,4.1,.62,.05,1.27,.11,1.89,.14,.35,1.08,.65,2.19,.92,3.29h0c.11,.3,.16,.57,.24,.84,1,3.92,1.81,7.94,2.38,11.83,.11,1.38,.19,2.73,.19,4.1h-.03Z"/><path class="b" d="M161.15,141.59c0,3-.14,6.02-.38,9.02-.05,.51-.08,1.05-.14,1.57-.05,.54-.11,1.08-.16,1.59-.35,3.02-.81,6.02-1.4,8.99-1.76,1.84-3.59,3.51-5.54,5.02-.41,.32-.81,.62-1.22,.92-1.67,1.24-3.43,2.38-5.21,3.38-.73,.43-1.49,.81-2.24,1.19-.76,.38-1.54,.76-2.32,1.08l-.16,.08c-1.51,.65-3.05,1.22-4.62,1.7-.84,.27-1.65,.49-2.46,.7-.7,.19-1.43,.35-2.13,.51l-.73,.16c-1.59,.3-3.21,.54-4.86,.7-1.67,.19-3.38,.27-5.08,.27h-.14l-.62-.08c-.41-7.37-1.59-14.53-3.46-21.39l-.41-1.38c-.14-.49-.27-.97-.41-1.43-12.23-39.94-48.39-68.96-91.59-70.99-.49-.05-.97-.05-1.46-.08h0c-.49-.03-.97-.03-1.46-.03-.65-.03-1.3-.03-1.94-.03-5.89,0-11.75,.51-17.5,1.51-.54-2.92-.81-5.91-.81-8.91,0-4.32,.54-8.56,1.57-12.64,.43-1.62,.92-3.21,1.49-4.81,2.35-6.45,6.02-12.39,10.91-17.5,.41-.43,.84-.86,1.27-1.3,.19-.05,.35-.11,.54-.16,.49-.19,1-.35,1.51-.49,7.43-2.4,15.04-4,22.84-4.7h0c2.08-.22,4.19-.35,6.29-.43,1.32-.05,2.67-.08,4-.08h3.05c45.98,1.3,84.84,31.43,99.1,72.91h0c3.81,11.02,5.86,22.82,5.86,35.08v.03Z"/></g><g><path class="b" d="M31.32,157.09h-.05c-.08-.24-.19-.51-.27-.78l.32,.78Z"/><path class="b" d="M49.44,171.18c-.59-.03-1.19-.08-1.84-.19h-.08l1,.11h.32l.51,.08h.08Z"/><polygon class="b" points="50.17 171.24 50.17 171.26 50.14 171.24 50.17 171.24"/><polygon class="b" points="69.61 173.18 50.55 171.29 50.3 171.26 50.44 171.26 69.61 173.18"/><path class="b" d="M119.02,178.12l-6.86-.68-14.47-1.46c-1.76-7.75-4.51-15.07-8.15-21.87-.24-.49-.49-.95-.76-1.4h0c-.27-.51-.54-1-.84-1.46-11.29-19.5-29.7-34.18-51.22-40.85-.54-.19-1.08-.35-1.62-.49-.57-.19-1.11-.32-1.65-.49-7.18-1.92-14.66-3-22.33-3.02l-3.83-9.64v-.05l-.27-.62h-.03c-.3-.68-.59-1.35-.84-2.03-.32-.81-.62-1.62-.89-2.43-.08-.27-.19-.54-.24-.84-.22-.59-.41-1.22-.54-1.84-.11-.27-.16-.54-.22-.84-.05-.14-.08-.3-.14-.46-.03-.14-.05-.27-.08-.43,5.56-.97,11.26-1.46,16.96-1.46,1,0,2.03,.03,3.02,.05,.51,0,1,.03,1.49,.05,.51,.03,1,.05,1.49,.08,41.12,2.46,75.44,30,87.54,67.96,.16,.46,.3,.95,.46,1.4,.14,.46,.27,.92,.38,1.38,1.97,6.86,3.21,14.01,3.65,21.41Z"/><path class="b" d="M4.13,87.67s-.05-.27-.11-.43h.03c.03,.16,.05,.3,.08,.43Z"/><path class="b" d="M7.26,96.71c-.08-.22-.19-.41-.27-.62h.03l.24,.62Z"/><path class="b" d="M112.17,177.45l-14.45-1.43-.03-.03,14.47,1.46Z"/><path class="b" d="M119.05,178.34h0s-.11,.03-.16,0h.16Z"/><path d="M.84,85.1h-.03l.14,.62c-.05-.22-.08-.41-.11-.62Zm110.92,95.02c2.86,.57,5.78,.92,8.64,1.03h.08l.92-.08-9.64-.95Zm-61.32-8.86h.11l19.06,1.92-19.17-1.92Zm-.3-.03"/></g><g><path class="b" d="M31.32,157.09h-.05c-.08-.24-.19-.51-.27-.78l.32,.78Z"/><path class="b" d="M49.44,171.18c-.59-.03-1.19-.08-1.84-.19h-.08l1,.11h.32l.51,.08h.08Z"/><polygon class="b" points="50.17 171.24 50.17 171.26 50.14 171.24 50.17 171.24"/><polygon class="b" points="69.61 173.18 50.55 171.29 50.3 171.26 50.44 171.26 69.61 173.18"/><path class="b" d="M94.88,175.72l-7.59-.76h-.27c-1.84-7.94-4.97-15.34-9.15-22.01-.27-.49-.59-.97-.92-1.43-.3-.49-.62-.97-.97-1.46-8.42-12.26-20.44-21.82-34.32-27.3-.57-.24-1.13-.46-1.7-.65-.57-.24-1.13-.43-1.7-.62-7.18-2.46-14.82-3.83-22.68-3.94l-3.38-8.45c7.75,.16,15.31,1.38,22.52,3.51,.54,.16,1.11,.32,1.65,.51,.57,.16,1.13,.35,1.67,.54,19.36,6.56,35.94,19.85,46.55,37.26,.32,.49,.62,.95,.89,1.43,.27,.49,.54,.95,.81,1.43,3.81,6.78,6.72,14.12,8.59,21.93Z"/><path d="M50.14,171.24m.3,.03h.11l19.06,1.92-19.17-1.92Zm-.3-.03,0,0"/></g><path d="M7.26,96.71c-.08-.22-.19-.41-.27-.62h.03l.24,.62Z"/><path d="M31.32,157.09h-.05c-.08-.24-.19-.51-.27-.78l.32,.78Z"/><g><path class="b" d="M84.19,174.64l-14.58-1.46-19.17-1.92h-.3c-.16-.03-.3-.03-.46-.05-.05,0-.14,0-.19-.03h-.14l-.51-.08h-.32l-1-.14c-.92-.16-1.84-.38-2.73-.68-1.57-.49-3.05-1.16-4.43-2.03-.54-.3-1.05-.65-1.54-1.03-.08-.05-.16-.11-.24-.19-.49-.35-.95-.7-1.38-1.11-.03-.03-.08-.05-.11-.11-.27-.22-.51-.46-.73-.7-.27-.24-.49-.49-.7-.73t-.05-.05c-.43-.49-.86-1-1.27-1.54-.19-.22-.32-.43-.46-.65-.41-.57-.78-1.13-1.11-1.76-.3-.49-.54-.97-.78-1.49-.27-.59-.51-1.19-.73-1.81h.05l-.32-.81s-.03-.11-.05-.16h0l-14.28-35.86c7.99,.24,15.72,1.84,22.95,4.59,.59,.19,1.16,.43,1.73,.68,.59,.22,1.16,.46,1.73,.73,11.66,5.1,21.84,13.23,29.35,23.44,.38,.49,.73,.97,1.05,1.46,.32,.49,.68,.97,1,1.46,4.4,6.62,7.72,14.04,9.72,22.01Z"/><path class="b" d="M31.32,157.09h-.05c-.08-.24-.19-.51-.27-.78l.32,.78Z"/><path class="b" d="M49.44,171.18c-.59-.03-1.19-.08-1.84-.19h-.08l1,.11h.32l.51,.08h.08Z"/><polygon class="b" points="50.17 171.24 50.17 171.26 50.14 171.24 50.17 171.24"/><polygon class="b" points="69.61 173.18 50.55 171.29 50.3 171.26 50.44 171.26 69.61 173.18"/><path d="M34.27,166.86c.86,.89,1.78,1.67,2.75,2.4-.97-.73-1.89-1.54-2.75-2.4Zm16.17,4.4h.11l19.06,1.92-19.17-1.92Zm-.3-.03"/></g></svg>