<?xml version="1.0" encoding="utf-8"?>
<!-- Generator: Adobe Illustrator 26.2.1, SVG Export Plug-In . SVG Version: 6.00 Build 0)  -->
<svg version="1.1" id="Livello_1" xmlns="http://www.w3.org/2000/svg" xmlns:xlink="http://www.w3.org/1999/xlink" x="0px" y="0px"
	 viewBox="0 0 500 500" style="enable-background:new 0 0 500 500;" xml:space="preserve">
<style type="text/css">
	.st0{fill:#A4A3A3;}
	.st1{fill:#FFFFFF;}
	.st2{font-family:'Lato-Light';}
	.st3{font-size:51.88px;}
	.st4{enable-background:new    ;}
	.st5{fill:#FBD213;}
</style>
<g id="a">
	<g id="b">
	</g>
	<g id="c">
	</g>
	<g id="d">
	</g>
	<g id="e">
	</g>
	<g id="f">
	</g>
	<g id="g">
	</g>
</g>
<g id="h">
</g>
<g id="i">
</g>
<path class="st0" d="M250,381.9c-101,0-182.9,6.1-182.9,13.6S149,409.2,250,409.2s182.9-6.1,182.9-13.6S351,381.9,250,381.9
	L250,381.9z"/>
<g>
	<polygon class="st1" points="417.1,395.5 82.9,395.5 114.3,332.4 385.7,332.4 	"/>
	<path d="M417.1,397H82.9c-0.5,0-1-0.3-1.3-0.7s-0.3-1-0.1-1.5l31.4-63.2c0.2-0.5,0.8-0.8,1.3-0.8h271.4c0.6,0,1.1,0.3,1.3,0.8
		l31.4,63.2c0.2,0.5,0.2,1-0.1,1.5C418.1,396.8,417.6,397,417.1,397L417.1,397z M85.3,394h329.4l-29.9-60.2H115.2L85.3,394L85.3,394
		z"/>
</g>
<text transform="matrix(1 0 0 1 187.05 383.26)" class="st2 st3">0 / 15</text>
<g>
	<polygon class="st1" points="417.1,395.5 82.9,395.5 114.3,332.4 385.7,332.4 	"/>
	<path d="M417.1,397H82.9c-0.5,0-1-0.3-1.3-0.7s-0.3-1-0.1-1.5l31.4-63.2c0.2-0.5,0.8-0.8,1.3-0.8h271.4c0.6,0,1.1,0.3,1.3,0.8
		l31.4,63.2c0.2,0.5,0.2,1-0.1,1.5C418.1,396.8,417.6,397,417.1,397L417.1,397z M85.3,394h329.4l-29.9-60.2H115.2L85.3,394L85.3,394
		z"/>
</g>
<g class="st4">
	<path d="M215.2,364.9c0,3.2-0.3,6-1,8.4c-0.7,2.4-1.6,4.3-2.8,5.8c-1.2,1.5-2.6,2.7-4.2,3.4c-1.6,0.8-3.3,1.1-5.1,1.1
		c-1.8,0-3.5-0.4-5.1-1.1c-1.6-0.8-3-1.9-4.2-3.4c-1.2-1.5-2.1-3.5-2.8-5.8c-0.7-2.4-1-5.1-1-8.4c0-3.2,0.3-6,1-8.4
		c0.7-2.4,1.6-4.3,2.8-5.8c1.2-1.5,2.6-2.7,4.2-3.4c1.6-0.8,3.3-1.1,5.1-1.1c1.8,0,3.5,0.4,5.1,1.1c1.6,0.8,3,1.9,4.2,3.4
		c1.2,1.5,2.1,3.5,2.8,5.8C214.9,358.9,215.2,361.7,215.2,364.9z M212.7,364.9c0-3-0.3-5.5-0.9-7.6c-0.6-2.1-1.3-3.8-2.3-5.2
		c-1-1.3-2.1-2.3-3.4-2.9c-1.3-0.6-2.6-0.9-4.1-0.9s-2.8,0.3-4,0.9c-1.3,0.6-2.4,1.6-3.4,2.9c-1,1.3-1.7,3.1-2.3,5.2
		c-0.6,2.1-0.9,4.7-0.9,7.6c0,3,0.3,5.5,0.9,7.6c0.6,2.1,1.3,3.8,2.3,5.2c1,1.3,2.1,2.3,3.4,2.9c1.3,0.6,2.6,0.9,4,0.9
		s2.8-0.3,4.1-0.9c1.3-0.6,2.4-1.6,3.4-2.9c1-1.3,1.7-3.1,2.3-5.2C212.4,370.4,212.7,367.9,212.7,364.9z"/>
	<path d="M229.5,384.4c-0.1,0.3-0.3,0.6-0.6,0.8c-0.3,0.2-0.6,0.2-0.9,0.2h-1l16.1-39c0.3-0.6,0.7-1,1.4-1h1.1L229.5,384.4z"/>
	<path d="M263.7,381.4h8.4v-29.8c0-0.6,0-1.2,0.1-1.9l-8.1,7.2c-0.2,0.2-0.4,0.2-0.6,0.2c-0.3,0-0.5-0.1-0.7-0.3l-0.8-1l10.6-9.4
		h1.9v35h8v1.9h-18.9V381.4z"/>
	<path d="M310.8,347.6c0,0.3-0.1,0.6-0.4,0.9s-0.6,0.3-1.1,0.3h-13.3l-2.2,12.2c1.2-0.3,2.3-0.5,3.3-0.6c1-0.1,2-0.2,3-0.2
		c1.9,0,3.6,0.3,5,0.8c1.5,0.5,2.7,1.3,3.6,2.3c1,1,1.7,2.1,2.2,3.5c0.5,1.3,0.8,2.8,0.8,4.4c0,1.9-0.3,3.7-1,5.2
		c-0.7,1.5-1.6,2.8-2.7,3.9c-1.2,1.1-2.5,1.9-4,2.5c-1.5,0.6-3.2,0.9-4.9,0.9c-1,0-2-0.1-2.9-0.3c-0.9-0.2-1.8-0.4-2.6-0.7
		c-0.8-0.3-1.6-0.7-2.2-1c-0.7-0.4-1.3-0.8-1.8-1.2l0.7-1c0.2-0.3,0.4-0.4,0.8-0.4c0.2,0,0.5,0.1,1,0.4c0.4,0.3,1,0.5,1.6,0.9
		c0.7,0.3,1.5,0.6,2.4,0.9c0.9,0.3,2,0.4,3.2,0.4c1.4,0,2.7-0.2,4-0.7s2.3-1.1,3.2-2c0.9-0.9,1.6-1.9,2.1-3.2
		c0.5-1.3,0.8-2.7,0.8-4.3c0-1.3-0.2-2.5-0.6-3.6c-0.4-1.1-1-2.1-1.8-2.8c-0.8-0.8-1.8-1.4-3-1.8c-1.2-0.4-2.6-0.7-4.2-0.7
		c-1,0-2,0.1-3.1,0.2c-1.1,0.2-2.3,0.4-3.5,0.8l-1.6-0.5l2.9-16.3h16.5V347.6z"/>
</g>
<g>
	<path class="st5" d="M437.8,191.5l-1.4,0.9C388,223.8,322.9,241,253.3,241h0c-69.7,0-134.7-17.2-183.1-48.6l-1.4-0.9H437.8z"/>
</g>
<g id="k">
</g>
</svg>
