<?xml version="1.0" encoding="UTF-8"?><svg xmlns="http://www.w3.org/2000/svg" viewBox="0 0 500 500"><defs><style>.l{fill:#fff;}.m{fill:#2a6eb5;}.n{fill:#1d1d1b;}</style></defs><g id="a"><g id="b"/><g id="c"/><g id="d"/><g id="e"/><g id="f"/><g id="g"/></g><g id="h"/><g id="i"/><g id="j"/><g id="k"><g><g><circle class="l" cx="250" cy="250" r="143.47"/><path class="n" d="M250,394.97c-79.93,0-144.97-65.03-144.97-144.97S170.07,105.03,250,105.03s144.97,65.03,144.97,144.97-65.03,144.97-144.97,144.97Zm0-286.93c-78.28,0-141.97,63.69-141.97,141.97s63.69,141.97,141.97,141.97,141.97-63.69,141.97-141.97-63.69-141.97-141.97-141.97Z"/></g><path class="m" d="M199.34,286.18h-36.18v-72.37h36.18v72.37Zm14.47-72.37v72.37l65.13,36.18V177.63l-65.13,36.18Zm110.9,36.13l11.91-12.01-9.58-9.58-11.95,12.09-12.05-11.93-9.52,9.54,12.09,11.99-11.94,12.08,9.54,9.53,12-12.1,12.06,11.96,9.58-9.59-12.13-11.98Z"/></g></g></svg>