<?xml version="1.0" encoding="utf-8"?>
<!-- Generator: Adobe Illustrator 26.2.1, SVG Export Plug-In . SVG Version: 6.00 Build 0)  -->
<svg version="1.1" id="Livello_1" xmlns="http://www.w3.org/2000/svg" xmlns:xlink="http://www.w3.org/1999/xlink" x="0px" y="0px"
	 viewBox="0 0 500 500" style="enable-background:new 0 0 500 500;" xml:space="preserve">
<style type="text/css">
	.st0{fill:#C6C5C5;}
	.st1{fill:#FFFFFF;}
	.st2{enable-background:new    ;}
	.st3{fill:#2A6EB5;}
	.st4{fill:#FBD213;}
</style>
<g id="a">
	<g id="b">
	</g>
	<g id="c">
	</g>
	<g id="d">
	</g>
	<g id="e">
	</g>
	<g id="f">
	</g>
	<g id="g">
	</g>
</g>
<g id="h">
</g>
<g id="i">
</g>
<path class="st0" d="M250,381.9c-101,0-182.9,6.1-182.9,13.6S149,409.2,250,409.2s182.9-6.1,182.9-13.6S351,381.9,250,381.9"/>
<g>
	<polygon class="st1" points="417.1,395.5 82.9,395.5 114.3,332.4 385.7,332.4 	"/>
	<path d="M417.1,397H82.9c-0.5,0-1-0.3-1.3-0.7s-0.3-1-0.1-1.5l31.4-63.2c0.2-0.5,0.8-0.8,1.3-0.8h271.4c0.6,0,1.1,0.3,1.3,0.8
		l31.4,63.2c0.2,0.5,0.2,1-0.1,1.5S417.6,397,417.1,397L417.1,397z M85.3,394h329.4l-29.9-60.2H115.2L85.3,394L85.3,394z"/>
</g>
<g class="st2">
	<path d="M180,381.4h8.4v-29.8c0-0.6,0-1.2,0.1-1.9l-8.1,7.2c-0.2,0.2-0.4,0.2-0.6,0.2c-0.3,0-0.5-0.1-0.7-0.3l-0.8-1l10.6-9.4h1.9
		v35h8v1.9H180V381.4z"/>
	<path d="M217.7,346.1c1.4,0,2.7,0.2,4,0.6s2.4,1,3.4,1.8s1.7,1.9,2.3,3.1s0.9,2.7,0.9,4.3c0,1.4-0.2,2.7-0.6,3.9
		c-0.4,1.2-1,2.3-1.7,3.4s-1.6,2.1-2.5,3.2s-2,2.1-3,3.2L209,381.3c0.6-0.1,1.1-0.2,1.7-0.3s1.2-0.1,1.8-0.1h15.8
		c0.3,0,0.5,0.1,0.7,0.2c0.2,0.2,0.2,0.4,0.2,0.6v1.5h-23.7v-0.9c0-0.2,0-0.4,0.1-0.6s0.2-0.4,0.4-0.5l12.5-12.7
		c1-1.1,2-2.1,2.9-3.1s1.6-2,2.3-3c0.6-1,1.2-2,1.5-3.1c0.4-1.1,0.6-2.2,0.6-3.4c0-1.3-0.2-2.5-0.7-3.5s-1.1-1.8-1.8-2.5
		c-0.8-0.6-1.6-1.1-2.6-1.4s-2-0.5-3.1-0.5c-1.2,0-2.2,0.2-3.2,0.5c-1,0.4-1.8,0.8-2.6,1.5c-0.8,0.6-1.4,1.4-1.9,2.3s-0.8,1.8-1,2.9
		c-0.2,0.6-0.5,0.9-1,0.9h-0.1h-0.1l-1.2-0.2c0.2-1.6,0.6-3,1.3-4.2s1.5-2.3,2.5-3.1c1-0.8,2.1-1.5,3.4-1.9
		C214.8,346.4,216.2,346.1,217.7,346.1z"/>
	<path d="M244.6,384.4c-0.1,0.3-0.3,0.6-0.6,0.8c-0.3,0.2-0.6,0.2-0.9,0.2h-1l16.1-39c0.3-0.6,0.7-1,1.4-1h1.1L244.6,384.4z"/>
	<path d="M278.7,381.4h8.4v-29.8c0-0.6,0-1.2,0.1-1.9l-8.1,7.2c-0.2,0.2-0.4,0.2-0.6,0.2c-0.3,0-0.5-0.1-0.7-0.3l-0.8-1l10.6-9.4
		h1.9v35h8v1.9h-18.9v-1.9H278.7z"/>
	<path d="M325.8,347.6c0,0.3-0.1,0.6-0.4,0.9s-0.6,0.3-1.1,0.3H311l-2.2,12.2c1.2-0.3,2.3-0.5,3.3-0.6s2-0.2,3-0.2
		c1.9,0,3.6,0.3,5,0.8c1.5,0.5,2.7,1.3,3.6,2.3c1,1,1.7,2.1,2.2,3.5s0.8,2.8,0.8,4.4c0,1.9-0.3,3.7-1,5.2s-1.6,2.8-2.7,3.9
		s-2.5,1.9-4,2.5s-3.2,0.9-4.9,0.9c-1,0-2-0.1-2.9-0.3c-0.9-0.2-1.8-0.4-2.6-0.7c-0.8-0.3-1.6-0.7-2.2-1c-0.7-0.4-1.3-0.8-1.8-1.2
		l0.7-1c0.2-0.3,0.4-0.4,0.8-0.4c0.2,0,0.5,0.1,1,0.4c0.4,0.3,1,0.5,1.6,0.9c0.7,0.3,1.5,0.6,2.4,0.9s2,0.4,3.2,0.4
		c1.4,0,2.7-0.2,4-0.7c1.2-0.5,2.3-1.1,3.2-2c0.9-0.9,1.6-1.9,2.1-3.2c0.5-1.3,0.8-2.7,0.8-4.3c0-1.3-0.2-2.5-0.6-3.6
		s-1-2.1-1.8-2.8c-0.8-0.8-1.8-1.4-3-1.8s-2.6-0.7-4.2-0.7c-1,0-2,0.1-3.1,0.2c-1.1,0.2-2.3,0.4-3.5,0.8l-1.6-0.5l2.9-16.3H326v0.8
		H325.8z"/>
</g>
<g>
	<path class="st3" d="M381.8,255.1L381.8,255.1L381.8,255.1c0.2,0,0.3,0.1,0.5,0.1c4.3,1.1,7.7,4.2,9.3,8c0.6,1.3,1,2.8,1.1,4.2
		c0.2,1.6,0,3.3-0.4,4.9c-0.2,0-0.4-0.1-0.5-0.1c-7.4-1.9-11.9-9.4-10.1-16.8C381.7,255.4,381.8,255.2,381.8,255.1L381.8,255.1z"/>
	<path class="st3" d="M381.8,255.1L381.8,255.1c0-0.1,0.1-0.2,0.1-0.4c2.1-7.3,9.6-11.6,17-9.7c0.2,0,0.3,0.1,0.5,0.1
		c-0.4,1.6-1.1,3.1-2,4.4c-0.8,1.2-1.9,2.3-3.1,3.2c-3.3,2.5-7.7,3.5-12,2.4C382.1,255.2,382,255.2,381.8,255.1z"/>
	<path class="st3" d="M328.3,255.2c14.3,3.7,28.6,4.3,42.4,2.2c3.8-0.6,7.4-1.3,11.1-2.3l0,0l0,0l0,0c-2.7-2.6-5.6-5.1-8.7-7.5
		c-11-8.5-23.8-14.9-38.1-18.6c-18.2-4.7-36.5-4.4-53.5,0.1C294.2,241.3,310,250.5,328.3,255.2L328.3,255.2z"/>
	<path class="st1" d="M292.2,231.9c0.8-3,3.9-4.9,6.9-4.1s4.9,3.9,4.1,6.9s-3.9,4.9-6.9,4.1S291.4,235,292.2,231.9L292.2,231.9z"/>
	<path d="M293.5,232.3c0.6-2.3,3-3.7,5.3-3.1c2.3,0.6,3.7,3,3.1,5.3s-3,3.7-5.3,3.1S292.9,234.6,293.5,232.3L293.5,232.3z"/>
</g>
<g>
	<path class="st3" d="M326.5,273.4L326.5,273.4L326.5,273.4c0.2,0.1,0.3,0.1,0.5,0.2c4.1,1.9,6.8,5.4,7.8,9.5
		c0.4,1.4,0.5,2.9,0.4,4.4c-0.1,1.6-0.5,3.2-1.2,4.8c-0.2-0.1-0.3-0.1-0.5-0.2c-6.9-3.2-10-11.3-7.1-18.3
		C326.4,273.6,326.5,273.5,326.5,273.4L326.5,273.4z"/>
	<path class="st3" d="M326.5,273.4L326.5,273.4c0.1-0.1,0.1-0.2,0.2-0.3c3.3-6.8,11.5-9.7,18.4-6.6c0.2,0.1,0.3,0.1,0.5,0.2
		c-0.7,1.5-1.6,2.9-2.8,4c-1,1.1-2.3,1.9-3.6,2.6c-3.7,1.9-8.2,2.1-12.3,0.3C326.8,273.5,326.7,273.4,326.5,273.4L326.5,273.4z"/>
	<path class="st3" d="M273.8,264.1c13.4,6.1,27.5,9.2,41.3,9.6c3.8,0.1,7.6,0,11.3-0.3l0,0l0,0l0,0c-2.2-3.1-4.6-6-7.2-8.9
		c-9.3-10.3-20.8-18.9-34.2-25c-17.1-7.8-35.2-10.7-52.7-9.3C242.7,244.4,256.7,256.2,273.8,264.1L273.8,264.1z"/>
	<path class="st1" d="M242.4,234.9c1.3-2.9,4.7-4.1,7.6-2.8c2.9,1.3,4.1,4.7,2.8,7.5c-1.3,2.9-4.7,4.1-7.5,2.8
		S241.1,237.7,242.4,234.9L242.4,234.9z"/>
	<path d="M243.6,235.4c1-2.2,3.6-3.2,5.8-2.2s3.2,3.6,2.1,5.8c-1,2.2-3.6,3.2-5.8,2.1S242.6,237.6,243.6,235.4z"/>
</g>
<g>
	<path class="st3" d="M188.6,271L188.6,271L188.6,271c0.2,0.1,0.3,0.1,0.5,0.2c4.1,1.9,6.8,5.4,7.8,9.5c0.4,1.4,0.5,2.9,0.4,4.4
		c-0.1,1.6-0.5,3.2-1.2,4.8c-0.2-0.1-0.3-0.1-0.5-0.2c-6.9-3.2-10.1-11.3-7.1-18.3C188.6,271.2,188.6,271.1,188.6,271L188.6,271z"/>
	<path class="st3" d="M188.7,271L188.7,271c0.1-0.1,0.1-0.2,0.2-0.3c3.3-6.8,11.5-9.7,18.4-6.6c0.2,0.1,0.3,0.1,0.5,0.2
		c-0.7,1.5-1.6,2.9-2.8,4c-1.1,1.1-2.3,1.9-3.6,2.6c-3.7,1.9-8.2,2.1-12.3,0.3C189,271.1,188.8,271,188.7,271L188.7,271z"/>
	<path class="st3" d="M135.9,261.7c13.4,6.1,27.4,9.2,41.3,9.6c3.8,0.1,7.6,0,11.3-0.3l0,0c0,0,0,0,0.1,0l0,0
		c-2.2-3.1-4.6-6-7.2-8.9c-9.3-10.3-20.8-18.9-34.2-25c-17.1-7.8-35.2-10.7-52.7-9.3C104.8,242,118.8,253.9,135.9,261.7L135.9,261.7
		z"/>
	<path class="st1" d="M104.5,232.5c1.3-2.9,4.7-4.1,7.6-2.8s4.1,4.7,2.8,7.5s-4.7,4.1-7.5,2.8S103.2,235.3,104.5,232.5L104.5,232.5z
		"/>
	<path d="M105.7,233c1-2.2,3.6-3.2,5.8-2.2c2.2,1,3.2,3.6,2.2,5.8s-3.6,3.2-5.8,2.1C105.7,237.8,104.7,235.2,105.7,233z"/>
</g>
<g>
	<path class="st3" d="M190,192.5L190,192.5L190,192.5c-0.2,0-0.3-0.1-0.5-0.1c-4.3-1.1-7.7-4.1-9.3-7.9c-0.6-1.3-1-2.8-1.1-4.2
		c-0.2-1.6-0.1-3.3,0.4-4.9c0.2,0,0.4,0.1,0.5,0.1c7.4,1.9,11.9,9.4,10.1,16.8C190.1,192.3,190.1,192.4,190,192.5L190,192.5z"/>
	<path class="st3" d="M190,192.5L190,192.5c0,0.1-0.1,0.2-0.1,0.4c-2.1,7.3-9.6,11.6-17,9.7c-0.2,0-0.3-0.1-0.5-0.1
		c0.4-1.6,1.1-3.1,2-4.4c0.8-1.2,1.9-2.3,3.1-3.2c3.3-2.5,7.7-3.5,12-2.4C189.7,192.4,189.9,192.5,190,192.5z"/>
	<path class="st3" d="M243.6,192.4c-14.3-3.7-28.6-4.3-42.4-2.2c-3.8,0.6-7.4,1.3-11.1,2.3l0,0c0,0,0,0-0.1,0l0,0
		c2.7,2.6,5.6,5.1,8.7,7.5c11,8.5,23.8,14.9,38.1,18.6c18.2,4.7,36.5,4.4,53.5-0.1C277.7,206.3,261.8,197.1,243.6,192.4L243.6,192.4
		z"/>
	<path class="st1" d="M279.6,215.7c-0.8,3-3.9,4.9-6.9,4.1s-4.9-3.9-4.1-6.9s3.9-4.9,6.9-4.1C278.6,209.5,280.4,212.6,279.6,215.7
		L279.6,215.7z"/>
	<path d="M278.4,215.3c-0.6,2.3-3,3.7-5.3,3.1s-3.7-3-3.1-5.3s3-3.7,5.3-3.1S279,213,278.4,215.3L278.4,215.3z"/>
</g>
<g>
	<path class="st3" d="M185.3,145.8L185.3,145.8L185.3,145.8c-0.2,0-0.4-0.1-0.5-0.1c-4.4-0.9-7.9-3.7-9.8-7.4
		c-0.7-1.3-1.1-2.7-1.3-4.2c-0.2-1.6-0.2-3.3,0.1-4.9c0.2,0,0.4,0.1,0.5,0.1c7.5,1.5,12.4,8.7,11,16.2
		C185.3,145.5,185.3,145.7,185.3,145.8L185.3,145.8z"/>
	<path class="st3" d="M185.3,145.8L185.3,145.8c0,0.1-0.1,0.2-0.1,0.4c-1.7,7.4-9,12.1-16.4,10.6c-0.2,0-0.4-0.1-0.5-0.1
		c0.3-1.7,0.9-3.2,1.8-4.6c0.8-1.3,1.8-2.4,2.9-3.4c3.2-2.7,7.5-3.9,11.9-3.1C184.9,145.7,185.1,145.8,185.3,145.8z"/>
	<path class="st3" d="M238.7,142.8c-14.5-2.9-28.8-2.7-42.4,0.1c-3.7,0.8-7.4,1.7-10.9,2.9l0,0c0,0,0,0-0.1,0l0,0
		c2.9,2.5,5.9,4.8,9.1,7c11.4,7.9,24.6,13.6,39,16.5c18.4,3.7,36.7,2.4,53.4-3C273.5,154.8,257.2,146.5,238.7,142.8L238.7,142.8z"/>
	<path class="st1" d="M276,164.1c-0.6,3.1-3.6,5.1-6.7,4.4s-5.1-3.6-4.5-6.7s3.6-5.1,6.7-4.4S276.6,161,276,164.1L276,164.1z"/>
	<path d="M274.7,163.8c-0.5,2.4-2.8,3.9-5.1,3.4c-2.4-0.5-3.9-2.8-3.4-5.1s2.8-3.9,5.1-3.4S275.2,161.4,274.7,163.8z"/>
</g>
<g>
	<path class="st3" d="M204.1,109.8L204.1,109.8L204.1,109.8c-0.2,0-0.4,0-0.5,0.1c-4.4,0.5-8.6-1.2-11.6-4.1c-1-1-1.9-2.2-2.5-3.6
		c-0.7-1.4-1.2-3-1.4-4.7c0.2,0,0.4-0.1,0.5-0.1c7.6-0.8,14.4,4.5,15.4,12.1C204.1,109.5,204.1,109.7,204.1,109.8L204.1,109.8z"/>
	<path class="st3" d="M204.1,109.8L204.1,109.8c0,0.1,0,0.3,0,0.4c0.6,7.6-4.9,14.3-12.4,15.1c-0.2,0-0.4,0-0.5,0.1
		c-0.2-1.7-0.1-3.3,0.3-4.9c0.4-1.4,0.9-2.8,1.7-4.1c2.2-3.5,5.9-6,10.4-6.5C203.7,109.8,203.9,109.8,204.1,109.8L204.1,109.8z"/>
	<path class="st3" d="M254.1,90.7c-14.7,1.6-28.3,6.2-40.4,13c-3.3,1.9-6.5,3.9-9.5,6.1l0,0c0,0,0,0-0.1,0l0,0
		c3.5,1.5,7.1,2.8,10.8,3.9c13.3,4,27.6,5.5,42.2,3.8c18.7-2.1,35.7-8.9,50-19.1C290.9,91.5,272.8,88.6,254.1,90.7L254.1,90.7z"/>
	<path class="st1" d="M296.1,99.6c0.4,3.1-1.9,5.9-5,6.3c-3.1,0.3-5.9-1.9-6.3-5s1.9-5.9,5-6.3S295.7,96.4,296.1,99.6z"/>
	<path d="M294.8,99.7c0.3,2.4-1.5,4.6-3.9,4.8s-4.6-1.5-4.8-3.9c-0.3-2.4,1.5-4.6,3.9-4.8S294.5,97.3,294.8,99.7L294.8,99.7z"/>
</g>
<g>
	<path class="st3" d="M358.1,137.5L358.1,137.5L358.1,137.5c0.2,0,0.4,0,0.5,0c4.5,0,8.5,2.1,11,5.4c0.9,1.1,1.6,2.4,2.1,3.8
		c0.6,1.5,0.9,3.1,0.9,4.9c-0.2,0-0.4,0-0.5,0c-7.6,0-13.8-6.1-14-13.7C358.1,137.7,358.1,137.6,358.1,137.5L358.1,137.5z"/>
	<path class="st3" d="M358.1,137.4L358.1,137.4c0-0.1,0-0.3,0-0.4c0.2-7.6,6.4-13.6,14.1-13.6c0.2,0,0.4,0,0.5,0
		c0,1.7-0.3,3.3-0.9,4.8c-0.5,1.4-1.2,2.7-2.2,3.9c-2.6,3.2-6.6,5.3-11,5.3C358.5,137.4,358.3,137.4,358.1,137.4L358.1,137.4z"/>
	<path class="st3" d="M306.3,150.8c14.8,0,28.8-2.9,41.6-8.4c3.5-1.5,6.9-3.1,10.2-5l0,0l0,0l0,0c-3.3-1.9-6.7-3.6-10.2-5.1
		c-12.7-5.5-26.8-8.5-41.5-8.6c-18.8-0.1-36.5,4.8-51.8,13.4C269.8,145.8,287.4,150.8,306.3,150.8L306.3,150.8z"/>
	<path class="st1" d="M265.5,137.2c0-3.1,2.6-5.7,5.7-5.7s5.7,2.6,5.7,5.7c0,3.1-2.6,5.7-5.7,5.7S265.5,140.4,265.5,137.2
		L265.5,137.2z"/>
	<path d="M266.9,137.2c0-2.4,2-4.4,4.4-4.4s4.4,2,4.4,4.4s-2,4.4-4.4,4.4S266.9,139.7,266.9,137.2L266.9,137.2z"/>
</g>
<g>
	<path class="st3" d="M155.1,214.4L155.1,214.4L155.1,214.4c-0.1-0.1-0.3-0.2-0.5-0.3c-4-2.1-8.5-2.1-12.2-0.4
		c-1.3,0.6-2.6,1.4-3.7,2.4c-1.2,1.1-2.2,2.4-3,3.9c0.1,0.1,0.3,0.2,0.5,0.3c6.8,3.6,15.1,1.1,18.8-5.6
		C155,214.6,155,214.5,155.1,214.4L155.1,214.4z"/>
	<path class="st3" d="M155.1,214.4L155.1,214.4c0.1-0.1,0.1-0.2,0.2-0.3c3.4-6.8,0.7-15.1-6-18.6c-0.1-0.1-0.3-0.2-0.5-0.2
		c-0.8,1.5-1.3,3.1-1.5,4.6s-0.2,3,0.1,4.4c0.8,4.1,3.3,7.8,7.3,9.9C154.8,214.3,154.9,214.3,155.1,214.4L155.1,214.4z"/>
	<path class="st3" d="M194.6,250.5c-13.1-6.9-24.1-16.1-32.8-26.9c-2.4-2.9-4.6-6-6.6-9.2l0,0c0,0,0,0,0-0.1l0,0
		c3.8-0.1,7.6,0,11.4,0.3c13.8,1.1,27.6,5,40.7,11.9c16.6,8.8,30,21.4,39.5,36.1C229.2,263.2,211.3,259.3,194.6,250.5L194.6,250.5z"
		/>
	<path class="st1" d="M236.9,257.6c1.5-2.8,0.4-6.2-2.4-7.7c-2.8-1.5-6.2-0.4-7.7,2.4s-0.4,6.2,2.4,7.7
		C232,261.5,235.5,260.4,236.9,257.6L236.9,257.6z"/>
	<path d="M235.8,257c1.1-2.1,0.3-4.8-1.8-5.9s-4.8-0.3-5.9,1.8s-0.3,4.8,1.8,5.9C232,260,234.6,259.1,235.8,257L235.8,257z"/>
</g>
<g>
	<path class="st3" d="M74.9,200.2L74.9,200.2L74.9,200.2c-0.2,0-0.3,0.1-0.5,0.1c-4.3,1.3-7.5,4.5-8.9,8.4c-0.5,1.4-0.8,2.8-0.9,4.3
		c-0.1,1.6,0.1,3.3,0.6,4.9c0.2-0.1,0.3-0.1,0.5-0.1c7.3-2.3,11.4-9.9,9.3-17.2C75,200.4,75,200.3,74.9,200.2L74.9,200.2z"/>
	<path class="st3" d="M74.9,200.2L74.9,200.2c0-0.1-0.1-0.2-0.1-0.4c-2.4-7.2-10.2-11.1-17.4-8.9c-0.2,0.1-0.3,0.1-0.5,0.2
		c0.5,1.6,1.3,3.1,2.2,4.3s2,2.2,3.2,3.1c3.4,2.4,7.8,3.2,12.1,1.9C74.6,200.3,74.8,200.2,74.9,200.2L74.9,200.2z"/>
	<path class="st3" d="M128.4,197.7c-14.1,4.4-28.4,5.6-42.2,4.2c-3.8-0.4-7.5-1-11.2-1.8l0,0c0,0,0,0-0.1,0l0,0
		c2.6-2.8,5.4-5.4,8.3-7.9c10.6-9,23.1-16,37.2-20.4c18-5.6,36.3-6.1,53.5-2.4C161.8,182.3,146.4,192.2,128.4,197.7L128.4,197.7z"/>
	<path class="st1" d="M163.3,172.8c-0.9-3-4.1-4.7-7.1-3.8s-4.7,4.1-3.8,7.1s4.1,4.7,7.1,3.8S164.3,175.8,163.3,172.8L163.3,172.8z"
		/>
	<path d="M162.1,173.2c-0.7-2.3-3.2-3.6-5.5-2.9s-3.6,3.2-2.9,5.5c0.7,2.3,3.2,3.6,5.5,2.9C161.5,178,162.8,175.5,162.1,173.2
		L162.1,173.2z"/>
</g>
<g>
	<path class="st3" d="M151,139.3L151,139.3L151,139.3c0.2-0.1,0.3-0.1,0.5-0.1c4.3-1.1,8.7-0.1,12,2.4c1.2,0.9,2.2,1.9,3,3.1
		c0.9,1.3,1.6,2.8,2.1,4.5c-0.2,0.1-0.3,0.1-0.5,0.1c-7.4,1.9-14.9-2.4-17-9.7C151.1,139.5,151,139.4,151,139.3L151,139.3z"/>
	<path class="st3" d="M151,139.3L151,139.3c0-0.1-0.1-0.2-0.1-0.4c-1.7-7.4,2.8-14.8,10.1-16.7c0.2,0,0.3-0.1,0.5-0.1
		c0.4,1.6,0.5,3.3,0.4,4.9c-0.1,1.5-0.5,2.9-1.1,4.3c-1.7,3.8-5,6.8-9.3,8C151.3,139.2,151.2,139.2,151,139.3z"/>
	<path class="st3" d="M104.2,165.4c14.3-3.7,27.1-10.2,38.1-18.7c3-2.3,5.9-4.8,8.6-7.4l0,0l0,0l0,0c-3.7-1-7.4-1.8-11.2-2.3
		c-13.7-2.1-28.1-1.4-42.3,2.3c-18.2,4.7-34.1,13.9-46.7,26.1C67.7,169.8,86,170.1,104.2,165.4L104.2,165.4z"/>
	<path class="st1" d="M61.4,162.6c-0.8-3,1-6.1,4.1-6.9s6.2,1,6.9,4.1c0.8,3-1,6.1-4.1,6.9S62.2,165.6,61.4,162.6L61.4,162.6z"/>
	<path d="M62.7,162.3c-0.6-2.3,0.8-4.7,3.1-5.3s4.7,0.8,5.3,3.1c0.6,2.3-0.8,4.7-3.1,5.3S63.3,164.6,62.7,162.3z"/>
</g>
<g>
	<path class="st3" d="M368.7,216.2L368.7,216.2L368.7,216.2c0.2,0,0.3,0.1,0.5,0.1c4.3,1.1,7.7,4.2,9.3,8c0.6,1.3,1,2.8,1.1,4.2
		c0.2,1.6,0,3.3-0.4,4.9c-0.2,0-0.4-0.1-0.5-0.1c-7.4-1.9-11.9-9.4-10.1-16.8C368.6,216.5,368.6,216.4,368.7,216.2L368.7,216.2z"/>
	<path class="st3" d="M368.7,216.2L368.7,216.2c0-0.1,0.1-0.2,0.1-0.4c2.1-7.3,9.6-11.6,17-9.7c0.2,0,0.3,0.1,0.5,0.1
		c-0.4,1.6-1.1,3.1-2,4.4c-0.9,1.2-1.9,2.3-3.1,3.2c-3.3,2.5-7.7,3.5-12,2.4C369,216.3,368.9,216.3,368.7,216.2L368.7,216.2z"/>
	<path class="st3" d="M315.1,216.2c14.3,3.7,28.6,4.4,42.4,2.3c3.8-0.6,7.5-1.3,11.1-2.3l0,0l0,0l0,0c-2.7-2.6-5.6-5.1-8.6-7.5
		c-11-8.5-23.8-14.9-38-18.7c-18.2-4.8-36.5-4.5-53.5,0C281.1,202.2,296.9,211.5,315.1,216.2L315.1,216.2z"/>
	<path class="st1" d="M279.1,192.9c0.8-3,3.9-4.9,7-4.1c3,0.8,4.9,3.9,4.1,6.9s-3.9,4.9-6.9,4.1S278.3,195.9,279.1,192.9
		L279.1,192.9z"/>
	<path d="M280.4,193.2c0.6-2.3,3-3.7,5.3-3.1s3.7,3,3.1,5.3s-3,3.7-5.3,3.1C281.2,198,279.8,195.6,280.4,193.2L280.4,193.2z"/>
</g>
<g>
	<path class="st3" d="M409.5,187.1L409.5,187.1L409.5,187.1c0.2,0,0.3,0.1,0.5,0.1c4.3,1.1,7.7,4.2,9.3,8c0.6,1.3,1,2.8,1.1,4.2
		c0.2,1.6,0,3.3-0.4,4.9c-0.2,0-0.4-0.1-0.5-0.1c-7.4-1.9-11.9-9.4-10.1-16.8C409.5,187.4,409.5,187.3,409.5,187.1L409.5,187.1z"/>
	<path class="st3" d="M409.5,187.1L409.5,187.1c0-0.1,0.1-0.2,0.1-0.4c2.1-7.3,9.6-11.6,17-9.7c0.2,0,0.3,0.1,0.5,0.1
		c-0.4,1.6-1.1,3.1-2,4.4c-0.9,1.2-1.9,2.3-3.1,3.2c-3.3,2.5-7.7,3.5-12,2.4C409.9,187.2,409.7,187.2,409.5,187.1L409.5,187.1z"/>
	<path class="st3" d="M356,187.1c14.3,3.7,28.6,4.4,42.4,2.3c3.8-0.6,7.5-1.3,11.1-2.3l0,0l0,0l0,0c-2.7-2.6-5.6-5.1-8.6-7.5
		c-11-8.5-23.8-14.9-38-18.7c-18.2-4.8-36.5-4.5-53.5,0C321.9,173.2,337.8,182.4,356,187.1L356,187.1z"/>
	<path class="st1" d="M320,163.8c0.8-3,3.9-4.9,7-4.1c3,0.8,4.9,3.9,4.1,6.9s-3.9,4.9-6.9,4.1S319.2,166.9,320,163.8L320,163.8z"/>
	<path d="M321.2,164.1c0.6-2.3,3-3.7,5.3-3.1s3.7,3,3.1,5.3s-3,3.7-5.3,3.1S320.6,166.5,321.2,164.1L321.2,164.1z"/>
</g>
<g>
	<path class="st4" d="M437,258.6c-46.2,29.9-111,48.5-182.9,48.5s-136.6-18.6-182.9-48.5H437z"/>
	<path class="st4" d="M254.1,307.6c-69.7,0-134.7-17.2-183.1-48.6l-1.4-0.9h369.1l-1.4,0.9C388.9,290.4,323.8,307.6,254.1,307.6
		L254.1,307.6z M73,259.1c48.1,30.6,112.3,47.5,181.2,47.5s133.1-16.9,181.1-47.5H73z"/>
</g>
<g id="k">
</g>
</svg>
