<?xml version="1.0" encoding="UTF-8"?><svg id="a" xmlns="http://www.w3.org/2000/svg" viewBox="0 0 237.9 180.45"><defs><style>.b{fill:#3f2e00;}.c{fill:#f7f1d8;}.d{opacity:.6;}.e{fill:#706f6f;}</style></defs><rect class="b" y="-.75" width="2" height="60.1"/><g class="d"><polygon class="e" points="230.2 52.85 218.7 53.65 225.8 156.25 22.7 170.15 23.4 180.45 237.9 165.75 230.2 52.85"/></g><rect class="b" x="216.8" y="-.75" width="2" height="60.1"/><polygon class="c" points="225.8 156.25 22.7 170.15 8.1 171.15 .4 59.15 218.1 44.25 218.7 53.65 225.8 156.25"/><g><path d="M49.7,101.95l.7,6.3c.3,3.3-2.1,6.2-5.3,6.6l-7,.8,1.7,15.2-5.9,.6-3.6-33.4,12.9-1.4c3.2-.3,6.1,2.1,6.5,5.3Zm-6.1,10.1c.7-.1,1.1-.6,1-1.3l-1.1-10c-.1-.6-.6-1.1-1.3-1l-5.8,.6,1.3,12.3,5.9-.6Z"/><path d="M55.3,95.15l6-.3,1.6,33.6-6,.3-1.6-33.6Z"/><path d="M87.2,102.65l-6,.4-.3-4.9c0-.6-.5-1.1-1.2-1.1l-4.7,.3c-.7,.1-1.1,.6-1.1,1.2l.4,5.6c0,.6,.4,1.3,.9,1.5l10.6,6.7c1.3,1,2.2,2.6,2.3,4.4l.3,4.5c.2,3.3-2.3,6.2-5.6,6.4l-7,.4c-3.3,.2-6.1-2.3-6.3-5.6l-.2-3,6-.4,.3,4.9c0,.6,.6,1.2,1.2,1.1l4.7-.3c.7-.1,1.1-.6,1.1-1.2l-.3-5.3c0-.6-.4-1.1-.9-1.5l-10.6-7c-1.4-1-2.2-2.6-2.3-4.3l-.2-4.5c-.2-3.3,2.3-6.2,5.6-6.3l7-.4c3.3-.2,6.1,2.3,6.3,5.6v2.8Z"/><path d="M108.6,115.95l5.9-.3,.2,3c.1,3.3-2.4,6.1-5.7,6.3l-7,.3c-3.3,.2-6.1-2.3-6.3-5.6l-1.1-21.7c-.2-3.3,2.3-6.1,5.6-6.3l7.1-.4c3.2-.2,6.1,2.3,6.2,5.6l.2,3-5.9,.3-.3-4.9c0-.6-.6-1.2-1.2-1.1l-4.7,.2c-.7,.1-1.1,.6-1.1,1.2l.6,11.1,.2,3,.6,11.3c0,.6,.6,1.2,1.2,1.1l4.7-.2c.6,0,1.2-.6,1.1-1.2l-.3-4.7Z"/><path d="M134.1,122.85l-1.9-5.7-10.9,1.2-.8,5.9-2.9,.3,4.4-34.2,1-.2,2-.2,4-.4,11.2,32.6-6.1,.7Zm-12.3-9.2l8.8-.9-6.3-18.4-2.5,19.3Z"/><path d="M163.7,118.45l-5.9,.7-5.3-14.9-3.4,.3,1.7,15.2-5.9,.7-3.6-33.4,12.9-1.4c3.3-.3,6.2,2,6.6,5.3l.7,6.3c.3,2.5-1,4.8-3.1,5.9l5.3,15.3Zm-16.2-29l1.3,12.2,5.8-.6c.7-.1,1.1-.6,1-1.2l-1.1-10c-.1-.6-.6-1.1-1.3-1l-5.7,.6Z"/><path d="M166.6,86.15l6-.3,1.6,33.6-6,.3-1.6-33.6Z"/><path d="M195.8,117.85l-1.9-5.7-10.9,1.2-.8,5.9-2.9,.3,4.4-34.2,1-.2,2-.2,4-.4,11.2,32.6-6.1,.7Zm-12.3-9.2l8.8-.9-6.4-18.5-2.4,19.4Z"/></g></svg>