<?xml version="1.0" encoding="utf-8"?>
<!-- Generator: Adobe Illustrator 26.2.1, SVG Export Plug-In . SVG Version: 6.00 Build 0)  -->
<svg version="1.1" id="a" xmlns="http://www.w3.org/2000/svg" xmlns:xlink="http://www.w3.org/1999/xlink" x="0px" y="0px"
	 viewBox="0 0 209.8 209.8" style="enable-background:new 0 0 209.8 209.8;" xml:space="preserve">
<style type="text/css">
	.st0{fill:#1D1E1B;}
	.st1{fill:#E52942;}
	.st2{fill:#1D1D1B;}
	.st3{fill:#991D32;}
	.st4{fill:#FFFFFF;}
	.st5{fill:none;stroke:#1D1E1B;stroke-miterlimit:10;}
</style>
<circle class="st0" cx="121.4" cy="146" r="6"/>
<circle class="st0" cx="150.9" cy="135.9" r="6"/>
<g>
	<path class="st1" d="M164.2,72.4l-139.5,61l0,0c-6.2-26.4-0.4-49.2,16.2-65.8c6.4-6.5,14.5-12,24.1-16.4H65
		c0.3-0.1,0.5-0.3,0.8-0.4l0,0l1.8-0.8l0,0c0.3-0.1,0.6-0.2,0.9-0.4h0c1-0.4,2.1-0.9,3.2-1.3l0,0c0.8-0.3,1.6-0.6,2.4-0.9
		c3-1.1,6-2.1,8.9-2.9c0.2,0,0.4-0.1,0.6-0.2l1.8-0.5c0.4-0.1,0.9-0.2,1.4-0.3c7.1-1.7,14-2.6,20.6-2.6c18.6,0,34.8,6.8,47.6,20.1
		c0.3,0.3,0.5,0.5,0.8,0.8c1.3,1.3,2.5,2.7,3.7,4.2l0,0C161.1,67.9,162.7,70.1,164.2,72.4L164.2,72.4L164.2,72.4z"/>
	<path class="st2" d="M165.4,74.2l-70.1,30.7L165.4,74.2L165.4,74.2z"/>
</g>
<path class="st3" d="M177.3,95.5l-2.5,1.1l-137,59.8l-0.9,0.4l-3.6,1.5l0,0c-1.9-3.2-3.6-6.6-5-10.1c-1-2.5-2-4.9-2.8-7.3
	s-1.5-4.8-2.1-7.2l0,0l71.4-31.2l71.4-31.2l0,0c2.3,3.6,4.4,7.6,6.4,11.7c0.3,0.7,0.7,1.4,0.9,2.1c0.3,0.7,0.6,1.4,0.9,2.1
	C175.6,90,176.6,92.8,177.3,95.5L177.3,95.5L177.3,95.5z"/>
<path class="st2" d="M79.1,180.3c-0.3,0.3-0.5,0.5-0.8,0.7c-0.6,0.5-1.3,1-2,1.4c-0.2,0.1-0.5,0.3-0.7,0.4c-2.8,1.4-6,1.7-8.9,1.1
	c-0.4-0.1-0.8-0.2-1.1-0.3c-0.2-0.1-0.4-0.1-0.6-0.2l0,0l-0.5-0.2c-0.3-0.1-0.6-0.3-0.9-0.4c-0.2-0.1-0.3-0.2-0.4-0.2
	c-0.2-0.1-0.4-0.2-0.6-0.3c-0.4-0.2-0.8-0.5-1.1-0.8c-0.5-0.4-1-0.8-1.5-1.3c-1-1-1.9-2.2-2.5-3.5l0,0l-0.2-0.3l0,0l-11.7-23.6l0,0
	L70.5,142l0,0l11.1,22.4l0.2,0.3l0,0C84.4,170,83.2,176.3,79.1,180.3L79.1,180.3L79.1,180.3z"/>
<g>
	<path class="st4" d="M109.4,209.6c-32.8,0-61.8-22-70.6-53.4l1.8-0.8l5-2.2l11.6,23.4l0.2,0.3c0.7,1.3,1.5,2.6,2.6,3.6
		c0.6,0.6,1,1,1.6,1.4c0.3,0.3,0.7,0.6,1.1,0.8c0.1,0.1,0.2,0.1,0.3,0.2c0.1,0.1,0.2,0.1,0.3,0.2c0.1,0,0.2,0.1,0.2,0.1
		c0.1,0.1,0.2,0.1,0.3,0.1c0.2,0.1,0.3,0.1,0.4,0.2c0.2,0.1,0.3,0.1,0.5,0.2l0.5,0.2l0.5,0.2c0.4,0.1,0.8,0.2,1.1,0.3
		c1,0.2,1.9,0.3,2.9,0.3c2.2,0,4.2-0.5,6.1-1.4c0.1-0.1,0.2-0.1,0.4-0.2c0.1-0.1,0.2-0.1,0.3-0.2c0.8-0.5,1.5-1,2.1-1.4
		c0.3-0.2,0.5-0.4,0.8-0.7c4.2-4.2,5.2-10.6,2.6-15.9l-11.1-22.5l99.4-43.4l1.8-0.7c7,11.5,10.8,24.7,10.8,38.2
		c0,6.9-1,13.7-2.9,20.2c-0.1,0-0.1-0.1-0.2-0.1c-0.1-0.1-0.3-0.2-0.5-0.3c-0.2-0.1-0.3-0.2-0.5-0.3c-0.2-0.1-0.3-0.2-0.5-0.3
		c-5.1-3.2-9.7-4.6-15.2-4.6c-6,0-13.2,1.6-22.8,5.1c-0.1,0.1-0.2,0.1-0.3,0.1c-0.1,0-0.2,0.1-0.4,0.1c-0.3,0.1-0.7,0.3-1.1,0.4
		c-0.3,0.1-0.6,0.2-0.9,0.3h0c-0.1,0-0.2,0.1-0.3,0.1c-0.2,0.1-0.3,0.1-0.4,0.1c-0.1,0-0.3,0.1-0.4,0.1c-0.1,0.1-0.2,0.1-0.2,0.1
		c-1.2,0.5-2.4,1-3.5,1.5c-0.1,0.1-0.3,0.1-0.4,0.2c-0.1,0.1-0.3,0.1-0.4,0.2c-0.7,0.3-1.3,0.6-1.9,0.9h-0.1l-0.1,0.1
		c-0.1,0.1-0.3,0.1-0.4,0.2c-0.1,0.1-0.3,0.1-0.4,0.2l-0.1,0.1l0,0c-1.2,0.6-2.4,1.3-3.3,1.8c-0.2,0.1-0.3,0.2-0.4,0.3
		c-0.1,0.1-0.2,0.1-0.3,0.2c-0.1,0.1-0.2,0.1-0.3,0.1c-0.3,0.2-0.7,0.4-1,0.6h0l-0.1,0.1h0l-0.1,0c-0.3,0.2-0.7,0.4-0.9,0.7
		l-0.3,0.2c-0.2,0.2-0.5,0.3-0.7,0.5c-0.1,0.1-0.2,0.2-0.3,0.2c-0.1,0.1-0.2,0.2-0.3,0.2c-0.1,0.1-0.2,0.1-0.3,0.2
		c-0.1,0.1-0.1,0.1-0.2,0.1h-0.2l0,0.2c-0.1,0.1-0.1,0.1-0.2,0.2c-0.1,0.1-0.2,0.2-0.3,0.3c-0.2,0.1-0.4,0.3-0.6,0.5
		c-0.1,0.1-0.3,0.3-0.4,0.4c-0.1,0.1-0.3,0.2-0.4,0.4c0,0-0.1,0.1-0.1,0.1c-0.1,0.1-0.2,0.1-0.2,0.3c-0.2,0.1-0.4,0.4-0.7,0.7
		c-0.1,0.1-0.2,0.3-0.3,0.4c-0.1,0.1-0.2,0.2-0.3,0.4c-0.8,1-1.4,1.9-2,2.8c-0.1,0.1-0.2,0.2-0.2,0.4c-0.1,0.1-0.2,0.3-0.2,0.4
		c-0.2,0.4-0.4,0.9-0.7,1.4l-0.4,0.9c-0.1,0.2-0.2,0.4-0.2,0.6c-0.1,0.1-0.1,0.3-0.2,0.4c-0.1,0.2-0.3,0.9-0.3,1l-0.1,0.5
		c-0.1,0.4-0.2,0.8-0.3,1.2c0,0.1-0.1,0.3-0.1,0.4c-0.1,0.2-0.1,0.3-0.1,0.5c-0.4,1.7-0.8,3.5-1,5.1c0,0.2-0.1,0.4-0.1,0.6
		c-0.1,0.3-0.1,0.5-0.1,0.8c-0.1,0.4-0.2,0.9-0.2,1.4c-0.1,0.3-0.1,0.7-0.2,1c0,0.2-0.1,0.4-0.1,0.6c0,0.2-0.1,0.3-0.1,0.5
		c0,0.2-0.1,0.5-0.1,0.7l0,0.2c0,0.2-0.1,0.3-0.1,0.5c0,0.1-0.1,0.3-0.1,0.4c0,0.1-0.1,0.2-0.1,0.4l-0.1,0.4l64.1-24.9l1.5-0.6
		l0.8-0.3C163.9,192.9,137.9,209.5,109.4,209.6L109.4,209.6z M121.4,137.2c-4.9,0-8.8,4-8.8,8.9s4,8.9,8.8,8.9s8.8-4,8.9-8.9
		C130.2,141.1,126.3,137.2,121.4,137.2z M150.9,127.1c-4.9,0-8.8,4-8.8,8.9s4,8.9,8.8,8.9c4.9,0,8.9-4,8.9-8.9
		S155.8,127.1,150.9,127.1z"/>
	<path d="M171.9,98.2c6.9,11.5,10.6,24.5,10.7,37.8c0,6.7-0.9,13.4-2.8,19.8c-0.1-0.1-0.2-0.1-0.4-0.2c-0.2-0.1-0.4-0.2-0.5-0.3
		c-0.2-0.1-0.3-0.2-0.5-0.3c-5.2-3.2-9.7-4.6-15.3-4.6c-6,0-13.3,1.6-22.8,5.1h0l0,0c-0.1,0.1-0.2,0.1-0.3,0.1
		c-0.1,0.1-0.3,0.1-0.4,0.1c-0.4,0.1-0.7,0.3-1.1,0.4c-0.3,0.1-0.5,0.2-0.8,0.3c-0.1,0-0.3,0.1-0.4,0.1l-0.1,0
		c-0.1,0-0.2,0.1-0.3,0.1c-0.1,0-0.3,0.1-0.4,0.2l-0.1,0l0,0c0,0-0.1,0-0.2,0.1c-1.2,0.5-2.4,1-3.5,1.5c-0.1,0.1-0.3,0.1-0.4,0.2
		c-0.1,0.1-0.2,0.1-0.4,0.2c-0.6,0.3-1.2,0.6-1.8,0.9h0l-0.1,0.1c-0.1,0.1-0.3,0.1-0.4,0.2c-0.2,0.1-0.3,0.1-0.5,0.2l-0.2,0.1l0,0
		c-1.1,0.6-2.1,1.1-3.2,1.8c-0.2,0.1-0.3,0.2-0.4,0.3c-0.1,0.1-0.2,0.1-0.3,0.2c0,0,0,0-0.1,0c-0.1,0-0.1,0.1-0.2,0.1
		c-0.3,0.2-0.7,0.4-1,0.6h-0.1l-0.1,0.1c-0.3,0.2-0.7,0.4-0.9,0.7c-0.1,0.1-0.2,0.2-0.3,0.2c-0.2,0.2-0.5,0.3-0.7,0.5
		c-0.1,0.1-0.2,0.2-0.3,0.3c-0.1,0.1-0.2,0.1-0.3,0.2c-0.1,0.1-0.2,0.1-0.3,0.2c-0.1,0-0.1,0.1-0.2,0.1c-0.1,0-0.2,0.1-0.2,0.2
		c-0.1,0.1-0.1,0.1-0.2,0.1c-0.1,0.1-0.2,0.2-0.3,0.3c-0.2,0.2-0.4,0.4-0.6,0.5c-0.1,0.1-0.3,0.3-0.4,0.4c-0.1,0.1-0.3,0.2-0.4,0.4
		c0,0-0.1,0.1-0.1,0.1c-0.1,0.1-0.2,0.1-0.2,0.2c-0.3,0.3-0.5,0.5-0.7,0.8c-0.1,0.1-0.2,0.3-0.3,0.4c-0.1,0.1-0.2,0.2-0.3,0.4
		c-0.8,1-1.4,1.9-2,2.8c-0.1,0.1-0.2,0.3-0.2,0.4c-0.1,0.1-0.2,0.3-0.2,0.4c-0.3,0.5-0.5,0.9-0.7,1.4l-0.1,0.1
		c0,0.1-0.1,0.1-0.1,0.2c0,0.1-0.1,0.1-0.1,0.2c0,0.1-0.1,0.1-0.1,0.2c0,0.1-0.1,0.1-0.1,0.2l0,0v0c-0.1,0.2-0.2,0.4-0.2,0.6
		c-0.1,0.1-0.1,0.3-0.2,0.4c-0.1,0.2-0.1,0.4-0.2,0.5c-0.1,0.2-0.1,0.4-0.2,0.5l-0.1,0.5c-0.1,0.4-0.2,0.8-0.4,1.3
		c0,0.1-0.1,0.2-0.1,0.4c-0.1,0.2-0.1,0.4-0.1,0.5c-0.4,1.7-0.8,3.6-1.1,5.1c0,0.2-0.1,0.4-0.1,0.6c-0.1,0.3-0.1,0.5-0.1,0.8
		c-0.1,0.4-0.2,0.9-0.3,1.4c-0.1,0.3-0.1,0.7-0.2,1.1c0,0.2-0.1,0.4-0.1,0.6c0,0.2-0.1,0.4-0.1,0.5v0.1c0,0.2-0.1,0.4-0.1,0.6
		l-0.1,0.2c0,0.2-0.1,0.3-0.1,0.5c0,0.1-0.1,0.3-0.1,0.4c0,0.1-0.1,0.2-0.1,0.4l-0.2,0.9l0.8-0.3l63.7-24.7l1.5-0.6l0.2-0.1
		c-12.1,25.4-37.9,41.8-66.1,41.8c-32.6,0-61.4-21.8-70.3-53l1.6-0.7l4.8-2.1l11.5,23.1l0.2,0.3c0.7,1.3,1.6,2.6,2.6,3.6
		c0.6,0.6,1.1,1,1.6,1.4c0.3,0.3,0.8,0.6,1.2,0.8c0.1,0.1,0.2,0.1,0.3,0.1c0.1,0.1,0.2,0.1,0.3,0.2h0l0,0c0,0,0.1,0,0.1,0.1
		c0.1,0.1,0.2,0.1,0.3,0.1c0.2,0.1,0.3,0.1,0.4,0.2c0.2,0.1,0.3,0.1,0.5,0.2l0.5,0.2l0.2,0.1c0.1,0,0.2,0.1,0.3,0.1
		c0.5,0.1,0.8,0.2,1.2,0.3c1,0.2,2,0.3,3,0.3c2.2,0,4.3-0.5,6.2-1.4c0.1-0.1,0.2-0.1,0.4-0.2c0.1-0.1,0.2-0.1,0.4-0.2
		c0.8-0.4,1.5-1,2.1-1.4c0.3-0.2,0.5-0.5,0.8-0.8c4.3-4.3,5.3-10.8,2.7-16.2L82,164l-10.8-21.9l99.1-43.3L171.9,98.2 M150.9,145
		c5,0,9.1-4.1,9.1-9.1s-4.1-9.1-9.1-9.1s-9.1,4.1-9.1,9.1S145.8,145,150.9,145 M121.3,155.1c5,0,9.1-4.1,9.1-9.1
		c0-5-4.1-9.1-9.1-9.1s-9.1,4.1-9.1,9.1S116.3,155.1,121.3,155.1 M172.1,97.5l-2,0.8l-99.6,43.5l11.1,22.4l0.2,0.3
		c2.6,5.4,1.4,11.6-2.6,15.6c-0.3,0.3-0.5,0.5-0.8,0.7c-0.6,0.5-1.3,1-2,1.4c-0.2,0.1-0.5,0.3-0.7,0.4c-1.9,1-4,1.4-6,1.4
		c-1,0-1.9-0.1-2.9-0.3c-0.4-0.1-0.8-0.2-1.1-0.3c-0.2-0.1-0.4-0.1-0.5-0.2l-0.5-0.2c-0.3-0.1-0.6-0.3-0.9-0.4
		c-0.2-0.1-0.3-0.2-0.4-0.2c-0.2-0.1-0.4-0.2-0.6-0.3c-0.4-0.2-0.8-0.5-1.1-0.8c-0.5-0.4-1-0.8-1.5-1.3c-1-1-1.9-2.2-2.5-3.5
		l-0.2-0.3l-11.7-23.6l-5.3,2.3l-2,0.9c8.8,31.7,37.9,53.8,70.9,53.8c29.8,0,55.5-17.8,67.1-43.2l-1.4,0.6l-1.5,0.6l-63.7,24.7
		c0.1-0.3,0.1-0.5,0.2-0.8s0.1-0.5,0.2-0.7s0.1-0.5,0.1-0.7c0.1-0.4,0.1-0.7,0.2-1.1c0.2-0.8,0.3-1.6,0.4-2.4
		c0.1-0.4,0.2-0.9,0.2-1.4c0.3-1.8,0.7-3.4,1-5.1c0.1-0.3,0.2-0.6,0.2-0.9c0.2-0.6,0.3-1.1,0.5-1.7c0.1-0.3,0.2-0.7,0.3-1
		c0.1-0.3,0.3-0.7,0.4-1c0.1-0.1,0.1-0.3,0.2-0.4s0.1-0.3,0.2-0.4c0.2-0.5,0.4-1,0.7-1.5c0.1-0.1,0.1-0.2,0.2-0.4
		c0.1-0.1,0.1-0.2,0.2-0.3c0.6-0.9,1.2-1.9,2-2.8c0.2-0.3,0.4-0.5,0.7-0.8c0.2-0.3,0.5-0.6,0.7-0.8c0.1-0.1,0.2-0.2,0.3-0.3
		c0.3-0.3,0.6-0.5,0.8-0.8c0.2-0.2,0.3-0.3,0.6-0.5c0.2-0.2,0.4-0.3,0.6-0.5c0-0.1,0.1-0.1,0.1-0.1c0.2-0.1,0.3-0.3,0.5-0.4
		c0.2-0.2,0.4-0.3,0.6-0.5c0.3-0.3,0.7-0.5,1-0.8c0.3-0.2,0.6-0.4,0.9-0.7c0.1,0,0.1-0.1,0.1-0.1c0.3-0.2,0.7-0.4,1.1-0.7
		c0.1-0.1,0.1-0.1,0.2-0.1c0.3-0.2,0.5-0.3,0.8-0.5c1-0.6,2.2-1.3,3.4-1.9c0,0,0.1,0,0.1-0.1c0.3-0.2,0.6-0.3,0.9-0.4
		c0.1,0,0.1-0.1,0.1-0.1c0.6-0.3,1.2-0.6,1.9-0.9c0.3-0.1,0.6-0.3,0.8-0.4c1.1-0.5,2.3-1,3.6-1.5c0.1-0.1,0.2-0.1,0.2-0.1
		c0.2-0.1,0.5-0.2,0.7-0.3c0.1-0.1,0.2-0.1,0.3-0.1c0.7-0.3,1.3-0.5,2-0.8c0.2-0.1,0.4-0.2,0.7-0.3c9.9-3.6,17-5.1,22.7-5.1
		c6.2,0,10.7,1.8,15.1,4.5c0.3,0.2,0.7,0.4,1,0.6s0.6,0.4,0.9,0.6c1.9-6.5,3-13.4,3-20.6C183,122.4,179.2,109.2,172.1,97.5
		L172.1,97.5L172.1,97.5z M150.9,144.5c-4.7,0-8.6-3.8-8.6-8.6s3.8-8.6,8.6-8.6c4.8,0,8.6,3.8,8.6,8.6S155.6,144.5,150.9,144.5
		L150.9,144.5z M121.3,154.6c-4.8,0-8.6-3.8-8.6-8.6s3.8-8.6,8.6-8.6s8.6,3.8,8.6,8.6C129.9,150.7,126,154.6,121.3,154.6
		L121.3,154.6z"/>
</g>
<path class="st2" d="M187.6,162.2l-11.1,4.3l-1.4,0.6l-1.5,0.6l-63.7,24.7c0.1-0.3,0.1-0.5,0.2-0.8s0.1-0.5,0.2-0.7s0.1-0.5,0.1-0.7
	c0.1-0.4,0.1-0.7,0.2-1.1c0.2-0.8,0.3-1.6,0.4-2.4c0.1-0.4,0.2-0.9,0.2-1.4c0.3-1.8,0.7-3.4,1-5.1c0.1-0.3,0.2-0.6,0.2-0.9
	c0.2-0.6,0.3-1.1,0.5-1.7c0.1-0.3,0.2-0.7,0.3-1s0.3-0.7,0.4-1c0.1-0.1,0.1-0.3,0.2-0.4s0.1-0.3,0.2-0.4c0.2-0.5,0.4-1,0.7-1.5
	c0.1-0.1,0.1-0.2,0.2-0.4c0.1-0.1,0.1-0.2,0.2-0.3c0.6-0.9,1.2-1.9,2-2.8l0,0c0.2-0.3,0.4-0.5,0.7-0.8c0.2-0.3,0.5-0.6,0.7-0.8
	l0.3-0.3c0.3-0.3,0.6-0.5,0.8-0.8l0,0c0.2-0.2,0.3-0.3,0.6-0.5c0.2-0.2,0.4-0.3,0.6-0.5c0-0.1,0.1-0.1,0.1-0.1
	c0.2-0.1,0.3-0.3,0.5-0.4c0.2-0.2,0.4-0.3,0.6-0.5c0.3-0.3,0.7-0.5,1-0.8c0.3-0.2,0.6-0.4,0.9-0.7c0.1,0,0.1-0.1,0.1-0.1
	c0.3-0.2,0.7-0.4,1.1-0.7c0.1-0.1,0.1-0.1,0.2-0.1c0.3-0.2,0.5-0.3,0.8-0.5c1-0.6,2.2-1.3,3.4-1.9c0,0,0.1,0,0.1-0.1
	c0.3-0.2,0.6-0.3,0.9-0.4c0.1,0,0.1-0.1,0.1-0.1c0.6-0.3,1.2-0.6,1.9-0.9c0.3-0.1,0.6-0.3,0.8-0.4c1.1-0.5,2.3-1,3.6-1.5
	c0.1-0.1,0.2-0.1,0.2-0.1c0.2-0.1,0.5-0.2,0.7-0.3c0.1-0.1,0.2-0.1,0.3-0.1c0.7-0.3,1.3-0.5,2-0.8l0,0c0.2-0.1,0.4-0.2,0.7-0.3
	c20.7-7.6,29.3-5.8,37.7-0.6c0.3,0.2,0.7,0.4,1,0.6s0.6,0.4,0.9,0.6C182.4,158.4,184.8,160.3,187.6,162.2L187.6,162.2L187.6,162.2z"
	/>
<path class="st1" d="M71.3,19.9c0,4.9-1.8,9.4-4.7,12.8c-0.3,0.3-0.6,0.7-0.9,1c-1.4,1.4-2.9,2.6-4.6,3.6c0,0,0,0,0,0h0
	c-0.2,0.1-0.5,0.3-0.7,0.4c-0.3,0.1-0.5,0.3-0.8,0.4l0,0c-0.5,0.2-1,0.4-1.6,0.6h0c-2,0.7-4.1,1-6.4,1c-5.5,0-10.4-2.2-14-5.8
	c-0.3-0.3-0.7-0.7-1-1c-0.1-0.1-0.2-0.2-0.3-0.4c-0.3-0.4-0.6-0.8-0.9-1.1c-0.2-0.3-0.4-0.5-0.5-0.8l-0.5-0.8
	c-0.2-0.3-0.3-0.5-0.4-0.8c-0.2-0.3-0.3-0.5-0.4-0.9c-1.1-2.5-1.8-5.3-1.8-8.2c0-2.2,0.4-4.3,1-6.4c0.2-0.4,0.3-0.9,0.5-1.4l0,0
	c1.7-4,4.7-7.3,8.4-9.5c0.3-0.2,0.5-0.3,0.8-0.4c0.3-0.2,0.5-0.3,0.9-0.4C45.7,0.6,48.5,0,51.4,0C62.4,0,71.3,8.9,71.3,19.9
	L71.3,19.9C71.3,19.8,71.3,19.9,71.3,19.9z"/>
<circle class="st5" cx="121.4" cy="146" r="8.6"/>
<circle class="st5" cx="150.9" cy="135.9" r="8.6"/>
</svg>
