<?xml version="1.0" encoding="utf-8"?>
<!-- Generator: Adobe Illustrator 26.1.0, SVG Export Plug-In . SVG Version: 6.00 Build 0)  -->
<svg version="1.1" id="Livello_1" xmlns="http://www.w3.org/2000/svg" xmlns:xlink="http://www.w3.org/1999/xlink" x="0px" y="0px"
	 viewBox="0 0 362.4 181.5" style="enable-background:new 0 0 362.4 181.5;" xml:space="preserve">
<style type="text/css">
	.st0{fill:#F7F1D8;}
	.st1{fill:#D8CC9C;}
	.st2{opacity:0.2;}
</style>
<g>
	<polygon class="st0" points="359.3,165.5 42.1,178.4 40.6,140.7 35.5,16 352.7,3.1 	"/>
	<path d="M355.6,0L35.4,13l-2.6,0.1l-0.3,1.3L0,142.7l3.4-0.2l34.2-1.7l1.5,37.6l0.1,3.1l323.2-13.2L355.6,0L355.6,0z M3.9,139.5
		L32.9,25l4.6,112.9C37.5,137.8,3.9,139.5,3.9,139.5z M40.6,140.7L35.5,16L352.7,3.1l6.6,162.4L42.1,178.4L40.6,140.7L40.6,140.7z"
		/>
</g>
<polygon class="st1" points="37.5,137.8 3.9,139.5 32.9,25 "/>
<g class="st2">
	<polygon points="39.1,178.4 3.4,142.6 37.6,140.8 	"/>
</g>
<path d="M164.6,79.8l1.1,7.7c0.5,4-2.3,7.8-6.4,8.3l-8.6,1.2l2.5,18.8l-7.3,1l-5.5-41.2l15.9-2.1C160.3,72.9,164.1,75.8,164.6,79.8z
	 M157.4,92.4c0.8-0.2,1.3-0.8,1.2-1.6L157,78.5c-0.2-0.7-0.8-1.3-1.6-1.2l-7.2,0.9l2,15.1L157.4,92.4z"/>
<path d="M197.2,99.5l-0.1,3.7l-20.3,0.1l-0.1-41.5l7.4,0l0.2,37.8L197.2,99.5z"/>
<path d="M225.9,106.6l-2-7.2l-13.5,0.8l-1.4,7.3l-3.6,0.2l7.5-41.9l1.2-0.1l2.5-0.1l5-0.2l11.7,40.9L225.9,106.6z M211.3,94.5
	l10.9-0.5l-6.7-23.2L211.3,94.5z"/>
<path d="M260.7,69.8L253,92.6l0.6,18.9l-7.4,0.2l-0.6-18.9l-9-22.3l7.4-0.2l7,17.4l5.9-17.8L260.7,69.8z"/>
</svg>
