<?xml version="1.0" encoding="UTF-8"?><svg xmlns="http://www.w3.org/2000/svg" viewBox="0 0 500 500"><defs><style>.l{fill:#fff;}.m{fill:#2a6eb5;}.n{fill:#1d1d1b;}</style></defs><g id="a"><g id="b"/><g id="c"/><g id="d"/><g id="e"/><g id="f"/><g id="g"/></g><g id="h"/><g id="i"/><g id="j"/><g id="k"><g><g><circle class="l" cx="250" cy="250" r="143.47"/><path class="n" d="M250,394.97c-79.93,0-144.97-65.03-144.97-144.97S170.07,105.03,250,105.03s144.97,65.03,144.97,144.97-65.03,144.97-144.97,144.97Zm0-286.93c-78.28,0-141.97,63.69-141.97,141.97s63.69,141.97,141.97,141.97,141.97-63.69,141.97-141.97-63.69-141.97-141.97-141.97Z"/></g><path class="m" d="M206.58,213.82l57.9-36.18v144.74l-57.9-36.18v-72.37Zm-43.42,72.37h28.95v-72.37h-28.95v72.37Zm146.65-95.99l-10.83,10.83c13.37,12.9,21.59,30.08,21.59,48.97s-8.21,36.07-21.59,48.96l10.84,10.84c16.68-15.58,27.03-36.58,27.03-59.81s-10.35-44.22-27.04-59.81Zm-3.54,59.81c0-15.08-6.62-28.71-17.25-39.01l-10.88,10.88c7.32,7.59,11.85,17.38,11.85,28.14s-4.51,20.56-11.83,28.16l10.88,10.88c10.62-10.31,17.23-23.95,17.23-39.04Z"/></g></g></svg>