<?xml version="1.0" encoding="utf-8"?>
<!-- Generator: Adobe Illustrator 26.2.1, SVG Export Plug-In . SVG Version: 6.00 Build 0)  -->
<svg version="1.1" xmlns="http://www.w3.org/2000/svg" xmlns:xlink="http://www.w3.org/1999/xlink" x="0px" y="0px"
	 viewBox="0 0 1920 1080" style="enable-background:new 0 0 1920 1080;" xml:space="preserve">
<style type="text/css">
	.st0{fill:#E5E1DA;}
	.st1{fill:#E8D7B1;}
	.st2{opacity:0.59;}
	.st3{fill:#706F6F;}
	.st4{opacity:0.4;}
	.st5{fill:#A3906D;}
	.st6{fill:#C1AB80;}
	.st7{fill:#3F2E00;}
	.st8{fill:#E52942;}
	.st9{fill:#EBDCBB;}
	.st10{fill:#FFFFFF;}
	.st11{fill:#1D1D1B;}
	.st12{opacity:0.6;}
	.st13{fill:#F7F1D8;}
	.st14{fill:#FBD213;}
	.st15{fill:#131312;}
	.st16{opacity:0.6;fill:#706F6F;enable-background:new    ;}
	.st17{fill:none;}
	.st18{fill:#2A6EB5;}
	.st19{opacity:0.4;fill:#706F6F;enable-background:new    ;}
	.st20{opacity:0.25;}
	.st21{fill:#F9F4E1;}
	.st22{fill:#1D1D1B;stroke:#000000;stroke-miterlimit:10;}
	.st23{opacity:0.3;fill:#1D1D1B;}
	.st24{fill:#1E4F7C;}
	.st25{opacity:0.63;}
	.st26{fill:#817967;}
	.st27{fill:#B6AB92;}
	.st28{fill:#EADDBD;}
	.st29{fill:#D7C08C;}
</style>
<g id="Livello_1">
</g>
<g id="Livello_3">
</g>
<g id="Livello_2">
</g>
<g id="Livello_4">
	<polygon class="st28" points="275.8,651.2 275.8,672 116,672 116,650.2 	"/>
	<rect x="116" y="677.2" class="st28" width="159.8" height="20.6"/>
	<rect x="116" y="703" class="st28" width="159.8" height="20.6"/>
	<polygon class="st28" points="275.8,728.8 275.8,749.3 173.9,749.3 173.9,749.4 172.8,749.4 172.8,749.3 116,749.3 116,728.8 	"/>
	<polygon class="st29" points="331.9,627.9 331.9,749.1 289.3,749.4 275.8,749.4 275.8,651.2 311.5,636.5 316.4,634.4 317.3,634 
		331.3,628.1 	"/>
	<polygon class="st28" points="1773.1,530.3 1773.1,548 1637.4,548 1637.4,529.5 	"/>
	<rect x="1637.4" y="552.4" class="st28" width="135.7" height="17.5"/>
	<rect x="1637.4" y="574.3" class="st28" width="135.7" height="17.5"/>
	<polygon class="st28" points="1773.1,596.2 1773.1,613.6 1686.6,613.6 1686.6,613.7 1685.6,613.7 1685.6,613.6 1637.4,613.6 
		1637.4,596.2 	"/>
	<polygon class="st29" points="1820.7,510.6 1820.7,613.4 1784.5,613.7 1773.1,613.7 1773.1,530.3 1803.4,517.9 1807.5,516.1 
		1808.3,515.7 1820.2,510.7 	"/>
</g>
<g id="Livello_5">
</g>
</svg>
