<?xml version="1.0" encoding="UTF-8"?><svg xmlns="http://www.w3.org/2000/svg" viewBox="0 0 500 500"><defs><style>.l{fill:#fff;}.m{fill:#415958;}</style></defs><g id="a"><g id="b"/><g id="c"/><g id="d"/><g id="e"/><g id="f"/><g id="g"/></g><g id="h"/><g id="i"/><g id="j"/><g id="k"><path class="m" d="M232.45,321.15v35.22c-19.45,0-35.22-15.76-35.22-35.22h35.22Z"/><path class="m" d="M380.89,137.51c0,48.49-37.59,88.19-85.22,91.58v35.45h-4v-35.25c-.87,.03-1.74,.04-2.61,.04h-24v35.21h-4v-35.21h-26.61v35.21h-4v-35.21h-33.22v91.82c-50.72,0-91.83-41.11-91.83-91.82s41.11-91.83,91.83-91.83h155.92v-15.99H192.81c-59.45,0-107.83,48.36-107.83,107.82h-4c0-61.66,50.17-111.83,111.83-111.83h164.34v20.01h23.74Z"/><polygon class="l" points="336.25 178.75 332.15 183.14 322.42 174.06 313.35 183.79 308.96 179.69 318.04 169.97 308.31 160.89 312.41 156.51 322.14 165.59 331.21 155.86 335.59 159.95 326.52 169.67 336.25 178.75"/></g></svg>