<?xml version="1.0" encoding="utf-8"?>
<!-- Generator: Adobe Illustrator 26.2.1, SVG Export Plug-In . SVG Version: 6.00 Build 0)  -->
<svg version="1.1" id="Livello_1" xmlns="http://www.w3.org/2000/svg" xmlns:xlink="http://www.w3.org/1999/xlink" x="0px" y="0px"
	 viewBox="0 0 500 500" style="enable-background:new 0 0 500 500;" xml:space="preserve">
<style type="text/css">
	.st0{fill:#C6C5C5;}
	.st1{fill:#2A6EB5;}
	.st2{fill:#FFFFFF;}
	.st3{fill:#FBD213;}
	.st4{enable-background:new    ;}
</style>
<g id="a">
	<g id="b">
	</g>
	<g id="c">
	</g>
	<g id="d">
	</g>
	<g id="e">
	</g>
	<g id="f">
	</g>
	<g id="g">
	</g>
</g>
<g id="h">
</g>
<g id="i">
</g>
<path class="st0" d="M250,381.9c-101,0-182.9,6.1-182.9,13.6S149,409.2,250,409.2s182.9-6.1,182.9-13.6S351,381.9,250,381.9"/>
<g>
	<g>
		<path class="st1" d="M381.8,281L381.8,281L381.8,281c0.2,0,0.3,0.1,0.5,0.1c4.3,1.1,7.7,4.1,9.3,8c0.6,1.3,1,2.8,1.1,4.2
			c0.2,1.6,0,3.3-0.4,4.9c-0.2,0-0.4-0.1-0.5-0.1c-7.4-1.9-11.9-9.4-10.1-16.8C381.7,281.3,381.8,281.1,381.8,281L381.8,281z"/>
		<path class="st1" d="M381.8,281L381.8,281c0-0.1,0.1-0.2,0.1-0.4c2.1-7.3,9.6-11.6,17-9.7c0.2,0,0.3,0.1,0.5,0.1
			c-0.4,1.6-1.1,3.1-2,4.4c-0.8,1.2-1.9,2.3-3.1,3.2c-3.3,2.5-7.7,3.5-12,2.4C382.1,281.1,382,281.1,381.8,281L381.8,281z"/>
		<path class="st1" d="M328.3,281.1c14.3,3.7,28.6,4.3,42.4,2.2c3.8-0.6,7.4-1.3,11.1-2.3l0,0c0,0,0,0,0,0l0,0
			c-2.7-2.6-5.6-5.1-8.7-7.5c-11-8.5-23.8-14.9-38.1-18.6c-18.2-4.7-36.5-4.4-53.5,0.1C294.2,267.2,310,276.4,328.3,281.1
			L328.3,281.1z"/>
		<path class="st2" d="M292.2,257.9c0.8-3,3.9-4.9,6.9-4.1s4.9,3.9,4.1,6.9c-0.8,3-3.9,4.9-6.9,4.1S291.4,260.9,292.2,257.9
			L292.2,257.9z"/>
		<path d="M293.5,258.2c0.6-2.3,3-3.7,5.3-3.1s3.7,3,3.1,5.3s-3,3.7-5.3,3.1S292.9,260.5,293.5,258.2L293.5,258.2z"/>
	</g>
	<g>
		<path class="st1" d="M326.5,299.3L326.5,299.3L326.5,299.3c0.2,0.1,0.3,0.1,0.5,0.2c4.1,1.9,6.8,5.4,7.8,9.5
			c0.4,1.4,0.5,2.9,0.4,4.4c-0.1,1.6-0.5,3.2-1.2,4.8c-0.2-0.1-0.3-0.1-0.5-0.2c-6.9-3.2-10-11.3-7.1-18.3
			C326.4,299.5,326.5,299.4,326.5,299.3L326.5,299.3z"/>
		<path class="st1" d="M326.5,299.3L326.5,299.3c0.1-0.1,0.1-0.2,0.2-0.3c3.3-6.8,11.5-9.7,18.4-6.6c0.2,0.1,0.3,0.1,0.5,0.2
			c-0.7,1.5-1.6,2.9-2.8,4c-1,1.1-2.3,1.9-3.6,2.6c-3.7,1.9-8.2,2.1-12.3,0.3C326.8,299.4,326.7,299.3,326.5,299.3L326.5,299.3z"/>
		<path class="st1" d="M273.8,290c13.4,6.1,27.5,9.2,41.3,9.6c3.8,0.1,7.6,0,11.3-0.3l0,0c0,0,0,0,0,0l0,0c-2.2-3.1-4.6-6-7.2-8.9
			c-9.3-10.3-20.8-18.9-34.2-25c-17.1-7.8-35.2-10.7-52.7-9.3C242.7,270.3,256.7,282.2,273.8,290L273.8,290z"/>
		<path class="st2" d="M242.4,260.8c1.3-2.9,4.7-4.1,7.6-2.8c2.9,1.3,4.1,4.7,2.8,7.5c-1.3,2.9-4.7,4.1-7.5,2.8
			S241.1,263.6,242.4,260.8L242.4,260.8z"/>
		<path d="M243.6,261.3c1-2.2,3.6-3.2,5.8-2.2c2.2,1,3.2,3.6,2.1,5.8c-1,2.2-3.6,3.2-5.8,2.1C243.5,266.1,242.6,263.5,243.6,261.3
			L243.6,261.3z"/>
	</g>
	<g>
		<path class="st1" d="M188.6,296.9L188.6,296.9L188.6,296.9c0.2,0.1,0.3,0.1,0.5,0.2c4.1,1.9,6.8,5.4,7.8,9.5
			c0.4,1.4,0.5,2.9,0.4,4.4c-0.1,1.6-0.5,3.2-1.2,4.8c-0.2-0.1-0.3-0.1-0.5-0.2c-6.9-3.2-10.1-11.3-7.1-18.3
			C188.6,297.1,188.6,297,188.6,296.9L188.6,296.9z"/>
		<path class="st1" d="M188.7,296.9L188.7,296.9c0.1-0.1,0.1-0.2,0.2-0.3c3.3-6.8,11.5-9.7,18.4-6.6c0.2,0.1,0.3,0.1,0.5,0.2
			c-0.7,1.5-1.6,2.9-2.8,4c-1.1,1.1-2.3,1.9-3.6,2.6c-3.7,1.9-8.2,2.1-12.3,0.3C189,297,188.8,297,188.7,296.9L188.7,296.9z"/>
		<path class="st1" d="M135.9,287.6c13.4,6.1,27.4,9.2,41.3,9.6c3.8,0.1,7.6,0,11.3-0.3l0,0c0,0,0,0,0.1,0l0,0
			c-2.2-3.1-4.6-6-7.2-8.9c-9.3-10.3-20.8-18.9-34.2-25c-17.1-7.8-35.2-10.7-52.7-9.3C104.8,267.9,118.8,279.8,135.9,287.6
			L135.9,287.6z"/>
		<path class="st2" d="M104.5,258.4c1.3-2.9,4.7-4.1,7.6-2.8c2.9,1.3,4.1,4.7,2.8,7.5c-1.3,2.9-4.7,4.1-7.5,2.8
			S103.2,261.2,104.5,258.4L104.5,258.4z"/>
		<path d="M105.7,259c1-2.2,3.6-3.2,5.8-2.2c2.2,1,3.2,3.6,2.2,5.8c-1,2.2-3.6,3.2-5.8,2.1C105.7,263.7,104.7,261.1,105.7,259
			L105.7,259z"/>
	</g>
	<g>
		<path class="st1" d="M190,218.4L190,218.4L190,218.4c-0.2,0-0.3-0.1-0.5-0.1c-4.3-1.1-7.7-4.1-9.3-7.9c-0.6-1.3-1-2.8-1.1-4.2
			c-0.2-1.6-0.1-3.3,0.4-4.9c0.2,0,0.4,0.1,0.5,0.1c7.4,1.9,11.9,9.4,10.1,16.8C190.1,218.2,190.1,218.3,190,218.4L190,218.4z"/>
		<path class="st1" d="M190,218.4L190,218.4c0,0.1-0.1,0.2-0.1,0.4c-2.1,7.3-9.6,11.6-17,9.7c-0.2,0-0.3-0.1-0.5-0.1
			c0.4-1.6,1.1-3.1,2-4.4c0.8-1.2,1.9-2.3,3.1-3.2c3.3-2.5,7.7-3.5,12-2.4C189.7,218.3,189.9,218.4,190,218.4z"/>
		<path class="st1" d="M243.6,218.3c-14.3-3.7-28.6-4.3-42.4-2.2c-3.8,0.6-7.4,1.3-11.1,2.3l0,0c0,0,0,0-0.1,0l0,0
			c2.7,2.6,5.6,5.1,8.7,7.5c11,8.5,23.8,14.9,38.1,18.6c18.2,4.7,36.5,4.4,53.5-0.1C277.7,232.2,261.8,223,243.6,218.3L243.6,218.3z
			"/>
		<path class="st2" d="M279.6,241.6c-0.8,3-3.9,4.9-6.9,4.1s-4.9-3.9-4.1-6.9c0.8-3,3.9-4.9,6.9-4.1S280.4,238.5,279.6,241.6
			L279.6,241.6z"/>
		<path d="M278.4,241.3c-0.6,2.3-3,3.7-5.3,3.1c-2.3-0.6-3.7-3-3.1-5.3s3-3.7,5.3-3.1S279,238.9,278.4,241.3L278.4,241.3z"/>
	</g>
	<g>
		<path class="st1" d="M185.3,171.7L185.3,171.7L185.3,171.7c-0.2,0-0.4-0.1-0.5-0.1c-4.4-0.9-7.9-3.7-9.8-7.4
			c-0.7-1.3-1.1-2.7-1.3-4.2c-0.2-1.6-0.2-3.3,0.1-4.9c0.2,0,0.4,0.1,0.5,0.1c7.5,1.5,12.4,8.7,11,16.2
			C185.3,171.5,185.3,171.6,185.3,171.7L185.3,171.7z"/>
		<path class="st1" d="M185.3,171.7L185.3,171.7c0,0.1-0.1,0.2-0.1,0.4c-1.7,7.4-9,12.1-16.4,10.6c-0.2,0-0.4-0.1-0.5-0.1
			c0.3-1.7,0.9-3.2,1.8-4.6c0.8-1.3,1.8-2.4,2.9-3.4c3.2-2.7,7.5-3.9,11.9-3.1C184.9,171.6,185.1,171.7,185.3,171.7z"/>
		<path class="st1" d="M238.7,168.7c-14.5-2.9-28.8-2.7-42.4,0.1c-3.7,0.8-7.4,1.7-10.9,2.9l0,0c0,0,0,0-0.1,0l0,0
			c2.9,2.5,5.9,4.8,9.1,7c11.4,7.9,24.6,13.6,39,16.5c18.4,3.7,36.7,2.4,53.4-3C273.5,180.7,257.2,172.4,238.7,168.7L238.7,168.7z"
			/>
		<path class="st2" d="M276,190c-0.6,3.1-3.6,5.1-6.7,4.4s-5.1-3.6-4.5-6.7s3.6-5.1,6.7-4.4S276.6,186.9,276,190L276,190z"/>
		<path d="M274.7,189.7c-0.5,2.4-2.8,3.9-5.1,3.4c-2.4-0.5-3.9-2.8-3.4-5.1s2.8-3.9,5.1-3.4S275.2,187.4,274.7,189.7z"/>
	</g>
	<g>
		<path class="st1" d="M204.1,135.7L204.1,135.7L204.1,135.7c-0.2,0-0.4,0.1-0.5,0.1c-4.4,0.5-8.6-1.1-11.6-4.1
			c-1-1-1.9-2.2-2.5-3.6c-0.7-1.4-1.2-3-1.4-4.7c0.2,0,0.4-0.1,0.5-0.1c7.6-0.8,14.4,4.5,15.4,12.1
			C204.1,135.5,204.1,135.6,204.1,135.7L204.1,135.7z"/>
		<path class="st1" d="M204.1,135.7L204.1,135.7c0,0.1,0,0.3,0,0.4c0.6,7.6-4.9,14.3-12.4,15.1c-0.2,0-0.4,0-0.5,0.1
			c-0.2-1.7-0.1-3.3,0.3-4.9c0.4-1.4,0.9-2.8,1.7-4.1c2.2-3.5,5.9-6,10.4-6.5C203.7,135.8,203.9,135.8,204.1,135.7L204.1,135.7z"/>
		<path class="st1" d="M254.1,116.6c-14.7,1.6-28.3,6.2-40.4,13c-3.3,1.9-6.5,3.9-9.5,6.1l0,0c0,0,0,0-0.1,0l0,0
			c3.5,1.5,7.1,2.8,10.8,3.9c13.3,4,27.6,5.5,42.2,3.9c18.7-2.1,35.7-8.9,50-19.1C290.9,117.5,272.8,114.5,254.1,116.6L254.1,116.6z
			"/>
		<path class="st2" d="M296.1,125.5c0.4,3.1-1.9,5.9-5,6.3s-5.9-1.9-6.3-5c-0.4-3.1,1.9-5.9,5-6.3
			C292.9,120.1,295.7,122.4,296.1,125.5z"/>
		<path d="M294.8,125.6c0.3,2.4-1.5,4.6-3.9,4.8s-4.6-1.5-4.8-3.9s1.5-4.6,3.9-4.8S294.5,123.2,294.8,125.6L294.8,125.6z"/>
	</g>
	<g>
		<path class="st1" d="M83.5,147.1L83.5,147.1L83.5,147.1c-0.2,0.1-0.3,0.1-0.5,0.2c-4.3,1.2-8.7,0.3-12.1-2.1
			c-1.2-0.9-2.2-1.9-3.1-3.1c-0.9-1.3-1.7-2.8-2.2-4.4c0.2-0.1,0.3-0.1,0.5-0.2c7.3-2.1,15,2.1,17.2,9.3
			C83.4,146.9,83.4,147,83.5,147.1L83.5,147.1z"/>
		<path class="st1" d="M83.5,147.1L83.5,147.1c0,0.1,0.1,0.2,0.1,0.4c1.9,7.3-2.4,14.9-9.8,16.9c-0.2,0.1-0.3,0.1-0.5,0.1
			c-0.5-1.6-0.6-3.3-0.5-4.9c0.1-1.5,0.5-2.9,1-4.3c1.6-3.8,4.8-6.9,9.2-8.2C83.1,147.2,83.3,147.1,83.5,147.1L83.5,147.1z"/>
		<path class="st1" d="M129.6,120c-14.2,4-26.9,10.8-37.7,19.5c-2.9,2.4-5.8,4.9-8.4,7.6l0,0c0,0,0,0,0,0l0,0
			c3.7,0.9,7.4,1.6,11.2,2.1c13.8,1.8,28.1,0.9,42.3-3.2c18.1-5.1,33.8-14.7,46.2-27.1C166.1,114.8,147.8,114.9,129.6,120L129.6,120
			z"/>
		<path class="st2" d="M172.5,121.9c0.9,3-0.9,6.2-3.9,7c-3,0.9-6.2-0.9-7-3.9s0.9-6.2,3.9-7S171.6,118.8,172.5,121.9z"/>
		<path d="M171.2,122.2c0.7,2.3-0.7,4.7-3,5.4c-2.3,0.7-4.7-0.7-5.4-3c-0.7-2.3,0.7-4.7,3-5.4C168.2,118.5,170.6,119.9,171.2,122.2
			L171.2,122.2z"/>
	</g>
	<g>
		<path class="st1" d="M358.1,163.4L358.1,163.4L358.1,163.4c0.2,0,0.4,0,0.5,0c4.5,0,8.5,2.1,11,5.4c0.9,1.1,1.6,2.4,2.1,3.8
			c0.6,1.5,0.9,3.1,0.9,4.9c-0.2,0-0.4,0-0.5,0c-7.6,0-13.8-6.1-14-13.7C358.1,163.6,358.1,163.5,358.1,163.4L358.1,163.4z"/>
		<path class="st1" d="M358.1,163.3L358.1,163.3c0-0.1,0-0.3,0-0.4c0.2-7.6,6.4-13.6,14.1-13.6c0.2,0,0.4,0,0.5,0
			c0,1.7-0.3,3.3-0.9,4.8c-0.5,1.4-1.2,2.7-2.2,3.9c-2.6,3.2-6.6,5.3-11,5.3C358.5,163.4,358.3,163.4,358.1,163.3z"/>
		<path class="st1" d="M306.3,176.7c14.8,0,28.8-2.9,41.6-8.4c3.5-1.5,6.9-3.1,10.2-5l0,0c0,0,0,0,0,0l0,0
			c-3.3-1.9-6.7-3.6-10.2-5.1c-12.7-5.5-26.8-8.5-41.5-8.6c-18.8-0.1-36.5,4.8-51.8,13.4C269.8,171.7,287.4,176.7,306.3,176.7
			L306.3,176.7z"/>
		<path class="st2" d="M265.5,163.1c0-3.1,2.6-5.7,5.7-5.7s5.7,2.6,5.7,5.7c0,3.1-2.6,5.7-5.7,5.7
			C268.1,168.8,265.5,166.3,265.5,163.1L265.5,163.1z"/>
		<path d="M266.9,163.2c0-2.4,2-4.4,4.4-4.4s4.4,2,4.4,4.4c0,2.4-2,4.4-4.4,4.4S266.9,165.6,266.9,163.2L266.9,163.2z"/>
	</g>
	<g>
		<path class="st1" d="M403.5,131.3L403.5,131.3L403.5,131.3c0.2,0.1,0.3,0.1,0.5,0.2c4.2,1.6,7.2,4.9,8.5,8.8
			c0.5,1.4,0.7,2.8,0.7,4.3c0,1.6-0.3,3.3-0.9,4.9c-0.2-0.1-0.3-0.1-0.5-0.2c-7.2-2.6-10.9-10.5-8.4-17.7
			C403.4,131.5,403.5,131.4,403.5,131.3L403.5,131.3z"/>
		<path class="st1" d="M403.5,131.2L403.5,131.2c0-0.1,0.1-0.2,0.1-0.4c2.8-7,10.7-10.6,17.9-7.9c0.2,0.1,0.3,0.1,0.5,0.2
			c-0.6,1.6-1.4,3-2.5,4.2c-1,1.1-2.1,2.1-3.4,2.9c-3.5,2.2-8,2.8-12.2,1.2C403.9,131.4,403.7,131.3,403.5,131.2L403.5,131.2z"/>
		<path class="st1" d="M350.2,126c13.8,5.1,28.1,7.1,41.9,6.4c3.8-0.2,7.5-0.6,11.3-1.2l0,0c0,0,0,0,0,0l0,0
			c-2.5-2.9-5.1-5.7-7.9-8.3c-10.1-9.5-22.2-17.2-36-22.3c-17.6-6.5-35.9-8-53.3-5.2C317.7,108.7,332.6,119.5,350.2,126L350.2,126z"
			/>
		<path class="st2" d="M316.7,99.2c1.1-2.9,4.4-4.5,7.3-3.4s4.5,4.4,3.4,7.3c-1.1,2.9-4.4,4.5-7.3,3.4S315.6,102.2,316.7,99.2z"/>
		<path d="M317.9,99.7c0.8-2.3,3.4-3.4,5.6-2.6c2.3,0.8,3.4,3.3,2.6,5.6c-0.8,2.3-3.4,3.4-5.6,2.6C318.3,104.5,317.1,102,317.9,99.7
			L317.9,99.7z"/>
	</g>
	<g>
		<path class="st1" d="M282.1,98L282.1,98L282.1,98c0.2,0,0.4,0,0.5,0c4.5,0,8.5,2.1,11,5.4c0.9,1.1,1.6,2.4,2.1,3.8
			c0.6,1.5,0.9,3.2,0.9,4.9c-0.2,0-0.4,0-0.5,0c-7.6,0-13.8-6.1-14-13.7C282.1,98.3,282.1,98.2,282.1,98L282.1,98z"/>
		<path class="st1" d="M282.1,98L282.1,98c0-0.1,0-0.3,0-0.4c0.2-7.6,6.4-13.6,14.1-13.6c0.2,0,0.4,0,0.5,0c0,1.7-0.3,3.3-0.9,4.8
			c-0.5,1.4-1.2,2.7-2.2,3.8c-2.6,3.2-6.6,5.3-11,5.3C282.4,98,282.3,98,282.1,98z"/>
		<path class="st1" d="M230.2,111.4c14.8,0,28.8-2.9,41.6-8.4c3.5-1.5,6.9-3.1,10.2-5l0,0c0,0,0,0,0,0l0,0
			c-3.3-1.9-6.7-3.6-10.2-5.1c-12.7-5.5-26.8-8.5-41.5-8.6c-18.8-0.1-36.5,4.8-51.8,13.4C193.8,106.4,211.4,111.3,230.2,111.4
			L230.2,111.4z"/>
		<path class="st2" d="M189.5,97.8c0-3.1,2.6-5.7,5.7-5.7s5.7,2.6,5.7,5.7c0,3.1-2.6,5.7-5.7,5.7S189.5,101,189.5,97.8L189.5,97.8z"
			/>
		<path d="M190.9,97.8c0-2.4,2-4.4,4.4-4.4s4.4,2,4.4,4.4c0,2.4-2,4.4-4.4,4.4S190.9,100.2,190.9,97.8L190.9,97.8z"/>
	</g>
	<g>
		<path class="st1" d="M155.1,240.4L155.1,240.4L155.1,240.4c-0.1-0.1-0.3-0.2-0.5-0.3c-4-2.1-8.5-2.1-12.2-0.4
			c-1.3,0.6-2.6,1.4-3.7,2.4c-1.2,1.1-2.2,2.4-3,3.9c0.1,0.1,0.3,0.2,0.5,0.3c6.8,3.6,15.1,1.1,18.8-5.6
			C155,240.5,155,240.4,155.1,240.4L155.1,240.4z"/>
		<path class="st1" d="M155.1,240.3L155.1,240.3c0.1-0.1,0.1-0.2,0.2-0.3c3.4-6.8,0.7-15.1-6-18.6c-0.1-0.1-0.3-0.2-0.5-0.2
			c-0.8,1.5-1.3,3.1-1.5,4.6c-0.2,1.5-0.2,3,0.1,4.4c0.8,4.1,3.3,7.8,7.3,9.9C154.8,240.2,154.9,240.2,155.1,240.3L155.1,240.3z"/>
		<path class="st1" d="M194.6,276.4c-13.1-6.9-24.1-16.1-32.8-26.9c-2.4-2.9-4.6-6-6.6-9.2l0,0c0,0,0,0,0-0.1l0,0
			c3.8-0.1,7.6,0,11.4,0.3c13.8,1.1,27.6,5,40.7,11.9c16.6,8.8,30,21.4,39.5,36.1C229.2,289.1,211.3,285.2,194.6,276.4L194.6,276.4z
			"/>
		<path class="st2" d="M236.9,283.5c1.5-2.8,0.4-6.2-2.4-7.7c-2.8-1.5-6.2-0.4-7.7,2.4s-0.4,6.2,2.4,7.7
			C232,287.4,235.5,286.3,236.9,283.5L236.9,283.5z"/>
		<path d="M235.8,282.9c1.1-2.1,0.3-4.8-1.8-5.9s-4.8-0.3-5.9,1.8s-0.3,4.8,1.8,5.9C232,285.9,234.6,285,235.8,282.9L235.8,282.9z"
			/>
	</g>
	<g>
		<path class="st1" d="M74.9,226.1L74.9,226.1L74.9,226.1c-0.2,0-0.3,0.1-0.5,0.1c-4.3,1.3-7.5,4.5-8.9,8.4
			c-0.5,1.4-0.8,2.8-0.9,4.3c-0.1,1.6,0.1,3.3,0.6,4.9c0.2-0.1,0.3-0.1,0.5-0.1c7.3-2.3,11.4-9.9,9.3-17.2
			C75,226.3,75,226.2,74.9,226.1L74.9,226.1z"/>
		<path class="st1" d="M74.9,226.1L74.9,226.1c0-0.1-0.1-0.2-0.1-0.4c-2.4-7.2-10.2-11.1-17.4-8.9c-0.2,0.1-0.3,0.1-0.5,0.2
			c0.5,1.6,1.3,3.1,2.2,4.3c0.9,1.2,2,2.2,3.2,3.1c3.4,2.4,7.8,3.2,12.1,1.9C74.6,226.2,74.8,226.1,74.9,226.1L74.9,226.1z"/>
		<path class="st1" d="M128.4,223.6c-14.1,4.4-28.4,5.6-42.2,4.2c-3.8-0.4-7.5-1-11.2-1.8l0,0c0,0,0,0-0.1,0l0,0
			c2.6-2.8,5.4-5.4,8.3-7.9c10.6-9,23.1-16,37.2-20.4c18-5.6,36.3-6.1,53.5-2.4C161.8,208.2,146.4,218.1,128.4,223.6L128.4,223.6z"
			/>
		<path class="st2" d="M163.3,198.7c-0.9-3-4.1-4.7-7.1-3.8s-4.7,4.1-3.8,7.1s4.1,4.7,7.1,3.8S164.3,201.7,163.3,198.7L163.3,198.7z
			"/>
		<path d="M162.1,199.1c-0.7-2.3-3.2-3.6-5.5-2.9s-3.6,3.2-2.9,5.5s3.2,3.6,5.5,2.9C161.5,203.9,162.8,201.4,162.1,199.1
			L162.1,199.1z"/>
	</g>
	<g>
		<path class="st1" d="M151,165.2L151,165.2L151,165.2c0.2-0.1,0.3-0.1,0.5-0.1c4.3-1.1,8.7-0.1,12,2.4c1.2,0.9,2.2,1.9,3,3.1
			c0.9,1.3,1.6,2.8,2.1,4.5c-0.2,0.1-0.3,0.1-0.5,0.1c-7.4,1.9-14.9-2.4-17-9.7C151.1,165.4,151,165.3,151,165.2L151,165.2z"/>
		<path class="st1" d="M151,165.2L151,165.2c0-0.1-0.1-0.2-0.1-0.4c-1.7-7.4,2.8-14.8,10.1-16.7c0.2,0,0.3-0.1,0.5-0.1
			c0.4,1.6,0.5,3.3,0.4,4.9c-0.1,1.5-0.5,2.9-1.1,4.3c-1.7,3.8-5,6.8-9.3,8C151.3,165.1,151.2,165.1,151,165.2L151,165.2z"/>
		<path class="st1" d="M104.2,191.3c14.3-3.7,27.1-10.2,38.1-18.7c3-2.3,5.9-4.8,8.6-7.4l0,0c0,0,0,0,0,0l0,0
			c-3.7-1-7.4-1.8-11.2-2.3c-13.7-2.1-28.1-1.4-42.3,2.3c-18.2,4.7-34.1,13.9-46.7,26.1C67.7,195.7,86,196,104.2,191.3L104.2,191.3z
			"/>
		<path class="st2" d="M61.4,188.5c-0.8-3,1-6.1,4.1-6.9s6.2,1,6.9,4.1c0.8,3-1,6.1-4.1,6.9S62.2,191.6,61.4,188.5L61.4,188.5z"/>
		<path d="M62.7,188.2c-0.6-2.3,0.8-4.7,3.1-5.3c2.3-0.6,4.7,0.8,5.3,3.1c0.6,2.3-0.8,4.7-3.1,5.3S63.3,190.5,62.7,188.2z"/>
	</g>
	<g>
		<path class="st1" d="M368.7,242.1L368.7,242.1L368.7,242.1c0.2,0,0.3,0.1,0.5,0.1c4.3,1.1,7.7,4.2,9.3,8c0.6,1.3,1,2.8,1.1,4.2
			c0.2,1.6,0,3.3-0.4,4.9c-0.2,0-0.4-0.1-0.5-0.1c-7.4-1.9-11.9-9.4-10.1-16.8C368.6,242.4,368.6,242.3,368.7,242.1L368.7,242.1z"/>
		<path class="st1" d="M368.7,242.1L368.7,242.1c0-0.1,0.1-0.2,0.1-0.4c2.1-7.3,9.6-11.6,17-9.7c0.2,0,0.3,0.1,0.5,0.1
			c-0.4,1.6-1.1,3.1-2,4.4c-0.9,1.2-1.9,2.3-3.1,3.2c-3.3,2.5-7.7,3.5-12,2.4C369,242.2,368.9,242.2,368.7,242.1L368.7,242.1z"/>
		<path class="st1" d="M315.1,242.1c14.3,3.7,28.6,4.4,42.4,2.3c3.8-0.6,7.5-1.3,11.1-2.3l0,0c0,0,0,0,0,0l0,0
			c-2.7-2.6-5.6-5.1-8.6-7.5c-11-8.5-23.8-14.9-38-18.7c-18.2-4.8-36.5-4.5-53.5,0C281.1,228.2,296.9,237.4,315.1,242.1L315.1,242.1
			z"/>
		<path class="st2" d="M279.1,218.8c0.8-3,3.9-4.9,7-4.1c3,0.8,4.9,3.9,4.1,6.9c-0.8,3-3.9,4.9-6.9,4.1S278.3,221.9,279.1,218.8
			L279.1,218.8z"/>
		<path d="M280.4,219.1c0.6-2.3,3-3.7,5.3-3.1s3.7,3,3.1,5.3c-0.6,2.3-3,3.7-5.3,3.1C281.2,223.9,279.8,221.5,280.4,219.1
			L280.4,219.1z"/>
	</g>
	<g>
		<path class="st1" d="M409.5,213.1L409.5,213.1L409.5,213.1c0.2,0,0.3,0.1,0.5,0.1c4.3,1.1,7.7,4.2,9.3,8c0.6,1.3,1,2.8,1.1,4.2
			c0.2,1.6,0,3.3-0.4,4.9c-0.2,0-0.4-0.1-0.5-0.1c-7.4-1.9-11.9-9.4-10.1-16.8C409.5,213.3,409.5,213.2,409.5,213.1L409.5,213.1z"/>
		<path class="st1" d="M409.5,213L409.5,213c0-0.1,0.1-0.2,0.1-0.4c2.1-7.3,9.6-11.6,17-9.7c0.2,0,0.3,0.1,0.5,0.1
			c-0.4,1.6-1.1,3.1-2,4.4c-0.9,1.2-1.9,2.3-3.1,3.2c-3.3,2.5-7.7,3.5-12,2.4C409.9,213.1,409.7,213.1,409.5,213L409.5,213z"/>
		<path class="st1" d="M356,213c14.3,3.7,28.6,4.4,42.4,2.3c3.8-0.6,7.5-1.3,11.1-2.3l0,0c0,0,0,0,0,0l0,0c-2.7-2.6-5.6-5.1-8.6-7.5
			c-11-8.5-23.8-14.9-38-18.7c-18.2-4.8-36.5-4.5-53.5,0C321.9,199.1,337.8,208.3,356,213L356,213z"/>
		<path class="st2" d="M320,189.7c0.8-3,3.9-4.9,7-4.1c3,0.8,4.9,3.9,4.1,6.9c-0.8,3-3.9,4.9-6.9,4.1S319.2,192.8,320,189.7
			L320,189.7z"/>
		<path d="M321.2,190.1c0.6-2.3,3-3.7,5.3-3.1s3.7,3,3.1,5.3c-0.6,2.3-3,3.7-5.3,3.1S320.6,192.4,321.2,190.1L321.2,190.1z"/>
	</g>
	<g>
		<path class="st3" d="M437,284.5c-46.2,29.9-111,48.5-182.9,48.5s-136.6-18.6-182.9-48.5H437z"/>
		<path class="st3" d="M254.1,333.5c-69.7,0-134.7-17.2-183.1-48.6l-1.4-0.9h369.1l-1.4,0.9C388.9,316.3,323.8,333.5,254.1,333.5
			L254.1,333.5z M73,285c48.1,30.6,112.3,47.5,181.2,47.5s133.1-16.9,181.1-47.5C435.3,285,73,285,73,285z"/>
	</g>
</g>
<g>
	<polygon class="st2" points="417.1,395.5 82.9,395.5 114.3,332.4 385.7,332.4 	"/>
	<path d="M417.1,397H82.9c-0.5,0-1-0.3-1.3-0.7s-0.3-1-0.1-1.5l31.4-63.2c0.2-0.5,0.8-0.8,1.3-0.8h271.4c0.6,0,1.1,0.3,1.3,0.8
		l31.4,63.2c0.2,0.5,0.2,1-0.1,1.5S417.6,397,417.1,397L417.1,397z M85.3,394h329.4l-29.9-60.2H115.2L85.3,394L85.3,394z"/>
</g>
<g class="st4">
	<path d="M180,381.4h8.4v-29.8c0-0.6,0-1.2,0.1-1.9l-8.1,7.2c-0.2,0.2-0.4,0.2-0.6,0.2c-0.3,0-0.5-0.1-0.7-0.3l-0.8-1l10.6-9.4h1.9
		v35h8v1.9H180V381.4z"/>
	<path d="M227.1,347.6c0,0.3-0.1,0.6-0.4,0.9s-0.6,0.3-1.1,0.3h-13.3l-2.2,12.2c1.2-0.3,2.3-0.5,3.3-0.6s2-0.2,3-0.2
		c1.9,0,3.6,0.3,5,0.8s2.7,1.3,3.6,2.3c1,1,1.7,2.1,2.2,3.5c0.5,1.3,0.8,2.8,0.8,4.4c0,1.9-0.3,3.7-1,5.2c-0.7,1.5-1.6,2.8-2.7,3.9
		c-1.2,1.1-2.5,1.9-4,2.5c-1.5,0.6-3.2,0.9-4.9,0.9c-1,0-2-0.1-2.9-0.3s-1.8-0.4-2.6-0.7c-0.8-0.3-1.6-0.7-2.2-1
		c-0.7-0.4-1.3-0.8-1.8-1.2l0.7-1c0.2-0.3,0.4-0.4,0.8-0.4c0.2,0,0.5,0.1,1,0.4c0.4,0.3,1,0.5,1.6,0.9c0.7,0.3,1.5,0.6,2.4,0.9
		c0.9,0.3,2,0.4,3.2,0.4c1.4,0,2.7-0.2,4-0.7c1.2-0.5,2.3-1.1,3.2-2s1.6-1.9,2.1-3.2c0.5-1.3,0.8-2.7,0.8-4.3c0-1.3-0.2-2.5-0.6-3.6
		s-1-2.1-1.8-2.8c-0.8-0.8-1.8-1.4-3-1.8c-1.2-0.4-2.6-0.7-4.2-0.7c-1,0-2,0.1-3.1,0.2c-1.1,0.2-2.3,0.4-3.5,0.8l-1.6-0.5l2.9-16.3
		h16.5V347.6z"/>
	<path d="M244.6,384.4c-0.1,0.3-0.3,0.6-0.6,0.8c-0.3,0.2-0.6,0.2-0.9,0.2h-1l16.1-39c0.3-0.6,0.7-1,1.4-1h1.1L244.6,384.4z"/>
	<path d="M278.7,381.4h8.4v-29.8c0-0.6,0-1.2,0.1-1.9l-8.1,7.2c-0.2,0.2-0.4,0.2-0.6,0.2c-0.3,0-0.5-0.1-0.7-0.3l-0.8-1l10.6-9.4
		h1.9v35h8v1.9h-18.9V381.4z"/>
	<path d="M325.8,347.6c0,0.3-0.1,0.6-0.4,0.9s-0.6,0.3-1.1,0.3h-13.3l-2.2,12.2c1.2-0.3,2.3-0.5,3.3-0.6c1-0.1,2-0.2,3-0.2
		c1.9,0,3.6,0.3,5,0.8c1.5,0.5,2.7,1.3,3.6,2.3c1,1,1.7,2.1,2.2,3.5s0.8,2.8,0.8,4.4c0,1.9-0.3,3.7-1,5.2c-0.7,1.5-1.6,2.8-2.7,3.9
		s-2.5,1.9-4,2.5c-1.5,0.6-3.2,0.9-4.9,0.9c-1,0-2-0.1-2.9-0.3c-0.9-0.2-1.8-0.4-2.6-0.7c-0.8-0.3-1.6-0.7-2.2-1
		c-0.7-0.4-1.3-0.8-1.8-1.2l0.7-1c0.2-0.3,0.4-0.4,0.8-0.4c0.2,0,0.5,0.1,1,0.4c0.4,0.3,1,0.5,1.6,0.9c0.7,0.3,1.5,0.6,2.4,0.9
		c0.9,0.3,2,0.4,3.2,0.4c1.4,0,2.7-0.2,4-0.7c1.2-0.5,2.3-1.1,3.2-2c0.9-0.9,1.6-1.9,2.1-3.2c0.5-1.3,0.8-2.7,0.8-4.3
		c0-1.3-0.2-2.5-0.6-3.6c-0.4-1.1-1-2.1-1.8-2.8c-0.8-0.8-1.8-1.4-3-1.8c-1.2-0.4-2.6-0.7-4.2-0.7c-1,0-2,0.1-3.1,0.2
		c-1.1,0.2-2.3,0.4-3.5,0.8l-1.6-0.5l2.9-16.3h16.5V347.6z"/>
</g>
<g id="k">
</g>
</svg>
