<?xml version="1.0" encoding="utf-8"?>
<!-- Generator: Adobe Illustrator 26.2.1, SVG Export Plug-In . SVG Version: 6.00 Build 0)  -->
<svg version="1.1" id="Livello_1" xmlns="http://www.w3.org/2000/svg" xmlns:xlink="http://www.w3.org/1999/xlink" x="0px" y="0px"
	 viewBox="0 0 500 500" style="enable-background:new 0 0 500 500;" xml:space="preserve">
<style type="text/css">
	.st0{fill:#C6C5C5;}
	.st1{fill:#FFFFFF;}
	.st2{enable-background:new    ;}
	.st3{fill:#2A6EB5;}
	.st4{fill:#FBD213;}
</style>
<g id="a">
	<g id="b">
	</g>
	<g id="c">
	</g>
	<g id="d">
	</g>
	<g id="e">
	</g>
	<g id="f">
	</g>
	<g id="g">
	</g>
</g>
<g id="h">
</g>
<g id="i">
</g>
<path class="st0" d="M250,381.9c-101,0-182.9,6.1-182.9,13.6S149,409.2,250,409.2s182.9-6.1,182.9-13.6S351,381.9,250,381.9"/>
<g>
	<polygon class="st1" points="417.1,395.5 82.9,395.5 114.3,332.4 385.7,332.4 	"/>
	<path d="M417.1,397H82.9c-0.5,0-1-0.3-1.3-0.7s-0.3-1-0.1-1.5l31.4-63.2c0.2-0.5,0.8-0.8,1.3-0.8h271.4c0.6,0,1.1,0.3,1.3,0.8
		l31.4,63.2c0.2,0.5,0.2,1-0.1,1.5C418.1,396.8,417.6,397,417.1,397L417.1,397z M85.3,394h329.4l-29.9-60.2H115.2L85.3,394L85.3,394
		z"/>
</g>
<g class="st2">
	<path d="M203.3,361.3c1.6,0,3,0.3,4.4,0.8c1.3,0.5,2.5,1.2,3.4,2.2c1,0.9,1.7,2.1,2.3,3.4c0.5,1.3,0.8,2.8,0.8,4.5
		s-0.3,3.2-0.9,4.6s-1.4,2.6-2.5,3.6s-2.3,1.8-3.8,2.4c-1.5,0.6-3.1,0.9-4.9,0.9c-1.7,0-3.3-0.3-4.7-0.8c-1.4-0.6-2.6-1.3-3.6-2.4
		c-1-1-1.8-2.3-2.3-3.8c-0.6-1.5-0.8-3.2-0.8-5.1c0-1.4,0.4-3.1,1.1-4.9c0.7-1.8,1.9-3.8,3.6-6.1l10-13.5c0.3-0.4,0.7-0.6,1.3-0.6
		h2.2l-10.9,14.3c-0.5,0.7-1,1.4-1.5,2c-0.5,0.6-0.9,1.2-1.2,1.8c1-1.1,2.2-1.9,3.6-2.5C200.1,361.6,201.7,361.3,203.3,361.3z
		 M193,372.2c0,1.4,0.2,2.6,0.6,3.8c0.4,1.2,1,2.2,1.8,3c0.8,0.8,1.7,1.5,2.9,2s2.4,0.7,3.8,0.7c1.5,0,2.8-0.2,4-0.7s2.2-1.1,3-1.9
		c0.8-0.8,1.5-1.8,1.9-2.9c0.4-1.1,0.7-2.4,0.7-3.7c0-1.4-0.2-2.7-0.7-3.8c-0.4-1.1-1.1-2.1-1.9-2.9c-0.8-0.8-1.8-1.4-2.9-1.8
		c-1.1-0.4-2.3-0.6-3.7-0.6c-1.5,0-2.9,0.3-4.1,0.8c-1.2,0.5-2.2,1.2-3,2c-0.8,0.8-1.5,1.8-1.9,2.9C193.2,370,193,371.1,193,372.2z"
		/>
	<path d="M229.5,384.4c-0.1,0.3-0.3,0.6-0.6,0.8c-0.3,0.2-0.6,0.2-0.9,0.2h-1l16.1-39c0.3-0.6,0.7-1,1.4-1h1.1L229.5,384.4z"/>
	<path d="M263.7,381.4h8.4v-29.8c0-0.6,0-1.2,0.1-1.9l-8.1,7.2c-0.2,0.2-0.4,0.2-0.6,0.2c-0.3,0-0.5-0.1-0.7-0.3l-0.8-1l10.6-9.4
		h1.9v35h8v1.9h-18.9V381.4z"/>
	<path d="M310.8,347.6c0,0.3-0.1,0.6-0.4,0.9s-0.6,0.3-1.1,0.3h-13.3l-2.2,12.2c1.2-0.3,2.3-0.5,3.3-0.6c1-0.1,2-0.2,3-0.2
		c1.9,0,3.6,0.3,5,0.8c1.5,0.5,2.7,1.3,3.6,2.3c1,1,1.7,2.1,2.2,3.5c0.5,1.3,0.8,2.8,0.8,4.4c0,1.9-0.3,3.7-1,5.2
		c-0.7,1.5-1.6,2.8-2.7,3.9c-1.2,1.1-2.5,1.9-4,2.5c-1.5,0.6-3.2,0.9-4.9,0.9c-1,0-2-0.1-2.9-0.3c-0.9-0.2-1.8-0.4-2.6-0.7
		c-0.8-0.3-1.6-0.7-2.2-1c-0.7-0.4-1.3-0.8-1.8-1.2l0.7-1c0.2-0.3,0.4-0.4,0.8-0.4c0.2,0,0.5,0.1,1,0.4c0.4,0.3,1,0.5,1.6,0.9
		c0.7,0.3,1.5,0.6,2.4,0.9c0.9,0.3,2,0.4,3.2,0.4c1.4,0,2.7-0.2,4-0.7s2.3-1.1,3.2-2c0.9-0.9,1.6-1.9,2.1-3.2
		c0.5-1.3,0.8-2.7,0.8-4.3c0-1.3-0.2-2.5-0.6-3.6c-0.4-1.1-1-2.1-1.8-2.8c-0.8-0.8-1.8-1.4-3-1.8c-1.2-0.4-2.6-0.7-4.2-0.7
		c-1,0-2,0.1-3.1,0.2c-1.1,0.2-2.3,0.4-3.5,0.8l-1.6-0.5l2.9-16.3h16.5V347.6z"/>
</g>
<g>
	<path class="st3" d="M381.8,222.8L381.8,222.8L381.8,222.8c0.2,0,0.3,0.1,0.5,0.1c4.3,1.1,7.7,4.1,9.3,7.9c0.6,1.3,1,2.8,1.1,4.2
		c0.2,1.6,0,3.3-0.4,4.9c-0.2,0-0.4-0.1-0.5-0.1c-7.4-1.9-11.9-9.4-10.1-16.8C381.7,223,381.8,222.9,381.8,222.8L381.8,222.8z"/>
	<path class="st3" d="M381.8,222.8L381.8,222.8c0-0.1,0.1-0.2,0.1-0.4c2.1-7.3,9.6-11.6,17-9.7c0.2,0,0.3,0.1,0.5,0.1
		c-0.4,1.6-1.1,3.1-2,4.4c-0.8,1.2-1.9,2.3-3.1,3.2c-3.3,2.5-7.7,3.5-12,2.4C382.1,222.9,382,222.8,381.8,222.8z"/>
	<path class="st3" d="M328.3,222.9c14.3,3.7,28.6,4.3,42.4,2.2c3.8-0.6,7.4-1.3,11.1-2.3l0,0c0,0,0,0,0,0l0,0
		c-2.7-2.6-5.6-5.1-8.7-7.5c-11-8.5-23.8-14.9-38.1-18.6c-18.2-4.7-36.5-4.4-53.5,0.1C294.2,209,310,218.1,328.3,222.9L328.3,222.9z
		"/>
	<path class="st1" d="M292.2,199.6c0.8-3,3.9-4.9,6.9-4.1s4.9,3.9,4.1,6.9s-3.9,4.9-6.9,4.1S291.4,202.7,292.2,199.6L292.2,199.6z"
		/>
	<path d="M293.5,199.9c0.6-2.3,3-3.7,5.3-3.1s3.7,3,3.1,5.3s-3,3.7-5.3,3.1S292.9,202.3,293.5,199.9L293.5,199.9z"/>
</g>
<g>
	<path class="st3" d="M326.5,241L326.5,241L326.5,241c0.2,0.1,0.3,0.1,0.5,0.2c4.1,1.9,6.8,5.4,7.8,9.5c0.4,1.4,0.5,2.9,0.4,4.4
		c-0.1,1.6-0.5,3.2-1.2,4.8c-0.2-0.1-0.3-0.1-0.5-0.2c-6.9-3.2-10-11.3-7.1-18.3C326.4,241.2,326.5,241.1,326.5,241L326.5,241z"/>
	<path class="st3" d="M326.5,241L326.5,241c0.1-0.1,0.1-0.2,0.2-0.3c3.3-6.8,11.5-9.7,18.4-6.6c0.2,0.1,0.3,0.1,0.5,0.2
		c-0.7,1.5-1.6,2.9-2.8,4c-1,1.1-2.3,1.9-3.6,2.6c-3.7,1.9-8.2,2.1-12.3,0.3C326.8,241.2,326.7,241.1,326.5,241L326.5,241z"/>
	<path class="st3" d="M273.8,231.7c13.4,6.1,27.5,9.2,41.3,9.6c3.8,0.1,7.6,0,11.3-0.3l0,0c0,0,0,0,0,0l0,0c-2.2-3.1-4.6-6-7.2-8.9
		c-9.3-10.3-20.8-18.9-34.2-25c-17.1-7.8-35.2-10.7-52.7-9.3C242.7,212.1,256.7,223.9,273.8,231.7L273.8,231.7z"/>
	<path class="st1" d="M242.4,202.5c1.3-2.9,4.7-4.1,7.6-2.8c2.9,1.3,4.1,4.7,2.8,7.5c-1.3,2.9-4.7,4.1-7.5,2.8
		S241.1,205.4,242.4,202.5L242.4,202.5z"/>
	<path d="M243.6,203.1c1-2.2,3.6-3.2,5.8-2.2c2.2,1,3.2,3.6,2.1,5.8c-1,2.2-3.6,3.2-5.8,2.1C243.5,207.9,242.6,205.3,243.6,203.1z"
		/>
</g>
<g>
	<path class="st3" d="M188.6,238.7L188.6,238.7L188.6,238.7c0.2,0.1,0.3,0.1,0.5,0.2c4.1,1.9,6.8,5.4,7.8,9.5
		c0.4,1.4,0.5,2.9,0.4,4.4c-0.1,1.6-0.5,3.2-1.2,4.8c-0.2-0.1-0.3-0.1-0.5-0.2c-6.9-3.2-10.1-11.3-7.1-18.3
		C188.6,238.9,188.6,238.8,188.6,238.7L188.6,238.7z"/>
	<path class="st3" d="M188.7,238.6L188.7,238.6c0.1-0.1,0.1-0.2,0.2-0.3c3.3-6.8,11.5-9.7,18.4-6.6c0.2,0.1,0.3,0.1,0.5,0.2
		c-0.7,1.5-1.6,2.9-2.8,4c-1.1,1.1-2.3,1.9-3.6,2.6c-3.7,1.9-8.2,2.1-12.3,0.3C189,238.8,188.8,238.7,188.7,238.6L188.7,238.6z"/>
	<path class="st3" d="M135.9,229.3c13.4,6.1,27.4,9.2,41.3,9.6c3.8,0.1,7.6,0,11.3-0.3l0,0c0,0,0,0,0.1,0l0,0
		c-2.2-3.1-4.6-6-7.2-8.9c-9.3-10.3-20.8-18.9-34.2-25c-17.1-7.8-35.2-10.7-52.7-9.3C104.8,209.7,118.8,221.5,135.9,229.3
		L135.9,229.3z"/>
	<path class="st1" d="M104.5,200.1c1.3-2.9,4.7-4.1,7.6-2.8c2.9,1.3,4.1,4.7,2.8,7.5c-1.3,2.9-4.7,4.1-7.5,2.8
		S103.2,203,104.5,200.1L104.5,200.1z"/>
	<path d="M105.7,200.7c1-2.2,3.6-3.2,5.8-2.2c2.2,1,3.2,3.6,2.2,5.8s-3.6,3.2-5.8,2.1C105.7,205.5,104.7,202.9,105.7,200.7z"/>
</g>
<g>
	<path class="st3" d="M190,160.1L190,160.1L190,160.1c-0.2,0-0.3-0.1-0.5-0.1c-4.3-1.1-7.7-4.1-9.3-7.9c-0.6-1.3-1-2.8-1.1-4.2
		c-0.2-1.6-0.1-3.3,0.4-4.9c0.2,0,0.4,0.1,0.5,0.1c7.4,1.9,11.9,9.4,10.1,16.8C190.1,159.9,190.1,160,190,160.1L190,160.1z"/>
	<path class="st3" d="M190,160.2L190,160.2c0,0.1-0.1,0.2-0.1,0.4c-2.1,7.3-9.6,11.6-17,9.7c-0.2,0-0.3-0.1-0.5-0.1
		c0.4-1.6,1.1-3.1,2-4.4c0.8-1.2,1.9-2.3,3.1-3.2c3.3-2.5,7.7-3.5,12-2.4C189.7,160.1,189.9,160.1,190,160.2z"/>
	<path class="st3" d="M243.6,160.1c-14.3-3.7-28.6-4.3-42.4-2.2c-3.8,0.6-7.4,1.3-11.1,2.3l0,0c0,0,0,0-0.1,0l0,0
		c2.7,2.6,5.6,5.1,8.7,7.5c11,8.5,23.8,14.9,38.1,18.6c18.2,4.7,36.5,4.4,53.5-0.1C277.7,174,261.8,164.8,243.6,160.1L243.6,160.1z"
		/>
	<path class="st1" d="M279.6,183.3c-0.8,3-3.9,4.9-6.9,4.1s-4.9-3.9-4.1-6.9c0.8-3,3.9-4.9,6.9-4.1S280.4,180.3,279.6,183.3
		L279.6,183.3z"/>
	<path d="M278.4,183c-0.6,2.3-3,3.7-5.3,3.1c-2.3-0.6-3.7-3-3.1-5.3s3-3.7,5.3-3.1S279,180.7,278.4,183L278.4,183z"/>
</g>
<g>
	<path class="st3" d="M155.1,182.1L155.1,182.1L155.1,182.1c-0.1-0.1-0.3-0.2-0.5-0.3c-4-2.1-8.5-2.1-12.2-0.4
		c-1.3,0.6-2.6,1.4-3.7,2.4c-1.2,1.1-2.2,2.4-3,3.9c0.1,0.1,0.3,0.2,0.5,0.3c6.8,3.6,15.1,1.1,18.8-5.6
		C155,182.3,155,182.2,155.1,182.1L155.1,182.1z"/>
	<path class="st3" d="M155.1,182.1L155.1,182.1c0.1-0.1,0.1-0.2,0.2-0.3c3.4-6.8,0.7-15.1-6-18.6c-0.1-0.1-0.3-0.2-0.5-0.2
		c-0.8,1.5-1.3,3.1-1.5,4.6c-0.2,1.5-0.2,3,0.1,4.4c0.8,4.1,3.3,7.8,7.3,9.9C154.8,181.9,154.9,182,155.1,182.1L155.1,182.1z"/>
	<path class="st3" d="M194.6,218.2c-13.1-6.9-24.1-16.1-32.8-26.9c-2.4-2.9-4.6-6-6.6-9.2l0,0c0,0,0,0,0-0.1l0,0
		c3.8-0.1,7.6,0,11.4,0.3c13.8,1.1,27.6,5,40.7,11.9c16.6,8.8,30,21.4,39.5,36.1C229.2,230.9,211.3,227,194.6,218.2L194.6,218.2z"/>
	<path class="st1" d="M236.9,225.3c1.5-2.8,0.4-6.2-2.4-7.7s-6.2-0.4-7.7,2.4s-0.4,6.2,2.4,7.7C232,229.1,235.5,228.1,236.9,225.3
		L236.9,225.3z"/>
	<path d="M235.8,224.7c1.1-2.1,0.3-4.8-1.8-5.9s-4.8-0.3-5.9,1.8s-0.3,4.8,1.8,5.9C232,227.6,234.6,226.8,235.8,224.7L235.8,224.7z"
		/>
</g>
<g>
	<path class="st3" d="M368.7,183.9L368.7,183.9L368.7,183.9c0.2,0,0.3,0.1,0.5,0.1c4.3,1.1,7.7,4.2,9.3,8c0.6,1.3,1,2.8,1.1,4.2
		c0.2,1.6,0,3.3-0.4,4.9c-0.2,0-0.4-0.1-0.5-0.1c-7.4-1.9-11.9-9.4-10.1-16.8C368.6,184.1,368.6,184,368.7,183.9L368.7,183.9z"/>
	<path class="st3" d="M368.7,183.9L368.7,183.9c0-0.1,0.1-0.2,0.1-0.4c2.1-7.3,9.6-11.6,17-9.7c0.2,0,0.3,0.1,0.5,0.1
		c-0.4,1.6-1.1,3.1-2,4.4c-0.9,1.2-1.9,2.3-3.1,3.2c-3.3,2.5-7.7,3.5-12,2.4C369,184,368.9,183.9,368.7,183.9L368.7,183.9z"/>
	<path class="st3" d="M315.1,183.9c14.3,3.7,28.6,4.4,42.4,2.3c3.8-0.6,7.5-1.3,11.1-2.3l0,0c0,0,0,0,0,0l0,0
		c-2.7-2.6-5.6-5.1-8.6-7.5c-11-8.5-23.8-14.9-38-18.7c-18.2-4.8-36.5-4.5-53.5,0C281.1,169.9,296.9,179.1,315.1,183.9L315.1,183.9z
		"/>
	<path class="st1" d="M279.1,160.6c0.8-3,3.9-4.9,7-4.1c3,0.8,4.9,3.9,4.1,6.9c-0.8,3-3.9,4.9-6.9,4.1S278.3,163.6,279.1,160.6
		L279.1,160.6z"/>
	<path d="M280.4,160.9c0.6-2.3,3-3.7,5.3-3.1s3.7,3,3.1,5.3c-0.6,2.3-3,3.7-5.3,3.1S279.8,163.2,280.4,160.9L280.4,160.9z"/>
</g>
<g>
	<path class="st4" d="M437,226.3c-46.2,29.9-111,48.5-182.9,48.5s-136.6-18.6-182.9-48.5H437z"/>
	<path class="st4" d="M254.1,275.3c-69.7,0-134.7-17.2-183.1-48.6l-1.4-0.9h369.1l-1.4,0.9C388.9,258,323.8,275.3,254.1,275.3
		L254.1,275.3z M73,226.8c48.1,30.6,112.3,47.5,181.2,47.5s133.1-16.9,181.1-47.5C435.3,226.8,73,226.8,73,226.8z"/>
</g>
<g id="k">
</g>
</svg>
