<?xml version="1.0" encoding="utf-8"?>
<!-- Generator: Adobe Illustrator 26.2.1, SVG Export Plug-In . SVG Version: 6.00 Build 0)  -->
<svg version="1.1" id="Livello_1" xmlns="http://www.w3.org/2000/svg" xmlns:xlink="http://www.w3.org/1999/xlink" x="0px" y="0px"
	 viewBox="0 0 500 500" style="enable-background:new 0 0 500 500;" xml:space="preserve">
<style type="text/css">
	.st0{fill:#C6C5C5;}
	.st1{fill:#FFFFFF;}
	.st2{enable-background:new    ;}
	.st3{fill:#2A6EB5;}
	.st4{fill:#FBD213;}
</style>
<g id="a">
	<g id="b">
	</g>
	<g id="c">
	</g>
	<g id="d">
	</g>
	<g id="e">
	</g>
	<g id="f">
	</g>
	<g id="g">
	</g>
</g>
<g id="h">
</g>
<g id="i">
</g>
<path class="st0" d="M250,381.9c-101,0-182.9,6.1-182.9,13.6S149,409.2,250,409.2s182.9-6.1,182.9-13.6S351,381.9,250,381.9"/>
<g>
	<polygon class="st1" points="417.1,395.5 82.9,395.5 114.3,332.4 385.7,332.4 	"/>
	<path d="M417.1,397H82.9c-0.5,0-1-0.3-1.3-0.7s-0.3-1-0.1-1.5l31.4-63.2c0.2-0.5,0.8-0.8,1.3-0.8h271.4c0.6,0,1.1,0.3,1.3,0.8
		l31.4,63.2c0.2,0.5,0.2,1-0.1,1.5C418.1,396.8,417.6,397,417.1,397L417.1,397z M85.3,394h329.4l-29.9-60.2H115.2L85.3,394L85.3,394
		z"/>
</g>
<g class="st2">
	<path d="M180,381.4h8.4v-29.8c0-0.6,0-1.2,0.1-1.9l-8.1,7.2c-0.2,0.2-0.4,0.2-0.6,0.2c-0.3,0-0.5-0.1-0.7-0.3l-0.8-1l10.6-9.4h1.9
		v35h8v1.9H180V381.4z"/>
	<path d="M210.1,381.4h8.4v-29.8c0-0.6,0-1.2,0.1-1.9l-8.1,7.2c-0.2,0.2-0.4,0.2-0.6,0.2c-0.3,0-0.5-0.1-0.7-0.3l-0.8-1l10.6-9.4
		h1.9v35h8v1.9H210v-1.9H210.1z"/>
	<path d="M244.6,384.4c-0.1,0.3-0.3,0.6-0.6,0.8c-0.3,0.2-0.6,0.2-0.9,0.2h-1l16.1-39c0.3-0.6,0.7-1,1.4-1h1.1L244.6,384.4z"/>
	<path d="M278.7,381.4h8.4v-29.8c0-0.6,0-1.2,0.1-1.9l-8.1,7.2c-0.2,0.2-0.4,0.2-0.6,0.2c-0.3,0-0.5-0.1-0.7-0.3l-0.8-1l10.6-9.4
		h1.9v35h8v1.9h-18.9v-1.9H278.7z"/>
	<path d="M325.8,347.6c0,0.3-0.1,0.6-0.4,0.9s-0.6,0.3-1.1,0.3H311l-2.2,12.2c1.2-0.3,2.3-0.5,3.3-0.6s2-0.2,3-0.2
		c1.9,0,3.6,0.3,5,0.8c1.5,0.5,2.7,1.3,3.6,2.3c1,1,1.7,2.1,2.2,3.5s0.8,2.8,0.8,4.4c0,1.9-0.3,3.7-1,5.2s-1.6,2.8-2.7,3.9
		s-2.5,1.9-4,2.5s-3.2,0.9-4.9,0.9c-1,0-2-0.1-2.9-0.3c-0.9-0.2-1.8-0.4-2.6-0.7c-0.8-0.3-1.6-0.7-2.2-1c-0.7-0.4-1.3-0.8-1.8-1.2
		l0.7-1c0.2-0.3,0.4-0.4,0.8-0.4c0.2,0,0.5,0.1,1,0.4c0.4,0.3,1,0.5,1.6,0.9c0.7,0.3,1.5,0.6,2.4,0.9s2,0.4,3.2,0.4
		c1.4,0,2.7-0.2,4-0.7c1.2-0.5,2.3-1.1,3.2-2c0.9-0.9,1.6-1.9,2.1-3.2c0.5-1.3,0.8-2.7,0.8-4.3c0-1.3-0.2-2.5-0.6-3.6
		s-1-2.1-1.8-2.8c-0.8-0.8-1.8-1.4-3-1.8s-2.6-0.7-4.2-0.7c-1,0-2,0.1-3.1,0.2c-1.1,0.2-2.3,0.4-3.5,0.8l-1.6-0.5l2.9-16.3H326v0.8
		H325.8z"/>
</g>
<g>
	<path class="st3" d="M381.8,251.5L381.8,251.5L381.8,251.5c0.2,0,0.3,0.1,0.5,0.1c4.3,1.1,7.7,4.1,9.3,8c0.6,1.3,1,2.8,1.1,4.2
		c0.2,1.6,0,3.3-0.4,4.9c-0.2,0-0.4-0.1-0.5-0.1c-7.4-1.9-11.9-9.4-10.1-16.8C381.7,251.8,381.8,251.7,381.8,251.5L381.8,251.5z"/>
	<path class="st3" d="M381.8,251.5L381.8,251.5c0-0.1,0.1-0.2,0.1-0.4c2.1-7.3,9.6-11.6,17-9.7c0.2,0,0.3,0.1,0.5,0.1
		c-0.4,1.6-1.1,3.1-2,4.4c-0.8,1.2-1.9,2.3-3.1,3.2c-3.3,2.5-7.7,3.5-12,2.4C382.1,251.6,382,251.6,381.8,251.5z"/>
	<path class="st3" d="M328.3,251.6c14.3,3.7,28.6,4.3,42.4,2.2c3.8-0.6,7.4-1.3,11.1-2.3l0,0l0,0l0,0c-2.7-2.6-5.6-5.1-8.7-7.5
		c-11-8.5-23.8-14.9-38.1-18.6c-18.2-4.7-36.5-4.4-53.5,0.1C294.2,237.7,310,246.9,328.3,251.6L328.3,251.6z"/>
	<path class="st1" d="M292.2,228.4c0.8-3,3.9-4.9,6.9-4.1s4.9,3.9,4.1,6.9s-3.9,4.9-6.9,4.1S291.4,231.4,292.2,228.4L292.2,228.4z"
		/>
	<path d="M293.5,228.7c0.6-2.3,3-3.7,5.3-3.1s3.7,3,3.1,5.3s-3,3.7-5.3,3.1S292.9,231,293.5,228.7L293.5,228.7z"/>
</g>
<g>
	<path class="st3" d="M326.5,269.8L326.5,269.8L326.5,269.8c0.2,0.1,0.3,0.1,0.5,0.2c4.1,1.9,6.8,5.4,7.8,9.5
		c0.4,1.4,0.5,2.9,0.4,4.4c-0.1,1.6-0.5,3.2-1.2,4.8c-0.2-0.1-0.3-0.1-0.5-0.2c-6.9-3.2-10-11.3-7.1-18.3
		C326.4,270,326.5,269.9,326.5,269.8L326.5,269.8z"/>
	<path class="st3" d="M326.5,269.8L326.5,269.8c0.1-0.1,0.1-0.2,0.2-0.3c3.3-6.8,11.5-9.7,18.4-6.6c0.2,0.1,0.3,0.1,0.5,0.2
		c-0.7,1.5-1.6,2.9-2.8,4c-1,1.1-2.3,1.9-3.6,2.6c-3.7,1.9-8.2,2.1-12.3,0.3C326.8,269.9,326.7,269.9,326.5,269.8L326.5,269.8z"/>
	<path class="st3" d="M273.8,260.5c13.4,6.1,27.5,9.2,41.3,9.6c3.8,0.1,7.6,0,11.3-0.3l0,0l0,0l0,0c-2.2-3.1-4.6-6-7.2-8.9
		c-9.3-10.3-20.8-18.9-34.2-25c-17.1-7.8-35.2-10.7-52.7-9.3C242.7,240.8,256.7,252.7,273.8,260.5L273.8,260.5z"/>
	<path class="st1" d="M242.4,231.3c1.3-2.9,4.7-4.1,7.6-2.8c2.9,1.3,4.1,4.7,2.8,7.5c-1.3,2.9-4.7,4.1-7.5,2.8
		S241.1,234.1,242.4,231.3L242.4,231.3z"/>
	<path d="M243.6,231.8c1-2.2,3.6-3.2,5.8-2.2s3.2,3.6,2.1,5.8c-1,2.2-3.6,3.2-5.8,2.1C243.5,236.6,242.6,234,243.6,231.8z"/>
</g>
<g>
	<path class="st3" d="M188.6,267.4L188.6,267.4L188.6,267.4c0.2,0.1,0.3,0.1,0.5,0.2c4.1,1.9,6.8,5.4,7.8,9.5
		c0.4,1.4,0.5,2.9,0.4,4.4c-0.1,1.6-0.5,3.2-1.2,4.8c-0.2-0.1-0.3-0.1-0.5-0.2c-6.9-3.2-10.1-11.3-7.1-18.3
		C188.6,267.6,188.6,267.5,188.6,267.4L188.6,267.4z"/>
	<path class="st3" d="M188.7,267.4L188.7,267.4c0.1-0.1,0.1-0.2,0.2-0.3c3.3-6.8,11.5-9.7,18.4-6.6c0.2,0.1,0.3,0.1,0.5,0.2
		c-0.7,1.5-1.6,2.9-2.8,4c-1.1,1.1-2.3,1.9-3.6,2.6c-3.7,1.9-8.2,2.1-12.3,0.3C189,267.5,188.8,267.5,188.7,267.4L188.7,267.4z"/>
	<path class="st3" d="M135.9,258.1c13.4,6.1,27.4,9.2,41.3,9.6c3.8,0.1,7.6,0,11.3-0.3l0,0c0,0,0,0,0.1,0l0,0
		c-2.2-3.1-4.6-6-7.2-8.9c-9.3-10.3-20.8-18.9-34.2-25c-17.1-7.8-35.2-10.7-52.7-9.3C104.8,238.5,118.8,250.3,135.9,258.1
		L135.9,258.1z"/>
	<path class="st1" d="M104.5,228.9c1.3-2.9,4.7-4.1,7.6-2.8s4.1,4.7,2.8,7.5c-1.3,2.9-4.7,4.1-7.5,2.8S103.2,231.8,104.5,228.9
		L104.5,228.9z"/>
	<path d="M105.7,229.5c1-2.2,3.6-3.2,5.8-2.2c2.2,1,3.2,3.6,2.2,5.8s-3.6,3.2-5.8,2.1C105.7,234.2,104.7,231.6,105.7,229.5z"/>
</g>
<g>
	<path class="st3" d="M190,188.9L190,188.9L190,188.9c-0.2,0-0.3-0.1-0.5-0.1c-4.3-1.1-7.7-4.1-9.3-7.9c-0.6-1.3-1-2.8-1.1-4.2
		c-0.2-1.6-0.1-3.3,0.4-4.9c0.2,0,0.4,0.1,0.5,0.1c7.4,1.9,11.9,9.4,10.1,16.8C190.1,188.7,190.1,188.8,190,188.9L190,188.9z"/>
	<path class="st3" d="M190,188.9L190,188.9c0,0.1-0.1,0.2-0.1,0.4c-2.1,7.3-9.6,11.6-17,9.7c-0.2,0-0.3-0.1-0.5-0.1
		c0.4-1.6,1.1-3.1,2-4.4c0.8-1.2,1.9-2.3,3.1-3.2c3.3-2.5,7.7-3.5,12-2.4C189.7,188.8,189.9,188.9,190,188.9z"/>
	<path class="st3" d="M243.6,188.8c-14.3-3.7-28.6-4.3-42.4-2.2c-3.8,0.6-7.4,1.3-11.1,2.3l0,0c0,0,0,0-0.1,0l0,0
		c2.7,2.6,5.6,5.1,8.7,7.5c11,8.5,23.8,14.9,38.1,18.6c18.2,4.7,36.5,4.4,53.5-0.1C277.7,202.7,261.8,193.6,243.6,188.8L243.6,188.8
		z"/>
	<path class="st1" d="M279.6,212.1c-0.8,3-3.9,4.9-6.9,4.1s-4.9-3.9-4.1-6.9s3.9-4.9,6.9-4.1S280.4,209,279.6,212.1L279.6,212.1z"/>
	<path d="M278.4,211.8c-0.6,2.3-3,3.7-5.3,3.1c-2.3-0.6-3.7-3-3.1-5.3s3-3.7,5.3-3.1S279,209.4,278.4,211.8L278.4,211.8z"/>
</g>
<g>
	<path class="st3" d="M185.3,142.2L185.3,142.2L185.3,142.2c-0.2,0-0.4-0.1-0.5-0.1c-4.4-0.9-7.9-3.7-9.8-7.4
		c-0.7-1.3-1.1-2.7-1.3-4.2c-0.2-1.6-0.2-3.3,0.1-4.9c0.2,0,0.4,0.1,0.5,0.1c7.5,1.5,12.4,8.7,11,16.2
		C185.3,142,185.3,142.1,185.3,142.2L185.3,142.2z"/>
	<path class="st3" d="M185.3,142.2L185.3,142.2c0,0.1-0.1,0.2-0.1,0.4c-1.7,7.4-9,12.1-16.4,10.6c-0.2,0-0.4-0.1-0.5-0.1
		c0.3-1.7,0.9-3.2,1.8-4.6c0.8-1.3,1.8-2.4,2.9-3.4c3.2-2.7,7.5-3.9,11.9-3.1C184.9,142.1,185.1,142.2,185.3,142.2z"/>
	<path class="st3" d="M238.7,139.2c-14.5-2.9-28.8-2.7-42.4,0.1c-3.7,0.8-7.4,1.7-10.9,2.9l0,0c0,0,0,0-0.1,0l0,0
		c2.9,2.5,5.9,4.8,9.1,7c11.4,7.9,24.6,13.6,39,16.5c18.4,3.7,36.7,2.4,53.4-3C273.5,151.3,257.2,143,238.7,139.2L238.7,139.2z"/>
	<path class="st1" d="M276,160.5c-0.6,3.1-3.6,5.1-6.7,4.4c-3.1-0.6-5.1-3.6-4.5-6.7s3.6-5.1,6.7-4.4
		C274.6,154.4,276.6,157.4,276,160.5L276,160.5z"/>
	<path d="M274.7,160.2c-0.5,2.4-2.8,3.9-5.1,3.4c-2.4-0.5-3.9-2.8-3.4-5.1s2.8-3.9,5.1-3.4S275.2,157.9,274.7,160.2z"/>
</g>
<g>
	<path class="st3" d="M358.1,133.9L358.1,133.9L358.1,133.9c0.2,0,0.4,0,0.5,0c4.5,0,8.5,2.1,11,5.4c0.9,1.1,1.6,2.4,2.1,3.8
		c0.6,1.5,0.9,3.1,0.9,4.9c-0.2,0-0.4,0-0.5,0c-7.6,0-13.8-6.1-14-13.7C358.1,134.1,358.1,134,358.1,133.9L358.1,133.9z"/>
	<path class="st3" d="M358.1,133.9L358.1,133.9c0-0.1,0-0.3,0-0.4c0.2-7.6,6.4-13.6,14.1-13.6c0.2,0,0.4,0,0.5,0
		c0,1.7-0.3,3.3-0.9,4.8c-0.5,1.4-1.2,2.7-2.2,3.8c-2.6,3.2-6.6,5.3-11,5.3C358.5,133.9,358.3,133.9,358.1,133.9z"/>
	<path class="st3" d="M306.3,147.2c14.8,0,28.8-2.9,41.6-8.4c3.5-1.5,6.9-3.1,10.2-5l0,0l0,0l0,0c-3.3-1.9-6.7-3.6-10.2-5.1
		c-12.7-5.5-26.8-8.5-41.5-8.6c-18.8-0.1-36.5,4.8-51.8,13.4C269.8,142.2,287.4,147.2,306.3,147.2L306.3,147.2z"/>
	<path class="st1" d="M265.5,133.7c0-3.1,2.6-5.7,5.7-5.7s5.7,2.6,5.7,5.7c0,3.1-2.6,5.7-5.7,5.7S265.5,136.8,265.5,133.7z"/>
	<path d="M266.9,133.7c0-2.4,2-4.4,4.4-4.4s4.4,2,4.4,4.4s-2,4.4-4.4,4.4S266.9,136.1,266.9,133.7L266.9,133.7z"/>
</g>
<g>
	<path class="st3" d="M155.1,210.9L155.1,210.9L155.1,210.9c-0.1-0.1-0.3-0.2-0.5-0.3c-4-2.1-8.5-2.1-12.2-0.4
		c-1.3,0.6-2.6,1.4-3.7,2.4c-1.2,1.1-2.2,2.4-3,3.9c0.1,0.1,0.3,0.2,0.5,0.3c6.8,3.6,15.1,1.1,18.8-5.6
		C155,211,155,210.9,155.1,210.9L155.1,210.9z"/>
	<path class="st3" d="M155.1,210.8L155.1,210.8c0.1-0.1,0.1-0.2,0.2-0.3c3.4-6.8,0.7-15.1-6-18.6c-0.1-0.1-0.3-0.2-0.5-0.2
		c-0.8,1.5-1.3,3.1-1.5,4.6s-0.2,3,0.1,4.4c0.8,4.1,3.3,7.8,7.3,9.9C154.8,210.7,154.9,210.8,155.1,210.8L155.1,210.8z"/>
	<path class="st3" d="M194.6,246.9c-13.1-6.9-24.1-16.1-32.8-26.9c-2.4-2.9-4.6-6-6.6-9.2l0,0c0,0,0,0,0-0.1l0,0
		c3.8-0.1,7.6,0,11.4,0.3c13.8,1.1,27.6,5,40.7,11.9c16.6,8.8,30,21.4,39.5,36.1C229.2,259.6,211.3,255.7,194.6,246.9L194.6,246.9z"
		/>
	<path class="st1" d="M236.9,254c1.5-2.8,0.4-6.2-2.4-7.7c-2.8-1.5-6.2-0.4-7.7,2.4s-0.4,6.2,2.4,7.7
		C232,257.9,235.5,256.8,236.9,254L236.9,254z"/>
	<path d="M235.8,253.4c1.1-2.1,0.3-4.8-1.8-5.9s-4.8-0.3-5.9,1.8s-0.3,4.8,1.8,5.9C232,256.4,234.6,255.6,235.8,253.4L235.8,253.4z"
		/>
</g>
<g>
	<path class="st3" d="M74.9,196.6L74.9,196.6L74.9,196.6c-0.2,0-0.3,0.1-0.5,0.1c-4.3,1.3-7.5,4.5-8.9,8.4c-0.5,1.4-0.8,2.8-0.9,4.3
		c-0.1,1.6,0.1,3.3,0.6,4.9c0.2-0.1,0.3-0.1,0.5-0.1c7.3-2.3,11.4-9.9,9.3-17.2C75,196.8,75,196.7,74.9,196.6L74.9,196.6z"/>
	<path class="st3" d="M74.9,196.6L74.9,196.6c0-0.1-0.1-0.2-0.1-0.4c-2.4-7.2-10.2-11.1-17.4-8.9c-0.2,0.1-0.3,0.1-0.5,0.2
		c0.5,1.6,1.3,3.1,2.2,4.3s2,2.2,3.2,3.1c3.4,2.4,7.8,3.2,12.1,1.9C74.6,196.7,74.8,196.6,74.9,196.6L74.9,196.6z"/>
	<path class="st3" d="M128.4,194.2c-14.1,4.4-28.4,5.6-42.2,4.2c-3.8-0.4-7.5-1-11.2-1.8l0,0c0,0,0,0-0.1,0l0,0
		c2.6-2.8,5.4-5.4,8.3-7.9c10.6-9,23.1-16,37.2-20.4c18-5.6,36.3-6.1,53.5-2.4C161.8,178.7,146.4,188.6,128.4,194.2L128.4,194.2z"/>
	<path class="st1" d="M163.3,169.3c-0.9-3-4.1-4.7-7.1-3.8s-4.7,4.1-3.8,7.1s4.1,4.7,7.1,3.8S164.3,172.3,163.3,169.3L163.3,169.3z"
		/>
	<path d="M162.1,169.6c-0.7-2.3-3.2-3.6-5.5-2.9s-3.6,3.2-2.9,5.5c0.7,2.3,3.2,3.6,5.5,2.9C161.5,174.4,162.8,172,162.1,169.6
		L162.1,169.6z"/>
</g>
<g>
	<path class="st3" d="M151,135.7L151,135.7L151,135.7c0.2-0.1,0.3-0.1,0.5-0.1c4.3-1.1,8.7-0.1,12,2.4c1.2,0.9,2.2,1.9,3,3.1
		c0.9,1.3,1.6,2.8,2.1,4.5c-0.2,0.1-0.3,0.1-0.5,0.1c-7.4,1.9-14.9-2.4-17-9.7C151.1,135.9,151,135.8,151,135.7L151,135.7z"/>
	<path class="st3" d="M151,135.7L151,135.7c0-0.1-0.1-0.2-0.1-0.4c-1.7-7.4,2.8-14.8,10.1-16.7c0.2,0,0.3-0.1,0.5-0.1
		c0.4,1.6,0.5,3.3,0.4,4.9c-0.1,1.5-0.5,2.9-1.1,4.3c-1.7,3.8-5,6.8-9.3,8C151.3,135.6,151.2,135.6,151,135.7L151,135.7z"/>
	<path class="st3" d="M104.2,161.8c14.3-3.7,27.1-10.2,38.1-18.7c3-2.3,5.9-4.8,8.6-7.4l0,0l0,0l0,0c-3.7-1-7.4-1.8-11.2-2.3
		c-13.7-2.1-28.1-1.4-42.3,2.3c-18.2,4.7-34.1,13.9-46.7,26.1C67.7,166.2,86,166.5,104.2,161.8L104.2,161.8z"/>
	<path class="st1" d="M61.4,159c-0.8-3,1-6.1,4.1-6.9c3-0.8,6.2,1,6.9,4.1c0.8,3-1,6.1-4.1,6.9C65.3,163.9,62.2,162.1,61.4,159
		L61.4,159z"/>
	<path d="M62.7,158.7c-0.6-2.3,0.8-4.7,3.1-5.3s4.7,0.8,5.3,3.1s-0.8,4.7-3.1,5.3S63.3,161,62.7,158.7z"/>
</g>
<g>
	<path class="st3" d="M368.7,212.7L368.7,212.7L368.7,212.7c0.2,0,0.3,0.1,0.5,0.1c4.3,1.1,7.7,4.2,9.3,8c0.6,1.3,1,2.8,1.1,4.2
		c0.2,1.6,0,3.3-0.4,4.9c-0.2,0-0.4-0.1-0.5-0.1c-7.4-1.9-11.9-9.4-10.1-16.8C368.6,212.9,368.6,212.8,368.7,212.7L368.7,212.7z"/>
	<path class="st3" d="M368.7,212.6L368.7,212.6c0-0.1,0.1-0.2,0.1-0.4c2.1-7.3,9.6-11.6,17-9.7c0.2,0,0.3,0.1,0.5,0.1
		c-0.4,1.6-1.1,3.1-2,4.4c-0.9,1.2-1.9,2.3-3.1,3.2c-3.3,2.5-7.7,3.5-12,2.4C369,212.7,368.9,212.7,368.7,212.6L368.7,212.6z"/>
	<path class="st3" d="M315.1,212.6c14.3,3.7,28.6,4.4,42.4,2.3c3.8-0.6,7.5-1.3,11.1-2.3l0,0l0,0l0,0c-2.7-2.6-5.6-5.1-8.6-7.5
		c-11-8.5-23.8-14.9-38-18.7c-18.2-4.8-36.5-4.5-53.5,0C281.1,198.7,296.9,207.9,315.1,212.6L315.1,212.6z"/>
	<path class="st1" d="M279.1,189.3c0.8-3,3.9-4.9,7-4.1c3,0.8,4.9,3.9,4.1,6.9s-3.9,4.9-6.9,4.1S278.3,192.4,279.1,189.3
		L279.1,189.3z"/>
	<path d="M280.4,189.7c0.6-2.3,3-3.7,5.3-3.1s3.7,3,3.1,5.3s-3,3.7-5.3,3.1S279.8,192,280.4,189.7L280.4,189.7z"/>
</g>
<g>
	<path class="st3" d="M409.5,183.6L409.5,183.6L409.5,183.6c0.2,0,0.3,0.1,0.5,0.1c4.3,1.1,7.7,4.2,9.3,8c0.6,1.3,1,2.8,1.1,4.2
		c0.2,1.6,0,3.3-0.4,4.9c-0.2,0-0.4-0.1-0.5-0.1c-7.4-1.9-11.9-9.4-10.1-16.8C409.5,183.8,409.5,183.7,409.5,183.6L409.5,183.6z"/>
	<path class="st3" d="M409.5,183.5L409.5,183.5c0-0.1,0.1-0.2,0.1-0.4c2.1-7.3,9.6-11.6,17-9.7c0.2,0,0.3,0.1,0.5,0.1
		c-0.4,1.6-1.1,3.1-2,4.4c-0.9,1.2-1.9,2.3-3.1,3.2c-3.3,2.5-7.7,3.5-12,2.4C409.9,183.7,409.7,183.6,409.5,183.5L409.5,183.5z"/>
	<path class="st3" d="M356,183.5c14.3,3.7,28.6,4.4,42.4,2.3c3.8-0.6,7.5-1.3,11.1-2.3l0,0l0,0l0,0c-2.7-2.6-5.6-5.1-8.6-7.5
		c-11-8.5-23.8-14.9-38-18.7c-18.2-4.8-36.5-4.5-53.5,0C321.9,169.6,337.8,178.8,356,183.5L356,183.5z"/>
	<path class="st1" d="M320,160.2c0.8-3,3.9-4.9,7-4.1s4.9,3.9,4.1,6.9s-3.9,4.9-6.9,4.1S319.2,163.3,320,160.2L320,160.2z"/>
	<path d="M321.2,160.6c0.6-2.3,3-3.7,5.3-3.1s3.7,3,3.1,5.3s-3,3.7-5.3,3.1S320.6,162.9,321.2,160.6L321.2,160.6z"/>
</g>
<g>
	<path class="st4" d="M437,255c-46.2,29.9-111,48.5-182.9,48.5S117.5,284.9,71.3,255H437z"/>
	<path class="st4" d="M254.1,304c-69.7,0-134.7-17.2-183.1-48.6l-1.4-0.9h369.1l-1.4,0.9C388.9,286.8,323.8,304,254.1,304L254.1,304
		z M73,255.5c48.1,30.6,112.3,47.5,181.2,47.5s133.1-16.9,181.1-47.5H73z"/>
</g>
<g id="k">
</g>
</svg>
