<?xml version="1.0" encoding="utf-8"?>
<!-- Generator: Adobe Illustrator 26.2.1, SVG Export Plug-In . SVG Version: 6.00 Build 0)  -->
<svg version="1.1" id="Livello_1" xmlns="http://www.w3.org/2000/svg" xmlns:xlink="http://www.w3.org/1999/xlink" x="0px" y="0px"
	 viewBox="0 0 500 500" style="enable-background:new 0 0 500 500;" xml:space="preserve">
<style type="text/css">
	.st0{fill:#2A6EB5;}
	.st1{fill:#FFFFFF;}
	.st2{fill:#1D1D1B;}
</style>
<g id="a">
	<g id="b">
	</g>
	<g id="c">
	</g>
	<g id="d">
	</g>
	<g id="e">
	</g>
	<g id="f">
	</g>
	<g id="g">
	</g>
</g>
<g id="h">
</g>
<g id="i">
</g>
<g id="j">
</g>
<g id="k">
	<g>
		<path class="st0" d="M371.4,192.4L371.4,192.4L371.4,192.4c0.5-0.4,1-0.7,1.6-1c13.5-7.9,29.1-8.7,42.6-3.4
			c4.7,1.8,9.2,4.4,13.2,7.7c4.4,3.6,8.2,7.9,11.2,13.1c-0.5,0.3-1,0.7-1.6,1c-22.9,13.5-52.4,6.2-66.3-16.3
			C371.9,193.1,371.7,192.7,371.4,192.4L371.4,192.4z"/>
		<path class="st0" d="M371.4,192.3L371.4,192.3c-0.2-0.4-0.5-0.8-0.6-1.2c-12.8-23.1-4.9-52.3,18-65.8c0.5-0.3,1.1-0.6,1.6-0.9
			c3,5.1,5,10.5,6,16c1,5.1,1,10.3,0.3,15.4c-2,14.3-10.2,27.7-23.7,35.6C372.5,191.7,371.9,192,371.4,192.3L371.4,192.3z"/>
		<path class="st0" d="M239.6,324.5c44.3-26.1,81.2-60,110-99c7.8-10.6,15.1-21.7,21.7-33h0c0-0.1,0.1-0.1,0.1-0.2v0
			c-13.2,0.2-26.5,1.2-39.8,2.9c-48,6.2-95.5,21.9-139.8,48c-56.6,33.3-101,79.3-131.8,132.2C121.3,374.3,183,357.8,239.6,324.5
			L239.6,324.5z"/>
		<path class="st1" d="M93.3,356.2c-5.6-9.5-2.4-21.6,7-27.2c9.4-5.6,21.6-2.4,27.2,7c5.6,9.5,2.4,21.6-7,27.2
			S98.9,365.6,93.3,356.2z"/>
		<path d="M97.3,353.8c-4.3-7.3-1.8-16.6,5.4-20.9c7.3-4.3,16.6-1.8,20.9,5.4c4.3,7.3,1.8,16.6-5.4,20.9
			C110.9,363.5,101.6,361.1,97.3,353.8z"/>
	</g>
	<g>
		<path class="st2" d="M306.4,219.8h-1c0,34.4-8.2,46.6-31.5,46.7v1h0.1c9.9,0,16.7,2.2,21.5,7c6.8,6.8,9.8,19,9.8,39.5h1
			c0-20.6,3-32.7,9.8-39.5c4.8-4.8,11.7-7,21.5-7h0.1v-1C314.7,266.4,306.4,254.2,306.4,219.8L306.4,219.8z M315.5,273.8
			c-5.4,5.4-8.5,14-9.6,27.2c-1.1-13.2-4.2-21.8-9.6-27.2c-3.7-3.7-8.5-5.9-14.9-6.9c15.3-2.3,22.6-12.4,24.5-34.2
			c1.9,21.8,9.2,31.9,24.5,34.2C324,267.8,319.2,270.1,315.5,273.8z"/>
		<path class="st1" d="M330.4,266.9c-6.4,0.9-11.2,3.2-14.9,6.9c-5.4,5.4-8.5,14-9.6,27.2c-1.1-13.2-4.2-21.8-9.6-27.2
			c-3.7-3.7-8.5-5.9-14.9-6.9c15.3-2.3,22.6-12.4,24.5-34.2C307.8,254.4,315.1,264.6,330.4,266.9z"/>
	</g>
	<g>
		<path class="st2" d="M204.7,190.3h-1c0,34.4-8.2,46.6-31.5,46.6v1h0.1c9.9,0,16.7,2.2,21.6,7c6.8,6.8,9.8,19,9.8,39.5h1
			c0-20.6,3-32.7,9.8-39.5c4.8-4.8,11.7-7,21.6-7h0.1v-1C212.9,236.9,204.7,224.7,204.7,190.3L204.7,190.3z M213.8,244.3
			c-5.4,5.4-8.5,14-9.6,27.2c-1.1-13.2-4.2-21.8-9.6-27.2c-3.7-3.7-8.5-5.9-14.9-6.9c15.3-2.3,22.6-12.4,24.5-34.2
			c1.9,21.8,9.2,31.9,24.5,34.2C222.3,238.3,217.5,240.6,213.8,244.3L213.8,244.3z"/>
		<path class="st1" d="M228.7,237.4c-6.4,0.9-11.2,3.2-14.9,6.9c-5.4,5.4-8.5,14-9.6,27.2c-1.1-13.2-4.2-21.8-9.6-27.2
			c-3.7-3.7-8.5-5.9-14.9-6.9c15.3-2.3,22.6-12.4,24.5-34.2C206.1,225,213.4,235.1,228.7,237.4L228.7,237.4z"/>
	</g>
	<g>
		<path class="st2" d="M171.7,247.8H171c0,21.8-5.2,29.6-20,29.6v0.6h0.1c6.3,0,10.6,1.4,13.7,4.5c4.3,4.3,6.2,12,6.2,25.1h0.6
			c0-13,1.9-20.8,6.2-25.1c3.1-3,7.4-4.5,13.7-4.5h0.1v-0.6C176.9,277.4,171.7,269.7,171.7,247.8L171.7,247.8z M177.4,282.1
			c-3.4,3.4-5.4,8.9-6.1,17.2c-0.7-8.4-2.7-13.8-6.1-17.2c-2.4-2.4-5.4-3.8-9.5-4.4c9.7-1.5,14.4-7.9,15.6-21.7
			c1.2,13.8,5.8,20.2,15.6,21.7C182.8,278.3,179.8,279.8,177.4,282.1z"/>
		<path class="st1" d="M186.9,277.7c-4.1,0.6-7.1,2-9.5,4.4c-3.4,3.4-5.4,8.9-6.1,17.2c-0.7-8.4-2.7-13.8-6.1-17.2
			c-2.4-2.4-5.4-3.8-9.5-4.4c9.7-1.5,14.4-7.9,15.6-21.7C172.6,269.8,177.2,276.3,186.9,277.7z"/>
	</g>
</g>
</svg>
