<?xml version="1.0" encoding="utf-8"?>
<!-- Generator: Adobe Illustrator 26.2.1, SVG Export Plug-In . SVG Version: 6.00 Build 0)  -->
<svg version="1.1" id="a" xmlns="http://www.w3.org/2000/svg" xmlns:xlink="http://www.w3.org/1999/xlink" x="0px" y="0px"
	 viewBox="0 0 1920 1080" style="enable-background:new 0 0 1920 1080;" xml:space="preserve">
<style type="text/css">
	.st0{fill:#D0D0D0;}
	.st1{clip-path:url(#SVGID_00000024723716058270717840000012424358443154281622_);}
	.st2{clip-path:url(#SVGID_00000023266688132385671370000010041939382646785212_);}
	.st3{fill:none;}
	.st4{fill:#FBD213;}
	.st5{fill:#F9F4E1;}
	.st6{fill:#FFFFFF;}
	.st7{clip-path:url(#SVGID_00000033332378037215355580000003359474868449382816_);}
	.st8{fill:#706F6F;}
	.st9{fill:#E8E8E8;}
	.st10{fill:#E52942;}
	.st11{fill:#1D1D1B;}
	.st12{fill:#F7F1D8;}
</style>
<g id="b">
	<rect x="218.8" y="-0.4" class="st0" width="2" height="1080.4"/>
	<polygon class="st0" points="1920,907.7 1920,909.7 212,904.5 202.5,904.5 198.4,904.4 174.5,904.4 174.5,904.4 164,904.3 0,904 
		0,902 168.9,902.3 179.4,902.4 179.4,902.4 197.6,902.4 202,902.5 211.5,902.5 	"/>
	<rect y="721.9" class="st0" width="1914.7" height="2"/>
	<rect x="1513.8" y="472.9" class="st0" width="2" height="609.7"/>
	<path class="st0" d="M1513.8,447.8L1513.7,7h2l0.1,442.1l0,0C1514.7,449.1,1513.8,448.5,1513.8,447.8L1513.8,447.8L1513.8,447.8z"
		/>
	<rect x="1698.9" class="st0" width="2" height="1080"/>
	<rect x="1883.7" class="st0" width="2" height="1080"/>
	
		<rect x="958.9" y="-428.6" transform="matrix(6.632155e-03 -1 1 6.632155e-03 422.1445 1487.7645)" class="st0" width="2" height="1920"/>
	
		<rect x="965.8" y="-603" transform="matrix(2.792587e-03 -1 1 2.792587e-03 613.8433 1315.9834)" class="st0" width="2" height="1906.4"/>
	<rect x="588.8" y="9.1" class="st0" width="2" height="516"/>
	<rect x="773.2" y="-2.6" class="st0" width="2" height="1089.6"/>
	<polygon class="st0" points="962.2,-0.1 957.9,904.7 957.9,906.7 957.1,1074.8 957.1,1076.8 957,1087 955,1087 955.1,1076.7 
		955.1,1074.7 955.9,906.7 955.9,904.7 960.2,-0.1 	"/>
	<polygon class="st0" points="1146.4,0 1142.2,905.3 1142.1,907.3 1141.3,1075.3 1141.3,1077.3 1141.3,1087 1139.3,1087 
		1139.3,1077.3 1139.3,1075.3 1140.1,907.3 1140.2,905.3 1144.4,0 	"/>
	<polygon class="st0" points="1330.7,0 1326.4,905.8 1326.4,907.8 1325.6,1075.9 1325.6,1077.9 1325.6,1087 1323.6,1087 
		1323.6,1077.8 1323.6,1075.8 1324.4,907.8 1324.4,905.8 1328.7,0 	"/>
	<rect x="403.8" y="-0.4" class="st0" width="2" height="951.3"/>
	<rect x="32.2" class="st0" width="2" height="1080"/>
	<rect x="403.8" y="971.5" class="st0" width="2" height="115.5"/>
	<rect x="588.9" y="525.1" class="st0" width="2" height="561.9"/>
	<polygon class="st0" points="1920,166.9 1920,168.9 220.8,163.6 218.8,163.6 0,163.1 0,161.1 218.8,161.6 220.8,161.6 	"/>
</g>
<g>
	<defs>
		<polygon id="SVGID_1_" points="1,1 2,1 1,2 		"/>
	</defs>
	<defs>
		<polygon id="SVGID_00000019643599540061142770000017544263874724657056_" points="-1,-1 -2,-1 -1,-2 		"/>
	</defs>
	<clipPath id="SVGID_00000084518397221974266660000012870080354867873716_">
		<use xlink:href="#SVGID_1_"  style="overflow:visible;"/>
	</clipPath>
	
		<clipPath id="SVGID_00000018935887632549601260000000574040026222444708_" style="clip-path:url(#SVGID_00000084518397221974266660000012870080354867873716_);">
		<use xlink:href="#SVGID_00000019643599540061142770000017544263874724657056_"  style="overflow:visible;"/>
	</clipPath>
	<g style="clip-path:url(#SVGID_00000018935887632549601260000000574040026222444708_);">
		<g>
			
				<rect x="1809.5" y="-39.8" transform="matrix(0.997 -7.741509e-02 7.741509e-02 0.997 2.2626 140.2681)" width="1.5" height="161.6"/>
			
				<rect x="1716" y="33.1" transform="matrix(0.997 -7.741509e-02 7.741509e-02 0.997 2.8785 141.9568)" width="232.8" height="1.5"/>
			<g>
				<line class="st3" x1="1811.3" y1="173" x2="2043.4" y2="155.2"/>
				
					<rect x="1810.9" y="163.2" transform="matrix(0.997 -7.741509e-02 7.741509e-02 0.997 -6.9086 149.6946)" width="232.8" height="1.5"/>
			</g>
		</g>
	</g>
</g>
<g id="g">
	<g>
		<path class="st4" d="M140,435.9c0.8,18.7-3.4,37.2-12,53.7c-8.4,16.1-20.8,30.1-37.3,40.4c-16.3,10.4-34.4,15.7-52.5,16.5
			c-13,0.5-26-1.4-38.3-5.4l-1.9-10.5c12.6,5,26.1,7.3,39.8,6.8c16.5-0.7,33.1-5.5,47.9-15s26.4-22.3,34-37c7.8-15,11.7-32,11-49.1
			c-0.4-11.9-3.1-23.7-8.1-35c-0.3-0.6-0.5-1.2-0.8-1.9c-1.7-3.8-3.8-7.4-6-11l7.7-5c3,4.6,5.5,9.4,7.6,14.3
			c0.3,0.6,0.5,1.2,0.9,1.9C136.9,411.4,139.5,423.6,140,435.9L140,435.9L140,435.9z"/>
		<path class="st5" d="M122.6,401.3c-0.3-0.6-0.5-1.2-0.8-1.9c-1.7-3.8-3.8-7.4-6-11l-26.5,16.8l-4.5,2.8l-36.1,22.8
			c1.7,2.7,2.6,5.7,2.7,8.7c0.2,3.1-0.6,6.2-2,8.9c-1.3,2.7-3.5,5-6.2,6.7s-5.7,2.6-8.7,2.7c-3.1,0.2-6.2-0.6-8.9-1.9
			s-5-3.5-6.7-6.2L-13,469.9l0.8,4.2l28.8-18.2c0.8-0.5,1.9-0.4,2.7,0.2l0,0c0.7,0.7,0.9,1.8,0.5,2.6l-25.8,49.2l4.1,22.6
			c12.6,5,26.1,7.3,39.8,6.8c16.5-0.7,33-5.5,47.9-15s26.4-22.3,34-37c7.8-15,11.7-32,11-49.1C130.3,424.5,127.6,412.5,122.6,401.3
			L122.6,401.3L122.6,401.3z M33.4,524.7c0.2,4.8-4,8.7-8.8,8.2c-7.5-0.8-14.8-2.4-21.8-4.9c-4.6-1.6-6.7-6.9-4.5-11.2l28.4-54.4
			c0.5-0.9,1.5-1.3,2.3-1.1l0,0c1,0.2,1.6,1,1.7,2L33.4,524.7L33.4,524.7L33.4,524.7z M72.1,525.1c-6.9,3.1-14.1,5.4-21.3,6.7
			c-4.7,0.9-9.2-2.6-9.5-7.4l-2.5-61.3c0-1,0.6-1.8,1.5-2.1l0,0c1-0.3,1.9,0,2.5,0.9l32.9,51.9C78.3,517.8,76.5,523.2,72.1,525.1
			L72.1,525.1z M109.4,494.6c-4.4,6.1-9.5,11.6-15.2,16.5c-3.7,3.1-9.3,2.4-11.9-1.7l-32.9-51.9c-0.5-0.8-0.5-2,0.2-2.6l0,0
			c0.7-0.7,1.8-0.9,2.6-0.5l54.4,28.5C111,485.2,112.3,490.7,109.4,494.6L109.4,494.6L109.4,494.6z M126.4,449.6
			c-0.8,7.5-2.4,14.9-4.9,21.9c-1.6,4.6-6.9,6.7-11.2,4.5L56,447.4c-0.9-0.5-1.4-1.4-1.1-2.3l0,0c0.2-1,1-1.6,2-1.7l61.3-2.5
			C123.1,440.6,126.9,444.7,126.4,449.6L126.4,449.6L126.4,449.6z M117.9,432.9l-61.3,2.5c-1,0.1-1.8-0.6-2.2-1.5l0,0
			c-0.3-1,0-1.9,0.9-2.5L95,406.2l0,0l4.5-2.8l0,0l7.7-4.9c0.2-0.1,0.5-0.3,0.6-0.4s0.5-0.2,0.7-0.3c0.5-0.2,1-0.3,1.5-0.4l1.3-0.2
			c0.1,0,0.3,0,0.4,0c0.1,0,0.2,0,0.3,0c0.4,0,0.8,0,1.2,0.2c0.1,0,0.2,0.1,0.3,0c0.4,0.1,0.7,0.2,1.1,0.3c0.2,0.1,0.4,0.1,0.6,0.3
			c0.1,0.1,0.3,0.1,0.4,0.2c0.1,0.1,0.2,0.2,0.3,0.1l0.3,0.2c0.5,0.3,0.9,0.7,1.3,1.3c0,0.1,0.1,0.1,0.1,0.2
			c0.1,0.1,0.1,0.2,0.2,0.3c0.1,0.1,0.1,0.2,0.2,0.3c0.3,0.4,0.4,0.6,0.6,1l0,0.1c3.1,6.9,5.3,14.1,6.8,21.4
			C126.2,428.2,122.7,432.6,117.9,432.9L117.9,432.9L117.9,432.9z"/>
		<path class="st4" d="M19.7,458.8L-6,507.9l-6.1-33.8l28.8-18.2c0.8-0.5,1.9-0.4,2.7,0.2l0,0C19.9,456.9,20.1,457.9,19.7,458.8
			L19.7,458.8L19.7,458.8z"/>
		<path class="st4" d="M30.8,463.4l2.5,61.3c0.2,4.8-4,8.7-8.8,8.2c-7.5-0.8-14.8-2.4-21.8-4.9c-4.6-1.6-6.7-6.9-4.5-11.2l28.4-54.4
			c0.5-0.9,1.5-1.3,2.3-1.1l0,0C30.1,461.6,30.8,462.4,30.8,463.4L30.8,463.4L30.8,463.4z"/>
		<path class="st4" d="M42.8,461.8l32.9,51.9c2.6,4.1,0.9,9.5-3.5,11.5c-6.9,3.1-14.1,5.4-21.3,6.7c-4.7,0.9-9.2-2.6-9.4-7.4
			L39,463.1c0-1,0.6-1.8,1.5-2.1l0,0C41.2,460.6,42.2,461,42.8,461.8C42.8,461.8,42.8,461.8,42.8,461.8z"/>
		<path class="st4" d="M109.4,494.6c-4.4,6.1-9.5,11.6-15.2,16.5c-3.7,3.1-9.3,2.4-11.9-1.7l-32.9-51.9c-0.5-0.8-0.5-2,0.2-2.6l0,0
			c0.7-0.7,1.8-0.9,2.6-0.5l54.4,28.5C111,485.2,112.2,490.7,109.4,494.6L109.4,494.6L109.4,494.6z"/>
		<path class="st4" d="M126.4,449.6c-0.8,7.5-2.4,14.9-4.9,21.9c-1.6,4.6-6.9,6.7-11.2,4.5L56,447.5c-0.9-0.5-1.4-1.4-1.1-2.3l0,0
			c0.2-1,1-1.6,2-1.7l61.3-2.5C123.1,440.6,126.9,444.8,126.4,449.6L126.4,449.6L126.4,449.6z"/>
		<path class="st4" d="M118.6,402c3.1,6.9,5.3,14.1,6.7,21.3c0.9,4.7-2.6,9.2-7.4,9.5l-61.3,2.5c-1,0.1-1.8-0.6-2.2-1.5l0,0
			c-0.3-1,0-1.9,0.9-2.5l51.8-32.9C111.3,395.9,116.7,397.6,118.6,402L118.6,402L118.6,402z"/>
		<path class="st4" d="M48.7,430.9c1.7,2.7,2.6,5.7,2.7,8.7c0.2,3.1-0.6,6.2-2,8.9c-1.3,2.7-3.5,5-6.2,6.7s-5.7,2.6-8.7,2.7
			c-3.1,0.2-6.2-0.6-8.9-1.9s-5-3.5-6.7-6.2L48.7,430.9L48.7,430.9L48.7,430.9z"/>
	</g>
</g>
<g>
	<g>
		<path class="st6" d="M172.9,180.8l0.8-15.1c-0.4-8-7-14.4-14.9-13.8c-4.6,0.3-9.4,2.9-13.2,10.3c-5.8,11.6,3.5,15.9,13.9,25.3
			C164.7,192.2,173.2,188,172.9,180.8L172.9,180.8z"/>
		<path d="M164.7,189.9c-2,0-3.9-0.7-5.5-2.1c-1.8-1.6-3.6-3.1-5.3-4.6c-7.9-6.6-13.7-11.4-8.7-21.3c3.3-6.6,7.9-10.2,13.6-10.6
			c3.8-0.3,7.5,1,10.4,3.6c3,2.7,4.9,6.6,5.1,10.7l-0.8,15.1c0.2,3.6-1.8,6.8-5.1,8.4C167.1,189.7,165.9,189.9,164.7,189.9
			L164.7,189.9L164.7,189.9z M159.7,152.3h-0.9c-5.3,0.4-9.6,3.8-12.7,10c-4.6,9.2,0.6,13.5,8.4,20.1c1.7,1.4,3.5,2.9,5.3,4.6
			c2.2,2,5.3,2.5,8.1,1.1c2.9-1.4,4.6-4.2,4.5-7.4l0,0l0.8-15.1c-0.2-3.8-1.9-7.5-4.7-10C166,153.5,162.9,152.3,159.7,152.3
			L159.7,152.3L159.7,152.3z"/>
		<g>
			<defs>
				<path id="SVGID_00000161609943212068622450000010338225902191828112_" d="M164.7,189.9c-2,0-3.9-0.7-5.5-2.1
					c-1.8-1.6-3.6-3.1-5.3-4.6c-7.9-6.6-13.7-11.4-8.7-21.3c3.3-6.6,7.9-10.2,13.6-10.6c3.8-0.3,7.5,1,10.4,3.6
					c3,2.7,4.9,6.6,5.1,10.7l-0.8,15.1c0.2,3.6-1.8,6.8-5.1,8.4C167.1,189.7,165.9,189.9,164.7,189.9L164.7,189.9L164.7,189.9z
					 M159.7,152.3h-0.9c-5.3,0.4-9.6,3.8-12.7,10c-4.6,9.2,0.6,13.5,8.4,20.1c1.7,1.4,3.5,2.9,5.3,4.6c2.2,2,5.3,2.5,8.1,1.1
					c2.9-1.4,4.6-4.2,4.5-7.4l0,0l0.8-15.1c-0.2-3.8-1.9-7.5-4.7-10C166,153.5,162.9,152.3,159.7,152.3L159.7,152.3L159.7,152.3z"/>
			</defs>
			<clipPath id="SVGID_00000118377711880278386410000014625774026630440332_">
				<use xlink:href="#SVGID_00000161609943212068622450000010338225902191828112_"  style="overflow:visible;"/>
			</clipPath>
			<g style="clip-path:url(#SVGID_00000118377711880278386410000014625774026630440332_);">
				
					<rect x="66.4" y="166.7" transform="matrix(0.9999 -1.274056e-02 1.274056e-02 0.9999 -2.1255 1.7295)" class="st8" width="136.6" height="2"/>
			</g>
		</g>
	</g>
	<g>
		
			<rect x="-5.1" y="104.7" transform="matrix(0.9808 -0.1953 0.1953 0.9808 -29.0726 13.6185)" class="st6" width="119.3" height="99.1"/>
		<path d="M5.3,215l-19.5-98.2l118-23.5l19.5,98.2C123.2,191.6,5.3,215,5.3,215z M-13.1,117.7L6,213.9l116-23.1l-19.2-96.2
			L-13.1,117.7L-13.1,117.7z"/>
	</g>
	<g>
		
			<rect x="8.1" y="202.2" transform="matrix(0.9808 -0.1953 0.1953 0.9808 -41.7762 17.4722)" class="st6" width="119.3" height="36.8"/>
		<path d="M12.4,250.9L5,213.8l118-23.5l7.4,37.1L12.4,250.9L12.4,250.9z M6.2,214.6l7,35.1l116-23.1l-7-35.1L6.2,214.6L6.2,214.6z"
			/>
	</g>
	<g>
		
			<rect x="54.6" y="-8.2" transform="matrix(0.4163 -0.9092 0.9092 0.4163 19.8929 133.9396)" class="st6" width="119.3" height="119.3"/>
		<path d="M143.9,131.1l-109.4-50L84.6-28.3L194,21.8L143.9,131.1L143.9,131.1z M35.9,80.6l107.6,49.2l49.2-107.6L85.1-27L35.9,80.6
			z"/>
	</g>
	<rect x="75.2" y="23.8" transform="matrix(0.8062 -0.5916 0.5916 0.8062 4.16 61.3343)" width="41.1" height="1"/>
	<rect x="86.9" y="35.6" transform="matrix(0.8062 -0.5916 0.5916 0.8062 -0.7443 69.931)" width="39" height="1"/>
	<rect x="74.3" y="28.9" transform="matrix(0.8062 -0.5916 0.5916 0.8062 2.2801 65.7267)" width="54.4" height="1"/>
	<rect x="73.8" y="174.9" transform="matrix(0.4805 -0.877 0.877 0.4805 -105.3624 172.9898)" width="39" height="1"/>
</g>
<rect x="130.2" y="132.3" class="st9" width="417.7" height="118.6"/>
<rect x="1419.4" y="132.3" class="st9" width="417.7" height="118.6"/>
<g>
	<g>
		<path class="st6" d="M1119.7,67.2c0,4.8-0.7,9.3-2,13.7c-0.1,0.2-0.1,0.4-0.2,0.6c-0.1,0.1-0.1,0.2-0.1,0.4c0,0.1-0.1,0.2-0.1,0.2
			l-0.2,0.7c-0.1,0.3-0.2,0.6-0.3,0.9c-2.5,6.6-6.4,12.5-11.4,17.4c-6.1,6-13.9,10.2-22.5,12.2c-4.1,0.6-8.2,1-12.5,1.1h-3.1
			c-25.2,0-48.4-8.9-66.5-23.8c-0.7-0.6-1.3-1.1-2-1.7c-16.2-14-28.2-32.8-33.7-54.2c-0.9-3.6-1.7-7.2-2.2-10.9
			c-0.1-1.3-0.2-2.5-0.2-3.8c0-7.2,1.6-14,4.5-20.1h19.5l0.7-1.6l0.4-0.9v0.3c-0.1,0.4-0.2,0.8-0.4,1.1c0,0.4,0.1,0.7,0.1,1h108.8
			l1.2,2.9l0.3,0.7L1098,4l3.9,9.9l0.3,0.7l0.2,0.6l5.1,12.8l4,10.1l0.2,0.4l0.2,0.5l0.2,0.5l3.2,8.1c1.4,3.2,2.6,6.6,3.3,10.1
			C1119.4,60.8,1119.7,64,1119.7,67.2L1119.7,67.2L1119.7,67.2z"/>
		<path d="M1119.3,57.6c-0.7-3.5-1.8-6.9-3.3-10.2l-3.1-7.9l-0.2-0.5l-0.2-0.5l-9.4-23.1l-0.2-0.6l-0.3-0.7l-3.9-9.8l-0.2-0.6
			l-0.3-0.7l-1.3-3.2h-1.1l1.1,2.7l0.3,0.7l0.2,0.6l3.9,9.9l0.3,0.7l0.2,0.6l9.4,23.5l0.2,0.5l0.2,0.5l3.3,8.3
			c1.5,3.2,2.6,6.6,3.3,10c0.6,3.1,0.9,6.2,0.9,9.4c0,4.8-0.7,9.4-2.1,13.9l0,0c-0.1,0.2-0.1,0.4-0.2,0.6s-0.1,0.4-0.2,0.6
			c0,0.1-0.1,0.2-0.1,0.2l-0.3,0.9c-0.1,0.3-0.2,0.6-0.3,0.9c-2.4,6.1-6.1,11.7-11,16.4c-6.2,6-13.9,10.2-22.2,12.1
			c-4.1,0.6-8.2,1-12.4,1.1h-3.1c-24.9,0-48.2-8.8-66.5-23.9c-0.7-0.6-1.3-1.1-2-1.7c-15.9-13.7-27.7-32.2-33.2-53.7
			c-0.9-3.6-1.7-7.2-2.2-10.9c-0.1-1.3-0.2-2.6-0.2-3.8c0-7.1,1.6-13.9,4.6-20.1h-1.1c-2.9,6.2-4.5,13.1-4.5,20.1
			c0,1.2,0,2.5,0.2,3.9c0.5,3.7,1.3,7.4,2.2,11c5.7,22,17.9,40.9,34.2,54.8c0.7,0.6,1.3,1.1,2,1.7c18.4,14.9,41.6,23.6,66.5,23.6
			h3.1c4.2-0.1,8.4-0.5,12.6-1.1c8.6-1.9,16.4-6.2,22.8-12.3c5.4-5.2,9.4-11.5,11.8-18.4c0.1-0.3,0.2-0.6,0.3-0.9
			c0-0.1,0.1-0.2,0.1-0.2c0.1-0.2,0.1-0.4,0.2-0.6v-0.1c0.1-0.2,0.1-0.3,0.1-0.5c1.3-4.3,1.9-8.8,1.9-13.5
			C1120.2,64,1119.9,60.7,1119.3,57.6L1119.3,57.6L1119.3,57.6z"/>
	</g>
	<g>
		<path class="st10" d="M987.8-2.3c-0.1,0.4-0.2,0.8-0.4,1.1c-0.1,0.4-0.2,0.7-0.3,1c-2,6.4-3.5,12.5-4.3,18.3
			c-0.8-0.1-1.7-0.1-2.5-0.1H979l0.2-0.4l0.3-0.7l0.3-0.7l7-16.3l0.7-1.6l0.4-0.9C987.8-2.5,987.8-2.4,987.8-2.3L987.8-2.3
			L987.8-2.3z"/>
		<path class="st10" d="M1103.9,68.9c-2.2,0.5-3.9,8.4-8.5,16.6c-0.1,0.2-0.2,0.3-0.3,0.5c-0.1,0.2-0.2,0.4-0.3,0.5
			c-1.4,2.3-3,4.6-4.9,6.8l0,0c-0.2,0.2-0.3,0.4-0.5,0.6c-0.1,0.1-0.1,0.2-0.2,0.2c-0.1,0.1-0.2,0.2-0.3,0.3l-0.2,0.2
			c-8.1,8.2-21.3,13.7-44.2,7.2c-17.8-5-32.7-12.6-43.6-23.1c-0.7-0.7-1.4-1.3-2-2c-12.1-12.8-18.5-29.6-16.9-50.9
			c0-0.4,0.1-0.8,0.1-1.2s0.1-0.8,0.1-1.1c0.2-1.8,0.4-3.6,0.7-5.4c1.3,0.1,2.6,0.3,3.8,0.5l5.3,0.3h1.1l5.8,0.4l1.9,0.1h0.1
			l9.6,0.6l0,0l32.3,2h0.1c0.9,0,1.8,0.1,2.8,0.2c7.7,1,14.1,6.4,16.5,13.6l0,0l14.9,33.7l4.4,10l2.8,6.3l0.2,0.5l0.2,0.5l0.9,2.1
			c0.4,0.8,1.6-0.2,3.2-2.1c0.1-0.2,0.3-0.3,0.4-0.5s0.3-0.3,0.4-0.5C1094.8,79.5,1103.3,66.4,1103.9,68.9L1103.9,68.9z"/>
	</g>
	<g>
		<path class="st6" d="M1133.5,47.1c0,13.3-5.5,25.3-14.3,33.9c-0.3,0.3-0.6,0.6-0.9,0.8c-0.1,0.1-0.2,0.2-0.4,0.3
			c-0.2,0.2-0.5,0.5-0.8,0.7c-0.2,0.2-0.5,0.4-0.7,0.6c-5.6,4.7-12.3,8.1-19.7,9.7l0,0c-0.3,0.1-0.6,0.1-0.9,0.1
			c-0.3,0.1-0.6,0.1-0.9,0.1c-0.5,0.1-0.9,0.1-1.4,0.2s-1,0.1-1.4,0.2s-0.8,0.1-1.2,0.1c-0.3,0-0.6,0.1-0.9,0.1
			c-0.2,0-0.4,0-0.6,0.1c-0.5,0-1,0.1-1.5,0.1c-0.3,0-0.7,0.1-1,0.1c-0.9,0.1-1.8,0.1-2.7,0.1h-3.1c-32.1,0-60.9-14.5-80.3-37.3
			c-0.7-0.8-1.3-1.6-2-2.4c-7.1-8.9-12.8-19-16.8-29.9c-0.8-2.2-1.6-4.4-2.2-6.7c-0.1-0.4-0.2-0.7-0.3-1.1c-0.2-0.8-0.4-1.5-0.6-2.3
			c-0.9-3.6-1.7-7.2-2.2-10.9c-0.1-1.2-0.2-2.5-0.2-3.8h10.3l0.7-1.6l0.4-0.9v0.3c-0.1,0.4-0.2,0.8-0.4,1.1c0,0.4,0.1,0.7,0.1,1
			h130.6l3.2,8l0.2,0.5l3.8,9.6l0.2,0.5l3.6,9c0.1,0.2,0.2,0.4,0.3,0.6c1.3,3,2.4,6.2,3,9.5c0,0.2,0.1,0.3,0.1,0.5
			C1133.2,40.9,1133.5,44,1133.5,47.1L1133.5,47.1L1133.5,47.1z"/>
		<path d="M1133.1,37.9v-0.2l-0.1-0.2c-0.7-3.5-1.8-6.9-3.3-10.2l-3.5-8.8l-4-10.1l-3.4-8.5h-1.1l3,7.5l0.2,0.5l0.2,0.5l3.6,9.1
			l0.2,0.5l0.2,0.5l3.7,9.2v0.1c0.1,0.2,0.2,0.4,0.2,0.5c0.8,1.7,1.4,3.5,2,5.3c0.1,0.3,0.2,0.7,0.3,1c0.1,0.2,0.1,0.4,0.2,0.6
			c0.1,0.4,0.2,0.8,0.3,1.2c0.1,0.2,0.1,0.5,0.2,0.8c0,0.2,0.1,0.3,0.1,0.5l0,0l0.1,0.5c0.6,2.9,0.8,5.9,0.8,8.9
			c0,1.7-0.1,3.3-0.3,5c-0.1,0.9-0.2,1.8-0.4,2.7c-0.1,0.7-0.2,1.3-0.4,2c-0.1,0.5-0.2,1-0.4,1.6c-0.1,0.5-0.3,1.1-0.4,1.6
			s-0.3,1-0.5,1.5c-0.1,0.2-0.1,0.3-0.2,0.5c-0.4,1.1-0.8,2.2-1.2,3.2c-0.2,0.4-0.3,0.7-0.5,1.1c-0.3,0.6-0.5,1.1-0.8,1.7
			c-2.3,4.6-5.4,8.8-9.2,12.5l-0.1,0.1c-0.2,0.2-0.4,0.4-0.6,0.6l-0.2,0.2c-0.2,0.2-0.4,0.4-0.6,0.5c-0.1,0.1-0.2,0.2-0.4,0.3
			c-0.1,0.1-0.2,0.2-0.4,0.3c-5.8,5-12.7,8.5-20.2,10.1c-1.1,0.2-2.1,0.3-3.2,0.4c-1,0.1-2,0.2-2.9,0.3c-0.2,0-0.4,0-0.6,0.1
			c-0.3,0-0.7,0.1-1,0.1c-0.6,0.1-1.2,0.1-1.9,0.1c-0.9,0.1-1.9,0.1-2.8,0.1h-3.1c-31.7,0-60.8-14.3-80.3-37.5
			c-0.7-0.8-1.3-1.6-2-2.5c-7.1-9-12.8-19.1-16.7-30.3c-0.7-1.8-1.2-3.7-1.8-5.6c-0.2-0.6-0.4-1.2-0.5-1.9c-0.2-0.6-0.3-1.1-0.4-1.7
			c-0.9-3.6-1.7-7.2-2.2-10.8c-0.1-1.3-0.2-2.6-0.2-3.8h-1c0,1.2,0,2.5,0.2,3.9c0.5,3.7,1.3,7.4,2.2,11c0.2,1,0.5,1.9,0.8,2.9
			c0,0.1,0.1,0.3,0.1,0.4c0.8,2.7,1.7,5.3,2.6,7.9c4.1,10.9,9.8,20.8,16.9,29.5c0.7,0.8,1.3,1.6,2,2.4c19.7,22.9,48.7,37,80.3,37
			h3.1c1.6-0.1,3.1-0.1,4.6-0.2c2.7-0.2,5.3-0.5,7.9-0.9c7.1-1.6,13.7-4.8,19.3-9.3c0.3-0.2,0.5-0.4,0.8-0.6s0.5-0.4,0.8-0.7
			c0.7-0.6,1.3-1.2,1.9-1.8c9.3-9.1,14.5-21.2,14.5-34.2C1134,44,1133.7,40.9,1133.1,37.9L1133.1,37.9L1133.1,37.9z"/>
	</g>
	<g>
		<path class="st6" d="M1133.5,47.1c0,13.3-5.5,25.3-14.3,33.9c-0.3,0.1-0.7,0.2-1,0.3h-0.1c-0.2,0.1-0.3,0.1-0.4,0.2
			c-0.2,0.1-0.4,0.1-0.6,0.2c-7,2.3-14.3,3.8-21.9,4.4c-2,0.2-4,0.3-6,0.3h-4.8c-35.6-0.8-66.6-20.3-83.5-49.2
			c-0.7-1.2-1.4-2.4-2-3.6c-2.5-4.7-4.6-9.6-6.3-14.6c-2.1-6.1-3.6-12.5-4.4-19.1h130.1l3.2,8l0.2,0.5l3.8,9.6l0.2,0.5l3.6,9
			c0.1,0.2,0.2,0.4,0.3,0.6c1.3,3,2.4,6.2,3,9.5c0,0.2,0.1,0.3,0.1,0.5C1133.2,40.9,1133.5,44,1133.5,47.1L1133.5,47.1L1133.5,47.1z
			"/>
		<path d="M987.8-2.6l-0.4,0.9c0,0.2,0,0.4,0.1,0.5c0.1-0.4,0.2-0.8,0.4-1.1C987.8-2.4,987.8-2.5,987.8-2.6z M1133.1,37.9v-0.2
			l-0.1-0.2c-0.7-3.5-1.8-6.9-3.3-10.2l-3.5-8.8l-4-10.1l-3.4-8.5h-1.1l3,7.5l0.2,0.5l0.2,0.5l3.6,9.1l0.2,0.5l0.2,0.5l3.7,9.2v0.1
			c0.1,0.2,0.2,0.4,0.2,0.5c0.8,1.7,1.4,3.5,2,5.3c0.1,0.3,0.2,0.7,0.3,1c0.1,0.2,0.1,0.4,0.2,0.6c0.1,0.4,0.2,0.8,0.3,1.2
			c0.1,0.2,0.1,0.5,0.2,0.8c0,0.2,0.1,0.3,0.1,0.5l0,0l0.1,0.5c0.6,2.9,0.8,5.9,0.8,8.9c0,1.7-0.1,3.3-0.3,5
			c-0.1,0.9-0.2,1.8-0.4,2.7c-0.1,0.7-0.2,1.3-0.4,2c-0.1,0.5-0.2,1-0.4,1.6c-0.1,0.5-0.3,1.1-0.4,1.6s-0.3,1-0.5,1.5
			c-0.1,0.2-0.1,0.3-0.2,0.5c-0.4,1.1-0.8,2.2-1.2,3.2c-0.2,0.4-0.3,0.7-0.5,1.1c-0.3,0.6-0.5,1.1-0.8,1.7
			c-2.3,4.6-5.4,8.8-9.2,12.5c-0.2,0.1-0.4,0.1-0.6,0.2s-0.4,0.1-0.6,0.2s-0.4,0.1-0.6,0.2l0,0c-7.1,2.3-14.3,3.8-21.8,4.5
			c-1.9,0.2-3.9,0.3-5.9,0.3c-1,0-2,0.1-3,0.1h-2.4c-35.6-0.9-66.6-20.7-83.2-49.8c-0.7-1.2-1.4-2.4-2-3.7
			c-2.2-4.3-4.2-8.8-5.8-13.5c-2.1-6.1-3.6-12.6-4.4-19.2h-1c0.8,6.6,2.3,13,4.4,19.1c1.8,5.5,4.1,10.7,6.8,15.7
			c0.6,1.2,1.3,2.4,2,3.5c17.1,28.7,48.1,48.1,83.7,48.8h4.1c2.1,0,4.1-0.2,6.1-0.3c7.5-0.6,14.9-2.1,22-4.3c0.1,0,0.2-0.1,0.3-0.1
			s0.2-0.1,0.3-0.1c0.2-0.1,0.4-0.1,0.6-0.2c0.1,0,0.2-0.1,0.3-0.1c0.4-0.1,0.7-0.2,1.1-0.4l0.2-0.1c9.3-9.1,14.5-21.2,14.5-34.2
			C1134,44,1133.7,40.9,1133.1,37.9L1133.1,37.9L1133.1,37.9z"/>
	</g>
	<g>
		<path class="st6" d="M1132.5,37.5c-0.2,0-0.3,0.1-0.5,0.1c-5.3,1-10.8,1.5-16.4,1.5c-1,0-2,0-3-0.1h-1.1
			c-29.2-1.3-54.8-16.5-70.4-39.2h77.1l3.2,8l0.2,0.5l3.8,9.6l0.2,0.5l3.6,9c0.1,0.2,0.2,0.4,0.3,0.6
			C1130.8,31.1,1131.8,34.2,1132.5,37.5L1132.5,37.5L1132.5,37.5z"/>
		<path d="M1133.1,37.7l-0.1-0.2c-0.7-3.5-1.8-6.9-3.3-10.2l-3.5-8.8l-4-10.1l-3.4-8.5h-1.1l3,7.5l0.2,0.5l0.2,0.5l3.6,9.1l0.2,0.5
			l0.2,0.5l3.7,9.2v0.1c0.1,0.2,0.2,0.4,0.2,0.5c0.8,1.7,1.4,3.5,2,5.3c0.1,0.3,0.2,0.7,0.3,1c0.1,0.2,0.1,0.4,0.2,0.6
			c0.1,0.4,0.2,0.8,0.3,1.2c0.1,0.3,0.1,0.5,0.2,0.8l0,0c-5.3,1-10.8,1.5-16.3,1.5c-1.1,0-2.2,0-3.2-0.1h-1.1
			c-28.9-1.4-54.2-16.3-69.7-38.7h-1.2c15.6,23.1,41.6,38.4,71.3,39.7h3.9c5.5,0,11.1-0.5,16.5-1.5c0.2,0,0.3-0.1,0.5-0.1l0.5-0.1
			l0,0L1133.1,37.7L1133.1,37.7L1133.1,37.7z"/>
	</g>
	<g>
		<path class="st6" d="M1096.6,93.1c-3.3,0.8-6.8,1.2-10.4,1.2h-2.1C1088.4,94.1,1092.5,93.7,1096.6,93.1L1096.6,93.1z"/>
		<path d="M1086.2,94.8h-2.1v-1c4.2-0.1,8.4-0.5,12.4-1.1l0.2,1C1093.3,94.4,1089.8,94.8,1086.2,94.8L1086.2,94.8z"/>
	</g>
	<g>
		<path class="st6" d="M1125.4,18h-0.5c-7.6,0-15-1.1-22-3.2c-0.2-0.1-0.4-0.1-0.6-0.2c-0.2-0.1-0.4-0.1-0.6-0.2
			c-10-3.1-19.2-8.1-27.2-14.6h43.7l3.2,8l0.2,0.5L1125.4,18L1125.4,18z"/>
		<path d="M1122.1,8.3l-3.4-8.5h-1.1l3,7.5l0.2,0.5l0.2,0.5l3.6,9.1c-7.6,0-15-1.2-22-3.3c-0.2-0.1-0.4-0.1-0.6-0.2
			c-0.2-0.1-0.4-0.1-0.6-0.2c-9.5-3-18.3-7.8-25.9-13.9h-1.7c0.2,0.2,0.4,0.3,0.6,0.5c8.2,6.7,17.6,11.6,27.6,14.6
			c0.2,0.1,0.4,0.1,0.6,0.2c0.2,0.1,0.4,0.1,0.6,0.2c7.1,2,14.5,3.1,21.9,3.1h1.1L1122.1,8.3L1122.1,8.3L1122.1,8.3z"/>
	</g>
</g>
<g>
	<line class="st3" x1="1129.5" y1="28.1" x2="1129.2" y2="27.5"/>
	<rect x="1128.8" y="27.5" transform="matrix(0.93 -0.3676 0.3676 0.93 68.8451 417.1297)" width="1" height="0.7"/>
</g>
<g>
	<g>
		
			<rect x="1733.2" y="452.3" transform="matrix(0.9808 -0.1953 0.1953 0.9808 -63.4845 359.7329)" class="st6" width="119.3" height="99.1"/>
		<path d="M1743.5,562.8l-19.5-98.2l118-23.5l19.5,98.2L1743.5,562.8z M1725.1,465.4l19.2,96.2l116-23.1l-19.2-96.2L1725.1,465.4z"
			/>
	</g>
	<g>
		
			<rect x="1746.4" y="549.8" transform="matrix(0.9808 -0.1953 0.1953 0.9808 -76.1837 363.5889)" class="st6" width="119.3" height="36.8"/>
		<path d="M1750.6,598.6l-7.4-37.1l118-23.5l7.4,37.1L1750.6,598.6z M1744.4,562.3l7,35.1l116-23.1l-7-35.1L1744.4,562.3z"/>
	</g>
	<g>
		
			<rect x="1842.8" y="402.9" transform="matrix(0.4163 -0.9092 0.9092 0.4163 689.9427 1999.8307)" class="st6" width="119.3" height="119.3"/>
		<path d="M1932.1,542.4l-109.4-50.1l50.1-109.4l109.4,50.1L1932.1,542.4z M1824,491.8l107.6,49.2l49.2-107.6l-107.6-49.2
			L1824,491.8L1824,491.8L1824,491.8z"/>
	</g>
	<rect x="1817.6" y="523.1" transform="matrix(0.3861 -0.9225 0.9225 0.3861 641.4377 2011.0623)" width="28" height="1"/>
	<rect x="1737.7" y="490" transform="matrix(0.3861 -0.9225 0.9225 0.3861 626.3794 1922.0928)" width="39" height="1"/>
	<rect x="1805.2" y="523.7" transform="matrix(0.3861 -0.9225 0.9225 0.3861 635.7899 2003.7322)" width="36.2" height="1"/>
	<rect x="1870.7" y="413.8" transform="matrix(0.9136 -0.4066 0.4066 0.9136 -5.4038 803.1139)" width="33.2" height="1"/>
	<rect x="1907.1" y="507.8" transform="matrix(0.9136 -0.4066 0.4066 0.9136 -40.5599 825.7131)" width="31.6" height="1"/>
	<rect x="1898.2" y="501.6" transform="matrix(0.9136 -0.4066 0.4066 0.9136 -38.2676 824.0686)" width="44" height="1"/>
</g>
<g>
	<g>
		<polygon class="st6" points="948.1,5.9 911.1,37.8 909.1,39.5 857.8,83.8 779.9,-6.5 789.2,-14.6 930.5,-14.6 		"/>
		<path d="M931.2-14.6h-1.3l17.6,20.4l-36.3,31.3l-2,1.7L857.9,83L780.6-6.4l9.4-8.1h-1.5l-9.3,8l78.6,91.1l51.4-44.3l2-1.7
			l37.7-32.5L931.2-14.6C931.2-14.6,931.2-14.6,931.2-14.6z"/>
	</g>
	<rect x="861.7" y="17.5" transform="matrix(0.8017 -0.5978 0.5978 0.8017 148.892 522.74)" width="1" height="39"/>
	<rect x="856.7" y="16.8" transform="matrix(0.8017 -0.5978 0.5978 0.8017 144.4938 520.9006)" width="1" height="51.7"/>
</g>
<g id="i">
	<polyline class="st0" points="1378.7,650.7 1377.2,650.7 1375.7,650.7 1375.7,652.2 1375.7,653.7 1378.7,653.7 1378.7,650.7 	"/>
</g>
<g>
	<rect x="1400.9" y="115.8" class="st6" width="417.7" height="118.6"/>
	<g>
		<path class="st11" d="M1819.1,234.9h-418.7V115.3h418.7L1819.1,234.9L1819.1,234.9L1819.1,234.9z M1401.4,233.8h416.7V116.3
			h-416.7V233.8L1401.4,233.8L1401.4,233.8z"/>
		<path d="M1819.5,235.2H1400V114.9h419.5V235.2L1819.5,235.2L1819.5,235.2z M1400.8,234.5h418V115.6h-418V234.5z M1818.5,234.2
			H1401V115.9h417.4L1818.5,234.2L1818.5,234.2L1818.5,234.2z M1401.8,233.5h415.9V116.7h-415.9V233.5z"/>
	</g>
</g>
<g>
	<polygon class="st12" points="1490.8,113.6 1377.3,125.5 1371.3,65.5 1484.7,53.6 	"/>
	<path d="M1376.8,126.1l-6.1-61L1485.2,53l6.1,61L1376.8,126.1z M1371.8,66l5.9,59l112.4-11.9l-5.9-59L1371.8,66z"/>
</g>
<g>
	<path d="M1409.4,100.7l8-1.1v1.1l-9.2,1.2l-0.2-19l1.3-0.2L1409.4,100.7L1409.4,100.7L1409.4,100.7z"/>
	<path d="M1421.6,82.1v0.5c0,0.1-0.1,0.3-0.2,0.4s-0.2,0.2-0.3,0.3s-0.3,0.1-0.4,0.2h-0.4c-0.1,0-0.3-0.1-0.4-0.2s-0.2-0.2-0.3-0.3
		s-0.1-0.3-0.2-0.4s0-0.3,0-0.5s0.1-0.3,0.2-0.4s0.2-0.2,0.3-0.3c0.1-0.1,0.3-0.1,0.4-0.2h0.4c0.1,0,0.3,0.1,0.4,0.2
		s0.2,0.2,0.3,0.3C1421.5,81.8,1421.6,82,1421.6,82.1L1421.6,82.1z M1421.2,86.8l0.1,13.4l-1.2,0.2L1420,87L1421.2,86.8z"/>
	<path d="M1423.9,86.4l0.9-0.1c0.1,0,0.2,0,0.3,0.1l0.2,0.2l4,10c0.1,0.2,0.1,0.4,0.2,0.6s0.1,0.4,0.1,0.6c0.1-0.4,0.2-0.8,0.3-1.2
		l3.8-11.1c0-0.1,0.1-0.2,0.2-0.3c0.1-0.1,0.2-0.1,0.2-0.1l0.9-0.1l-5,14l-1,0.1L1423.9,86.4L1423.9,86.4z"/>
	<path d="M1445.4,86.1c0.1,0.4,0,0.7,0,1.1c-0.1,0.3-0.2,0.7-0.4,1c-0.2,0.3-0.5,0.6-0.9,1s-0.9,0.6-1.5,0.9s-1.4,0.6-2.2,0.9
		c-0.9,0.3-1.9,0.6-3.1,0.9v0.6c0,0.2,0,0.4,0.1,0.5c0.2,1.3,0.6,2.3,1.3,3c0.7,0.7,1.6,0.9,2.8,0.8c0.5-0.1,0.9-0.2,1.2-0.3
		s0.7-0.3,0.9-0.5c0.3-0.2,0.5-0.4,0.7-0.6s0.4-0.4,0.5-0.6s0.3-0.3,0.4-0.4s0.2-0.2,0.3-0.2s0.2,0,0.3,0.1l0.3,0.3
		c-0.4,0.5-0.7,1-1.1,1.3c-0.4,0.4-0.7,0.7-1.1,1s-0.8,0.5-1.2,0.6s-0.9,0.3-1.4,0.3c-0.7,0.1-1.4,0.1-1.9-0.1
		c-0.6-0.2-1.1-0.4-1.5-0.8s-0.8-0.9-1.1-1.5s-0.5-1.3-0.6-2.1c-0.1-0.7-0.1-1.3-0.1-2s0.2-1.4,0.3-2c0.2-0.7,0.4-1.3,0.7-1.9
		c0.3-0.6,0.7-1.1,1.1-1.6s0.9-0.8,1.5-1.2c0.6-0.3,1.2-0.5,1.9-0.6c0.6-0.1,1.2-0.1,1.6,0.1s0.8,0.3,1.2,0.5s0.5,0.5,0.7,0.8
		C1445.3,85.5,1445.4,85.8,1445.4,86.1L1445.4,86.1L1445.4,86.1z M1441.7,84.8c-0.7,0.1-1.3,0.3-1.8,0.7c-0.5,0.4-1,0.8-1.3,1.4
		c-0.4,0.6-0.7,1.2-0.8,1.9s-0.3,1.4-0.4,2.1c1.1-0.3,2-0.5,2.8-0.8s1.4-0.5,1.9-0.8s0.9-0.5,1.3-0.8c0.3-0.3,0.6-0.5,0.7-0.8
		c0.2-0.2,0.3-0.5,0.3-0.8v-0.8c0-0.2-0.1-0.4-0.2-0.6s-0.3-0.4-0.5-0.5s-0.5-0.3-0.8-0.3C1442.5,84.8,1442.1,84.7,1441.7,84.8
		L1441.7,84.8L1441.7,84.8z"/>
	<path d="M1455.2,83.9c-0.1,0.1-0.1,0.2-0.3,0.2c-0.1,0-0.2,0-0.3-0.1s-0.3-0.2-0.6-0.3c-0.2-0.1-0.5-0.2-0.8-0.3
		c-0.3-0.1-0.7-0.1-1.2,0c-0.4,0.1-0.8,0.2-1.2,0.4s-0.7,0.4-0.9,0.7c-0.3,0.3-0.4,0.6-0.6,1s-0.2,0.7-0.1,1.1s0.2,0.7,0.4,0.9
		c0.2,0.2,0.4,0.4,0.7,0.6c0.3,0.1,0.6,0.3,1,0.3s0.7,0.2,1.1,0.3c0.4,0.1,0.8,0.2,1.1,0.3s0.7,0.3,1,0.5s0.6,0.4,0.8,0.8
		s0.3,0.7,0.4,1.2c0.1,0.6,0,1.1-0.1,1.7s-0.4,1.1-0.8,1.5c-0.3,0.5-0.8,0.9-1.3,1.2c-0.5,0.3-1.2,0.5-1.9,0.6
		c-0.8,0.1-1.6,0.1-2.2-0.2s-1.1-0.5-1.6-1l0.2-0.5c0-0.1,0.1-0.1,0.1-0.2c0.1,0,0.1-0.1,0.2-0.1s0.2,0,0.3,0.2
		c0.2,0.1,0.3,0.3,0.6,0.4s0.6,0.3,0.9,0.3s0.8,0.1,1.4,0c0.5-0.1,1-0.2,1.4-0.4c0.4-0.2,0.7-0.5,1-0.8s0.4-0.7,0.6-1.1
		c0.1-0.4,0.1-0.8,0.1-1.3c-0.1-0.4-0.2-0.7-0.4-0.9c-0.2-0.2-0.4-0.4-0.7-0.6c-0.3-0.2-0.6-0.3-1-0.4s-0.7-0.2-1.1-0.2
		s-0.7-0.2-1.1-0.3c-0.4-0.1-0.7-0.2-1-0.4c-0.3-0.2-0.6-0.4-0.8-0.7s-0.3-0.7-0.4-1.1c-0.1-0.5,0-1,0.1-1.5c0.2-0.5,0.4-1,0.7-1.4
		s0.8-0.8,1.3-1.1s1.1-0.5,1.7-0.6c0.7-0.1,1.4-0.1,1.9,0.1c0.6,0.2,1.1,0.4,1.6,0.8L1455.2,83.9L1455.2,83.9L1455.2,83.9z"/>
</g>
<g>
	<line class="st3" x1="1435.2" y1="125.8" x2="1437.1" y2="147.8"/>
	
		<rect x="1435.4" y="125.9" transform="matrix(0.9965 -8.350392e-02 8.350392e-02 0.9965 -6.4199 120.4016)" class="st11" width="1.5" height="22.1"/>
</g>
<path class="st11" d="M1434.1,126.7c-5.4,0-9.9-4.5-9.9-10.1s4.4-10.1,9.9-10.1s9.9,4.5,9.9,10.1S1439.5,126.7,1434.1,126.7z
	 M1434.1,108c-4.6,0-8.3,3.8-8.3,8.6s3.7,8.6,8.3,8.6s8.3-3.8,8.3-8.6S1438.6,108,1434.1,108z"/>
</svg>
