<?xml version="1.0" encoding="utf-8"?>
<!-- Generator: Adobe Illustrator 26.2.1, SVG Export Plug-In . SVG Version: 6.00 Build 0)  -->
<svg version="1.1" id="Livello_1" xmlns="http://www.w3.org/2000/svg" xmlns:xlink="http://www.w3.org/1999/xlink" x="0px" y="0px"
	 viewBox="0 0 819 232.1" style="enable-background:new 0 0 819 232.1;" xml:space="preserve">
<style type="text/css">
	.st0{fill:#FBD213;}
	.st1{fill:#F9F4E1;}
</style>
<g id="a">
	<g id="b">
	</g>
	<g id="c">
	</g>
	<g id="d">
	</g>
	<g id="e">
	</g>
	<g id="f">
	</g>
	<g id="g">
	</g>
</g>
<g id="h">
</g>
<g id="j">
</g>
<g>
	<path class="st0" d="M243.9,26c7.6,19.1,9.7,39.1,7,58.1c-2.7,19.6-10.4,38.3-22.3,53.9c-11.5,15.2-27,27.5-45.6,35.3
		s-38.1,9.9-56.7,7.2c-19.2-2.7-37.4-10.6-52.7-22.8c-14.8-11.8-26.9-27.6-34.4-46.7l8.9-3.7C55,124.8,66,139.2,79.6,150
		c13.9,11.1,30.6,18.3,48.1,20.8c17,2.5,34.8,0.5,51.8-6.6c17-7.1,31.1-18.4,41.7-32.2c10.9-14.3,17.9-31.3,20.4-49.2
		c2.4-17.4,0.5-35.6-6.4-53.1L243.9,26L243.9,26z"/>
	<path class="st1" d="M158.5,61.5c1.2,3.2,1.6,6.5,1.2,9.6c-0.4,3.3-1.7,6.3-3.7,8.9c-1.9,2.5-4.5,4.6-7.6,5.9s-6.3,1.6-9.4,1.2
		c-3.2-0.5-6.2-1.8-8.7-3.8c-2.5-2-4.5-4.6-5.7-7.7l-76.5,31.8C55,124.8,66,139.2,79.6,150c13.9,11.1,30.6,18.3,48.1,20.8
		c17,2.5,34.8,0.5,51.8-6.6c17-7.1,31.1-18.4,41.7-32.2c10.9-14.3,17.9-31.3,20.4-49.2c2.4-17.4,0.5-35.6-6.4-53.1L158.5,61.5
		L158.5,61.5z M72,137.3c-5.4-5.7-10.1-12.1-14-19c-2.5-4.5-0.7-10.2,4-12.1L121,81.6c0.9-0.4,2-0.1,2.6,0.8v0c0.6,0.8,0.6,2,0,2.8
		l-39.2,51.5C81.3,140.8,75.5,141,72,137.3L72,137.3z M114.9,163.7c-7.5-2.2-14.7-5.3-21.5-9.3c-4.4-2.6-5.6-8.5-2.5-12.5l39.2-51.5
		c0.6-0.8,1.7-1.1,2.6-0.7l0,0c0.9,0.4,1.5,1.4,1.4,2.4l-8.8,64.7C124.7,161.9,119.7,165.2,114.9,163.7L114.9,163.7z M170.7,153.3
		c1.9,4.8-0.8,10.1-5.7,11.4c-7.6,1.9-15.3,2.9-23.1,3c-5,0-9-4.5-8.3-9.6l8.8-64.7c0.1-1,0.9-1.8,2-2h0c1-0.1,2,0.5,2.4,1.4
		L170.7,153.3L170.7,153.3z M208.8,139.8c-5.6,5.5-11.8,10.4-18.6,14.4c-4.4,2.6-10,0.7-11.8-4.1l-24-60.6c-0.4-1-0.1-2.1,0.7-2.7
		l0,0c0.8-0.6,1.9-0.6,2.7,0l50.3,40.2C212.2,130.2,212.4,136.2,208.8,139.8L208.8,139.8z M234.6,95.8c-2.2,7.7-5.2,15.1-9.1,22
		c-2.5,4.5-8.3,5.7-12.3,2.5l-50.3-40.2c-0.8-0.6-1.1-1.8-0.7-2.7l0,0c0.4-0.9,1.4-1.5,2.4-1.4l63.2,9
		C232.8,85.8,236,90.9,234.6,95.8L234.6,95.8z M238.3,68.3c0,5.2-4.4,9.2-9.4,8.5l-63.2-9c-1-0.1-1.8-1-1.9-2v0
		c-0.1-1,0.4-2,1.4-2.4l59.1-24.5c4.7-1.9,9.9,0.9,11.1,5.9C237.3,52.3,238.3,60.3,238.3,68.3L238.3,68.3z"/>
	<path class="st0" d="M123.7,85.2l-39.2,51.5c-3.1,4.1-9,4.3-12.5,0.6c-5.4-5.7-10.1-12.1-14-19c-2.5-4.5-0.7-10.2,4-12.1L121,81.6
		c0.9-0.4,2-0.1,2.6,0.8v0C124.3,83.2,124.3,84.4,123.7,85.2L123.7,85.2z"/>
	<path class="st0" d="M134.2,92.1l-8.8,64.7c-0.7,5.1-5.7,8.4-10.5,6.9c-7.5-2.2-14.7-5.3-21.5-9.3c-4.4-2.6-5.6-8.5-2.5-12.5
		l39.2-51.5c0.6-0.8,1.7-1.1,2.6-0.7l0,0C133.8,90.1,134.3,91.1,134.2,92.1L134.2,92.1z"/>
	<path class="st0" d="M146.7,92.7l24,60.6c1.9,4.8-0.8,10.1-5.7,11.4c-7.6,1.9-15.3,2.9-23.1,3c-5,0-9-4.5-8.3-9.6l8.8-64.7
		c0.1-1,0.9-1.8,2-2h0C145.3,91.2,146.3,91.8,146.7,92.7L146.7,92.7z"/>
	<path class="st0" d="M208.8,139.8c-5.6,5.5-11.8,10.4-18.6,14.4c-4.4,2.6-10,0.7-11.8-4.1l-24-60.6c-0.4-1-0.1-2.1,0.7-2.7l0,0
		c0.8-0.6,1.9-0.6,2.7,0l50.3,40.2C212.2,130.2,212.4,136.2,208.8,139.8L208.8,139.8z"/>
	<path class="st0" d="M234.6,95.8c-2.2,7.7-5.2,15.1-9.1,22c-2.5,4.5-8.3,5.7-12.3,2.5l-50.3-40.2c-0.8-0.6-1.1-1.8-0.7-2.7l0,0
		c0.4-0.9,1.4-1.5,2.4-1.4l63.2,9C232.8,85.8,236,90.9,234.6,95.8L234.6,95.8z"/>
	<path class="st0" d="M235.4,44.6c1.9,7.8,2.9,15.7,2.9,23.7c0,5.2-4.4,9.2-9.4,8.5l-63.2-9c-1-0.1-1.8-1-1.9-2v0
		c-0.1-1,0.4-2,1.4-2.4l59.1-24.5C229,36.8,234.2,39.6,235.4,44.6L235.4,44.6z"/>
	<path class="st0" d="M158.5,61.5c1.2,3.2,1.6,6.5,1.2,9.6c-0.4,3.3-1.7,6.3-3.7,8.9c-1.9,2.5-4.5,4.6-7.6,5.9s-6.3,1.6-9.4,1.2
		c-3.2-0.5-6.2-1.8-8.7-3.8c-2.5-2-4.5-4.6-5.7-7.7L158.5,61.5L158.5,61.5z"/>
</g>
<g>
	<path class="st0" d="M510.6,36.2c7.6,19.1,9.7,39.1,7,58.1c-2.7,19.6-10.4,38.3-22.3,53.9c-11.5,15.2-27,27.5-45.6,35.3
		s-38.1,9.9-56.7,7.2c-19.2-2.7-37.4-10.6-52.7-22.8c-14.8-11.8-26.9-27.6-34.4-46.7l8.9-3.7c6.9,17.4,17.9,31.9,31.5,42.7
		c14,11.1,30.6,18.3,48.1,20.8c17,2.5,34.8,0.5,51.8-6.6c17-7.1,31.1-18.4,41.7-32.2c10.9-14.3,17.9-31.3,20.3-49.2
		c2.4-17.4,0.5-35.6-6.4-53.1L510.6,36.2L510.6,36.2z"/>
	<path class="st1" d="M425.2,71.6c1.2,3.2,1.6,6.5,1.2,9.6c-0.4,3.3-1.7,6.3-3.7,8.9c-1.9,2.5-4.5,4.6-7.6,5.9s-6.3,1.6-9.4,1.2
		c-3.2-0.5-6.2-1.8-8.7-3.8c-2.5-2-4.5-4.6-5.7-7.7l-76.5,31.8c6.9,17.4,17.9,31.9,31.5,42.7c14,11.1,30.6,18.3,48.1,20.8
		c17,2.5,34.8,0.5,51.8-6.6c17-7.1,31.1-18.4,41.7-32.2c10.9-14.3,17.9-31.3,20.3-49.2c2.4-17.4,0.5-35.6-6.4-53.1L425.2,71.6
		L425.2,71.6z M338.6,147.5c-5.4-5.7-10.1-12.1-14-19c-2.5-4.5-0.7-10.2,4-12.1l59.1-24.5c0.9-0.4,2-0.1,2.6,0.8v0
		c0.6,0.8,0.6,2,0,2.8l-39.2,51.5C348,151,342.1,151.2,338.6,147.5L338.6,147.5z M381.6,173.9c-7.5-2.2-14.7-5.3-21.5-9.3
		c-4.4-2.6-5.6-8.5-2.5-12.5l39.2-51.5c0.6-0.8,1.7-1.1,2.6-0.7l0,0c0.9,0.4,1.5,1.4,1.4,2.4l-8.8,64.7
		C391.4,172.1,386.4,175.3,381.6,173.9L381.6,173.9z M437.4,163.4c1.9,4.8-0.8,10.1-5.7,11.4c-7.6,1.9-15.3,2.9-23.1,3
		c-5,0-9-4.5-8.3-9.6l8.8-64.7c0.1-1,1-1.8,2-2h0c1-0.1,2,0.5,2.4,1.4L437.4,163.4L437.4,163.4z M475.4,150
		c-5.6,5.5-11.8,10.4-18.6,14.4c-4.4,2.6-10,0.7-11.8-4.1l-24-60.6c-0.4-1-0.1-2.1,0.7-2.7l0,0c0.8-0.6,1.9-0.6,2.7,0l50.3,40.2
		C478.8,140.4,479.1,146.4,475.4,150L475.4,150z M501.2,106c-2.2,7.7-5.2,15.1-9.1,22c-2.5,4.5-8.3,5.7-12.3,2.5l-50.3-40.2
		c-0.8-0.6-1.1-1.8-0.7-2.7l0,0c0.4-1,1.4-1.5,2.4-1.4l63.2,9C499.5,95.9,502.6,101,501.2,106L501.2,106z M505,78.4
		c0,5.2-4.4,9.2-9.4,8.5l-63.2-9c-1-0.1-1.8-1-1.9-2v0c-0.1-1,0.4-2,1.4-2.4L491,48.9c4.7-1.9,9.9,0.9,11.1,5.9
		C504,62.5,505,70.5,505,78.4L505,78.4z"/>
	<path class="st0" d="M390.4,95.3l-39.2,51.5c-3.1,4.1-9,4.3-12.5,0.6c-5.4-5.7-10.1-12.1-14-19c-2.5-4.5-0.7-10.2,4-12.1l59.1-24.5
		c0.9-0.4,2-0.1,2.6,0.8v0C391,93.4,391,94.5,390.4,95.3L390.4,95.3z"/>
	<path class="st0" d="M400.9,102.3l-8.8,64.7c-0.7,5.1-5.7,8.4-10.5,6.9c-7.5-2.2-14.7-5.3-21.5-9.3c-4.4-2.6-5.6-8.5-2.5-12.5
		l39.2-51.5c0.6-0.8,1.7-1.1,2.6-0.7l0,0C400.5,100.3,401,101.2,400.9,102.3L400.9,102.3z"/>
	<path class="st0" d="M413.4,102.9l24,60.6c1.9,4.8-0.8,10.1-5.7,11.4c-7.6,1.9-15.3,2.9-23.1,3c-5,0-9-4.5-8.3-9.6l8.8-64.7
		c0.1-1,1-1.8,2-2h0C412,101.3,413,101.9,413.4,102.9L413.4,102.9z"/>
	<path class="st0" d="M475.4,150c-5.6,5.5-11.8,10.4-18.6,14.4c-4.4,2.6-10,0.7-11.8-4.1l-24-60.6c-0.4-1-0.1-2.1,0.7-2.7l0,0
		c0.8-0.6,1.9-0.6,2.7,0l50.3,40.2C478.8,140.4,479.1,146.4,475.4,150L475.4,150z"/>
	<path class="st0" d="M501.2,106c-2.2,7.7-5.2,15.1-9.1,22c-2.5,4.5-8.3,5.7-12.3,2.5l-50.3-40.2c-0.8-0.6-1.1-1.8-0.7-2.7l0,0
		c0.4-1,1.4-1.5,2.4-1.4l63.2,9C499.5,95.9,502.6,101,501.2,106L501.2,106z"/>
	<path class="st0" d="M502.1,54.7c1.9,7.8,2.8,15.7,2.9,23.7c0,5.2-4.4,9.2-9.4,8.5l-63.2-9c-1-0.1-1.8-1-1.9-2v0
		c-0.1-1,0.4-2,1.4-2.4L491,48.9C495.7,46.9,500.9,49.7,502.1,54.7L502.1,54.7z"/>
	<path class="st0" d="M425.2,71.6c1.2,3.2,1.6,6.5,1.2,9.6c-0.4,3.3-1.7,6.3-3.7,8.9c-1.9,2.5-4.5,4.6-7.6,5.9s-6.3,1.6-9.4,1.2
		c-3.2-0.5-6.2-1.8-8.7-3.8c-2.5-2-4.5-4.6-5.7-7.7L425.2,71.6L425.2,71.6z"/>
</g>
</svg>
