<?xml version="1.0" encoding="utf-8"?>
<!-- Generator: Adobe Illustrator 26.2.1, SVG Export Plug-In . SVG Version: 6.00 Build 0)  -->
<svg version="1.1" id="Livello_1" xmlns="http://www.w3.org/2000/svg" xmlns:xlink="http://www.w3.org/1999/xlink" x="0px" y="0px"
	 viewBox="0 0 500 500" style="enable-background:new 0 0 500 500;" xml:space="preserve">
<style type="text/css">
	.st0{fill:#C6C5C5;}
	.st1{fill:#FFFFFF;}
	.st2{enable-background:new    ;}
	.st3{fill:#2A6EB5;}
	.st4{fill:#FBD213;}
</style>
<g id="a">
	<g id="b">
	</g>
	<g id="c">
	</g>
	<g id="d">
	</g>
	<g id="e">
	</g>
	<g id="f">
	</g>
	<g id="g">
	</g>
</g>
<g id="h">
</g>
<g id="i">
</g>
<path class="st0" d="M250,381.9c-101,0-182.9,6.1-182.9,13.6S149,409.2,250,409.2s182.9-6.1,182.9-13.6S351,381.9,250,381.9"/>
<g>
	<polygon class="st1" points="417.1,395.5 82.9,395.5 114.3,332.4 385.7,332.4 	"/>
	<path d="M417.1,397H82.9c-0.5,0-1-0.3-1.3-0.7s-0.3-1-0.1-1.5l31.4-63.2c0.2-0.5,0.8-0.8,1.3-0.8h271.4c0.6,0,1.1,0.3,1.3,0.8
		l31.4,63.2c0.2,0.5,0.2,1-0.1,1.5S417.6,397,417.1,397L417.1,397z M85.3,394h329.4l-29.9-60.2H115.2L85.3,394L85.3,394z"/>
</g>
<g class="st2">
	<path d="M180,381.4h8.4v-29.8c0-0.6,0-1.2,0.1-1.9l-8.1,7.2c-0.2,0.2-0.4,0.2-0.6,0.2c-0.3,0-0.5-0.1-0.7-0.3l-0.8-1l10.6-9.4h1.9
		v35h8v1.9H180V381.4z"/>
	<path d="M218,346.1c1.4,0,2.7,0.2,4,0.6c1.2,0.4,2.3,1,3.3,1.8c0.9,0.8,1.7,1.7,2.2,2.9c0.6,1.2,0.8,2.5,0.8,4
		c0,1.2-0.2,2.3-0.6,3.2c-0.4,1-0.9,1.8-1.5,2.5c-0.6,0.7-1.4,1.3-2.3,1.8c-0.9,0.5-1.8,0.9-2.9,1.1c2.7,0.5,4.7,1.5,6.1,3.1
		c1.4,1.6,2.1,3.6,2.1,5.9c0,1.5-0.3,2.9-0.9,4.2c-0.6,1.3-1.4,2.4-2.5,3.3c-1.1,0.9-2.3,1.7-3.7,2.2s-3,0.8-4.7,0.8
		c-2.1,0-3.8-0.3-5.2-0.8c-1.4-0.6-2.5-1.3-3.4-2.2c-0.9-0.9-1.6-1.9-2.1-3c-0.5-1.1-0.9-2.2-1.2-3.3l1-0.4c0.2-0.1,0.4-0.1,0.6-0.1
		c0.2,0,0.4,0,0.5,0.1c0.2,0.1,0.3,0.3,0.4,0.5l0.2,0.5c0.1,0.3,0.3,0.7,0.4,1.2c0.2,0.5,0.4,0.9,0.7,1.4c0.3,0.5,0.7,1,1.1,1.5
		c0.4,0.5,1,0.9,1.6,1.3s1.4,0.7,2.3,0.9c0.9,0.2,1.9,0.4,3,0.4c1.6,0,2.9-0.3,4.1-0.8c1.2-0.5,2.1-1.2,2.9-2
		c0.8-0.8,1.4-1.7,1.8-2.7c0.4-1,0.6-2,0.6-2.9c0-1.1-0.2-2.2-0.5-3.1c-0.4-1-0.9-1.8-1.8-2.5s-1.9-1.3-3.3-1.7
		c-1.4-0.4-3-0.6-5-0.6v-1.8c1.6,0,3-0.2,4.2-0.6c1.2-0.4,2.2-0.9,3-1.6c0.8-0.7,1.4-1.5,1.8-2.4s0.6-2,0.6-3.1
		c0-1.3-0.2-2.4-0.6-3.4s-1-1.7-1.7-2.4c-0.7-0.6-1.6-1.1-2.5-1.4c-1-0.3-2-0.4-3-0.4c-1.2,0-2.2,0.2-3.2,0.5
		c-1,0.3-1.8,0.8-2.6,1.5c-0.7,0.6-1.4,1.4-1.9,2.2s-0.9,1.8-1.1,2.9c-0.1,0.6-0.5,0.9-1,0.9c-0.1,0-0.2,0-0.3,0l-1.3-0.2
		c0.2-1.6,0.7-3,1.3-4.2c0.6-1.2,1.5-2.3,2.4-3.1c1-0.8,2.1-1.5,3.4-1.9C215.1,346.4,216.5,346.1,218,346.1z"/>
	<path d="M244.6,384.4c-0.1,0.3-0.3,0.6-0.6,0.8c-0.3,0.2-0.6,0.2-0.9,0.2h-1l16.1-39c0.3-0.6,0.7-1,1.4-1h1.1L244.6,384.4z"/>
	<path d="M278.7,381.4h8.4v-29.8c0-0.6,0-1.2,0.1-1.9l-8.1,7.2c-0.2,0.2-0.4,0.2-0.6,0.2c-0.3,0-0.5-0.1-0.7-0.3l-0.8-1l10.6-9.4
		h1.9v35h8v1.9h-18.9V381.4z"/>
	<path d="M325.8,347.6c0,0.3-0.1,0.6-0.4,0.9s-0.6,0.3-1.1,0.3h-13.3l-2.2,12.2c1.2-0.3,2.3-0.5,3.3-0.6c1-0.1,2-0.2,3-0.2
		c1.9,0,3.6,0.3,5,0.8c1.5,0.5,2.7,1.3,3.6,2.3c1,1,1.7,2.1,2.2,3.5s0.8,2.8,0.8,4.4c0,1.9-0.3,3.7-1,5.2c-0.7,1.5-1.6,2.8-2.7,3.9
		s-2.5,1.9-4,2.5c-1.5,0.6-3.2,0.9-4.9,0.9c-1,0-2-0.1-2.9-0.3c-0.9-0.2-1.8-0.4-2.6-0.7c-0.8-0.3-1.6-0.7-2.2-1
		c-0.7-0.4-1.3-0.8-1.8-1.2l0.7-1c0.2-0.3,0.4-0.4,0.8-0.4c0.2,0,0.5,0.1,1,0.4c0.4,0.3,1,0.5,1.6,0.9c0.7,0.3,1.5,0.6,2.4,0.9
		c0.9,0.3,2,0.4,3.2,0.4c1.4,0,2.7-0.2,4-0.7c1.2-0.5,2.3-1.1,3.2-2c0.9-0.9,1.6-1.9,2.1-3.2c0.5-1.3,0.8-2.7,0.8-4.3
		c0-1.3-0.2-2.5-0.6-3.6c-0.4-1.1-1-2.1-1.8-2.8c-0.8-0.8-1.8-1.4-3-1.8c-1.2-0.4-2.6-0.7-4.2-0.7c-1,0-2,0.1-3.1,0.2
		c-1.1,0.2-2.3,0.4-3.5,0.8l-1.6-0.5l2.9-16.3h16.5V347.6z"/>
</g>
<g>
	<path class="st3" d="M381.8,263.6L381.8,263.6L381.8,263.6c0.2,0,0.3,0.1,0.5,0.1c4.3,1.1,7.7,4.1,9.3,8c0.6,1.3,1,2.8,1.1,4.2
		c0.2,1.6,0,3.3-0.4,4.9c-0.2,0-0.4-0.1-0.5-0.1c-7.4-1.9-11.9-9.4-10.1-16.8C381.7,263.9,381.8,263.8,381.8,263.6L381.8,263.6z"/>
	<path class="st3" d="M381.8,263.6L381.8,263.6c0-0.1,0.1-0.2,0.1-0.4c2.1-7.3,9.6-11.6,17-9.7c0.2,0,0.3,0.1,0.5,0.1
		c-0.4,1.6-1.1,3.1-2,4.4c-0.8,1.2-1.9,2.3-3.1,3.2c-3.3,2.5-7.7,3.5-12,2.4C382.1,263.7,382,263.7,381.8,263.6z"/>
	<path class="st3" d="M328.3,263.7c14.3,3.7,28.6,4.3,42.4,2.2c3.8-0.6,7.4-1.3,11.1-2.3l0,0c0,0,0,0,0,0l0,0
		c-2.7-2.6-5.6-5.1-8.7-7.5c-11-8.5-23.8-14.9-38.1-18.6c-18.2-4.7-36.5-4.4-53.5,0.1C294.2,249.8,310,259,328.3,263.7L328.3,263.7z
		"/>
	<path class="st1" d="M292.2,240.5c0.8-3,3.9-4.9,6.9-4.1s4.9,3.9,4.1,6.9c-0.8,3-3.9,4.9-6.9,4.1S291.4,243.5,292.2,240.5
		L292.2,240.5z"/>
	<path d="M293.5,240.8c0.6-2.3,3-3.7,5.3-3.1c2.3,0.6,3.7,3,3.1,5.3s-3,3.7-5.3,3.1S292.9,243.1,293.5,240.8L293.5,240.8z"/>
</g>
<g>
	<path class="st3" d="M326.5,281.9L326.5,281.9L326.5,281.9c0.2,0.1,0.3,0.1,0.5,0.2c4.1,1.9,6.8,5.4,7.8,9.5
		c0.4,1.4,0.5,2.9,0.4,4.4c-0.1,1.6-0.5,3.2-1.2,4.8c-0.2-0.1-0.3-0.1-0.5-0.2c-6.9-3.2-10-11.3-7.1-18.3
		C326.4,282.1,326.5,282,326.5,281.9L326.5,281.9z"/>
	<path class="st3" d="M326.5,281.9L326.5,281.9c0.1-0.1,0.1-0.2,0.2-0.3c3.3-6.8,11.5-9.7,18.4-6.6c0.2,0.1,0.3,0.1,0.5,0.2
		c-0.7,1.5-1.6,2.9-2.8,4c-1,1.1-2.3,1.9-3.6,2.6c-3.7,1.9-8.2,2.1-12.3,0.3C326.8,282,326.7,282,326.5,281.9L326.5,281.9z"/>
	<path class="st3" d="M273.8,272.6c13.4,6.1,27.5,9.2,41.3,9.6c3.8,0.1,7.6,0,11.3-0.3l0,0c0,0,0,0,0,0l0,0c-2.2-3.1-4.6-6-7.2-8.9
		c-9.3-10.3-20.8-18.9-34.2-25c-17.1-7.8-35.2-10.7-52.7-9.3C242.7,252.9,256.7,264.8,273.8,272.6L273.8,272.6z"/>
	<path class="st1" d="M242.4,243.4c1.3-2.9,4.7-4.1,7.6-2.8c2.9,1.3,4.1,4.7,2.8,7.5c-1.3,2.9-4.7,4.1-7.5,2.8
		S241.1,246.2,242.4,243.4L242.4,243.4z"/>
	<path d="M243.6,243.9c1-2.2,3.6-3.2,5.8-2.2s3.2,3.6,2.1,5.8c-1,2.2-3.6,3.2-5.8,2.1S242.6,246.1,243.6,243.9z"/>
</g>
<g>
	<path class="st3" d="M188.6,279.5L188.6,279.5L188.6,279.5c0.2,0.1,0.3,0.1,0.5,0.2c4.1,1.9,6.8,5.4,7.8,9.5
		c0.4,1.4,0.5,2.9,0.4,4.4c-0.1,1.6-0.5,3.2-1.2,4.8c-0.2-0.1-0.3-0.1-0.5-0.2c-6.9-3.2-10.1-11.3-7.1-18.3
		C188.6,279.7,188.6,279.6,188.6,279.5L188.6,279.5z"/>
	<path class="st3" d="M188.7,279.5L188.7,279.5c0.1-0.1,0.1-0.2,0.2-0.3c3.3-6.8,11.5-9.7,18.4-6.6c0.2,0.1,0.3,0.1,0.5,0.2
		c-0.7,1.5-1.6,2.9-2.8,4c-1.1,1.1-2.3,1.9-3.6,2.6c-3.7,1.9-8.2,2.1-12.3,0.3C189,279.6,188.8,279.6,188.7,279.5L188.7,279.5z"/>
	<path class="st3" d="M135.9,270.2c13.4,6.1,27.4,9.2,41.3,9.6c3.8,0.1,7.6,0,11.3-0.3l0,0c0,0,0,0,0.1,0l0,0
		c-2.2-3.1-4.6-6-7.2-8.9c-9.3-10.3-20.8-18.9-34.2-25c-17.1-7.8-35.2-10.7-52.7-9.3C104.8,250.6,118.8,262.4,135.9,270.2
		L135.9,270.2z"/>
	<path class="st1" d="M104.5,241c1.3-2.9,4.7-4.1,7.6-2.8c2.9,1.3,4.1,4.7,2.8,7.5s-4.7,4.1-7.5,2.8S103.2,243.9,104.5,241
		L104.5,241z"/>
	<path d="M105.7,241.6c1-2.2,3.6-3.2,5.8-2.2c2.2,1,3.2,3.6,2.2,5.8s-3.6,3.2-5.8,2.1C105.7,246.3,104.7,243.7,105.7,241.6z"/>
</g>
<g>
	<path class="st3" d="M190,201L190,201L190,201c-0.2,0-0.3-0.1-0.5-0.1c-4.3-1.1-7.7-4.1-9.3-7.9c-0.6-1.3-1-2.8-1.1-4.2
		c-0.2-1.6-0.1-3.3,0.4-4.9c0.2,0,0.4,0.1,0.5,0.1c7.4,1.9,11.9,9.4,10.1,16.8C190.1,200.8,190.1,200.9,190,201L190,201z"/>
	<path class="st3" d="M190,201L190,201c0,0.1-0.1,0.2-0.1,0.4c-2.1,7.3-9.6,11.6-17,9.7c-0.2,0-0.3-0.1-0.5-0.1
		c0.4-1.6,1.1-3.1,2-4.4c0.8-1.2,1.9-2.3,3.1-3.2c3.3-2.5,7.7-3.5,12-2.4C189.7,200.9,189.9,201,190,201z"/>
	<path class="st3" d="M243.6,200.9c-14.3-3.7-28.6-4.3-42.4-2.2c-3.8,0.6-7.4,1.3-11.1,2.3l0,0c0,0,0,0-0.1,0l0,0
		c2.7,2.6,5.6,5.1,8.7,7.5c11,8.5,23.8,14.9,38.1,18.6c18.2,4.7,36.5,4.4,53.5-0.1C277.7,214.8,261.8,205.7,243.6,200.9L243.6,200.9
		z"/>
	<path class="st1" d="M279.6,224.2c-0.8,3-3.9,4.9-6.9,4.1s-4.9-3.9-4.1-6.9c0.8-3,3.9-4.9,6.9-4.1S280.4,221.1,279.6,224.2
		L279.6,224.2z"/>
	<path d="M278.4,223.9c-0.6,2.3-3,3.7-5.3,3.1c-2.3-0.6-3.7-3-3.1-5.3s3-3.7,5.3-3.1S279,221.5,278.4,223.9L278.4,223.9z"/>
</g>
<g>
	<path class="st3" d="M185.3,154.3L185.3,154.3L185.3,154.3c-0.2,0-0.4-0.1-0.5-0.1c-4.4-0.9-7.9-3.7-9.8-7.4
		c-0.7-1.3-1.1-2.7-1.3-4.2c-0.2-1.6-0.2-3.3,0.1-4.9c0.2,0,0.4,0.1,0.5,0.1c7.5,1.5,12.4,8.7,11,16.2
		C185.3,154.1,185.3,154.2,185.3,154.3L185.3,154.3z"/>
	<path class="st3" d="M185.3,154.3L185.3,154.3c0,0.1-0.1,0.2-0.1,0.4c-1.7,7.4-9,12.1-16.4,10.6c-0.2,0-0.4-0.1-0.5-0.1
		c0.3-1.7,0.9-3.2,1.8-4.6c0.8-1.3,1.8-2.4,2.9-3.4c3.2-2.7,7.5-3.9,11.9-3.1C184.9,154.2,185.1,154.3,185.3,154.3z"/>
	<path class="st3" d="M238.7,151.3c-14.5-2.9-28.8-2.7-42.4,0.1c-3.7,0.8-7.4,1.7-10.9,2.9l0,0c0,0,0,0-0.1,0l0,0
		c2.9,2.5,5.9,4.8,9.1,7c11.4,7.9,24.6,13.6,39,16.5c18.4,3.7,36.7,2.4,53.4-3C273.5,163.4,257.2,155.1,238.7,151.3L238.7,151.3z"/>
	<path class="st1" d="M276,172.6c-0.6,3.1-3.6,5.1-6.7,4.4s-5.1-3.6-4.5-6.7s3.6-5.1,6.7-4.4C274.6,166.5,276.6,169.5,276,172.6
		L276,172.6z"/>
	<path d="M274.7,172.3c-0.5,2.4-2.8,3.9-5.1,3.4c-2.4-0.5-3.9-2.8-3.4-5.1s2.8-3.9,5.1-3.4S275.2,170,274.7,172.3z"/>
</g>
<g>
	<path class="st3" d="M204.1,118.3L204.1,118.3L204.1,118.3c-0.2,0-0.4,0-0.5,0.1c-4.4,0.5-8.6-1.2-11.6-4.1c-1-1-1.9-2.2-2.5-3.6
		c-0.7-1.4-1.2-3-1.4-4.7c0.2,0,0.4-0.1,0.5-0.1c7.6-0.8,14.4,4.5,15.4,12.1C204.1,118.1,204.1,118.2,204.1,118.3L204.1,118.3z"/>
	<path class="st3" d="M204.1,118.3L204.1,118.3c0,0.1,0,0.3,0,0.4c0.6,7.6-4.9,14.3-12.4,15.1c-0.2,0-0.4,0-0.5,0.1
		c-0.2-1.7-0.1-3.3,0.3-4.9c0.4-1.4,0.9-2.8,1.7-4.1c2.2-3.5,5.9-6,10.4-6.5C203.7,118.4,203.9,118.4,204.1,118.3L204.1,118.3z"/>
	<path class="st3" d="M254.1,99.2c-14.7,1.6-28.3,6.2-40.4,13c-3.3,1.9-6.5,3.9-9.5,6.1l0,0c0,0,0,0-0.1,0l0,0
		c3.5,1.5,7.1,2.8,10.8,3.9c13.3,4,27.6,5.5,42.2,3.8c18.7-2.1,35.7-8.9,50-19.1C290.9,100.1,272.8,97.1,254.1,99.2L254.1,99.2z"/>
	<path class="st1" d="M296.1,108.1c0.4,3.1-1.9,5.9-5,6.3c-3.1,0.3-5.9-1.9-6.3-5c-0.4-3.1,1.9-5.9,5-6.3
		C292.9,102.7,295.7,105,296.1,108.1z"/>
	<path d="M294.8,108.2c0.3,2.4-1.5,4.6-3.9,4.8c-2.4,0.3-4.6-1.5-4.8-3.9s1.5-4.6,3.9-4.8S294.5,105.8,294.8,108.2L294.8,108.2z"/>
</g>
<g>
	<path class="st3" d="M83.5,129.7L83.5,129.7L83.5,129.7c-0.2,0.1-0.3,0.1-0.5,0.2c-4.3,1.2-8.7,0.3-12.1-2.2
		c-1.2-0.8-2.2-1.9-3.1-3.1c-0.9-1.3-1.7-2.8-2.2-4.4c0.2-0.1,0.3-0.1,0.5-0.2c7.3-2.1,15,2.1,17.2,9.3
		C83.4,129.5,83.4,129.6,83.5,129.7L83.5,129.7z"/>
	<path class="st3" d="M83.5,129.7L83.5,129.7c0,0.1,0.1,0.2,0.1,0.4c1.9,7.3-2.4,14.9-9.8,16.9c-0.2,0.1-0.3,0.1-0.5,0.1
		c-0.5-1.6-0.6-3.3-0.5-4.9c0.1-1.5,0.5-2.9,1-4.3c1.6-3.8,4.8-6.9,9.2-8.2C83.1,129.8,83.3,129.8,83.5,129.7L83.5,129.7z"/>
	<path class="st3" d="M129.6,102.6c-14.2,4-26.9,10.8-37.7,19.5c-2.9,2.4-5.8,4.9-8.4,7.6l0,0c0,0,0,0,0,0l0,0
		c3.7,0.9,7.4,1.6,11.2,2.1c13.8,1.8,28.1,0.9,42.3-3.2c18.1-5.1,33.8-14.7,46.2-27.1C166.1,97.4,147.8,97.5,129.6,102.6
		L129.6,102.6z"/>
	<path class="st1" d="M172.5,104.5c0.9,3-0.9,6.2-3.9,7c-3,0.9-6.2-0.9-7-3.9s0.9-6.2,3.9-7S171.6,101.4,172.5,104.5z"/>
	<path d="M171.2,104.8c0.7,2.3-0.7,4.7-3,5.4s-4.7-0.7-5.4-3c-0.7-2.3,0.7-4.7,3-5.4C168.2,101.1,170.6,102.5,171.2,104.8
		L171.2,104.8z"/>
</g>
<g>
	<path class="st3" d="M358.1,146L358.1,146L358.1,146c0.2,0,0.4,0,0.5,0c4.5,0,8.5,2.1,11,5.4c0.9,1.1,1.6,2.4,2.1,3.8
		c0.6,1.5,0.9,3.1,0.9,4.9c-0.2,0-0.4,0-0.5,0c-7.6,0-13.8-6.1-14-13.7C358.1,146.2,358.1,146.1,358.1,146L358.1,146z"/>
	<path class="st3" d="M358.1,146L358.1,146c0-0.1,0-0.3,0-0.4c0.2-7.6,6.4-13.6,14.1-13.6c0.2,0,0.4,0,0.5,0c0,1.7-0.3,3.3-0.9,4.8
		c-0.5,1.4-1.2,2.7-2.2,3.9c-2.6,3.2-6.6,5.3-11,5.3C358.5,146,358.3,146,358.1,146z"/>
	<path class="st3" d="M306.3,159.3c14.8,0,28.8-2.9,41.6-8.4c3.5-1.5,6.9-3.1,10.2-5l0,0c0,0,0,0,0,0l0,0c-3.3-1.9-6.7-3.6-10.2-5.1
		c-12.7-5.5-26.8-8.5-41.5-8.6c-18.8-0.1-36.5,4.8-51.8,13.4C269.8,154.3,287.4,159.3,306.3,159.3L306.3,159.3z"/>
	<path class="st1" d="M265.5,145.8c0-3.1,2.6-5.7,5.7-5.7c3.1,0,5.7,2.6,5.7,5.7c0,3.1-2.6,5.7-5.7,5.7S265.5,148.9,265.5,145.8
		L265.5,145.8z"/>
	<path d="M266.9,145.8c0-2.4,2-4.4,4.4-4.4s4.4,2,4.4,4.4c0,2.4-2,4.4-4.4,4.4S266.9,148.2,266.9,145.8L266.9,145.8z"/>
</g>
<g>
	<path class="st3" d="M155.1,223L155.1,223L155.1,223c-0.1-0.1-0.3-0.2-0.5-0.3c-4-2.1-8.5-2.1-12.2-0.4c-1.3,0.6-2.6,1.4-3.7,2.4
		c-1.2,1.1-2.2,2.4-3,3.9c0.1,0.1,0.3,0.2,0.5,0.3c6.8,3.6,15.1,1.1,18.8-5.6C155,223.1,155,223,155.1,223L155.1,223z"/>
	<path class="st3" d="M155.1,222.9L155.1,222.9c0.1-0.1,0.1-0.2,0.2-0.3c3.4-6.8,0.7-15.1-6-18.6c-0.1-0.1-0.3-0.2-0.5-0.2
		c-0.8,1.5-1.3,3.1-1.5,4.6c-0.2,1.5-0.2,3,0.1,4.4c0.8,4.1,3.3,7.8,7.3,9.9C154.8,222.8,154.9,222.9,155.1,222.9L155.1,222.9z"/>
	<path class="st3" d="M194.6,259c-13.1-6.9-24.1-16.1-32.8-26.9c-2.4-2.9-4.6-6-6.6-9.2l0,0c0,0,0,0,0-0.1l0,0
		c3.8-0.1,7.6,0,11.4,0.3c13.8,1.1,27.6,5,40.7,11.9c16.6,8.8,30,21.4,39.5,36.1C229.2,271.7,211.3,267.8,194.6,259L194.6,259z"/>
	<path class="st1" d="M236.9,266.1c1.5-2.8,0.4-6.2-2.4-7.7c-2.8-1.5-6.2-0.4-7.7,2.4s-0.4,6.2,2.4,7.7
		C232,270,235.5,268.9,236.9,266.1L236.9,266.1z"/>
	<path d="M235.8,265.5c1.1-2.1,0.3-4.8-1.8-5.9s-4.8-0.3-5.9,1.8s-0.3,4.8,1.8,5.9S234.6,267.7,235.8,265.5L235.8,265.5z"/>
</g>
<g>
	<path class="st3" d="M74.9,208.7L74.9,208.7L74.9,208.7c-0.2,0-0.3,0.1-0.5,0.1c-4.3,1.3-7.5,4.5-8.9,8.4c-0.5,1.4-0.8,2.8-0.9,4.3
		c-0.1,1.6,0.1,3.3,0.6,4.9c0.2-0.1,0.3-0.1,0.5-0.1C73,224,77.1,216.3,75,209C75,208.9,75,208.8,74.9,208.7L74.9,208.7z"/>
	<path class="st3" d="M74.9,208.7L74.9,208.7c0-0.1-0.1-0.2-0.1-0.4c-2.4-7.2-10.2-11.1-17.4-8.9c-0.2,0.1-0.3,0.1-0.5,0.2
		c0.5,1.6,1.3,3.1,2.2,4.3c0.9,1.2,2,2.2,3.2,3.1c3.4,2.4,7.8,3.2,12.1,1.9C74.6,208.8,74.8,208.7,74.9,208.7L74.9,208.7z"/>
	<path class="st3" d="M128.4,206.3c-14.1,4.4-28.4,5.6-42.2,4.2c-3.8-0.4-7.5-1-11.2-1.8l0,0c0,0,0,0-0.1,0l0,0
		c2.6-2.8,5.4-5.4,8.3-7.9c10.6-9,23.1-16,37.2-20.4c18-5.6,36.3-6.1,53.5-2.4C161.8,190.8,146.4,200.7,128.4,206.3L128.4,206.3z"/>
	<path class="st1" d="M163.3,181.4c-0.9-3-4.1-4.7-7.1-3.8s-4.7,4.1-3.8,7.1s4.1,4.7,7.1,3.8S164.3,184.4,163.3,181.4L163.3,181.4z"
		/>
	<path d="M162.1,181.7c-0.7-2.3-3.2-3.6-5.5-2.9s-3.6,3.2-2.9,5.5s3.2,3.6,5.5,2.9C161.5,186.5,162.8,184.1,162.1,181.7L162.1,181.7
		z"/>
</g>
<g>
	<path class="st3" d="M151,147.8L151,147.8L151,147.8c0.2-0.1,0.3-0.1,0.5-0.1c4.3-1.1,8.7-0.1,12,2.4c1.2,0.9,2.2,1.9,3,3.1
		c0.9,1.3,1.6,2.8,2.1,4.5c-0.2,0.1-0.3,0.1-0.5,0.1c-7.4,1.9-14.9-2.4-17-9.7C151.1,148,151,147.9,151,147.8L151,147.8z"/>
	<path class="st3" d="M151,147.8L151,147.8c0-0.1-0.1-0.2-0.1-0.4c-1.7-7.4,2.8-14.8,10.1-16.7c0.2,0,0.3-0.1,0.5-0.1
		c0.4,1.6,0.5,3.3,0.4,4.9c-0.1,1.5-0.5,2.9-1.1,4.3c-1.7,3.8-5,6.8-9.3,8C151.3,147.7,151.2,147.7,151,147.8L151,147.8z"/>
	<path class="st3" d="M104.2,173.9c14.3-3.7,27.1-10.2,38.1-18.7c3-2.3,5.9-4.8,8.6-7.4l0,0c0,0,0,0,0,0l0,0
		c-3.7-1-7.4-1.8-11.2-2.3c-13.7-2.1-28.1-1.4-42.3,2.3c-18.2,4.7-34.1,13.9-46.7,26.1C67.7,178.3,86,178.6,104.2,173.9L104.2,173.9
		z"/>
	<path class="st1" d="M61.4,171.1c-0.8-3,1-6.1,4.1-6.9s6.2,1,6.9,4.1c0.8,3-1,6.1-4.1,6.9S62.2,174.2,61.4,171.1L61.4,171.1z"/>
	<path d="M62.7,170.8c-0.6-2.3,0.8-4.7,3.1-5.3c2.3-0.6,4.7,0.8,5.3,3.1c0.6,2.3-0.8,4.7-3.1,5.3S63.3,173.1,62.7,170.8z"/>
</g>
<g>
	<path class="st3" d="M368.7,224.8L368.7,224.8L368.7,224.8c0.2,0,0.3,0.1,0.5,0.1c4.3,1.1,7.7,4.2,9.3,8c0.6,1.3,1,2.8,1.1,4.2
		c0.2,1.6,0,3.3-0.4,4.9c-0.2,0-0.4-0.1-0.5-0.1c-7.4-1.9-11.9-9.4-10.1-16.8C368.6,225,368.6,224.9,368.7,224.8L368.7,224.8z"/>
	<path class="st3" d="M368.7,224.7L368.7,224.7c0-0.1,0.1-0.2,0.1-0.4c2.1-7.3,9.6-11.6,17-9.7c0.2,0,0.3,0.1,0.5,0.1
		c-0.4,1.6-1.1,3.1-2,4.4c-0.9,1.2-1.9,2.3-3.1,3.2c-3.3,2.5-7.7,3.5-12,2.4C369,224.8,368.9,224.8,368.7,224.7L368.7,224.7z"/>
	<path class="st3" d="M315.1,224.7c14.3,3.7,28.6,4.4,42.4,2.3c3.8-0.6,7.5-1.3,11.1-2.3l0,0c0,0,0,0,0,0l0,0
		c-2.7-2.6-5.6-5.1-8.6-7.5c-11-8.5-23.8-14.9-38-18.7c-18.2-4.8-36.5-4.5-53.5,0C281.1,210.8,296.9,220,315.1,224.7L315.1,224.7z"
		/>
	<path class="st1" d="M279.1,201.4c0.8-3,3.9-4.9,7-4.1c3,0.8,4.9,3.9,4.1,6.9c-0.8,3-3.9,4.9-6.9,4.1S278.3,204.5,279.1,201.4
		L279.1,201.4z"/>
	<path d="M280.4,201.8c0.6-2.3,3-3.7,5.3-3.1s3.7,3,3.1,5.3c-0.6,2.3-3,3.7-5.3,3.1C281.2,206.5,279.8,204.1,280.4,201.8
		L280.4,201.8z"/>
</g>
<g>
	<path class="st3" d="M409.5,195.7L409.5,195.7L409.5,195.7c0.2,0,0.3,0.1,0.5,0.1c4.3,1.1,7.7,4.2,9.3,8c0.6,1.3,1,2.8,1.1,4.2
		c0.2,1.6,0,3.3-0.4,4.9c-0.2,0-0.4-0.1-0.5-0.1c-7.4-1.9-11.9-9.4-10.1-16.8C409.5,195.9,409.5,195.8,409.5,195.7L409.5,195.7z"/>
	<path class="st3" d="M409.5,195.6L409.5,195.6c0-0.1,0.1-0.2,0.1-0.4c2.1-7.3,9.6-11.6,17-9.7c0.2,0,0.3,0.1,0.5,0.1
		c-0.4,1.6-1.1,3.1-2,4.4c-0.9,1.2-1.9,2.3-3.1,3.2c-3.3,2.5-7.7,3.5-12,2.4C409.9,195.8,409.7,195.7,409.5,195.6L409.5,195.6z"/>
	<path class="st3" d="M356,195.6c14.3,3.7,28.6,4.4,42.4,2.3c3.8-0.6,7.5-1.3,11.1-2.3l0,0c0,0,0,0,0,0l0,0
		c-2.7-2.6-5.6-5.1-8.6-7.5c-11-8.5-23.8-14.9-38-18.7c-18.2-4.8-36.5-4.5-53.5,0C321.9,181.7,337.8,190.9,356,195.6L356,195.6z"/>
	<path class="st1" d="M320,172.3c0.8-3,3.9-4.9,7-4.1c3,0.8,4.9,3.9,4.1,6.9c-0.8,3-3.9,4.9-6.9,4.1S319.2,175.4,320,172.3
		L320,172.3z"/>
	<path d="M321.2,172.7c0.6-2.3,3-3.7,5.3-3.1s3.7,3,3.1,5.3c-0.6,2.3-3,3.7-5.3,3.1C322,177.4,320.6,175,321.2,172.7L321.2,172.7z"
		/>
</g>
<g>
	<path class="st4" d="M437,271.1c-46.2,29.9-111,48.5-182.9,48.5S117.5,301,71.3,271.1H437z"/>
	<path class="st4" d="M254.1,320.1c-69.7,0-134.7-17.2-183.1-48.6l-1.4-0.9h369.1l-1.4,0.9C388.9,302.9,323.8,320.1,254.1,320.1
		L254.1,320.1z M73,271.6c48.1,30.6,112.3,47.5,181.2,47.5s133.1-16.9,181.1-47.5C435.3,271.6,73,271.6,73,271.6z"/>
</g>
<g id="k">
</g>
</svg>
