<?xml version="1.0" encoding="UTF-8"?><svg xmlns="http://www.w3.org/2000/svg" viewBox="0 0 500 500"><defs><style>.l{fill:#d0efec;}.m{fill:#9cdbd9;}</style></defs><g id="a"><g id="b"/><g id="c"/><g id="d"/><g id="e"/><g id="f"/><g id="g"/></g><g id="h"/><g id="i"/><g id="j"/><g id="k"><g><path class="m" d="M371.44,192.4l-.02-.04-.02-.04c.53-.29,1.08-.59,1.61-.9,13.45-7.91,29.13-8.66,42.62-3.41,4.73,1.82,9.19,4.41,13.17,7.67,4.37,3.56,8.18,7.93,11.2,13.07-.51,.33-1.04,.66-1.56,.97-22.94,13.5-52.36,6.16-66.34-16.3-.24-.32-.45-.68-.65-1.02Z"/><path class="m" d="M371.39,192.33l-.03-.05c-.21-.36-.42-.72-.6-1.1-12.78-23.12-4.89-52.34,18.01-65.82,.52-.31,1.07-.61,1.61-.9,2.99,5.08,4.95,10.47,5.95,15.96,.95,5.11,1.04,10.34,.34,15.41-1.96,14.34-10.23,27.69-23.67,35.6-.52,.31-1.07,.61-1.61,.9Z"/><path class="m" d="M239.58,324.55c44.34-26.09,81.24-60.02,109.96-99,7.84-10.65,15.06-21.66,21.66-33.01h.02c.04-.06,.06-.12,.1-.17v-.03c-13.25,.24-26.54,1.22-39.78,2.95-47.95,6.16-95.49,21.94-139.78,48-56.55,33.28-100.96,79.28-131.75,132.24,61.24-1.21,123.01-17.7,179.57-50.98Z"/><path class="l" d="M93.33,356.17c-5.56-9.45-2.4-21.62,7.04-27.18,9.45-5.56,21.61-2.4,27.17,7.05,5.56,9.45,2.41,21.6-7.04,27.16s-21.61,2.42-27.17-7.03Z"/></g><path class="m" d="M97.29,353.84c-4.27-7.26-1.85-16.61,5.41-20.88,7.26-4.27,16.6-1.84,20.87,5.42,4.27,7.26,1.85,16.59-5.41,20.86-7.26,4.27-16.6,1.86-20.87-5.4Z"/></g></svg>