<?xml version="1.0" encoding="utf-8"?>
<!-- Generator: Adobe Illustrator 26.2.1, SVG Export Plug-In . SVG Version: 6.00 Build 0)  -->
<svg version="1.1" id="Livello_1" xmlns="http://www.w3.org/2000/svg" xmlns:xlink="http://www.w3.org/1999/xlink" x="0px" y="0px"
	 viewBox="0 0 500 500" style="enable-background:new 0 0 500 500;" xml:space="preserve">
<style type="text/css">
	.st0{fill:#C6C5C5;}
	.st1{fill:#FFFFFF;}
	.st2{enable-background:new    ;}
	.st3{fill:#2A6EB5;}
	.st4{fill:#FBD213;}
</style>
<g id="a">
	<g id="b">
	</g>
	<g id="c">
	</g>
	<g id="d">
	</g>
	<g id="e">
	</g>
	<g id="f">
	</g>
	<g id="g">
	</g>
</g>
<g id="h">
</g>
<g id="i">
</g>
<g id="j">
	<path class="st0" d="M250,381.9c-101,0-182.9,6.1-182.9,13.6S149,409.2,250,409.2s182.9-6.1,182.9-13.6S351,381.9,250,381.9"/>
	<g>
		<polygon class="st1" points="417.1,395.5 82.9,395.5 114.3,332.4 385.7,332.4 		"/>
		<path d="M417.1,397H82.9c-0.5,0-1-0.3-1.3-0.7s-0.3-1-0.1-1.5l31.4-63.2c0.2-0.5,0.8-0.8,1.3-0.8h271.4c0.6,0,1.1,0.3,1.3,0.8
			l31.4,63.2c0.2,0.5,0.2,1-0.1,1.5S417.6,397,417.1,397L417.1,397z M85.3,394h329.4l-29.9-60.2H115.2L85.3,394L85.3,394z"/>
	</g>
	<g class="st2">
		<path d="M202.1,383.7c-1.8,0-3.4-0.2-4.8-0.7c-1.5-0.5-2.7-1.1-3.8-2c-1-0.9-1.9-1.9-2.5-3.2s-0.9-2.6-0.9-4.2
			c0-1.3,0.2-2.6,0.6-3.6c0.4-1.1,0.9-2,1.6-2.7c0.7-0.8,1.6-1.4,2.5-1.9c1-0.5,2.1-0.9,3.2-1.2c-1.1-0.3-2-0.7-2.9-1.3
			s-1.5-1.2-2.1-1.9c-0.6-0.7-1-1.6-1.3-2.5c-0.3-0.9-0.4-1.9-0.4-2.9c0-1.3,0.2-2.5,0.7-3.7c0.5-1.1,1.2-2.1,2.1-3
			c0.9-0.8,2-1.5,3.3-2c1.3-0.5,2.8-0.7,4.4-0.7c1.6,0,3.1,0.2,4.4,0.7s2.4,1.2,3.3,2c0.9,0.8,1.6,1.8,2.1,3
			c0.5,1.1,0.7,2.4,0.7,3.7c0,1-0.1,2-0.4,2.9c-0.3,0.9-0.7,1.7-1.3,2.5c-0.6,0.7-1.3,1.4-2.1,1.9s-1.8,1-2.9,1.3
			c1.2,0.3,2.3,0.6,3.2,1.2c1,0.5,1.8,1.2,2.5,1.9s1.3,1.7,1.7,2.7c0.4,1.1,0.6,2.3,0.6,3.6c0,1.6-0.3,3-0.9,4.2
			c-0.6,1.2-1.4,2.3-2.5,3.2c-1,0.9-2.3,1.6-3.8,2S203.9,383.7,202.1,383.7z M202.1,381.7c1.4,0,2.7-0.2,3.8-0.6
			c1.1-0.4,2.1-0.9,3-1.7s1.5-1.6,1.9-2.6c0.4-1,0.7-2.1,0.7-3.3c0-1.6-0.3-2.9-0.9-4c-0.6-1.1-1.3-1.9-2.3-2.6
			c-0.9-0.6-1.9-1.1-3-1.4c-1.1-0.3-2.2-0.4-3.2-0.4s-2.1,0.1-3.2,0.4c-1.1,0.3-2.1,0.7-3,1.4s-1.7,1.5-2.3,2.6
			c-0.6,1.1-0.9,2.4-0.9,4c0,1.2,0.2,2.3,0.7,3.3c0.4,1,1.1,1.9,1.9,2.6s1.8,1.3,3,1.7C199.4,381.5,200.7,381.7,202.1,381.7z
			 M202.1,363.2c1.4,0,2.6-0.2,3.6-0.6c1-0.4,1.9-1,2.6-1.7c0.7-0.7,1.2-1.5,1.5-2.5c0.3-0.9,0.5-1.9,0.5-2.9c0-1.1-0.2-2-0.5-2.9
			c-0.4-0.9-0.9-1.7-1.6-2.4c-0.7-0.7-1.6-1.2-2.6-1.6c-1-0.4-2.2-0.6-3.5-0.6c-1.3,0-2.5,0.2-3.5,0.6c-1,0.4-1.9,0.9-2.6,1.6
			c-0.7,0.7-1.2,1.5-1.6,2.4c-0.4,0.9-0.5,1.9-0.5,2.9c0,1,0.2,1.9,0.5,2.9c0.3,0.9,0.8,1.7,1.5,2.5c0.7,0.7,1.5,1.3,2.6,1.7
			S200.7,363.2,202.1,363.2z"/>
		<path d="M229.5,384.4c-0.1,0.3-0.3,0.6-0.6,0.8c-0.3,0.2-0.6,0.2-0.9,0.2h-1l16.1-39c0.3-0.6,0.7-1,1.4-1h1.1L229.5,384.4z"/>
		<path d="M263.7,381.4h8.4v-29.8c0-0.6,0-1.2,0.1-1.9l-8.1,7.2c-0.2,0.2-0.4,0.2-0.6,0.2c-0.3,0-0.5-0.1-0.7-0.3l-0.8-1l10.6-9.4
			h1.9v35h8v1.9h-18.9V381.4z"/>
		<path d="M310.8,347.6c0,0.3-0.1,0.6-0.4,0.9s-0.6,0.3-1.1,0.3h-13.3l-2.2,12.2c1.2-0.3,2.3-0.5,3.3-0.6c1-0.1,2-0.2,3-0.2
			c1.9,0,3.6,0.3,5,0.8c1.5,0.5,2.7,1.3,3.6,2.3c1,1,1.7,2.1,2.2,3.5c0.5,1.3,0.8,2.8,0.8,4.4c0,1.9-0.3,3.7-1,5.2
			c-0.7,1.5-1.6,2.8-2.7,3.9c-1.2,1.1-2.5,1.9-4,2.5c-1.5,0.6-3.2,0.9-4.9,0.9c-1,0-2-0.1-2.9-0.3c-0.9-0.2-1.8-0.4-2.6-0.7
			c-0.8-0.3-1.6-0.7-2.2-1c-0.7-0.4-1.3-0.8-1.8-1.2l0.7-1c0.2-0.3,0.4-0.4,0.8-0.4c0.2,0,0.5,0.1,1,0.4c0.4,0.3,1,0.5,1.6,0.9
			c0.7,0.3,1.5,0.6,2.4,0.9c0.9,0.3,2,0.4,3.2,0.4c1.4,0,2.7-0.2,4-0.7s2.3-1.1,3.2-2c0.9-0.9,1.6-1.9,2.1-3.2
			c0.5-1.3,0.8-2.7,0.8-4.3c0-1.3-0.2-2.5-0.6-3.6c-0.4-1.1-1-2.1-1.8-2.8c-0.8-0.8-1.8-1.4-3-1.8c-1.2-0.4-2.6-0.7-4.2-0.7
			c-1,0-2,0.1-3.1,0.2c-1.1,0.2-2.3,0.4-3.5,0.8l-1.6-0.5l2.9-16.3h16.5V347.6z"/>
	</g>
	<g>
		<path class="st3" d="M381.8,235.1L381.8,235.1L381.8,235.1c0.2,0,0.3,0.1,0.5,0.1c4.3,1.1,7.7,4.1,9.3,7.9c0.6,1.3,1,2.8,1.1,4.2
			c0.2,1.6,0,3.3-0.4,4.9c-0.2,0-0.4-0.1-0.5-0.1c-7.4-1.9-11.9-9.4-10.1-16.8C381.7,235.3,381.8,235.2,381.8,235.1L381.8,235.1z"/>
		<path class="st3" d="M381.8,235.1L381.8,235.1c0-0.1,0.1-0.2,0.1-0.4c2.1-7.3,9.6-11.6,17-9.7c0.2,0,0.3,0.1,0.5,0.1
			c-0.4,1.6-1.1,3.1-2,4.4c-0.8,1.2-1.9,2.3-3.1,3.2c-3.3,2.5-7.7,3.5-12,2.4C382.1,235.2,382,235.1,381.8,235.1z"/>
		<path class="st3" d="M328.3,235.2c14.3,3.7,28.6,4.3,42.4,2.2c3.8-0.6,7.4-1.3,11.1-2.3l0,0c0,0,0,0,0,0l0,0
			c-2.7-2.6-5.6-5.1-8.7-7.5c-11-8.5-23.8-14.9-38.1-18.6c-18.2-4.7-36.5-4.4-53.5,0.1C294.2,221.3,310,230.5,328.3,235.2
			L328.3,235.2z"/>
		<path class="st1" d="M292.2,211.9c0.8-3,3.9-4.9,6.9-4.1s4.9,3.9,4.1,6.9c-0.8,3-3.9,4.9-6.9,4.1S291.4,215,292.2,211.9
			L292.2,211.9z"/>
		<path d="M293.5,212.3c0.6-2.3,3-3.7,5.3-3.1s3.7,3,3.1,5.3s-3,3.7-5.3,3.1S292.9,214.6,293.5,212.3L293.5,212.3z"/>
	</g>
	<g>
		<path class="st3" d="M326.5,253.4L326.5,253.4L326.5,253.4c0.2,0.1,0.3,0.1,0.5,0.2c4.1,1.9,6.8,5.4,7.8,9.5
			c0.4,1.4,0.5,2.9,0.4,4.4c-0.1,1.6-0.5,3.2-1.2,4.8c-0.2-0.1-0.3-0.1-0.5-0.2c-6.9-3.2-10-11.3-7.1-18.3
			C326.4,253.6,326.5,253.5,326.5,253.4L326.5,253.4z"/>
		<path class="st3" d="M326.5,253.3L326.5,253.3c0.1-0.1,0.1-0.2,0.2-0.3c3.3-6.8,11.5-9.7,18.4-6.6c0.2,0.1,0.3,0.1,0.5,0.2
			c-0.7,1.5-1.6,2.9-2.8,4c-1,1.1-2.3,1.9-3.6,2.6c-3.7,1.9-8.2,2.1-12.3,0.3C326.8,253.5,326.7,253.4,326.5,253.3L326.5,253.3z"/>
		<path class="st3" d="M273.8,244.1c13.4,6.1,27.5,9.2,41.3,9.6c3.8,0.1,7.6,0,11.3-0.3l0,0c0,0,0,0,0,0l0,0c-2.2-3.1-4.6-6-7.2-8.9
			c-9.3-10.3-20.8-18.9-34.2-25c-17.1-7.8-35.2-10.7-52.7-9.3C242.7,224.4,256.7,236.2,273.8,244.1L273.8,244.1z"/>
		<path class="st1" d="M242.4,214.9c1.3-2.9,4.7-4.1,7.6-2.8c2.9,1.3,4.1,4.7,2.8,7.5c-1.3,2.9-4.7,4.1-7.5,2.8
			S241.1,217.7,242.4,214.9L242.4,214.9z"/>
		<path d="M243.6,215.4c1-2.2,3.6-3.2,5.8-2.2c2.2,1,3.2,3.6,2.1,5.8c-1,2.2-3.6,3.2-5.8,2.1C243.5,220.2,242.6,217.6,243.6,215.4z"
			/>
	</g>
	<g>
		<path class="st3" d="M188.6,249L188.6,249L188.6,249c0.2,0.1,0.3,0.1,0.5,0.2c4.1,1.9,6.8,5.4,7.8,9.5c0.4,1.4,0.5,2.9,0.4,4.4
			c-0.1,1.6-0.5,3.2-1.2,4.8c-0.2-0.1-0.3-0.1-0.5-0.2c-6.9-3.2-10.1-11.3-7.1-18.3C188.6,249.2,188.6,249.1,188.6,249L188.6,249z"
			/>
		<path class="st3" d="M188.7,249L188.7,249c0.1-0.1,0.1-0.2,0.2-0.3c3.3-6.8,11.5-9.7,18.4-6.6c0.2,0.1,0.3,0.1,0.5,0.2
			c-0.7,1.5-1.6,2.9-2.8,4c-1.1,1.1-2.3,1.9-3.6,2.6c-3.7,1.9-8.2,2.1-12.3,0.3C189,249.1,188.8,249,188.7,249L188.7,249z"/>
		<path class="st3" d="M135.9,239.7c13.4,6.1,27.4,9.2,41.3,9.6c3.8,0.1,7.6,0,11.3-0.3l0,0c0,0,0,0,0.1,0l0,0
			c-2.2-3.1-4.6-6-7.2-8.9c-9.3-10.3-20.8-18.9-34.2-25c-17.1-7.8-35.2-10.7-52.7-9.3C104.8,220,118.8,231.8,135.9,239.7
			L135.9,239.7z"/>
		<path class="st1" d="M104.5,210.5c1.3-2.9,4.7-4.1,7.6-2.8c2.9,1.3,4.1,4.7,2.8,7.5s-4.7,4.1-7.5,2.8S103.2,213.3,104.5,210.5
			L104.5,210.5z"/>
		<path d="M105.7,211c1-2.2,3.6-3.2,5.8-2.2c2.2,1,3.2,3.6,2.2,5.8s-3.6,3.2-5.8,2.1S104.7,213.2,105.7,211z"/>
	</g>
	<g>
		<path class="st3" d="M190,170.5L190,170.5L190,170.5c-0.2,0-0.3-0.1-0.5-0.1c-4.3-1.1-7.7-4.1-9.3-7.9c-0.6-1.3-1-2.8-1.1-4.2
			c-0.2-1.6-0.1-3.3,0.4-4.9c0.2,0,0.4,0.1,0.5,0.1c7.4,1.9,11.9,9.4,10.1,16.8C190.1,170.3,190.1,170.4,190,170.5L190,170.5z"/>
		<path class="st3" d="M190,170.5L190,170.5c0,0.1-0.1,0.2-0.1,0.4c-2.1,7.3-9.6,11.6-17,9.7c-0.2,0-0.3-0.1-0.5-0.1
			c0.4-1.6,1.1-3.1,2-4.4c0.8-1.2,1.9-2.3,3.1-3.2c3.3-2.5,7.7-3.5,12-2.4C189.7,170.4,189.9,170.5,190,170.5z"/>
		<path class="st3" d="M243.6,170.4c-14.3-3.7-28.6-4.3-42.4-2.2c-3.8,0.6-7.4,1.3-11.1,2.3l0,0c0,0,0,0-0.1,0l0,0
			c2.7,2.6,5.6,5.1,8.7,7.5c11,8.5,23.8,14.9,38.1,18.6c18.2,4.7,36.5,4.4,53.5-0.1C277.7,184.3,261.8,175.1,243.6,170.4
			L243.6,170.4z"/>
		<path class="st1" d="M279.6,193.7c-0.8,3-3.9,4.9-6.9,4.1s-4.9-3.9-4.1-6.9s3.9-4.9,6.9-4.1C278.6,187.5,280.4,190.6,279.6,193.7
			L279.6,193.7z"/>
		<path d="M278.4,193.3c-0.6,2.3-3,3.7-5.3,3.1c-2.3-0.6-3.7-3-3.1-5.3s3-3.7,5.3-3.1S279,191,278.4,193.3L278.4,193.3z"/>
	</g>
	<g>
		<path class="st3" d="M185.3,125.8L185.3,125.8L185.3,125.8c-0.2,0-0.4-0.1-0.5-0.1c-4.4-0.9-7.9-3.7-9.8-7.4
			c-0.7-1.3-1.1-2.7-1.3-4.2c-0.2-1.6-0.2-3.3,0.1-4.9c0.2,0,0.4,0.1,0.5,0.1c7.5,1.5,12.4,8.7,11,16.2
			C185.3,125.5,185.3,125.7,185.3,125.8L185.3,125.8z"/>
		<path class="st3" d="M185.3,125.8L185.3,125.8c0,0.1-0.1,0.2-0.1,0.4c-1.7,7.4-9,12.1-16.4,10.6c-0.2,0-0.4-0.1-0.5-0.1
			c0.3-1.7,0.9-3.2,1.8-4.6c0.8-1.3,1.8-2.4,2.9-3.4c3.2-2.7,7.5-3.9,11.9-3.1C184.9,125.7,185.1,125.8,185.3,125.8z"/>
		<path class="st3" d="M238.7,122.8c-14.5-2.9-28.8-2.7-42.4,0.1c-3.7,0.8-7.4,1.7-10.9,2.9l0,0c0,0,0,0-0.1,0l0,0
			c2.9,2.5,5.9,4.8,9.1,7c11.4,7.9,24.6,13.6,39,16.5c18.4,3.7,36.7,2.4,53.4-3C273.5,134.8,257.2,126.5,238.7,122.8L238.7,122.8z"
			/>
		<path class="st1" d="M276,144.1c-0.6,3.1-3.6,5.1-6.7,4.4c-3.1-0.6-5.1-3.6-4.5-6.7s3.6-5.1,6.7-4.4
			C274.6,138,276.6,141,276,144.1L276,144.1z"/>
		<path d="M274.7,143.8c-0.5,2.4-2.8,3.9-5.1,3.4c-2.4-0.5-3.9-2.8-3.4-5.1c0.5-2.4,2.8-3.9,5.1-3.4S275.2,141.4,274.7,143.8z"/>
	</g>
	<g>
		<path class="st3" d="M155.1,192.4L155.1,192.4L155.1,192.4c-0.1-0.1-0.3-0.2-0.5-0.3c-4-2.1-8.5-2.1-12.2-0.4
			c-1.3,0.6-2.6,1.4-3.7,2.4c-1.2,1.1-2.2,2.4-3,3.9c0.1,0.1,0.3,0.2,0.5,0.3c6.8,3.6,15.1,1.1,18.8-5.6
			C155,192.6,155,192.5,155.1,192.4L155.1,192.4z"/>
		<path class="st3" d="M155.1,192.4L155.1,192.4c0.1-0.1,0.1-0.2,0.2-0.3c3.4-6.8,0.7-15.1-6-18.6c-0.1-0.1-0.3-0.2-0.5-0.2
			c-0.8,1.5-1.3,3.1-1.5,4.6c-0.2,1.5-0.2,3,0.1,4.4c0.8,4.1,3.3,7.8,7.3,9.9C154.8,192.3,154.9,192.3,155.1,192.4L155.1,192.4z"/>
		<path class="st3" d="M194.6,228.5c-13.1-6.9-24.1-16.1-32.8-26.9c-2.4-2.9-4.6-6-6.6-9.2l0,0c0,0,0,0,0-0.1l0,0
			c3.8-0.1,7.6,0,11.4,0.3c13.8,1.1,27.6,5,40.7,11.9c16.6,8.8,30,21.4,39.5,36.1C229.2,241.2,211.3,237.3,194.6,228.5L194.6,228.5z
			"/>
		<path class="st1" d="M236.9,235.6c1.5-2.8,0.4-6.2-2.4-7.7c-2.8-1.5-6.2-0.4-7.7,2.4s-0.4,6.2,2.4,7.7S235.5,238.4,236.9,235.6
			L236.9,235.6z"/>
		<path d="M235.8,235c1.1-2.1,0.3-4.8-1.8-5.9s-4.8-0.3-5.9,1.8s-0.3,4.8,1.8,5.9C232,237.9,234.6,237.1,235.8,235L235.8,235z"/>
	</g>
	<g>
		<path class="st3" d="M74.9,178.2L74.9,178.2L74.9,178.2c-0.2,0-0.3,0.1-0.5,0.1c-4.3,1.3-7.5,4.5-8.9,8.4
			c-0.5,1.4-0.8,2.8-0.9,4.3c-0.1,1.6,0.1,3.3,0.6,4.9c0.2-0.1,0.3-0.1,0.5-0.1c7.3-2.3,11.4-9.9,9.3-17.2
			C75,178.4,75,178.3,74.9,178.2L74.9,178.2z"/>
		<path class="st3" d="M74.9,178.1L74.9,178.1c0-0.1-0.1-0.2-0.1-0.4c-2.4-7.2-10.2-11.1-17.4-8.9c-0.2,0.1-0.3,0.1-0.5,0.2
			c0.5,1.6,1.3,3.1,2.2,4.3c0.9,1.2,2,2.2,3.2,3.1c3.4,2.4,7.8,3.2,12.1,1.9C74.6,178.3,74.8,178.2,74.9,178.1L74.9,178.1z"/>
		<path class="st3" d="M128.4,175.7c-14.1,4.4-28.4,5.6-42.2,4.2c-3.8-0.4-7.5-1-11.2-1.8l0,0c0,0,0,0-0.1,0l0,0
			c2.6-2.8,5.4-5.4,8.3-7.9c10.6-9,23.1-16,37.2-20.4c18-5.6,36.3-6.1,53.5-2.4C161.8,160.3,146.4,170.2,128.4,175.7L128.4,175.7z"
			/>
		<path class="st1" d="M163.3,150.8c-0.9-3-4.1-4.7-7.1-3.8s-4.7,4.1-3.8,7.1s4.1,4.7,7.1,3.8S164.3,153.8,163.3,150.8L163.3,150.8z
			"/>
		<path d="M162.1,151.2c-0.7-2.3-3.2-3.6-5.5-2.9s-3.6,3.2-2.9,5.5s3.2,3.6,5.5,2.9C161.5,156,162.8,153.5,162.1,151.2L162.1,151.2z
			"/>
	</g>
	<g>
		<path class="st3" d="M368.7,196.2L368.7,196.2L368.7,196.2c0.2,0,0.3,0.1,0.5,0.1c4.3,1.1,7.7,4.2,9.3,8c0.6,1.3,1,2.8,1.1,4.2
			c0.2,1.6,0,3.3-0.4,4.9c-0.2,0-0.4-0.1-0.5-0.1c-7.4-1.9-11.9-9.4-10.1-16.8C368.6,196.5,368.6,196.3,368.7,196.2L368.7,196.2z"/>
		<path class="st3" d="M368.7,196.2L368.7,196.2c0-0.1,0.1-0.2,0.1-0.4c2.1-7.3,9.6-11.6,17-9.7c0.2,0,0.3,0.1,0.5,0.1
			c-0.4,1.6-1.1,3.1-2,4.4c-0.9,1.2-1.9,2.3-3.1,3.2c-3.3,2.5-7.7,3.5-12,2.4C369,196.3,368.9,196.3,368.7,196.2L368.7,196.2z"/>
		<path class="st3" d="M315.1,196.2c14.3,3.7,28.6,4.4,42.4,2.3c3.8-0.6,7.5-1.3,11.1-2.3l0,0c0,0,0,0,0,0l0,0
			c-2.7-2.6-5.6-5.1-8.6-7.5c-11-8.5-23.8-14.9-38-18.7c-18.2-4.8-36.5-4.5-53.5,0C281.1,182.2,296.9,191.4,315.1,196.2L315.1,196.2
			z"/>
		<path class="st1" d="M279.1,172.9c0.8-3,3.9-4.9,7-4.1c3,0.8,4.9,3.9,4.1,6.9c-0.8,3-3.9,4.9-6.9,4.1S278.3,175.9,279.1,172.9
			L279.1,172.9z"/>
		<path d="M280.4,173.2c0.6-2.3,3-3.7,5.3-3.1s3.7,3,3.1,5.3c-0.6,2.3-3,3.7-5.3,3.1S279.8,175.6,280.4,173.2L280.4,173.2z"/>
	</g>
	<g>
		<path class="st4" d="M437,236.6c-46.2,29.9-111,48.5-182.9,48.5s-136.6-18.6-182.9-48.5L437,236.6L437,236.6z"/>
		<path class="st4" d="M254.1,285.6c-69.7,0-134.7-17.2-183.1-48.6l-1.4-0.9h369.1l-1.4,0.9C388.9,268.4,323.8,285.6,254.1,285.6
			L254.1,285.6z M73,237.1c48.1,30.6,112.3,47.5,181.2,47.5s133.1-16.9,181.1-47.5C435.3,237.1,73,237.1,73,237.1z"/>
	</g>
</g>
<g id="k">
</g>
</svg>
