<?xml version="1.0" encoding="UTF-8"?><svg xmlns="http://www.w3.org/2000/svg" viewBox="0 0 500 500"><defs><style>.l{fill:#d0efec;}.m{fill:#9cdbd9;}</style></defs><g id="a"><g id="b"/><g id="c"/><g id="d"/><g id="e"/><g id="f"/><g id="g"/></g><g id="h"/><g id="i"/><g id="j"/><g id="k"><path class="m" d="M251.51,330.06v35.22c-19.45,0-35.22-15.76-35.22-35.22h35.22Z"/><g><path class="m" d="M376.22,146.42v-20H211.87c-61.66-.01-111.83,50.16-111.83,111.82h4c0-59.46,48.38-107.83,107.83-107.83h160.34v16.01H216.3c-50.72-.01-91.83,41.1-91.83,91.82s41.11,91.82,91.83,91.82v-91.82h33.22v35.21h4v-35.21h26.61v35.21h4v-35.21h24c.87,0,1.74,0,2.61-.04v35.25h4v-35.45c47.63-3.39,85.22-43.09,85.22-91.58h-23.74Zm-35.47,47.32c-7.35,0-13.31-5.96-13.31-13.31s5.96-13.3,13.31-13.3,13.3,5.96,13.3,13.3-5.96,13.31-13.3,13.31Z"/><path class="m" d="M354.05,180.43c0,7.35-5.96,13.31-13.3,13.31s-13.31-5.96-13.31-13.31,5.96-13.3,13.31-13.3,13.3,5.96,13.3,13.3Z"/></g><path class="l" d="M354.05,175.24c0,7.35-5.96,13.31-13.3,13.31s-13.31-5.96-13.31-13.31,5.96-13.3,13.31-13.3,13.3,5.96,13.3,13.3Z"/></g></svg>