<?xml version="1.0" encoding="utf-8"?>
<!-- Generator: Adobe Illustrator 26.2.1, SVG Export Plug-In . SVG Version: 6.00 Build 0)  -->
<svg version="1.1" id="Livello_1" xmlns="http://www.w3.org/2000/svg" xmlns:xlink="http://www.w3.org/1999/xlink" x="0px" y="0px"
	 viewBox="0 0 500 500" style="enable-background:new 0 0 500 500;" xml:space="preserve">
<style type="text/css">
	.st0{fill:#C6C5C5;}
	.st1{fill:#FFFFFF;}
	.st2{enable-background:new    ;}
	.st3{fill:#2A6EB5;}
	.st4{fill:#FBD213;}
</style>
<g id="a">
	<g id="b">
	</g>
	<g id="c">
	</g>
	<g id="d">
	</g>
	<g id="e">
	</g>
	<g id="f">
	</g>
	<g id="g">
	</g>
</g>
<g id="h">
</g>
<g id="i">
</g>
<path class="st0" d="M250,381.9c-101,0-182.9,6.1-182.9,13.6S149,409.2,250,409.2s182.9-6.1,182.9-13.6S351,381.9,250,381.9"/>
<g>
	<polygon class="st1" points="417.1,395.5 82.9,395.5 114.3,332.4 385.7,332.4 	"/>
	<path d="M417.1,397H82.9c-0.5,0-1-0.3-1.3-0.7s-0.3-1-0.1-1.5l31.4-63.2c0.2-0.5,0.8-0.8,1.3-0.8h271.4c0.6,0,1.1,0.3,1.3,0.8
		l31.4,63.2c0.2,0.5,0.2,1-0.1,1.5S417.6,397,417.1,397L417.1,397z M85.3,394h329.4l-29.9-60.2H115.2L85.3,394L85.3,394z"/>
</g>
<g class="st2">
	<path d="M180,381.4h8.4v-29.8c0-0.6,0-1.2,0.1-1.9l-8.1,7.2c-0.2,0.2-0.4,0.2-0.6,0.2c-0.3,0-0.5-0.1-0.7-0.3l-0.8-1l10.6-9.4h1.9
		v35h8v1.9H180V381.4z"/>
	<path d="M224.4,370.8h6.7v1.3c0,0.2-0.1,0.3-0.2,0.5c-0.1,0.1-0.3,0.2-0.5,0.2h-6v10.5h-2.2v-10.5h-17.3c-0.3,0-0.5-0.1-0.6-0.2
		c-0.1-0.1-0.2-0.3-0.3-0.5l-0.2-1.2l18.4-24.4h2.2V370.8z M222.1,351.5c0-0.3,0-0.6,0-0.9c0-0.3,0.1-0.7,0.1-1l-15.8,21.2h15.7
		V351.5z"/>
	<path d="M244.6,384.4c-0.1,0.3-0.3,0.6-0.6,0.8c-0.3,0.2-0.6,0.2-0.9,0.2h-1l16.1-39c0.3-0.6,0.7-1,1.4-1h1.1L244.6,384.4z"/>
	<path d="M278.7,381.4h8.4v-29.8c0-0.6,0-1.2,0.1-1.9l-8.1,7.2c-0.2,0.2-0.4,0.2-0.6,0.2c-0.3,0-0.5-0.1-0.7-0.3l-0.8-1l10.6-9.4
		h1.9v35h8v1.9h-18.9V381.4z"/>
	<path d="M325.8,347.6c0,0.3-0.1,0.6-0.4,0.9s-0.6,0.3-1.1,0.3h-13.3l-2.2,12.2c1.2-0.3,2.3-0.5,3.3-0.6c1-0.1,2-0.2,3-0.2
		c1.9,0,3.6,0.3,5,0.8c1.5,0.5,2.7,1.3,3.6,2.3c1,1,1.7,2.1,2.2,3.5s0.8,2.8,0.8,4.4c0,1.9-0.3,3.7-1,5.2c-0.7,1.5-1.6,2.8-2.7,3.9
		s-2.5,1.9-4,2.5c-1.5,0.6-3.2,0.9-4.9,0.9c-1,0-2-0.1-2.9-0.3c-0.9-0.2-1.8-0.4-2.6-0.7c-0.8-0.3-1.6-0.7-2.2-1
		c-0.7-0.4-1.3-0.8-1.8-1.2l0.7-1c0.2-0.3,0.4-0.4,0.8-0.4c0.2,0,0.5,0.1,1,0.4c0.4,0.3,1,0.5,1.6,0.9c0.7,0.3,1.5,0.6,2.4,0.9
		c0.9,0.3,2,0.4,3.2,0.4c1.4,0,2.7-0.2,4-0.7c1.2-0.5,2.3-1.1,3.2-2c0.9-0.9,1.6-1.9,2.1-3.2c0.5-1.3,0.8-2.7,0.8-4.3
		c0-1.3-0.2-2.5-0.6-3.6c-0.4-1.1-1-2.1-1.8-2.8c-0.8-0.8-1.8-1.4-3-1.8c-1.2-0.4-2.6-0.7-4.2-0.7c-1,0-2,0.1-3.1,0.2
		c-1.1,0.2-2.3,0.4-3.5,0.8l-1.6-0.5l2.9-16.3h16.5V347.6z"/>
</g>
<g>
	<path class="st3" d="M381.8,271.1L381.8,271.1L381.8,271.1c0.2,0,0.3,0.1,0.5,0.1c4.3,1.1,7.7,4.1,9.3,8c0.6,1.3,1,2.8,1.1,4.2
		c0.2,1.6,0,3.3-0.4,4.9c-0.2,0-0.4-0.1-0.5-0.1c-7.4-1.9-11.9-9.4-10.1-16.8C381.7,271.4,381.8,271.3,381.8,271.1L381.8,271.1z"/>
	<path class="st3" d="M381.8,271.1L381.8,271.1c0-0.1,0.1-0.2,0.1-0.4c2.1-7.3,9.6-11.6,17-9.7c0.2,0,0.3,0.1,0.5,0.1
		c-0.4,1.6-1.1,3.1-2,4.4c-0.8,1.2-1.9,2.3-3.1,3.2c-3.3,2.5-7.7,3.5-12,2.4C382.1,271.2,382,271.2,381.8,271.1L381.8,271.1z"/>
	<path class="st3" d="M328.3,271.2c14.3,3.7,28.6,4.3,42.4,2.2c3.8-0.6,7.4-1.3,11.1-2.3l0,0c0,0,0,0,0,0l0,0
		c-2.7-2.6-5.6-5.1-8.7-7.5c-11-8.5-23.8-14.9-38.1-18.6c-18.2-4.7-36.5-4.4-53.5,0.1C294.2,257.3,310,266.5,328.3,271.2
		L328.3,271.2z"/>
	<path class="st1" d="M292.2,248c0.8-3,3.9-4.9,6.9-4.1s4.9,3.9,4.1,6.9c-0.8,3-3.9,4.9-6.9,4.1S291.4,251,292.2,248L292.2,248z"/>
	<path d="M293.5,248.3c0.6-2.3,3-3.7,5.3-3.1c2.3,0.6,3.7,3,3.1,5.3s-3,3.7-5.3,3.1S292.9,250.6,293.5,248.3L293.5,248.3z"/>
</g>
<g>
	<path class="st3" d="M326.5,289.4L326.5,289.4L326.5,289.4c0.2,0.1,0.3,0.1,0.5,0.2c4.1,1.9,6.8,5.4,7.8,9.5
		c0.4,1.4,0.5,2.9,0.4,4.4c-0.1,1.6-0.5,3.2-1.2,4.8c-0.2-0.1-0.3-0.1-0.5-0.2c-6.9-3.2-10-11.3-7.1-18.3
		C326.4,289.6,326.5,289.5,326.5,289.4L326.5,289.4z"/>
	<path class="st3" d="M326.5,289.4L326.5,289.4c0.1-0.1,0.1-0.2,0.2-0.3c3.3-6.8,11.5-9.7,18.4-6.6c0.2,0.1,0.3,0.1,0.5,0.2
		c-0.7,1.5-1.6,2.9-2.8,4c-1,1.1-2.3,1.9-3.6,2.6c-3.7,1.9-8.2,2.1-12.3,0.3C326.8,289.5,326.7,289.4,326.5,289.4L326.5,289.4z"/>
	<path class="st3" d="M273.8,280.1c13.4,6.1,27.5,9.2,41.3,9.6c3.8,0.1,7.6,0,11.3-0.3l0,0c0,0,0,0,0,0l0,0c-2.2-3.1-4.6-6-7.2-8.9
		c-9.3-10.3-20.8-18.9-34.2-25c-17.1-7.8-35.2-10.7-52.7-9.3C242.7,260.4,256.7,272.2,273.8,280.1L273.8,280.1z"/>
	<path class="st1" d="M242.4,250.9c1.3-2.9,4.7-4.1,7.6-2.8s4.1,4.7,2.8,7.5c-1.3,2.9-4.7,4.1-7.5,2.8S241.1,253.7,242.4,250.9
		L242.4,250.9z"/>
	<path d="M243.6,251.4c1-2.2,3.6-3.2,5.8-2.2s3.2,3.6,2.1,5.8c-1,2.2-3.6,3.2-5.8,2.2S242.6,253.6,243.6,251.4L243.6,251.4z"/>
</g>
<g>
	<path class="st3" d="M188.6,287L188.6,287L188.6,287c0.2,0.1,0.3,0.1,0.5,0.2c4.1,1.9,6.8,5.4,7.8,9.5c0.4,1.4,0.5,2.9,0.4,4.4
		c-0.1,1.6-0.5,3.2-1.2,4.8c-0.2-0.1-0.3-0.1-0.5-0.2c-6.9-3.2-10.1-11.3-7.1-18.3C188.6,287.2,188.6,287.1,188.6,287L188.6,287z"/>
	<path class="st3" d="M188.7,287L188.7,287c0.1-0.1,0.1-0.2,0.2-0.3c3.3-6.8,11.5-9.7,18.4-6.6c0.2,0.1,0.3,0.1,0.5,0.2
		c-0.7,1.5-1.6,2.9-2.8,4c-1.1,1.1-2.3,1.9-3.6,2.6c-3.7,1.9-8.2,2.1-12.3,0.3C189,287.1,188.8,287.1,188.7,287L188.7,287z"/>
	<path class="st3" d="M135.9,277.7c13.4,6.1,27.4,9.2,41.3,9.6c3.8,0.1,7.6,0,11.3-0.3l0,0c0,0,0,0,0.1,0l0,0
		c-2.2-3.1-4.6-6-7.2-8.9c-9.3-10.3-20.8-18.9-34.2-25c-17.1-7.8-35.2-10.7-52.7-9.3C104.8,258.1,118.8,269.9,135.9,277.7
		L135.9,277.7z"/>
	<path class="st1" d="M104.5,248.5c1.3-2.9,4.7-4.1,7.6-2.8c2.9,1.3,4.1,4.7,2.8,7.5c-1.3,2.9-4.7,4.1-7.5,2.8
		C104.4,254.7,103.2,251.3,104.5,248.5L104.5,248.5z"/>
	<path d="M105.7,249c1-2.2,3.6-3.2,5.8-2.2c2.2,1,3.2,3.6,2.2,5.8s-3.6,3.2-5.8,2.1S104.7,251.2,105.7,249z"/>
</g>
<g>
	<path class="st3" d="M190,208.5L190,208.5L190,208.5c-0.2,0-0.3-0.1-0.5-0.1c-4.3-1.1-7.7-4.1-9.3-7.9c-0.6-1.3-1-2.8-1.1-4.2
		c-0.2-1.6-0.1-3.3,0.4-4.9c0.2,0,0.4,0.1,0.5,0.1c7.4,1.9,11.9,9.4,10.1,16.8C190.1,208.3,190.1,208.4,190,208.5L190,208.5z"/>
	<path class="st3" d="M190,208.5L190,208.5c0,0.1-0.1,0.2-0.1,0.4c-2.1,7.3-9.6,11.6-17,9.7c-0.2,0-0.3-0.1-0.5-0.1
		c0.4-1.6,1.1-3.1,2-4.4c0.8-1.2,1.9-2.3,3.1-3.2c3.3-2.5,7.7-3.5,12-2.4C189.7,208.4,189.9,208.5,190,208.5z"/>
	<path class="st3" d="M243.6,208.4c-14.3-3.7-28.6-4.3-42.4-2.2c-3.8,0.6-7.4,1.3-11.1,2.3l0,0c0,0,0,0-0.1,0l0,0
		c2.7,2.6,5.6,5.1,8.7,7.5c11,8.5,23.8,14.9,38.1,18.6c18.2,4.7,36.5,4.4,53.5-0.1C277.7,222.3,261.8,213.2,243.6,208.4L243.6,208.4
		z"/>
	<path class="st1" d="M279.6,231.7c-0.8,3-3.9,4.9-6.9,4.1s-4.9-3.9-4.1-6.9c0.8-3,3.9-4.9,6.9-4.1
		C278.6,225.5,280.4,228.6,279.6,231.7L279.6,231.7z"/>
	<path d="M278.4,231.4c-0.6,2.3-3,3.7-5.3,3.1c-2.3-0.6-3.7-3-3.1-5.3s3-3.7,5.3-3.1S279,229,278.4,231.4L278.4,231.4z"/>
</g>
<g>
	<path class="st3" d="M185.3,161.8L185.3,161.8L185.3,161.8c-0.2,0-0.4-0.1-0.5-0.1c-4.4-0.9-7.9-3.7-9.8-7.4
		c-0.7-1.3-1.1-2.7-1.3-4.2c-0.2-1.6-0.2-3.3,0.1-4.9c0.2,0,0.4,0.1,0.5,0.1c7.5,1.5,12.4,8.7,11,16.2
		C185.3,161.6,185.3,161.7,185.3,161.8L185.3,161.8z"/>
	<path class="st3" d="M185.3,161.8L185.3,161.8c0,0.1-0.1,0.2-0.1,0.4c-1.7,7.4-9,12.1-16.4,10.6c-0.2,0-0.4-0.1-0.5-0.1
		c0.3-1.7,0.9-3.2,1.8-4.6c0.8-1.3,1.8-2.4,2.9-3.4c3.2-2.7,7.5-3.9,11.9-3.1C184.9,161.7,185.1,161.8,185.3,161.8z"/>
	<path class="st3" d="M238.7,158.8c-14.5-2.9-28.8-2.7-42.4,0.1c-3.7,0.8-7.4,1.7-10.9,2.9l0,0c0,0,0,0-0.1,0l0,0
		c2.9,2.5,5.9,4.8,9.1,7c11.4,7.9,24.6,13.6,39,16.5c18.4,3.7,36.7,2.4,53.4-3C273.5,170.9,257.2,162.6,238.7,158.8L238.7,158.8z"/>
	<path class="st1" d="M276,180.1c-0.6,3.1-3.6,5.1-6.7,4.4s-5.1-3.6-4.5-6.7s3.6-5.1,6.7-4.4C274.6,174,276.6,177,276,180.1
		L276,180.1z"/>
	<path d="M274.7,179.8c-0.5,2.4-2.8,3.9-5.1,3.4c-2.4-0.5-3.9-2.8-3.4-5.1c0.5-2.4,2.8-3.9,5.1-3.4S275.2,177.5,274.7,179.8z"/>
</g>
<g>
	<path class="st3" d="M204.1,125.8L204.1,125.8L204.1,125.8c-0.2,0-0.4,0-0.5,0.1c-4.4,0.5-8.6-1.2-11.6-4.1c-1-1-1.9-2.2-2.5-3.6
		c-0.7-1.4-1.2-3-1.4-4.7c0.2,0,0.4-0.1,0.5-0.1c7.6-0.8,14.4,4.5,15.4,12.1C204.1,125.6,204.1,125.7,204.1,125.8L204.1,125.8z"/>
	<path class="st3" d="M204.1,125.8L204.1,125.8c0,0.1,0,0.3,0,0.4c0.6,7.6-4.9,14.3-12.4,15.1c-0.2,0-0.4,0-0.5,0.1
		c-0.2-1.7-0.1-3.3,0.3-4.9c0.4-1.4,0.9-2.8,1.7-4.1c2.2-3.5,5.9-6,10.4-6.5C203.7,125.9,203.9,125.8,204.1,125.8L204.1,125.8z"/>
	<path class="st3" d="M254.1,106.7c-14.7,1.6-28.3,6.2-40.4,13c-3.3,1.9-6.5,3.9-9.5,6.1l0,0c0,0,0,0-0.1,0l0,0
		c3.5,1.5,7.1,2.8,10.8,3.9c13.3,4,27.6,5.5,42.2,3.9c18.7-2.1,35.7-8.9,50-19.1C290.9,107.6,272.8,104.6,254.1,106.7L254.1,106.7z"
		/>
	<path class="st1" d="M296.1,115.6c0.4,3.1-1.9,5.9-5,6.3c-3.1,0.3-5.9-1.9-6.3-5c-0.4-3.1,1.9-5.9,5-6.3
		C292.9,110.2,295.7,112.5,296.1,115.6z"/>
	<path d="M294.8,115.7c0.3,2.4-1.5,4.6-3.9,4.8c-2.4,0.3-4.6-1.5-4.8-3.9s1.5-4.6,3.9-4.8C292.3,111.6,294.5,113.3,294.8,115.7
		L294.8,115.7z"/>
</g>
<g>
	<path class="st3" d="M83.5,137.2L83.5,137.2L83.5,137.2c-0.2,0.1-0.3,0.1-0.5,0.2c-4.3,1.2-8.7,0.3-12.1-2.1
		c-1.2-0.9-2.2-1.9-3.1-3.1c-0.9-1.3-1.7-2.8-2.2-4.4c0.2-0.1,0.3-0.1,0.5-0.2c7.3-2.1,15,2.1,17.2,9.3
		C83.4,137,83.4,137.1,83.5,137.2L83.5,137.2z"/>
	<path class="st3" d="M83.5,137.2L83.5,137.2c0,0.1,0.1,0.2,0.1,0.4c1.9,7.3-2.4,14.9-9.8,16.9c-0.2,0.1-0.3,0.1-0.5,0.1
		c-0.5-1.6-0.6-3.3-0.5-4.9c0.1-1.5,0.5-2.9,1-4.3c1.6-3.8,4.8-6.9,9.2-8.2C83.1,137.3,83.3,137.3,83.5,137.2L83.5,137.2z"/>
	<path class="st3" d="M129.6,110.1c-14.2,4-26.9,10.8-37.7,19.5c-2.9,2.4-5.8,4.9-8.4,7.6l0,0c0,0,0,0,0,0l0,0
		c3.7,0.9,7.4,1.6,11.2,2.1c13.8,1.8,28.1,0.9,42.3-3.2c18.1-5.1,33.8-14.7,46.2-27.1C166.1,104.9,147.8,105,129.6,110.1
		L129.6,110.1z"/>
	<path class="st1" d="M172.5,112c0.9,3-0.9,6.2-3.9,7c-3,0.9-6.2-0.9-7-3.9s0.9-6.2,3.9-7C168.5,107.2,171.6,108.9,172.5,112z"/>
	<path d="M171.2,112.3c0.7,2.3-0.7,4.7-3,5.4s-4.7-0.7-5.4-3c-0.7-2.3,0.7-4.7,3-5.4C168.2,108.6,170.6,110,171.2,112.3L171.2,112.3
		z"/>
</g>
<g>
	<path class="st3" d="M358.1,153.5L358.1,153.5L358.1,153.5c0.2,0,0.4,0,0.5,0c4.5,0,8.5,2.1,11,5.4c0.9,1.1,1.6,2.4,2.1,3.8
		c0.6,1.5,0.9,3.1,0.9,4.9c-0.2,0-0.4,0-0.5,0c-7.6,0-13.8-6.1-14-13.7C358.1,153.7,358.1,153.6,358.1,153.5L358.1,153.5z"/>
	<path class="st3" d="M358.1,153.5L358.1,153.5c0-0.1,0-0.3,0-0.4c0.2-7.6,6.4-13.6,14.1-13.6c0.2,0,0.4,0,0.5,0
		c0,1.7-0.3,3.3-0.9,4.8c-0.5,1.4-1.2,2.7-2.2,3.9c-2.6,3.2-6.6,5.3-11,5.3C358.5,153.5,358.3,153.5,358.1,153.5z"/>
	<path class="st3" d="M306.3,166.8c14.8,0,28.8-2.9,41.6-8.4c3.5-1.5,6.9-3.1,10.2-5l0,0c0,0,0,0,0,0l0,0c-3.3-1.9-6.7-3.6-10.2-5.1
		c-12.7-5.5-26.8-8.5-41.5-8.6c-18.8-0.1-36.5,4.8-51.8,13.4C269.8,161.8,287.4,166.8,306.3,166.8L306.3,166.8z"/>
	<path class="st1" d="M265.5,153.3c0-3.1,2.6-5.7,5.7-5.7c3.1,0,5.7,2.6,5.7,5.7c0,3.1-2.6,5.7-5.7,5.7S265.5,156.4,265.5,153.3
		L265.5,153.3z"/>
	<path d="M266.9,153.3c0-2.4,2-4.4,4.4-4.4c2.4,0,4.4,2,4.4,4.4c0,2.4-2,4.4-4.4,4.4S266.9,155.7,266.9,153.3L266.9,153.3z"/>
</g>
<g>
	<path class="st3" d="M403.5,121.4L403.5,121.4L403.5,121.4c0.2,0.1,0.3,0.1,0.5,0.2c4.2,1.6,7.2,4.9,8.5,8.8
		c0.5,1.4,0.7,2.8,0.7,4.3c0,1.6-0.3,3.3-0.9,4.9c-0.2-0.1-0.3-0.1-0.5-0.2c-7.2-2.6-10.9-10.5-8.4-17.7
		C403.4,121.6,403.5,121.5,403.5,121.4L403.5,121.4z"/>
	<path class="st3" d="M403.5,121.3L403.5,121.3c0-0.1,0.1-0.2,0.1-0.3c2.8-7,10.7-10.6,17.9-7.9c0.2,0.1,0.3,0.1,0.5,0.2
		c-0.6,1.6-1.4,3-2.5,4.2c-1,1.1-2.1,2.1-3.4,2.9c-3.5,2.2-8,2.8-12.2,1.2C403.9,121.5,403.7,121.4,403.5,121.3L403.5,121.3z"/>
	<path class="st3" d="M350.2,116.1c13.8,5.1,28.1,7.1,41.9,6.4c3.8-0.2,7.5-0.6,11.3-1.2l0,0c0,0,0,0,0,0l0,0
		c-2.5-2.9-5.1-5.7-7.9-8.3c-10.1-9.5-22.2-17.2-36-22.3c-17.6-6.5-35.9-8-53.3-5.2C317.7,98.9,332.6,109.6,350.2,116.1L350.2,116.1
		z"/>
	<path class="st1" d="M316.7,89.4c1.1-2.9,4.4-4.5,7.3-3.4s4.5,4.4,3.4,7.3c-1.1,2.9-4.4,4.5-7.3,3.4S315.6,92.3,316.7,89.4z"/>
	<path d="M317.9,89.8c0.8-2.3,3.4-3.4,5.6-2.6c2.3,0.8,3.4,3.3,2.6,5.6c-0.8,2.3-3.4,3.4-5.6,2.6C318.3,94.6,317.1,92.1,317.9,89.8
		L317.9,89.8z"/>
</g>
<g>
	<path class="st3" d="M155.1,230.5L155.1,230.5L155.1,230.5c-0.1-0.1-0.3-0.2-0.5-0.3c-4-2.1-8.5-2.1-12.2-0.4
		c-1.3,0.6-2.6,1.4-3.7,2.4c-1.2,1.1-2.2,2.4-3,3.9c0.1,0.1,0.3,0.2,0.5,0.3c6.8,3.6,15.1,1.1,18.8-5.6
		C155,230.6,155,230.5,155.1,230.5L155.1,230.5z"/>
	<path class="st3" d="M155.1,230.4L155.1,230.4c0.1-0.1,0.1-0.2,0.2-0.3c3.4-6.8,0.7-15.1-6-18.6c-0.1-0.1-0.3-0.2-0.5-0.2
		c-0.8,1.5-1.3,3.1-1.5,4.6c-0.2,1.5-0.2,3,0.1,4.4c0.8,4.1,3.3,7.8,7.3,9.9C154.8,230.3,154.9,230.4,155.1,230.4L155.1,230.4z"/>
	<path class="st3" d="M194.6,266.5c-13.1-6.9-24.1-16.1-32.8-26.9c-2.4-2.9-4.6-6-6.6-9.2l0,0c0,0,0,0,0-0.1l0,0
		c3.8-0.1,7.6,0,11.4,0.3c13.8,1.1,27.6,5,40.7,11.9c16.6,8.8,30,21.4,39.5,36.1C229.2,279.2,211.3,275.3,194.6,266.5L194.6,266.5z"
		/>
	<path class="st1" d="M236.9,273.6c1.5-2.8,0.4-6.2-2.4-7.7s-6.2-0.4-7.7,2.4s-0.4,6.2,2.4,7.7C232,277.5,235.5,276.4,236.9,273.6
		L236.9,273.6z"/>
	<path d="M235.8,273c1.1-2.1,0.3-4.8-1.8-5.9s-4.8-0.3-5.9,1.8s-0.3,4.8,1.8,5.9S234.6,275.2,235.8,273L235.8,273z"/>
</g>
<g>
	<path class="st3" d="M74.9,216.2L74.9,216.2L74.9,216.2c-0.2,0-0.3,0.1-0.5,0.1c-4.3,1.3-7.5,4.5-8.9,8.4c-0.5,1.4-0.8,2.8-0.9,4.3
		c-0.1,1.6,0.1,3.3,0.6,4.9c0.2-0.1,0.3-0.1,0.5-0.1c7.3-2.3,11.4-9.9,9.3-17.2C75,216.4,75,216.3,74.9,216.2L74.9,216.2z"/>
	<path class="st3" d="M74.9,216.2L74.9,216.2c0-0.1-0.1-0.2-0.1-0.4c-2.4-7.2-10.2-11.1-17.4-8.9c-0.2,0.1-0.3,0.1-0.5,0.2
		c0.5,1.6,1.3,3.1,2.2,4.3c0.9,1.2,2,2.2,3.2,3.1c3.4,2.4,7.8,3.2,12.1,1.9C74.6,216.3,74.8,216.2,74.9,216.2L74.9,216.2z"/>
	<path class="st3" d="M128.4,213.8c-14.1,4.4-28.4,5.6-42.2,4.2c-3.8-0.4-7.5-1-11.2-1.8l0,0c0,0,0,0-0.1,0l0,0
		c2.6-2.8,5.4-5.4,8.3-7.9c10.6-9,23.1-16,37.2-20.4c18-5.6,36.3-6.1,53.5-2.4C161.8,198.3,146.4,208.2,128.4,213.8L128.4,213.8z"/>
	<path class="st1" d="M163.3,188.8c-0.9-3-4.1-4.7-7.1-3.8s-4.7,4.1-3.8,7.1s4.1,4.7,7.1,3.8S164.3,191.8,163.3,188.8L163.3,188.8z"
		/>
	<path d="M162.1,189.2c-0.7-2.3-3.2-3.6-5.5-2.9s-3.6,3.2-2.9,5.5c0.7,2.3,3.2,3.6,5.5,2.9C161.5,194,162.8,191.5,162.1,189.2
		L162.1,189.2z"/>
</g>
<g>
	<path class="st3" d="M151,155.3L151,155.3L151,155.3c0.2-0.1,0.3-0.1,0.5-0.1c4.3-1.1,8.7-0.1,12,2.4c1.2,0.9,2.2,1.9,3,3.1
		c0.9,1.3,1.6,2.8,2.1,4.5c-0.2,0.1-0.3,0.1-0.5,0.1c-7.4,1.9-14.9-2.4-17-9.7C151.1,155.5,151,155.4,151,155.3L151,155.3z"/>
	<path class="st3" d="M151,155.3L151,155.3c0-0.1-0.1-0.2-0.1-0.4c-1.7-7.4,2.8-14.8,10.1-16.7c0.2,0,0.3-0.1,0.5-0.1
		c0.4,1.6,0.5,3.3,0.4,4.9c-0.1,1.5-0.5,2.9-1.1,4.3c-1.7,3.8-5,6.8-9.3,8C151.3,155.2,151.2,155.2,151,155.3L151,155.3z"/>
	<path class="st3" d="M104.2,181.4c14.3-3.7,27.1-10.2,38.1-18.7c3-2.3,5.9-4.8,8.6-7.4l0,0c0,0,0,0,0,0l0,0
		c-3.7-1-7.4-1.8-11.2-2.3c-13.7-2.1-28.1-1.4-42.3,2.3c-18.2,4.7-34.1,13.9-46.7,26.1C67.7,185.8,86,186.1,104.2,181.4L104.2,181.4
		z"/>
	<path class="st1" d="M61.4,178.6c-0.8-3,1-6.1,4.1-6.9s6.2,1,6.9,4.1c0.8,3-1,6.1-4.1,6.9S62.2,181.7,61.4,178.6L61.4,178.6z"/>
	<path d="M62.7,178.3c-0.6-2.3,0.8-4.7,3.1-5.3c2.3-0.6,4.7,0.8,5.3,3.1c0.6,2.3-0.8,4.7-3.1,5.3S63.3,180.6,62.7,178.3z"/>
</g>
<g>
	<path class="st3" d="M368.7,232.2L368.7,232.2L368.7,232.2c0.2,0,0.3,0.1,0.5,0.1c4.3,1.1,7.7,4.2,9.3,8c0.6,1.3,1,2.8,1.1,4.2
		c0.2,1.6,0,3.3-0.4,4.9c-0.2,0-0.4-0.1-0.5-0.1c-7.4-1.9-11.9-9.4-10.1-16.8C368.6,232.5,368.6,232.4,368.7,232.2L368.7,232.2z"/>
	<path class="st3" d="M368.7,232.2L368.7,232.2c0-0.1,0.1-0.2,0.1-0.4c2.1-7.3,9.6-11.6,17-9.7c0.2,0,0.3,0.1,0.5,0.1
		c-0.4,1.6-1.1,3.1-2,4.4c-0.9,1.2-1.9,2.3-3.1,3.2c-3.3,2.5-7.7,3.5-12,2.4C369,232.3,368.9,232.3,368.7,232.2L368.7,232.2z"/>
	<path class="st3" d="M315.1,232.2c14.3,3.7,28.6,4.4,42.4,2.3c3.8-0.6,7.5-1.3,11.1-2.3l0,0c0,0,0,0,0,0l0,0
		c-2.7-2.6-5.6-5.1-8.6-7.5c-11-8.5-23.8-14.9-38-18.7c-18.2-4.8-36.5-4.5-53.5,0C281.1,218.3,296.9,227.5,315.1,232.2L315.1,232.2z
		"/>
	<path class="st1" d="M279.1,208.9c0.8-3,3.9-4.9,7-4.1s4.9,3.9,4.1,6.9c-0.8,3-3.9,4.9-6.9,4.1S278.3,212,279.1,208.9L279.1,208.9z
		"/>
	<path d="M280.4,209.2c0.6-2.3,3-3.7,5.3-3.1s3.7,3,3.1,5.3c-0.6,2.3-3,3.7-5.3,3.1S279.8,211.6,280.4,209.2L280.4,209.2z"/>
</g>
<g>
	<path class="st3" d="M409.5,203.2L409.5,203.2L409.5,203.2c0.2,0,0.3,0.1,0.5,0.1c4.3,1.1,7.7,4.2,9.3,8c0.6,1.3,1,2.8,1.1,4.2
		c0.2,1.6,0,3.3-0.4,4.9c-0.2,0-0.4-0.1-0.5-0.1c-7.4-1.9-11.9-9.4-10.1-16.8C409.5,203.4,409.5,203.3,409.5,203.2L409.5,203.2z"/>
	<path class="st3" d="M409.5,203.1L409.5,203.1c0-0.1,0.1-0.2,0.1-0.4c2.1-7.3,9.6-11.6,17-9.7c0.2,0,0.3,0.1,0.5,0.1
		c-0.4,1.6-1.1,3.1-2,4.4c-0.9,1.2-1.9,2.3-3.1,3.2c-3.3,2.5-7.7,3.5-12,2.4C409.9,203.2,409.7,203.2,409.5,203.1L409.5,203.1z"/>
	<path class="st3" d="M356,203.1c14.3,3.7,28.6,4.4,42.4,2.3c3.8-0.6,7.5-1.3,11.1-2.3l0,0c0,0,0,0,0,0l0,0
		c-2.7-2.6-5.6-5.1-8.6-7.5c-11-8.5-23.8-14.9-38-18.7c-18.2-4.8-36.5-4.5-53.5,0C321.9,189.2,337.8,198.4,356,203.1L356,203.1z"/>
	<path class="st1" d="M320,179.8c0.8-3,3.9-4.9,7-4.1c3,0.8,4.9,3.9,4.1,6.9c-0.8,3-3.9,4.9-6.9,4.1S319.2,182.9,320,179.8
		L320,179.8z"/>
	<path d="M321.2,180.2c0.6-2.3,3-3.7,5.3-3.1s3.7,3,3.1,5.3c-0.6,2.3-3,3.7-5.3,3.1S320.6,182.5,321.2,180.2L321.2,180.2z"/>
</g>
<g>
	<path class="st4" d="M437,274.6c-46.2,29.9-111,48.5-182.9,48.5s-136.6-18.6-182.9-48.5H437z"/>
	<path class="st4" d="M254.1,323.6c-69.7,0-134.7-17.2-183.1-48.6l-1.4-0.9h369.1l-1.4,0.9C388.9,306.4,323.8,323.6,254.1,323.6
		L254.1,323.6z M73,275.1c48.1,30.6,112.3,47.5,181.2,47.5s133.1-16.9,181.1-47.5C435.3,275.1,73,275.1,73,275.1z"/>
</g>
<g id="k">
</g>
</svg>
