<?xml version="1.0" encoding="utf-8"?>
<!-- Generator: Adobe Illustrator 26.2.1, SVG Export Plug-In . SVG Version: 6.00 Build 0)  -->
<svg version="1.1" id="Livello_1" xmlns="http://www.w3.org/2000/svg" xmlns:xlink="http://www.w3.org/1999/xlink" x="0px" y="0px"
	 viewBox="0 0 500 500" style="enable-background:new 0 0 500 500;" xml:space="preserve">
<style type="text/css">
	.st0{fill:#C6C5C5;}
	.st1{fill:#FFFFFF;}
	.st2{enable-background:new    ;}
	.st3{fill:#2A6EB5;}
	.st4{fill:#FBD213;}
</style>
<g id="a">
	<g id="b">
	</g>
	<g id="c">
	</g>
	<g id="d">
	</g>
	<g id="e">
	</g>
	<g id="f">
	</g>
	<g id="g">
	</g>
</g>
<g id="h">
</g>
<g id="i">
</g>
<g id="j">
	<path class="st0" d="M250,381.9c-101,0-182.9,6.1-182.9,13.6S149,409.2,250,409.2s182.9-6.1,182.9-13.6S351,381.9,250,381.9"/>
	<g>
		<polygon class="st1" points="417.1,395.5 82.9,395.5 114.3,332.4 385.7,332.4 		"/>
		<path d="M417.1,397H82.9c-0.5,0-1-0.3-1.3-0.7s-0.3-1-0.1-1.5l31.4-63.2c0.2-0.5,0.8-0.8,1.3-0.8h271.4c0.6,0,1.1,0.3,1.3,0.8
			l31.4,63.2c0.2,0.5,0.2,1-0.1,1.5S417.6,397,417.1,397L417.1,397z M85.3,394h329.4l-29.9-60.2H115.2L85.3,394L85.3,394z"/>
	</g>
	<g class="st2">
		<path d="M214.8,346.6v1.1c0,0.3,0,0.5-0.1,0.8s-0.1,0.4-0.2,0.6l-16.8,33.3c-0.1,0.3-0.3,0.5-0.6,0.7c-0.2,0.2-0.5,0.3-0.9,0.3
			h-1.7l16.9-33.2c0.2-0.4,0.5-0.9,0.8-1.2h-21.2c-0.2,0-0.4-0.1-0.5-0.2c-0.1-0.1-0.2-0.3-0.2-0.5v-1.6H214.8z"/>
		<path d="M229.5,384.4c-0.1,0.3-0.3,0.6-0.6,0.8c-0.3,0.2-0.6,0.2-0.9,0.2h-1l16.1-39c0.3-0.6,0.7-1,1.4-1h1.1L229.5,384.4z"/>
		<path d="M263.7,381.4h8.4v-29.8c0-0.6,0-1.2,0.1-1.9l-8.1,7.2c-0.2,0.2-0.4,0.2-0.6,0.2c-0.3,0-0.5-0.1-0.7-0.3l-0.8-1l10.6-9.4
			h1.9v35h8v1.9h-18.9V381.4z"/>
		<path d="M310.8,347.6c0,0.3-0.1,0.6-0.4,0.9s-0.6,0.3-1.1,0.3h-13.3l-2.2,12.2c1.2-0.3,2.3-0.5,3.3-0.6c1-0.1,2-0.2,3-0.2
			c1.9,0,3.6,0.3,5,0.8c1.5,0.5,2.7,1.3,3.6,2.3c1,1,1.7,2.1,2.2,3.5c0.5,1.3,0.8,2.8,0.8,4.4c0,1.9-0.3,3.7-1,5.2
			c-0.7,1.5-1.6,2.8-2.7,3.9c-1.2,1.1-2.5,1.9-4,2.5c-1.5,0.6-3.2,0.9-4.9,0.9c-1,0-2-0.1-2.9-0.3c-0.9-0.2-1.8-0.4-2.6-0.7
			c-0.8-0.3-1.6-0.7-2.2-1c-0.7-0.4-1.3-0.8-1.8-1.2l0.7-1c0.2-0.3,0.4-0.4,0.8-0.4c0.2,0,0.5,0.1,1,0.4c0.4,0.3,1,0.5,1.6,0.9
			c0.7,0.3,1.5,0.6,2.4,0.9c0.9,0.3,2,0.4,3.2,0.4c1.4,0,2.7-0.2,4-0.7s2.3-1.1,3.2-2c0.9-0.9,1.6-1.9,2.1-3.2
			c0.5-1.3,0.8-2.7,0.8-4.3c0-1.3-0.2-2.5-0.6-3.6c-0.4-1.1-1-2.1-1.8-2.8c-0.8-0.8-1.8-1.4-3-1.8c-1.2-0.4-2.6-0.7-4.2-0.7
			c-1,0-2,0.1-3.1,0.2c-1.1,0.2-2.3,0.4-3.5,0.8l-1.6-0.5l2.9-16.3h16.5V347.6z"/>
	</g>
	<g>
		<path class="st3" d="M381.8,227.7L381.8,227.7L381.8,227.7c0.2,0,0.3,0.1,0.5,0.1c4.3,1.1,7.7,4.1,9.3,7.9c0.6,1.3,1,2.8,1.1,4.2
			c0.2,1.6,0,3.3-0.4,4.9c-0.2,0-0.4-0.1-0.5-0.1c-7.4-1.9-11.9-9.4-10.1-16.8C381.7,227.9,381.8,227.8,381.8,227.7L381.8,227.7z"/>
		<path class="st3" d="M381.8,227.7L381.8,227.7c0-0.1,0.1-0.2,0.1-0.4c2.1-7.3,9.6-11.6,17-9.7c0.2,0,0.3,0.1,0.5,0.1
			c-0.4,1.6-1.1,3.1-2,4.4c-0.8,1.2-1.9,2.3-3.1,3.2c-3.3,2.5-7.7,3.5-12,2.4C382.1,227.8,382,227.8,381.8,227.7z"/>
		<path class="st3" d="M328.3,227.8c14.3,3.7,28.6,4.3,42.4,2.2c3.8-0.6,7.4-1.3,11.1-2.3l0,0l0,0l0,0c-2.7-2.6-5.6-5.1-8.7-7.5
			c-11-8.5-23.8-14.9-38.1-18.6c-18.2-4.7-36.5-4.4-53.5,0.1C294.2,213.9,310,223.1,328.3,227.8L328.3,227.8z"/>
		<path class="st1" d="M292.2,204.5c0.8-3,3.9-4.9,6.9-4.1s4.9,3.9,4.1,6.9s-3.9,4.9-6.9,4.1S291.4,207.6,292.2,204.5L292.2,204.5z"
			/>
		<path d="M293.5,204.9c0.6-2.3,3-3.7,5.3-3.1c2.3,0.6,3.7,3,3.1,5.3s-3,3.7-5.3,3.1S292.9,207.2,293.5,204.9L293.5,204.9z"/>
	</g>
	<g>
		<path class="st3" d="M326.5,246L326.5,246L326.5,246c0.2,0.1,0.3,0.1,0.5,0.2c4.1,1.9,6.8,5.4,7.8,9.5c0.4,1.4,0.5,2.9,0.4,4.4
			c-0.1,1.6-0.5,3.2-1.2,4.8c-0.2-0.1-0.3-0.1-0.5-0.2c-6.9-3.2-10-11.3-7.1-18.3C326.4,246.2,326.5,246.1,326.5,246L326.5,246z"/>
		<path class="st3" d="M326.5,245.9L326.5,245.9c0.1-0.1,0.1-0.2,0.2-0.3c3.3-6.8,11.5-9.7,18.4-6.6c0.2,0.1,0.3,0.1,0.5,0.2
			c-0.7,1.5-1.6,2.9-2.8,4c-1,1.1-2.3,1.9-3.6,2.6c-3.7,1.9-8.2,2.1-12.3,0.3C326.8,246.1,326.7,246,326.5,245.9L326.5,245.9z"/>
		<path class="st3" d="M273.8,236.7c13.4,6.1,27.5,9.2,41.3,9.6c3.8,0.1,7.6,0,11.3-0.3l0,0l0,0l0,0c-2.2-3.1-4.6-6-7.2-8.9
			c-9.3-10.3-20.8-18.9-34.2-25c-17.1-7.8-35.2-10.7-52.7-9.3C242.7,217,256.7,228.8,273.8,236.7L273.8,236.7z"/>
		<path class="st1" d="M242.4,207.5c1.3-2.9,4.7-4.1,7.6-2.8c2.9,1.3,4.1,4.7,2.8,7.5c-1.3,2.9-4.7,4.1-7.5,2.8
			S241.1,210.3,242.4,207.5L242.4,207.5z"/>
		<path d="M243.6,208c1-2.2,3.6-3.2,5.8-2.2s3.2,3.6,2.1,5.8c-1,2.2-3.6,3.2-5.8,2.1S242.6,210.2,243.6,208z"/>
	</g>
	<g>
		<path class="st3" d="M188.6,243.6L188.6,243.6L188.6,243.6c0.2,0.1,0.3,0.1,0.5,0.2c4.1,1.9,6.8,5.4,7.8,9.5
			c0.4,1.4,0.5,2.9,0.4,4.4c-0.1,1.6-0.5,3.2-1.2,4.8c-0.2-0.1-0.3-0.1-0.5-0.2c-6.9-3.2-10.1-11.3-7.1-18.3
			C188.6,243.8,188.6,243.7,188.6,243.6L188.6,243.6z"/>
		<path class="st3" d="M188.7,243.6L188.7,243.6c0.1-0.1,0.1-0.2,0.2-0.3c3.3-6.8,11.5-9.7,18.4-6.6c0.2,0.1,0.3,0.1,0.5,0.2
			c-0.7,1.5-1.6,2.9-2.8,4c-1.1,1.1-2.3,1.9-3.6,2.6c-3.7,1.9-8.2,2.1-12.3,0.3C189,243.7,188.8,243.6,188.7,243.6L188.7,243.6z"/>
		<path class="st3" d="M135.9,234.3c13.4,6.1,27.4,9.2,41.3,9.6c3.8,0.1,7.6,0,11.3-0.3l0,0c0,0,0,0,0.1,0l0,0
			c-2.2-3.1-4.6-6-7.2-8.9c-9.3-10.3-20.8-18.9-34.2-25c-17.1-7.8-35.2-10.7-52.7-9.3C104.8,214.6,118.8,226.4,135.9,234.3
			L135.9,234.3z"/>
		<path class="st1" d="M104.5,205.1c1.3-2.9,4.7-4.1,7.6-2.8s4.1,4.7,2.8,7.5c-1.3,2.9-4.7,4.1-7.5,2.8S103.2,207.9,104.5,205.1
			L104.5,205.1z"/>
		<path d="M105.7,205.6c1-2.2,3.6-3.2,5.8-2.2c2.2,1,3.2,3.6,2.2,5.8s-3.6,3.2-5.8,2.1S104.7,207.8,105.7,205.6z"/>
	</g>
	<g>
		<path class="st3" d="M190,165.1L190,165.1L190,165.1c-0.2,0-0.3-0.1-0.5-0.1c-4.3-1.1-7.7-4.1-9.3-7.9c-0.6-1.3-1-2.8-1.1-4.2
			c-0.2-1.6-0.1-3.3,0.4-4.9c0.2,0,0.4,0.1,0.5,0.1c7.4,1.9,11.9,9.4,10.1,16.8C190.1,164.9,190.1,165,190,165.1L190,165.1z"/>
		<path class="st3" d="M190,165.1L190,165.1c0,0.1-0.1,0.2-0.1,0.4c-2.1,7.3-9.6,11.6-17,9.7c-0.2,0-0.3-0.1-0.5-0.1
			c0.4-1.6,1.1-3.1,2-4.4c0.8-1.2,1.9-2.3,3.1-3.2c3.3-2.5,7.7-3.5,12-2.4C189.7,165,189.9,165.1,190,165.1z"/>
		<path class="st3" d="M243.6,165c-14.3-3.7-28.6-4.3-42.4-2.2c-3.8,0.6-7.4,1.3-11.1,2.3l0,0c0,0,0,0-0.1,0l0,0
			c2.7,2.6,5.6,5.1,8.7,7.5c11,8.5,23.8,14.9,38.1,18.6c18.2,4.7,36.5,4.4,53.5-0.1C277.7,178.9,261.8,169.7,243.6,165L243.6,165z"
			/>
		<path class="st1" d="M279.6,188.3c-0.8,3-3.9,4.9-6.9,4.1s-4.9-3.9-4.1-6.9s3.9-4.9,6.9-4.1C278.6,182.1,280.4,185.2,279.6,188.3
			L279.6,188.3z"/>
		<path d="M278.4,187.9c-0.6,2.3-3,3.7-5.3,3.1c-2.3-0.6-3.7-3-3.1-5.3s3-3.7,5.3-3.1S279,185.6,278.4,187.9L278.4,187.9z"/>
	</g>
	<g>
		<path class="st3" d="M155.1,187L155.1,187L155.1,187c-0.1-0.1-0.3-0.2-0.5-0.3c-4-2.1-8.5-2.1-12.2-0.4c-1.3,0.6-2.6,1.4-3.7,2.4
			c-1.2,1.1-2.2,2.4-3,3.9c0.1,0.1,0.3,0.2,0.5,0.3c6.8,3.6,15.1,1.1,18.8-5.6C155,187.2,155,187.1,155.1,187L155.1,187z"/>
		<path class="st3" d="M155.1,187L155.1,187c0.1-0.1,0.1-0.2,0.2-0.3c3.4-6.8,0.7-15.1-6-18.6c-0.1-0.1-0.3-0.2-0.5-0.2
			c-0.8,1.5-1.3,3.1-1.5,4.6s-0.2,3,0.1,4.4c0.8,4.1,3.3,7.8,7.3,9.9C154.8,186.9,154.9,186.9,155.1,187L155.1,187z"/>
		<path class="st3" d="M194.6,223.1c-13.1-6.9-24.1-16.1-32.8-26.9c-2.4-2.9-4.6-6-6.6-9.2l0,0c0,0,0,0,0-0.1l0,0
			c3.8-0.1,7.6,0,11.4,0.3c13.8,1.1,27.6,5,40.7,11.9c16.6,8.8,30,21.4,39.5,36.1C229.2,235.8,211.3,231.9,194.6,223.1L194.6,223.1z
			"/>
		<path class="st1" d="M236.9,230.2c1.5-2.8,0.4-6.2-2.4-7.7c-2.8-1.5-6.2-0.4-7.7,2.4s-0.4,6.2,2.4,7.7
			C232,234.1,235.5,233,236.9,230.2L236.9,230.2z"/>
		<path d="M235.8,229.6c1.1-2.1,0.3-4.8-1.8-5.9s-4.8-0.3-5.9,1.8s-0.3,4.8,1.8,5.9C232,232.6,234.6,231.7,235.8,229.6L235.8,229.6z
			"/>
	</g>
	<g>
		<path class="st3" d="M74.9,172.8L74.9,172.8L74.9,172.8c-0.2,0-0.3,0.1-0.5,0.1c-4.3,1.3-7.5,4.5-8.9,8.4
			c-0.5,1.4-0.8,2.8-0.9,4.3c-0.1,1.6,0.1,3.3,0.6,4.9c0.2-0.1,0.3-0.1,0.5-0.1c7.3-2.3,11.4-9.9,9.3-17.2
			C75,173,75,172.9,74.9,172.8L74.9,172.8z"/>
		<path class="st3" d="M74.9,172.8L74.9,172.8c0-0.1-0.1-0.2-0.1-0.4c-2.4-7.2-10.2-11.1-17.4-8.9c-0.2,0.1-0.3,0.1-0.5,0.2
			c0.5,1.6,1.3,3.1,2.2,4.3s2,2.2,3.2,3.1c3.4,2.4,7.8,3.2,12.1,1.9C74.6,172.9,74.8,172.8,74.9,172.8L74.9,172.8z"/>
		<path class="st3" d="M128.4,170.3c-14.1,4.4-28.4,5.6-42.2,4.2c-3.8-0.4-7.5-1-11.2-1.8l0,0c0,0,0,0-0.1,0l0,0
			c2.6-2.8,5.4-5.4,8.3-7.9c10.6-9,23.1-16,37.2-20.4c18-5.6,36.3-6.1,53.5-2.4C161.8,154.9,146.4,164.8,128.4,170.3L128.4,170.3z"
			/>
		<path class="st1" d="M163.3,145.4c-0.9-3-4.1-4.7-7.1-3.8s-4.7,4.1-3.8,7.1s4.1,4.7,7.1,3.8S164.3,148.4,163.3,145.4L163.3,145.4z
			"/>
		<path d="M162.1,145.8c-0.7-2.3-3.2-3.6-5.5-2.9s-3.6,3.2-2.9,5.5c0.7,2.3,3.2,3.6,5.5,2.9C161.5,150.6,162.8,148.1,162.1,145.8
			L162.1,145.8z"/>
	</g>
	<g>
		<path class="st3" d="M368.7,188.8L368.7,188.8L368.7,188.8c0.2,0,0.3,0.1,0.5,0.1c4.3,1.1,7.7,4.2,9.3,8c0.6,1.3,1,2.8,1.1,4.2
			c0.2,1.6,0,3.3-0.4,4.9c-0.2,0-0.4-0.1-0.5-0.1c-7.4-1.9-11.9-9.4-10.1-16.8C368.6,189.1,368.6,188.9,368.7,188.8L368.7,188.8z"/>
		<path class="st3" d="M368.7,188.8L368.7,188.8c0-0.1,0.1-0.2,0.1-0.4c2.1-7.3,9.6-11.6,17-9.7c0.2,0,0.3,0.1,0.5,0.1
			c-0.4,1.6-1.1,3.1-2,4.4c-0.9,1.2-1.9,2.3-3.1,3.2c-3.3,2.5-7.7,3.5-12,2.4C369,188.9,368.9,188.9,368.7,188.8L368.7,188.8z"/>
		<path class="st3" d="M315.1,188.8c14.3,3.7,28.6,4.4,42.4,2.3c3.8-0.6,7.5-1.3,11.1-2.3l0,0l0,0l0,0c-2.7-2.6-5.6-5.1-8.6-7.5
			c-11-8.5-23.8-14.9-38-18.7c-18.2-4.8-36.5-4.5-53.5,0C281.1,174.8,296.9,184.1,315.1,188.8L315.1,188.8z"/>
		<path class="st1" d="M279.1,165.5c0.8-3,3.9-4.9,7-4.1c3,0.8,4.9,3.9,4.1,6.9s-3.9,4.9-6.9,4.1S278.3,168.5,279.1,165.5
			L279.1,165.5z"/>
		<path d="M280.4,165.8c0.6-2.3,3-3.7,5.3-3.1s3.7,3,3.1,5.3s-3,3.7-5.3,3.1C281.2,170.6,279.8,168.2,280.4,165.8L280.4,165.8z"/>
	</g>
	<g>
		<path class="st4" d="M437,231.2c-46.2,29.9-111,48.5-182.9,48.5s-136.6-18.6-182.9-48.5L437,231.2L437,231.2z"/>
		<path class="st4" d="M254.1,280.2c-69.7,0-134.7-17.2-183.1-48.6l-1.4-0.9h369.1l-1.4,0.9C388.9,263,323.8,280.2,254.1,280.2
			L254.1,280.2z M73,231.7c48.1,30.6,112.3,47.5,181.2,47.5s133.1-16.9,181.1-47.5C435.3,231.7,73,231.7,73,231.7z"/>
	</g>
</g>
<g id="k">
</g>
</svg>
