<?xml version="1.0" encoding="UTF-8"?><svg xmlns="http://www.w3.org/2000/svg" viewBox="0 0 1920 1080"><defs><style>.c{fill:#fff;}.d{fill:#fbd213;}</style></defs><g id="a"/><g id="b"><path class="c" d="M165.6,350.17c-1.89-5.9-5.29-11.12-9.73-15.23,.72,1.35,1.41,3,2.01,4.82,.35,1.03,.69,2.23,1.03,3.43,.17,.34,.17,.69,.35,1.2,.17,.51,.17,1.03,.34,1.54,.17,.52,.17,1.03,.34,1.54,.17,1.03,.34,2.23,.52,3.26,.17,1.03,.17,2.23,.34,3.43-.52,.51-.52,1.37-.52,2.06v1.02c-.34,5.83-2.4,13.2-5.65,13.72-1.03,.17-2.23-.35-3.43-1.37h.17c.52-.52,1.03-1.03,1.54-1.55,2.06-2.57,3.26-6,3.43-9.08v-.69c-.17-4.28-2.57-8.22-4.8-10.11-1.2-1.03-2.23-1.37-3.25-1.2-2.4,.34-3.95,4.63-4.12,8.91v1.55c0,.85,.17,1.71,.35,2.57,.68,3.43,2.39,7.2,4.62,9.6-1.54,1.02-3.25,1.71-5.14,1.88-2.91,.34-5.48-.51-7.37-2.06,1.2-1.29,2.14-2.87,2.83-4.48,.68-1.6,1.11-3.23,1.28-4.6,0-.34,.18-.69,.18-1.2v-1.71c-.18-3.77-1.55-7.37-3.09-9.26-.86-.86-1.71-1.37-2.57-1.37-1.03,0-1.89,.68-2.91,1.71-1.55,1.89-2.92,5.32-2.92,8.74v1.38c0,.85,.17,1.71,.34,2.57,.69,3.08,2.58,6,4.98,8.22v.18c-1.38,1.2-2.92,1.71-4.8,1.88-2.06,.17-3.95-.34-5.49-1.37,.94-1.2,1.63-2.7,2.1-4.35,.47-1.65,.72-3.45,.81-5.25v-3.26c0-.68,0-1.37-.17-2.05-.17-1.54-.85-6.69-3.08-7.2-.86-.17-1.72,.17-2.74,1.03-2.23,1.88-4.12,5.65-4.29,9.6v2.05c.34,3.6,2.4,7.37,5.49,9.6l-.18,.17c-.34,.35-.68,.52-1.02,.52-2.58,1.2-6.17,.34-8.4-1.37-3.6-2.58-6.69-10.63-7.03-19.72v-3.42c.17-4.09,.85-8.33,2.37-12.08-1,.87-1.94,1.8-2.84,2.78-3.74,12.94-.31,29.24,5.95,33.81,1.72,1.2,4.12,2.23,6.52,2.23,1.03,0,2.23-.18,3.25-.69,.69-.34,1.2-.69,1.72-1.2,1.88,1.2,4.28,1.89,6.68,1.71,2.4-.17,4.29-1.2,5.83-2.57,2.4,1.72,5.31,2.75,8.57,2.4,2.23-.17,4.29-1.03,6-2.23,1.54,1.38,3.09,2.06,4.63,1.72,4.63-.69,6.68-10.11,6.85-15.94,.18-7.54-1.71-14.91-3.94-19.71,3.66,3.87,6.42,8.46,8.06,13.49Zm-47.65,10.5c-.52-4.45,2.05-8.91,3.94-10.62,.69-.52,1.2-.86,1.37-.86h.17c.52,.17,1.72,1.88,2.23,6.17,.34,5.31-.34,11.14-2.74,14.23-2.74-2.06-4.63-5.49-4.97-8.92Zm17.48,8.06c-2.4-2.06-4.11-4.97-4.63-7.54-1.03-4.29,.52-9.26,2.4-11.49,.69-.85,1.37-1.37,1.89-1.37s1.03,.34,1.54,1.03c0,.17,.17,.17,.34,.34,.52,.69,1.03,1.72,1.55,2.92,.17,.34,.17,.68,.34,1.03,0,.17,.17,.34,.17,.51s.17,.34,.17,.68c.17,1.72,.34,3.6,0,5.49-.34,2.23-1.2,5.14-2.91,7.54-.17,.34-.52,.69-.86,.86Zm14.91,0c-2.05-2.06-3.77-5.49-4.45-9.09,0-.51-.18-1.02-.18-1.54v-2.06c.18-4.11,1.55-7.71,2.92-7.88h.17c.51,0,1.2,.34,1.89,.86,.51,.51,1.02,1.2,1.54,1.88,.17,.35,.51,.69,.68,1.2,.52,.86,.86,1.72,1.2,2.57,.52,1.37,.86,2.75,.86,4.29,0,.68,0,1.37-.17,2.06-.51,2.91-2.06,5.82-4.46,7.71Z"/><path class="c" d="M125.66,355.36c.34,5.31-.34,11.14-2.74,14.23-2.74-2.06-4.63-5.49-4.97-8.92-.52-4.45,2.05-8.91,3.94-10.62,.69-.52,1.2-.86,1.37-.86h.17c.52,.17,1.72,1.88,2.23,6.17Z"/><path class="c" d="M139.2,360.33c-.34,2.23-1.2,5.14-2.91,7.54-.17,.34-.52,.69-.86,.86-2.4-2.06-4.11-4.97-4.63-7.54-1.03-4.29,.52-9.26,2.4-11.49,.69-.85,1.37-1.37,1.89-1.37s1.03,.34,1.54,1.03c0,.17,.17,.17,.34,.34,.52,.69,1.03,1.72,1.55,2.92,.17,.34,.17,.68,.34,1.03,0,.17,.17,.34,.17,.51s.17,.34,.17,.68c.17,1.72,.34,3.6,0,5.49Z"/><path class="c" d="M154.8,361.02c-.51,2.91-2.06,5.82-4.46,7.71-2.05-2.06-3.77-5.49-4.45-9.09,0-.51-.18-1.02-.18-1.54v-2.06c.18-4.11,1.55-7.71,2.92-7.88h.17c.51,0,1.2,.34,1.89,.86,.51,.51,1.02,1.2,1.54,1.88,.17,.35,.51,.69,.68,1.2,.52,.86,.86,1.72,1.2,2.57,.52,1.37,.86,2.75,.86,4.29,0,.68,0,1.37-.17,2.06Z"/><path class="c" d="M105.95,349.87v-3.42c.17-4.09,.85-8.33,2.37-12.08,6.26-5.5,14.47-8.84,23.45-8.84s17.77,3.57,24.1,9.41c.72,1.35,1.41,3,2.01,4.82,.35,1.03,.69,2.23,1.03,3.43,.17,.34,.17,.69,.35,1.2,.17,.51,.17,1.03,.34,1.54,.17,.52,.17,1.03,.34,1.54,.17,1.03,.34,2.23,.52,3.26,.17,1.03,.17,2.23,.34,3.43-.52,.51-.52,1.37-.52,2.06v1.02c-.34,5.83-2.4,13.2-5.65,13.72-1.03,.17-2.23-.35-3.43-1.37h.17c.52-.52,1.03-1.03,1.54-1.55,2.06-2.57,3.26-6,3.43-9.08v-.69c-.17-4.28-2.57-8.22-4.8-10.11-1.2-1.03-2.23-1.37-3.25-1.2-2.4,.34-3.95,4.63-4.12,8.91v1.55c0,.85,.17,1.71,.35,2.57,.68,3.43,2.39,7.2,4.62,9.6-1.54,1.02-3.25,1.71-5.14,1.88-2.91,.34-5.48-.51-7.37-2.06,1.2-1.29,2.14-2.87,2.83-4.48,.68-1.6,1.11-3.23,1.28-4.6,0-.34,.18-.69,.18-1.2v-1.71c-.18-3.77-1.55-7.37-3.09-9.26-.86-.86-1.71-1.37-2.57-1.37-1.03,0-1.89,.68-2.91,1.71-1.55,1.89-2.92,5.32-2.92,8.74v1.38c0,.85,.17,1.71,.34,2.57,.69,3.08,2.58,6,4.98,8.22v.18c-1.38,1.2-2.92,1.71-4.8,1.88-2.06,.17-3.95-.34-5.49-1.37,.94-1.2,1.63-2.7,2.1-4.35,.47-1.65,.72-3.45,.81-5.25v-3.26c0-.68,0-1.37-.17-2.05-.17-1.54-.85-6.69-3.08-7.2-.86-.17-1.72,.17-2.74,1.03-2.23,1.88-4.12,5.65-4.29,9.6v2.05c.34,3.6,2.4,7.37,5.49,9.6l-.18,.17c-.34,.35-.68,.52-1.02,.52-2.58,1.2-6.17,.34-8.4-1.37-3.6-2.58-6.69-10.63-7.03-19.72Z"/><g><path class="d" d="M122.92,369.59c-2.74-2.06-4.63-5.49-4.97-8.92-.52-4.45,2.05-8.91,3.94-10.62,.69-.52,1.2-.86,1.37-.86h.17c.52,.17,1.72,1.88,2.23,6.17,.34,5.31-.34,11.14-2.74,14.23Z"/><path class="d" d="M139.2,360.33c-.34,2.23-1.2,5.14-2.91,7.54-.17,.34-.52,.69-.86,.86-2.4-2.06-4.11-4.97-4.63-7.54-1.03-4.29,.52-9.26,2.4-11.49,.69-.85,1.37-1.37,1.89-1.37s1.03,.34,1.54,1.03c0,.17,.17,.17,.34,.34,.52,.69,1.03,1.72,1.55,2.92,.17,.34,.17,.68,.34,1.03,0,.17,.17,.34,.17,.51s.17,.34,.17,.68c.17,1.72,.34,3.6,0,5.49Z"/><path class="d" d="M154.97,358.96c0,.68,0,1.37-.17,2.06-.51,2.91-2.06,5.82-4.46,7.71-2.05-2.06-3.77-5.49-4.45-9.09,0-.51-.18-1.02-.18-1.54v-2.06c.18-4.11,1.55-7.71,2.92-7.88h.17c.51,0,1.2,.34,1.89,.86,.51,.51,1.02,1.2,1.54,1.88,.17,.35,.51,.69,.68,1.2,.52,.86,.86,1.72,1.2,2.57,.52,1.37,.86,2.75,.86,4.29Z"/><path class="d" d="M160.8,354.16c-.52,.51-.52,1.37-.52,2.06v1.02c-.34,5.83-2.4,13.2-5.65,13.72-1.03,.17-2.23-.35-3.43-1.37h.17c.52-.52,1.03-1.03,1.54-1.55,2.06-2.57,3.26-6,3.43-9.08v-.69c-.17-4.28-2.57-8.22-4.8-10.11-1.2-1.03-2.23-1.37-3.25-1.2-2.4,.34-3.95,4.63-4.12,8.91v1.55c0,.85,.17,1.71,.35,2.57,.68,3.43,2.39,7.2,4.62,9.6-1.54,1.02-3.25,1.71-5.14,1.88-2.91,.34-5.48-.51-7.37-2.06,1.2-1.29,2.14-2.87,2.83-4.48,.68-1.6,1.11-3.23,1.28-4.6,0-.34,.18-.69,.18-1.2v-1.71c-.18-3.77-1.55-7.37-3.09-9.26-.86-.86-1.71-1.37-2.57-1.37-1.03,0-1.89,.68-2.91,1.71-1.55,1.89-2.92,5.32-2.92,8.74v1.38c0,.85,.17,1.71,.34,2.57,.69,3.08,2.58,6,4.98,8.22v.18c-1.38,1.2-2.92,1.71-4.8,1.88-2.06,.17-3.95-.34-5.49-1.37,.94-1.2,1.63-2.7,2.1-4.35,.47-1.65,.72-3.45,.81-5.25v-3.26c0-.68,0-1.37-.17-2.05-.17-1.54-.85-6.69-3.08-7.2-.86-.17-1.72,.17-2.74,1.03-2.23,1.88-4.12,5.65-4.29,9.6v2.05c.34,3.6,2.4,7.37,5.49,9.6l-.18,.17c-.34,.35-.68,.52-1.02,.52-2.58,1.2-6.17,.34-8.4-1.37-3.6-2.58-6.69-10.63-7.03-19.72v-3.42c.17-4.09,.85-8.33,2.37-12.08l.03-.09c3.94-3.6,8.91-6.35,14.4-7.89,3.08-.86,6.34-1.37,9.42-1.37s6.35,.51,9.43,1.37c4.97,1.37,9.6,3.77,13.37,7.03,.3,.45,.6,.96,.9,1.52,.72,1.35,1.41,3,2.01,4.82,.35,1.03,.69,2.23,1.03,3.43,.17,.34,.17,.69,.35,1.2,.17,.51,.17,1.03,.34,1.54,.17,.52,.17,1.03,.34,1.54,.17,1.03,.34,2.23,.52,3.26,.17,1.03,.17,2.23,.34,3.43Z"/></g><path class="d" d="M167.31,361.02v.05c0,.35-.01,.69-.02,1.03-.01,.45-.03,.89-.06,1.32l-.06,.81c-.16,1.75-.46,3.47-.89,5.18-.07,.35-.14,.7-.22,1.04-.03,.11-.07,.23-.1,.35-.05,.18-.11,.37-.17,.56-.06,.16-.12,.31-.19,.45-.17,.35-.17,.69-.34,1.03-.35,1.2-.86,2.23-1.38,3.26-.17,.34-.34,.68-.51,.86-.17,.34-.34,.68-.51,1.02-6,10.97-17.66,18.52-31.2,18.52-2.57,0-4.96-.35-7.36-.69h-.01s-.03-.01-.04-.01c-.43-.09-.85-.19-1.27-.3-.03-.01-.06-.02-.09-.02-.4-.11-.81-.22-1.21-.34-.43-.13-.86-.26-1.28-.41-.42-.14-.85-.29-1.26-.45-.68-.25-1.34-.53-1.99-.82-4.24-1.88-8.08-4.53-11.2-7.76-2.23-2.23-3.94-4.8-5.49-7.54-.17-.35-.34-.69-.51-1.03-.17-.35-.34-.69-.51-.86-2.23-4.63-3.43-9.77-3.43-15.25,0-9.26,3.6-17.83,9.6-24.34-.05,.15-.09,.31-.13,.47-3.74,12.94-.31,29.24,5.95,33.81,1.72,1.2,4.12,2.23,6.52,2.23,1.03,0,2.23-.18,3.25-.69,.69-.34,1.2-.69,1.72-1.2,1.88,1.2,4.28,1.89,6.68,1.71,2.4-.17,4.29-1.2,5.83-2.57,2.4,1.72,5.31,2.75,8.57,2.4,2.23-.17,4.29-1.03,6-2.23,1.54,1.38,3.09,2.06,4.63,1.72,4.63-.69,6.68-10.11,6.85-15.94,.18-7.54-1.71-14.91-3.94-19.71,3.66,3.87,6.42,8.46,8.06,13.49,.08,.26,.16,.52,.25,.79,.45,1.53,.81,3.1,1.05,4.7,.05,.29,.09,.59,.12,.88,.03,.2,.05,.4,.07,.6,.05,.43,.09,.86,.13,1.29,.04,.57,.07,1.15,.08,1.72,.01,.29,.01,.58,.01,.87Z"/></g></svg>